<svg width="494" height="100" viewBox="0 0 494 100" fill="none" xmlns="http://www.w3.org/2000/svg">
<path d="M102.998 59.5H103.058L94.7785 23.44C94.1185 20.6 92.2485 18.25 89.6185 17L56.1585 0.94C54.9085 0.35 53.4985 0 52.1285 0C50.7585 0 49.3485 0.34 48.0385 0.94L14.4385 17C11.7785 18.25 9.93848 20.59 9.27848 23.44L0.968482 59.5C0.308482 62.34 0.968482 65.28 2.80848 67.59L26.0285 96.47C27.8085 98.72 30.5285 100 33.3685 100H70.5885C73.4285 100 76.1485 98.75 77.9285 96.47L101.148 67.59C102.988 65.34 103.678 62.34 102.988 59.5H102.998ZM44.5985 27.76H47.3185C48.1185 27.76 48.7785 27.11 48.7785 26.3V13.43C48.7785 12.63 49.4285 11.97 50.2385 11.97H53.7285C54.5285 11.97 55.1885 12.62 55.1885 13.43V26.31C55.1885 27.11 55.8385 27.77 56.6485 27.77H59.3785C60.4985 27.77 61.1985 28.98 60.6385 29.95L53.2585 42.74C52.6985 43.71 51.2985 43.71 50.7385 42.74L43.3585 29.95C42.7985 28.98 43.4985 27.77 44.6185 27.77L44.5985 27.76ZM29.9685 54.58C29.1685 54.58 28.5085 55.23 28.5085 56.04V58.77C28.5085 59.89 27.2985 60.59 26.3285 60.03L13.5385 52.65C12.5685 52.09 12.5685 50.69 13.5385 50.13L26.3285 42.75C27.2985 42.19 28.5085 42.89 28.5085 44.01V46.73C28.5085 47.53 29.1585 48.19 29.9685 48.19H42.8485C43.6485 48.19 44.3085 48.84 44.3085 49.65V53.14C44.3085 53.94 43.6585 54.6 42.8485 54.6H29.9685V54.58ZM59.3685 75.01H56.6485C55.8485 75.01 55.1885 75.66 55.1885 76.47V89.35C55.1885 90.15 54.5385 90.81 53.7285 90.81H50.2385C49.4385 90.81 48.7785 90.16 48.7785 89.35V76.47C48.7785 75.67 48.1285 75.01 47.3185 75.01H44.5885C43.4685 75.01 42.7685 73.8 43.3285 72.83L50.7085 60.04C51.2685 59.07 52.6685 59.07 53.2285 60.04L60.6085 72.83C61.1685 73.8 60.4685 75.01 59.3485 75.01H59.3685ZM90.4285 52.65L77.6385 60.03C76.6685 60.59 75.4585 59.89 75.4585 58.77V56.05C75.4585 55.25 74.8085 54.59 73.9985 54.59H61.1185C60.3185 54.59 59.6585 53.94 59.6585 53.13V49.64C59.6585 48.84 60.3085 48.18 61.1185 48.18H73.9985C74.7985 48.18 75.4585 47.53 75.4585 46.72V43.99C75.4585 42.87 76.6685 42.17 77.6385 42.73L90.4285 50.11C91.3985 50.67 91.3985 52.07 90.4285 52.63V52.65Z" fill="#121212"/>
<g clip-path="url(#clip0_14145_57)">
<path d="M144.299 50.421C145.608 49.0416 146.917 47.5895 148.299 46.0649C149.681 44.5403 150.99 43.0882 152.3 41.6362C153.609 40.1842 154.773 38.7321 155.936 37.4253C157.1 36.1185 158.046 34.9569 158.846 33.9404H174.338C171.283 37.4979 168.228 40.8376 165.319 44.0321C162.41 47.2265 159.137 50.5662 155.645 53.9785C157.391 55.5757 159.209 57.3907 161.028 59.6414C162.846 61.892 164.664 64.0701 166.41 66.3933C168.156 68.7166 169.756 71.0398 171.211 73.3631C172.665 75.6863 173.902 77.7918 174.847 79.752H159.864C158.918 78.2274 157.9 76.5576 156.664 74.7425C155.5 72.9275 154.191 71.0398 152.881 69.2248C151.572 67.4098 150.118 65.5947 148.663 63.9249C147.208 62.2551 145.681 60.803 144.299 59.6414V79.752H131.279V14.2654L144.299 12.16V50.421Z" fill="#121212"/>
<path d="M215.361 74.0165C215.361 81.4945 213.47 87.0848 209.615 90.7149C205.76 94.3449 199.942 96.16 191.941 96.16C189.177 96.16 186.34 95.9422 183.576 95.434C180.813 94.9257 178.194 94.2723 175.794 93.4737L178.049 82.5835C180.085 83.3821 182.194 84.0355 184.449 84.4711C186.704 84.9067 189.25 85.1971 192.086 85.1971C195.796 85.1971 198.414 84.3985 200.014 82.7287C201.542 81.1315 202.342 79.026 202.342 76.4849V74.8151C200.96 75.4685 199.505 75.9041 198.051 76.2671C196.596 76.5575 194.923 76.7754 193.177 76.7754C186.849 76.7754 181.976 74.8877 178.63 71.185C175.285 67.4098 173.539 62.1824 173.539 55.4305C173.539 52.0908 174.048 48.969 175.139 46.2101C176.23 43.4512 177.685 41.0554 179.722 39.0951C181.758 37.1349 184.158 35.6103 187.068 34.5212C189.977 33.4322 193.25 32.924 196.96 32.924C198.56 32.924 200.16 32.924 201.833 33.1418C203.506 33.287 205.106 33.5048 206.779 33.7226C208.379 33.9404 209.979 34.2308 211.434 34.5212C212.888 34.8117 214.27 35.1747 215.434 35.5377V74.0165H215.361ZM186.777 55.3579C186.777 62.618 189.686 66.2481 195.578 66.2481C196.887 66.2481 198.196 66.1029 199.36 65.7399C200.524 65.3769 201.542 65.0139 202.342 64.5057V43.7416C201.687 43.5964 200.96 43.5238 200.087 43.4512C199.214 43.3786 198.196 43.306 197.032 43.306C193.614 43.306 191.068 44.4677 189.322 46.7183C187.65 48.969 186.777 51.873 186.777 55.3579Z" fill="#121212"/>
<path d="M240.163 32.7062C244.018 32.7062 247.219 33.1418 249.764 34.0131C252.31 34.8843 254.347 36.1185 255.947 37.7883C257.474 39.3856 258.565 41.4184 259.22 43.7417C259.874 46.0649 260.165 48.6786 260.165 51.51V78.5178C258.274 78.9534 255.728 79.389 252.383 79.9699C249.037 80.5507 245.036 80.7685 240.309 80.7685C237.327 80.7685 234.635 80.4781 232.235 79.9699C229.835 79.4616 227.726 78.5904 225.98 77.4288C224.234 76.2672 222.925 74.6699 221.98 72.7823C221.034 70.8947 220.598 68.4988 220.598 65.7399C220.598 62.9811 221.107 60.803 222.198 58.9154C223.289 57.0278 224.744 55.5757 226.489 54.4867C228.308 53.3977 230.344 52.5991 232.672 52.0909C234.999 51.5826 237.399 51.3648 239.945 51.3648C241.618 51.3648 243.145 51.3648 244.455 51.5826C245.764 51.7278 246.855 51.9457 247.655 52.1635V50.9292C247.655 48.7512 247 46.9361 245.618 45.6293C244.309 44.3225 241.982 43.5965 238.636 43.5965C236.454 43.5965 234.272 43.7417 232.09 44.1047C229.908 44.4677 228.089 44.9033 226.489 45.4841L224.816 35.0295C225.544 34.8117 226.489 34.5213 227.653 34.3035C228.817 34.0131 230.053 33.7953 231.362 33.5775C232.672 33.3597 234.126 33.2145 235.581 33.0692C237.036 32.924 238.563 32.8514 240.091 32.8514L240.163 32.7062ZM241.182 70.6769C242.491 70.6769 243.655 70.6769 244.818 70.6043C245.982 70.5317 246.928 70.459 247.582 70.3138V60.44C247.073 60.2948 246.273 60.2222 245.255 60.077C244.236 59.9318 243.218 59.9318 242.345 59.9318C241.109 59.9318 239.945 59.9318 238.927 60.1496C237.836 60.2948 236.89 60.5852 236.09 60.9482C235.29 61.3839 234.635 61.8921 234.199 62.6181C233.763 63.3441 233.472 64.2153 233.472 65.2317C233.472 67.2646 234.126 68.644 235.508 69.4426C236.89 70.2412 238.781 70.6043 241.109 70.6043L241.182 70.6769Z" fill="#121212"/>
<path d="M265.619 22.542L278.639 20.4365V33.9404H294.277V44.758H278.639V60.8756C278.639 63.6345 279.148 65.8125 280.093 67.4097C281.039 69.007 283.003 69.8782 285.912 69.8782C287.294 69.8782 288.749 69.733 290.203 69.5152C291.658 69.2248 293.04 68.8618 294.277 68.4262L296.095 78.5178C294.495 79.1712 292.749 79.6794 290.858 80.1876C288.967 80.6232 286.567 80.9136 283.803 80.9136C280.239 80.9136 277.329 80.4054 275.002 79.4616C272.674 78.5178 270.783 77.1383 269.401 75.4685C268.019 73.7261 267.001 71.6932 266.492 69.2248C265.91 66.7563 265.692 64.0701 265.692 61.0934V22.542H265.619Z" fill="#121212"/>
<path d="M296.096 57.1729C296.096 53.1072 296.75 49.5498 297.987 46.5005C299.223 43.4512 300.896 40.9102 302.933 38.8773C304.969 36.8445 307.297 35.3199 309.988 34.2308C312.606 33.2144 315.37 32.6336 318.134 32.6336C324.68 32.6336 329.772 34.5938 333.554 38.5869C337.336 42.58 339.227 48.3881 339.227 56.1565C339.227 56.8825 339.227 57.7537 339.155 58.625C339.155 59.4962 339.009 60.2948 339.009 61.0208H309.479C309.77 63.7071 311.006 65.8125 313.261 67.4098C315.443 69.007 318.425 69.733 322.135 69.733C324.535 69.733 326.862 69.5152 329.19 69.0796C331.517 68.644 333.336 68.1358 334.79 67.4824L336.536 78.0096C335.809 78.3726 334.936 78.7356 333.772 79.026C332.608 79.3164 331.299 79.6794 329.917 79.9698C328.463 80.2602 326.935 80.478 325.335 80.6232C323.735 80.7684 322.062 80.9136 320.462 80.9136C316.316 80.9136 312.752 80.3328 309.697 79.0986C306.642 77.8644 304.097 76.1945 302.133 74.0891C300.096 71.9837 298.641 69.4426 297.696 66.5385C296.75 63.6345 296.241 60.5126 296.241 57.1003L296.096 57.1729ZM326.644 52.236C326.644 51.147 326.426 50.058 326.062 49.0416C325.771 48.0251 325.262 47.0813 324.608 46.2827C323.953 45.4841 323.08 44.8307 322.062 44.2499C321.044 43.7416 319.807 43.4512 318.28 43.4512C316.752 43.4512 315.589 43.669 314.498 44.1773C313.479 44.6855 312.606 45.3389 311.879 46.1375C311.152 46.9361 310.643 47.8799 310.279 48.969C309.915 50.058 309.624 51.147 309.479 52.236H326.644Z" fill="#121212"/>
<path d="M372.394 53.4702C371.23 57.8989 369.993 62.255 368.684 66.6111C367.375 70.9672 365.993 75.3233 364.538 79.752H354.428C353.41 77.2836 352.246 74.3795 351.01 71.0398C349.773 67.7001 348.537 63.9975 347.227 60.0044C345.918 56.0113 344.536 51.8004 343.227 47.3717C341.918 42.943 340.536 38.4417 339.227 33.9404H352.901C353.337 36.0459 353.846 38.2965 354.428 40.765C355.01 43.2334 355.592 45.7745 356.174 48.3881C356.756 51.0018 357.41 53.6155 358.138 56.3017C358.792 58.9154 359.52 61.4564 360.174 63.9249C360.901 61.3838 361.702 58.7702 362.429 56.0839C363.156 53.3976 363.884 50.784 364.538 48.1703C365.193 45.5567 365.847 43.0882 366.429 40.6924C367.011 38.2965 367.593 36.0459 368.029 33.9404H377.485C377.921 36.0459 378.503 38.2965 379.085 40.6924C379.667 43.0882 380.249 45.6293 380.903 48.1703C381.558 50.784 382.213 53.3976 382.94 56.0839C383.667 58.7702 384.395 61.3838 385.122 63.9249C385.849 61.4564 386.504 58.9154 387.231 56.3017C387.959 53.6881 388.613 51.0018 389.195 48.3881C389.777 45.7745 390.432 43.2334 390.941 40.765C391.523 38.2965 392.032 36.0459 392.468 33.9404H405.997C404.688 38.4417 403.378 42.943 401.997 47.3717C400.615 51.8004 399.305 56.0113 397.996 60.0044C396.687 63.9975 395.378 67.6275 394.141 71.0398C392.905 74.3795 391.741 77.2836 390.65 79.752H380.54C379.085 75.3233 377.63 70.9672 376.248 66.6111C374.867 62.255 373.557 57.8989 372.394 53.4702Z" fill="#121212"/>
<path d="M425.491 32.7062C429.346 32.7062 432.547 33.1418 435.092 34.0131C437.638 34.8843 439.675 36.1185 441.275 37.7883C442.802 39.3856 443.893 41.4184 444.548 43.7417C445.202 46.0649 445.493 48.6786 445.493 51.51V78.5178C443.602 78.9534 441.057 79.389 437.711 79.9699C434.365 80.5507 430.365 80.7685 425.637 80.7685C422.655 80.7685 419.964 80.4781 417.563 79.9699C415.163 79.4616 413.054 78.5904 411.308 77.4288C409.563 76.2672 408.253 74.6699 407.308 72.7823C406.362 70.8947 405.926 68.4988 405.926 65.7399C405.926 62.9811 406.435 60.803 407.526 58.9154C408.617 57.0278 410.072 55.5757 411.817 54.4867C413.636 53.3977 415.672 52.5991 418 52.0909C420.327 51.5826 422.727 51.3648 425.273 51.3648C426.946 51.3648 428.474 51.3648 429.783 51.5826C431.092 51.7278 432.183 51.9457 432.983 52.1635V50.9292C432.983 48.7512 432.328 46.9361 430.946 45.6293C429.637 44.3225 427.31 43.5965 423.964 43.5965C421.782 43.5965 419.6 43.7417 417.418 44.1047C415.236 44.4677 413.417 44.9033 411.817 45.4841L410.144 35.0295C410.872 34.8117 411.817 34.5213 412.981 34.3035C414.145 34.0131 415.381 33.7953 416.691 33.5775C418 33.3597 419.454 33.2145 420.909 33.0692C422.364 32.924 423.891 32.8514 425.419 32.8514L425.491 32.7062ZM426.582 70.6769C427.892 70.6769 429.055 70.6769 430.219 70.6043C431.383 70.5317 432.328 70.459 432.983 70.3138V60.44C432.474 60.2948 431.674 60.2222 430.656 60.077C429.637 59.9318 428.619 59.9318 427.746 59.9318C426.51 59.9318 425.346 59.9318 424.328 60.1496C423.237 60.2948 422.291 60.5852 421.491 60.9482C420.691 61.3839 420.036 61.8921 419.6 62.6181C419.163 63.3441 418.873 64.2153 418.873 65.2317C418.873 67.2646 419.527 68.644 420.909 69.4426C422.291 70.2412 424.182 70.6043 426.51 70.6043L426.582 70.6769Z" fill="#121212"/>
<path d="M493.28 33.9404C490.662 42.7978 487.898 51.0744 485.061 58.7702C482.224 66.4659 479.097 74.0165 475.678 81.2766C474.442 83.8903 473.205 86.1409 472.042 87.956C470.805 89.771 469.496 91.2957 468.041 92.4573C466.587 93.6189 464.914 94.4901 463.095 95.0709C461.277 95.6518 459.095 95.8696 456.695 95.8696C454.658 95.8696 452.767 95.6518 451.021 95.2887C449.276 94.9257 447.894 94.4901 446.803 94.0545L449.057 83.6725C450.367 84.1081 451.603 84.4711 452.621 84.6163C453.64 84.7615 454.804 84.9067 455.967 84.9067C458.295 84.9067 460.113 84.2533 461.35 83.0191C462.586 81.7849 463.677 80.0424 464.55 77.8644C461.568 72.0562 458.586 65.5221 455.676 58.3346C452.767 51.147 449.93 43.0156 447.312 34.013H461.131C461.713 36.2637 462.368 38.7321 463.168 41.3458C463.968 43.9594 464.768 46.6457 465.641 49.332C466.514 52.0182 467.387 54.6319 468.332 57.2455C469.205 59.7866 470.078 62.1098 470.951 64.2153C471.678 62.1098 472.478 59.7866 473.351 57.2455C474.151 54.7045 474.951 52.0908 475.751 49.332C476.551 46.5731 477.279 43.9594 478.006 41.3458C478.733 38.7321 479.388 36.2637 479.97 34.013H493.426L493.28 33.9404Z" fill="#121212"/>
</g>
<defs>
<clipPath id="clip0_14145_57">
<rect width="362" height="84" fill="#121212" transform="translate(131.279 12.16)"/>
</clipPath>
</defs>
</svg>
