<svg xmlns="http://www.w3.org/2000/svg" viewBox="0 0 24 24">
  <defs>
    <style>
      .adminGearHover1 {
        opacity: 0;
      }

      .adminGearHover2 {
        fill: #6ac7f0;
      }

      .adminGearHover3 {
        fill: #fff;
      }
    </style>
  </defs>
  <g id="admin_settings_hover" data-name="admin/settings hover" transform="translate(4111 975)">
    <rect id="Rectangle_8522" data-name="Rectangle 8522" class="adminGearHover1" width="24" height="24" transform="translate(-4111 -975)"/>
    <g id="Group_25462" data-name="Group 25462" transform="translate(-4111 -975)">
      <path id="color-fill" class="adminGearHover2" d="M22.474,9.446H21.135a.387.387,0,0,1-.371-.278A9.081,9.081,0,0,0,20.2,7.794a.391.391,0,0,1,.065-.456l.948-.948a1.532,1.532,0,0,0,0-2.156l-1.45-1.45a1.56,1.56,0,0,0-2.154,0l-.935.936a.391.391,0,0,1-.465.066,9.031,9.031,0,0,0-1.382-.575.383.383,0,0,1-.272-.369V1.526A1.528,1.528,0,0,0,13.025,0H10.978A1.527,1.527,0,0,0,9.45,1.526V2.835a.387.387,0,0,1-.278.371,9.12,9.12,0,0,0-1.4.575.394.394,0,0,1-.459-.065l-.929-.928a1.558,1.558,0,0,0-2.152,0L2.792,4.238a1.528,1.528,0,0,0,0,2.157l.92.919a.389.389,0,0,1,.064.46A9.141,9.141,0,0,0,3.2,9.167a.388.388,0,0,1-.368.277h-1.3A1.529,1.529,0,0,0,0,10.969v2.049a1.528,1.528,0,0,0,1.526,1.526H2.837a.394.394,0,0,1,.373.28,9.187,9.187,0,0,0,.578,1.391.391.391,0,0,1-.066.46L2.8,17.6a1.528,1.528,0,0,0,0,2.157l1.45,1.45a1.56,1.56,0,0,0,2.154,0l.936-.935a.389.389,0,0,1,.46-.066,9.364,9.364,0,0,0,1.379.568.385.385,0,0,1,.276.368v1.328A1.527,1.527,0,0,0,10.978,24h2.047a1.528,1.528,0,0,0,1.526-1.526v-1.34a.4.4,0,0,1,.279-.373,9.007,9.007,0,0,0,1.37-.568.386.386,0,0,1,.455.065l.954.954a1.56,1.56,0,0,0,2.154,0l1.446-1.447a1.529,1.529,0,0,0,0-2.155l-.952-.953a.393.393,0,0,1-.066-.46,9.006,9.006,0,0,0,.566-1.367.387.387,0,0,1,.368-.276h1.351A1.528,1.528,0,0,0,24,13.022V10.971a1.529,1.529,0,0,0-1.525-1.525m-5.846,2.541a4.648,4.648,0,1,1-4.814-4.648h.171a4.646,4.646,0,0,1,4.645,4.648Z"/>
      <g id="outline">
        <path id="Path_39062" data-name="Path 39062" class="adminGearHover3" d="M22.474,9.446H21.135a.389.389,0,0,1-.372-.278A8.929,8.929,0,0,0,20.2,7.794a.391.391,0,0,1,.064-.456l.947-.948a1.531,1.531,0,0,0,0-2.156l-1.449-1.45a1.557,1.557,0,0,0-2.153,0l-.936.936a.391.391,0,0,1-.465.066,9.061,9.061,0,0,0-1.381-.575.383.383,0,0,1-.273-.369V1.526A1.527,1.527,0,0,0,13.026,0H10.978A1.528,1.528,0,0,0,9.45,1.526V2.835a.39.39,0,0,1-.278.371,9.072,9.072,0,0,0-1.4.575.394.394,0,0,1-.458-.065l-.928-.928a1.558,1.558,0,0,0-2.152,0L2.792,4.238a1.528,1.528,0,0,0,0,2.157l.919.919a.391.391,0,0,1,.065.46A9.1,9.1,0,0,0,3.2,9.167a.39.39,0,0,1-.369.277h-1.3A1.527,1.527,0,0,0,0,10.969v2.049a1.528,1.528,0,0,0,1.526,1.526H2.838a.392.392,0,0,1,.372.28,9.187,9.187,0,0,0,.578,1.391.392.392,0,0,1-.065.46L2.8,17.6a1.529,1.529,0,0,0,0,2.158l1.45,1.45a1.559,1.559,0,0,0,2.153,0l.936-.936a.389.389,0,0,1,.46-.065,9.274,9.274,0,0,0,1.381.567.388.388,0,0,1,.276.368v1.329A1.527,1.527,0,0,0,10.978,24h2.048a1.527,1.527,0,0,0,1.525-1.526v-1.34a.4.4,0,0,1,.279-.373,9.065,9.065,0,0,0,1.371-.569.387.387,0,0,1,.455.066l.954.954a1.559,1.559,0,0,0,2.153,0l1.446-1.447a1.531,1.531,0,0,0,0-2.156l-.952-.952a.393.393,0,0,1-.065-.46,9.105,9.105,0,0,0,.565-1.367.387.387,0,0,1,.368-.276h1.35A1.528,1.528,0,0,0,24,13.021v-2.05a1.529,1.529,0,0,0-1.525-1.525m-3.291,6.219a1.525,1.525,0,0,0,.269,1.787l.954.953a.392.392,0,0,1,0,.55L18.97,20.394a.4.4,0,0,1-.554,0l-.954-.946a1.515,1.515,0,0,0-1.784-.269,8.357,8.357,0,0,1-1.193.5,1.529,1.529,0,0,0-1.071,1.452v1.343a.386.386,0,0,1-.385.388H10.978a.388.388,0,0,1-.389-.387h0V21.143a1.524,1.524,0,0,0-1.072-1.457,7.666,7.666,0,0,1-1.208-.5,1.551,1.551,0,0,0-.7-.17H7.595a1.509,1.509,0,0,0-1.071.443l-.934.934a.4.4,0,0,1-.553,0l-1.445-1.44a.391.391,0,0,1,0-.549l.928-.929a1.522,1.522,0,0,0,.271-1.788,8.29,8.29,0,0,1-.508-1.215A1.517,1.517,0,0,0,2.83,13.4H1.522a.388.388,0,0,1-.387-.388v-2.04a.388.388,0,0,1,.387-.388h1.3A1.517,1.517,0,0,0,4.277,9.519a8.546,8.546,0,0,1,.515-1.23A1.524,1.524,0,0,0,4.519,6.5L3.6,5.58a.389.389,0,0,1,0-.549L5.041,3.592a.4.4,0,0,1,.553,0l.924.924A1.523,1.523,0,0,0,8.3,4.785a7.774,7.774,0,0,1,1.218-.5A1.526,1.526,0,0,0,10.6,2.824V1.516a.388.388,0,0,1,.388-.388h2.048a.387.387,0,0,1,.387.387h0v1.32a1.518,1.518,0,0,0,1.068,1.452,7.879,7.879,0,0,1,1.206.5,1.525,1.525,0,0,0,1.791-.268l.934-.934a.4.4,0,0,1,.552,0L20.42,5.029a.387.387,0,0,1,0,.549l-.946.948a1.515,1.515,0,0,0-.273,1.78,8.1,8.1,0,0,1,.494,1.2,1.524,1.524,0,0,0,1.457,1.072h1.342a.388.388,0,0,1,.389.387h0v2.053a.388.388,0,0,1-.388.388H21.134a1.52,1.52,0,0,0-1.45,1.067,8.443,8.443,0,0,1-.494,1.193"/>
        <path id="Path_39063" data-name="Path 39063" class="adminGearHover3" d="M11.983,6.2a5.785,5.785,0,1,0,5.786,5.785A5.785,5.785,0,0,0,11.983,6.2m4.645,5.787a4.648,4.648,0,1,1-4.814-4.648h.171a4.646,4.646,0,0,1,4.645,4.648"/>
      </g>
    </g>
  </g>
</svg>
