<svg xmlns="http://www.w3.org/2000/svg" viewBox="0 0 24 24"><defs><style>.authCloudA,.authCloudAuthCloudB{fill:#2196c9;}.authCloudA{opacity:0;}</style></defs><rect class="authCloudA" width="24" height="24"/><g transform="translate(-0.25 -0.18)"><g transform="translate(5.017 8.806)"><g transform="translate(4.715)"><path class="authCloudB" d="M25.071,27.772a4.564,4.564,0,1,1,3.23-1.336A4.552,4.552,0,0,1,25.071,27.772Zm0-8.216a3.651,3.651,0,1,0,2.581,1.069h0A3.626,3.626,0,0,0,25.071,19.556Z" transform="translate(-20.506 -18.64)"/></g><g transform="translate(0 6.575)"><path class="authCloudB" d="M12.443,40.784H10.218V38.559l5.573-5.573.648.648-5.3,5.3v.929h.929l.752-.752.234-1.047,1.566-.182v-1.1l2.55-2.55.648.648-2.282,2.282V38.7l-1.73.2-.15.672Z" transform="translate(-10.218 -32.985)"/></g><g transform="translate(8.525 2.236)"><path class="authCloudB" d="M30.362,26.605a1.544,1.544,0,1,1,1.092-2.636h0a1.545,1.545,0,0,1-1.092,2.636Zm0-2.172a.627.627,0,0,0-.444,1.071.642.642,0,0,0,.887,0,.627.627,0,0,0-.444-1.071Z" transform="translate(-28.817 -23.518)"/></g></g><g transform="translate(1.25 1.18)"><path class="authCloudB" d="M8.807,17.568a4.009,4.009,0,0,1-2.871-1.2A3.82,3.82,0,0,1,2,12.558,3.977,3.977,0,0,1,4.314,8.984a3.647,3.647,0,0,1,.181-1.935A4.031,4.031,0,0,1,7.877,4.46a4.127,4.127,0,0,1,2.935.859A5.362,5.362,0,0,1,15.792,2h.042a5.346,5.346,0,0,1,5.282,4.863A4.982,4.982,0,0,1,20.888,8.7,3.979,3.979,0,0,1,24,12.558,4.762,4.762,0,0,1,19.719,17l-.09-.912a3.865,3.865,0,0,0,3.454-3.531,3.089,3.089,0,0,0-2.867-3.041l-.64-.059.265-.586A4.086,4.086,0,0,0,20.2,6.919a4.415,4.415,0,0,0-4.374-4h-.035a4.4,4.4,0,0,0-4.316,3.347l-.2.9-.594-.7A3.162,3.162,0,0,0,7.962,5.373a3.109,3.109,0,0,0-2.609,2,2.77,2.77,0,0,0-.066,1.765l.118.414L5,9.692a3.073,3.073,0,0,0-2.083,2.866A2.929,2.929,0,0,0,6.125,15.45h.37l.122.268c.276.6,1.591.933,2.189.933.169,0,.329-.005.485-.02l.085.913C9.193,17.561,9,17.568,8.807,17.568Z" transform="translate(-2 -2)"/></g></g></svg>