<svg xmlns="http://www.w3.org/2000/svg" viewBox="0 0 29.612 28.37"><defs><style>.clusterA{fill:#35393b;}.clusterB{fill:#2196c9;}</style></defs><path class="clusterA" d="M321.537,391.3v-5.444l-4.7-2.722-4.7,2.722V391.3l4.7,2.722Zm-8.486-.5v-4.345l3.782-2.173,3.781,2.173v4.344l-3.783,2.174Zm3.782,2.316h0v0h0Z" transform="translate(-297.016 -383.129)"/><path class="clusterA" d="M306.426,394.613l-4.7-2.722-4.705,2.722v5.445l4.705,2.72,4.7-2.72Zm-8.486,4.9v-4.346l3.781-2.173,3.781,2.173v4.346l-3.781,2.173Z" transform="translate(-297.016 -383.129)"/><path class="clusterA" d="M311.517,391.3v-5.444l-4.7-2.722-4.705,2.722V391.3l4.7,2.724Zm-8.487-.5v-4.345l3.782-2.173,3.781,2.173v4.344l-3.783,2.174Zm3.782,2.316h0v0h0Z" transform="translate(-297.016 -383.129)"/><path class="clusterA" d="M302.069,403.334v5.444l4.7,2.721,4.705-2.721v-5.444l-4.705-2.722Zm.924,4.94v-4.345l3.781-2.172,3.781,2.172v4.343l-3.783,2.174Zm3.781,2.317h0Z" transform="translate(-297.016 -383.129)"/><path class="clusterA" d="M312.21,403.334v5.444l4.705,2.721,4.7-2.721v-5.444l-4.7-2.722Zm.924,4.94v-4.345l3.781-2.172,3.781,2.172v4.343l-3.783,2.174Z" transform="translate(-297.016 -383.129)"/><path class="clusterA" d="M321.923,391.891l-4.705,2.722v5.445l4.705,2.72,4.7-2.72v-5.445Zm-3.781,7.618v-4.346l3.781-2.173,3.781,2.173v4.346l-3.781,2.173Z" transform="translate(-297.016 -383.129)"/><path class="clusterB" d="M308.993,395.276l-.326,1.538-.268,1.117-.109.378,1.966,2.431h3.13l.7-.942,1.208-1.485-.7-3.036-1.669-.788-1.133-.566-2.749,1.326Zm1.7,4.541-.679-.893-.683-.855.511-2.171,2-.98,2,.976.472,2.178-.679.893-.684.852Z" transform="translate(-297.016 -383.129)"/></svg>