<svg xmlns="http://www.w3.org/2000/svg" viewBox="0 0 284.832 53.608"><defs><style>.connectionErrorA{fill:#fff;}.connectionErrorB{fill:#adb3bc;}.connectionErrorC,.connectionErrorD{fill:#e3e4e7;}.connectionErrorD,.connectionErrorE{stroke:#6e7477;}.connectionErrorE,.connectionErrorG{fill:none;}.connectionErrorF{stroke:none;}</style></defs><g transform="translate(0 3.385)"><path class="connectionErrorA" d="M-1681.327,2024.211l-5.375-23.385a2.33,2.33,0,0,0-2.633-1.943,2.158,2.158,0,0,0-1.573,1.923l-11.434,2.628a3.658,3.658,0,0,0-2.823,3.835l-3.525.81a3.657,3.657,0,0,0-2.741,4.377l.723,3.146-5.922,1.362a2.962,2.962,0,0,0-1.91,1.423c-.076.012-.152.027-.228.046-2.715.689-5.423,1.538-8.043,2.358-1.712.536-3.482,1.091-5.231,1.594a31.006,31.006,0,0,1-9.079,1.432h-.1a13.547,13.547,0,0,1-7.381-1.768,5.562,5.562,0,0,1-1.2-.977,5.3,5.3,0,0,1-1.034-1.4,9.5,9.5,0,0,1-1.015-4.176,37.536,37.536,0,0,1,.414-6.223,40.31,40.31,0,0,0,.434-6.139,15.981,15.981,0,0,0-4.555-10.592c-4.6-4.94-11.505-6.934-17.6-8.694l-.184-.053c-.584-.169-1.19-.336-1.777-.5-3.431-.946-6.98-1.924-9.645-4.1-.217-.176-.387-.358-.589-.546v5.365h0v.025a21.191,21.191,0,0,0,3.345,1.638c2.429.931,4.976,1.66,7.438,2.364a59.192,59.192,0,0,1,10.6,3.771,17.077,17.077,0,0,1,6.621,5.5,11.1,11.1,0,0,1,1.85,4.666,22.126,22.126,0,0,1-.142,5.629l-.019.176c-.055.5-.116,1.012-.177,1.522-.419,3.511-.853,7.144.327,10.63a11.3,11.3,0,0,0,6.314,6.773,19.845,19.845,0,0,0,8.046,1.514,36.131,36.131,0,0,0,5.316-.429,51.042,51.042,0,0,0,7.619-1.949l.739-.23q.94-.292,1.88-.587c2.6-.815,5.293-1.658,7.974-2.339a2.3,2.3,0,0,0,.4-.144,2.959,2.959,0,0,0,1.925.208l5.922-1.361.723,3.146a3.656,3.656,0,0,0,4.378,2.742l3.525-.81a3.658,3.658,0,0,0,4.215,2.217l11.434-2.628a2.158,2.158,0,0,0,2.255,1.044A2.333,2.333,0,0,0-1681.327,2024.211Z" transform="translate(1785.349 -1978.564)"/><path class="connectionErrorB" d="M104.022,411.375l-5.375-23.385a2.33,2.33,0,0,0-2.633-1.943,2.158,2.158,0,0,0-1.573,1.923L83.007,390.6a3.658,3.658,0,0,0-2.824,3.835l-3.525.81a3.657,3.657,0,0,0-2.742,4.378l.723,3.146-5.922,1.361a2.962,2.962,0,0,0-1.91,1.423c-.076.012-.152.026-.228.046-2.715.689-5.423,1.538-8.043,2.358-1.712.536-3.482,1.091-5.231,1.594a31.007,31.007,0,0,1-9.079,1.432h-.1a13.548,13.548,0,0,1-7.381-1.768,5.56,5.56,0,0,1-1.2-.976,5.313,5.313,0,0,1-1.034-1.4A9.5,9.5,0,0,1,33.5,402.66a37.536,37.536,0,0,1,.414-6.224,40.28,40.28,0,0,0,.434-6.139A15.982,15.982,0,0,0,29.793,379.7c-4.6-4.939-11.505-6.934-17.6-8.693l-.184-.053c-.584-.169-1.19-.336-1.777-.5-3.432-.946-6.98-1.924-9.645-4.1-.216-.176-.387-.359-.589-.546v1.6c2.843,2.256,6.415,3.254,9.911,4.218.583.161,1.185.326,1.762.493l.184.053c5.942,1.716,12.676,3.66,17.045,8.353a14.8,14.8,0,0,1,4.229,9.8,39.371,39.371,0,0,1-.426,5.953,38.467,38.467,0,0,0-.422,6.428,10.545,10.545,0,0,0,1.172,4.721,6.435,6.435,0,0,0,1.231,1.662,6.694,6.694,0,0,0,1.412,1.148,14.69,14.69,0,0,0,8.023,1.953h.1a32.232,32.232,0,0,0,9.415-1.48c1.764-.507,3.541-1.064,5.259-1.6,2.454-.769,4.987-1.56,7.516-2.219a2.933,2.933,0,0,0,.578,1.895c-2.567.668-5.126,1.467-7.6,2.243q-.938.294-1.876.586l-.741.23a50.069,50.069,0,0,1-7.435,1.906,34.922,34.922,0,0,1-5.138.416,18.67,18.67,0,0,1-7.561-1.414,10.092,10.092,0,0,1-5.646-6.046c-1.092-3.225-.675-6.718-.272-10.1.061-.513.122-1.025.178-1.534l.019-.175a22.989,22.989,0,0,0,.136-5.946,12.292,12.292,0,0,0-2.048-5.168,18.251,18.251,0,0,0-7.075-5.9,60.1,60.1,0,0,0-10.814-3.856c-2.437-.7-4.958-1.418-7.337-2.33A19.841,19.841,0,0,1,0,369.78v1.426a21.2,21.2,0,0,0,3.345,1.638c2.429.931,4.976,1.659,7.438,2.364a59.2,59.2,0,0,1,10.6,3.77,17.076,17.076,0,0,1,6.621,5.5,11.1,11.1,0,0,1,1.85,4.666,22.087,22.087,0,0,1-.143,5.629l-.019.175c-.055.5-.116,1.012-.177,1.522-.419,3.512-.853,7.144.327,10.63a11.3,11.3,0,0,0,6.315,6.773,19.853,19.853,0,0,0,8.046,1.514h0a36.115,36.115,0,0,0,5.316-.429,51,51,0,0,0,7.619-1.949l.739-.23q.94-.292,1.88-.587c2.6-.815,5.294-1.658,7.975-2.339a2.281,2.281,0,0,0,.4-.144,2.956,2.956,0,0,0,1.925.208l5.922-1.361.723,3.146a3.656,3.656,0,0,0,4.378,2.742l3.525-.81a3.658,3.658,0,0,0,4.215,2.217l11.434-2.628a2.157,2.157,0,0,0,2.255,1.043A2.33,2.33,0,0,0,104.022,411.375Zm-34.246-2.637a1.756,1.756,0,1,1-.787-3.422l5.922-1.361.787,3.422ZM80.8,413.264a2.438,2.438,0,0,1-2.919-1.828L75.1,399.35a2.438,2.438,0,0,1,1.828-2.919l3.485-.8,3.869,16.834Zm7.74,1.407a2.438,2.438,0,0,1-2.919-1.828L81.452,394.7a2.438,2.438,0,0,1,1.828-2.919l11.272-2.591,5.26,22.885Zm13.689-1.585c-.482.111-1.02-.361-1.174-1.029l-5.375-23.385c-.154-.669.124-1.327.606-1.438s1.02.36,1.174,1.029l5.375,23.385C102.989,412.317,102.712,412.976,102.229,413.086Z" transform="translate(0 -365.818)"/><path class="connectionErrorC" d="M507.337,601.1l-1.909-8.306c-.154-.669-1.34-.4-1.187.273l1.909,8.306c.154.67,1.341.4,1.186-.273Z" transform="translate(-427.49 -557.922)"/><path class="connectionErrorC" d="M522.078,597.71l-1.909-8.306c-.154-.67-1.34-.4-1.186.273l1.909,8.306c.154.67,1.341.4,1.187-.273Z" transform="translate(-439.987 -555.049)"/></g><g transform="translate(168.746 0)"><path class="connectionErrorA" d="M-1731.211,1589.18h0v-.25a47.724,47.724,0,0,1-5.285.313c-.1,0-.2,0-.3,0a28.344,28.344,0,0,1-13.163-3.151,33.246,33.246,0,0,1-5.436-3.6,39.811,39.811,0,0,1-4.263-4.315,14.865,14.865,0,0,0-4.166-3.582,10.716,10.716,0,0,0-4.913-1.163,11.248,11.248,0,0,0-1.347.081c-4.244.513-7.766,3.124-10.652,5.611-.91.784-1.795,1.624-2.65,2.436a37.108,37.108,0,0,1-5.311,4.449,42.149,42.149,0,0,1-10.656,4.459c-.549.166-1.093.323-1.6.468l-.018.007a3.023,3.023,0,0,0-1.921-.192l-6.06,1.393-.74-3.219a3.742,3.742,0,0,0-4.48-2.805l-3.566.82-.492-2.138a2.384,2.384,0,0,0-2.695-1.988,2.207,2.207,0,0,0-1.61,1.968l-13.218,3.038a2.183,2.183,0,0,0-1.637,2.613l.223.971-7.568,1.74c-1.691.388-2.777,1.5-2.528,2.584s1.712,1.61,3.4,1.221l7.568-1.74,2.768,12.043-7.568,1.74c-1.69.388-2.777,1.5-2.528,2.584s1.712,1.61,3.4,1.221l7.568-1.74.224.971a2.182,2.182,0,0,0,2.613,1.636l13.218-3.038a2.209,2.209,0,0,0,2.308,1.068,2.385,2.385,0,0,0,1.556-2.965l-.492-2.136,3.566-.82a3.742,3.742,0,0,0,2.806-4.479l-.74-3.22,6.06-1.393a3.03,3.03,0,0,0,1.945-1.438,57.92,57.92,0,0,0,11.679-4.458,38.153,38.153,0,0,0,7.583-5.944l1.007-.936c2.889-2.663,5.547-4.935,8.831-5.76a7.012,7.012,0,0,1,1.707-.21,6.341,6.341,0,0,1,2.742.6,10.175,10.175,0,0,1,3.018,2.655q.2.225.4.449a39.585,39.585,0,0,0,4.537,4.473,39.005,39.005,0,0,0,5.877,3.9,32.451,32.451,0,0,0,14.26,3.719c.548.024,1.113.036,1.68.036a47.521,47.521,0,0,0,5.054-.288v-.012h0Z" transform="translate(1847.296 -1573.43)"/><rect class="connectionErrorC" width="8.042" height="1.109" transform="translate(13.241 27.688) rotate(-12.945)"/><g transform="translate(1.01 19.93)"><g transform="translate(3.642 15.845)"><rect class="connectionErrorC" width="9.823" height="0.688" transform="matrix(0.975, -0.224, 0.224, 0.975, 0, 2.2)"/></g><g transform="translate(0 0)"><rect class="connectionErrorC" width="9.823" height="0.688" transform="translate(0 2.201) rotate(-12.945)"/></g></g><g transform="translate(0 0)"><path class="connectionErrorB" d="M975.265,484.814l1.953,8.5c.157.685,1.372.406,1.214-.279l-1.954-8.5c-.157-.685-1.372-.406-1.214.279Z" transform="translate(-940.886 -466.543)"/><path class="connectionErrorB" d="M960.524,488.2l1.953,8.5c.157.685,1.372.406,1.214-.279l-1.954-8.5c-.157-.685-1.372-.406-1.214.279Z" transform="translate(-928.441 -469.404)"/><path class="connectionErrorB" d="M870.675,389.94a46.623,46.623,0,0,1-5.054.3c-.549,0-1.1-.012-1.626-.035a31.219,31.219,0,0,1-13.717-3.568,37.765,37.765,0,0,1-5.689-3.777,38.445,38.445,0,0,1-4.392-4.335c-.131-.146-.261-.294-.391-.442a11.244,11.244,0,0,0-3.412-2.954,7.6,7.6,0,0,0-3.283-.722,8.258,8.258,0,0,0-2.011.247c-3.568.9-6.355,3.271-9.372,6.052q-.508.469-1.012.94a36.652,36.652,0,0,1-7.329,5.761,54.423,54.423,0,0,1-10.673,4.136,2.991,2.991,0,0,0-.6-1.932c.256-.075.517-.152.781-.232a43.213,43.213,0,0,0,10.969-4.6,38.064,38.064,0,0,0,5.5-4.594c.845-.8,1.719-1.632,2.606-2.4,2.744-2.365,6.077-4.846,9.989-5.318a10.037,10.037,0,0,1,1.2-.072,9.466,9.466,0,0,1,4.341,1.023,13.826,13.826,0,0,1,3.808,3.3,40.772,40.772,0,0,0,4.4,4.448,34.494,34.494,0,0,0,5.64,3.738,29.6,29.6,0,0,0,13.743,3.3c.1,0,.208,0,.311,0a48.755,48.755,0,0,0,5.285-.305v-1.254a47.774,47.774,0,0,1-5.285.313c-.1,0-.2,0-.3,0a28.347,28.347,0,0,1-13.163-3.151,33.251,33.251,0,0,1-5.436-3.6,39.8,39.8,0,0,1-4.263-4.315,14.851,14.851,0,0,0-4.166-3.582,10.716,10.716,0,0,0-4.914-1.163,11.253,11.253,0,0,0-1.347.081c-4.244.513-7.766,3.124-10.653,5.611-.91.784-1.795,1.624-2.65,2.436a37.136,37.136,0,0,1-5.311,4.449,42.148,42.148,0,0,1-10.656,4.459c-.549.166-1.091.323-1.6.468l-.019.007a3.023,3.023,0,0,0-1.921-.192l-6.06,1.393-.74-3.219a3.742,3.742,0,0,0-4.48-2.805l-3.566.82-.491-2.138a2.384,2.384,0,0,0-2.694-1.988,2.208,2.208,0,0,0-1.61,1.968l-13.218,3.038a2.182,2.182,0,0,0-1.637,2.613l.223.972-7.568,1.74c-1.691.388-2.777,1.5-2.528,2.584s1.712,1.61,3.4,1.221l7.568-1.74,2.768,12.044-7.568,1.74c-1.69.389-2.777,1.5-2.528,2.584s1.712,1.61,3.4,1.221l7.568-1.74.223.971a2.183,2.183,0,0,0,2.613,1.637l13.218-3.038a2.208,2.208,0,0,0,2.308,1.068,2.384,2.384,0,0,0,1.556-2.965l-.492-2.138,3.566-.82a3.742,3.742,0,0,0,2.805-4.48l-.74-3.22,6.06-1.393a3.032,3.032,0,0,0,1.945-1.439,57.958,57.958,0,0,0,11.679-4.458,38.144,38.144,0,0,0,7.583-5.944q.5-.468,1.008-.936c2.889-2.663,5.547-4.935,8.831-5.76a7.013,7.013,0,0,1,1.707-.21,6.344,6.344,0,0,1,2.742.6,10.168,10.168,0,0,1,3.018,2.655q.2.225.4.449a39.583,39.583,0,0,0,4.537,4.473,39.015,39.015,0,0,0,5.877,3.9,32.451,32.451,0,0,0,14.26,3.719c.548.024,1.113.036,1.68.036a47.517,47.517,0,0,0,5.054-.288Zm-112.926,3.509c-1.069.246-1.855-.049-1.909-.286s.524-.845,1.593-1.091l7.568-1.74.317,1.377Zm10.184,4.079,6.732-1.547.523,2.276-6.732,1.547Zm-6.541,11.77c-1.069.246-1.855-.05-1.909-.286s.524-.845,1.593-1.091l7.568-1.74.316,1.377Zm10.4.868a.936.936,0,0,1-1.12-.7l-1.941-8.446,7.946-1.826-1.081-4.705-7.946,1.826-1.941-8.446a.935.935,0,0,1,.7-1.12l13.052-3,5.383,23.419Zm15.525-1.971c-.493.113-1.043-.369-1.2-1.053l-5.5-23.929c-.157-.685.127-1.358.62-1.472s1.044.369,1.2,1.053l5.5,23.93C788.1,407.408,787.816,408.082,787.323,408.2Zm4.631-5.922-3.566.82-3.959-17.226,3.566-.82a2.5,2.5,0,0,1,2.986,1.87l2.843,12.369A2.5,2.5,0,0,1,791.953,402.273Zm8.126-9.092-6.06,1.393-.8-3.5,6.06-1.393a1.8,1.8,0,0,1,.8,3.5Z" transform="translate(-754.59 -371.146)"/></g></g><g transform="translate(116.769 10.29)"><g class="connectionErrorD"><circle class="connectionErrorF" cx="19.581" cy="19.581" r="19.581"/><circle class="connectionErrorG" cx="19.581" cy="19.581" r="19.081"/></g><line class="connectionErrorE" x1="16.563" y2="16.563" transform="translate(11.396 11.437)"/><line class="connectionErrorE" x2="16.563" y2="16.563" transform="translate(11.396 11.437)"/></g></svg>