<svg xmlns="http://www.w3.org/2000/svg" viewBox="0 0 9.89 10.196">
  <defs><style>.downloadA{fill:#6e7477}</style></defs>
  <path class="downloadA" d="M1.349 10.195h7.193a1.349 1.349 0 001.349-1.349V5.363a.45.45 0 00-.9 0v3.484a.45.45 0 01-.45.45H1.349a.45.45 0 01-.45-.45V5.363a.45.45 0 00-.9 0v3.484a1.349 1.349 0 001.35 1.348z"/>
  <path class="downloadA" d="M4.832 0a.45.45 0 00-.45.45v4.9L2.766 3.728a.45.45 0 00-.631.632l2.379 2.385h.006a.45.45 0 00.063.052.221.221 0 00.036.019.261.261 0 00.088.036.233.233 0 01.037.011.441.441 0 00.176 0 .142.142 0 00.037-.011.261.261 0 00.088-.036l.036-.019a.45.45 0 00.063-.052h.006L7.529 4.36a.45.45 0 00-.636-.636L5.282 5.345V.45a.45.45 0 00-.45-.45z"/>
</svg>