<svg xmlns="http://www.w3.org/2000/svg" width="85.316" height="63.656" viewBox="0 0 85.316 63.656"><defs><style>.envoyA{fill:#953984;}.envoyA,.envoyB,.envoyC{fill-rule:evenodd;}.envoyB{fill:#ac6199;}.envoyC{fill:#c04589;}</style></defs><g transform="translate(0 0)"><path class="envoyA" d="M56.279,81.853l.122,5.135,5.408,3.353L61.687,85.2l-5.408-3.349" transform="translate(-35.02 -51.116)"/><g transform="translate(0 30.584)"><path class="envoyA" d="M82.887,44l-.118-5.03L78.03,36.035c-.07-.044-.133-.1-.2-.141l.12,5.047L82.887,44" transform="translate(-48.429 -22.505)"/><path class="envoyA" d="M17.572,28.718,5.208,21.056,4.907,8.2l6.062-2.614L10.847.449,1.173,4.62A1.888,1.888,0,0,0,0,6.422L.363,21.847A2.563,2.563,0,0,0,1.629,23.9l14.828,9.189a2.738,2.738,0,0,0,2.227.322c.074-.023.142-.05.21-.077l9.1-3.922-4.935-3.06-5.485,2.365" transform="translate(0 -0.449)"/></g><path class="envoyB" d="M119.28,58.756a2.984,2.984,0,0,0-1.477-2.392l-18-11.157-.556.24.127,5.4,14.255,8.832.341,14.445L119.42,77.5l.3-.128-.438-18.616" transform="translate(-61.756 -28.313)"/><g transform="translate(13.106 0)"><path class="envoyB" d="M23.553,87.185,6.828,76.82l-.411-17.4,7.62-3.282L13.9,50.146l-11.831,5.1A2.205,2.205,0,0,0,.7,57.35l.482,20.4a2.962,2.962,0,0,0,1.475,2.387l19.6,12.152a3.193,3.193,0,0,0,2.6.377,2.235,2.235,0,0,0,.244-.093l11.58-4.992L30.92,84.009l-7.367,3.176" transform="translate(-0.695 -31.386)"/><path class="envoyC" d="M70.486,52.335,48.64,38.8,48.1,16.076,69.412,6.892,91.255,20.424l.537,22.721ZM96.031,16.64,70.9,1.061A3.64,3.64,0,0,0,67.918.633q-.139.044-.273.1L43.127,11.307a2.51,2.51,0,0,0-1.565,2.4l.616,26.148a3.406,3.406,0,0,0,1.688,2.731L69,58.161a3.639,3.639,0,0,0,2.969.431c.093-.029.188-.065.282-.1L96.771,47.919a2.514,2.514,0,0,0,1.563-2.4L97.72,19.371a3.407,3.407,0,0,0-1.689-2.731Z" transform="translate(-26.124 -0.484)"/></g></g></svg>