<svg xmlns="http://www.w3.org/2000/svg" width="21" height="21" viewBox="0 0 21 21"><defs><style>.filterA{opacity:0;}.filterB{fill:#2196c9;}</style></defs><rect class="filterA" width="21" height="21"/><g transform="translate(0 2)"><path class="filterB" d="M559.766,372.807a1.481,1.481,0,0,0-1.359-.847H540.6a1.484,1.484,0,0,0-1.359.847,1.4,1.4,0,0,0,.22,1.541h0l7.074,8.031v6.257a.735.735,0,0,0,.743.725.756.756,0,0,0,.412-.122l4.457-2.9a.72.72,0,0,0,.331-.6V382.38l7.07-8.031A1.4,1.4,0,0,0,559.766,372.807Zm-8.6,8.831a.721.721,0,0,0-.179.473v3.241l-2.972,1.934V382.11a.712.712,0,0,0-.179-.473l-7.245-8.228h17.829Z" transform="translate(-539.1 -371.96)"/><path class="filterB" d="M554.549,377.227h-7a.75.75,0,0,1,0-1.5h7a.75.75,0,0,1,0,1.5Z" transform="translate(-540.609 -372.558)"/></g></svg>