<svg xmlns="http://www.w3.org/2000/svg" viewBox="0 0 17.211 16.76"><defs><style>.kubernetesA{fill:#326de6;}.kubernetesB{fill:#fff;}</style></defs><g transform="translate(-0.532 -0.165)"><path class="kubernetesA" d="M9.773,20.035a1.312,1.312,0,0,1-1.034-.5L4.846,14.7a1.306,1.306,0,0,1-.256-1.134L5.98,7.524a1.316,1.316,0,0,1,.723-.9L12.33,3.932a1.32,1.32,0,0,1,1.157,0l5.627,2.68a1.316,1.316,0,0,1,.723.9l1.39,6.039a1.341,1.341,0,0,1-.256,1.134l-3.892,4.838a1.346,1.346,0,0,1-1.034.5l-6.272.011Z" transform="translate(-3.743 -3.383)"/><path class="kubernetesB" d="M9.154.688a1.089,1.089,0,0,1,.456.1L15.241,3.47a1.081,1.081,0,0,1,.579.723l1.391,6.043a1.041,1.041,0,0,1-.211.913L13.1,15.99a1.06,1.06,0,0,1-.835.4H6.027a1.06,1.06,0,0,1-.835-.4L1.3,11.149a1.114,1.114,0,0,1-.211-.913L2.477,4.194a1.063,1.063,0,0,1,.579-.723L8.687.777A1.341,1.341,0,0,1,9.154.688Zm0-.523h0a1.684,1.684,0,0,0-.69.156L2.833,3.014a1.576,1.576,0,0,0-.868,1.079L.574,10.137a1.578,1.578,0,0,0,.312,1.358l3.9,4.841a1.572,1.572,0,0,0,1.235.59h6.243a1.572,1.572,0,0,0,1.235-.59l3.9-4.841a1.57,1.57,0,0,0,.312-1.358L16.31,4.094a1.576,1.576,0,0,0-.868-1.079L9.833.321A1.6,1.6,0,0,0,9.154.165Z" transform="translate(0 0)"/><path class="kubernetesB" d="M52.459,45.266h-.011c-.011,0-.022,0-.022-.011-.022,0-.044-.011-.066-.011a1.505,1.505,0,0,0-.209-.022.413.413,0,0,1-.11-.011h-.011a2.907,2.907,0,0,1-.595-.1.215.215,0,0,1-.121-.121c0-.011-.011-.011-.011-.022h0l-.143-.044a4.355,4.355,0,0,0-.077-1.553,4.537,4.537,0,0,0-.617-1.443l.11-.1v-.022a.249.249,0,0,1,.055-.165,3.213,3.213,0,0,1,.5-.341h0c.033-.022.066-.033.1-.055a1.658,1.658,0,0,0,.187-.11c.011-.011.033-.022.055-.044s.022-.011.022-.022h0a.368.368,0,0,0,.077-.5.313.313,0,0,0-.253-.121.409.409,0,0,0-.242.088h0l-.022.022c-.022.011-.033.033-.055.044a1.83,1.83,0,0,0-.143.154.509.509,0,0,1-.077.077h0a2.8,2.8,0,0,1-.441.4.178.178,0,0,1-.1.033.14.14,0,0,1-.066-.011h-.022l-.132.088a5.348,5.348,0,0,0-.452-.418,4.4,4.4,0,0,0-2.3-.914l-.011-.143-.022-.022a.23.23,0,0,1-.088-.143,3.863,3.863,0,0,1,.033-.595V39.1a.391.391,0,0,1,.022-.11c.011-.066.022-.132.033-.209v-.1h0a.336.336,0,0,0-.584-.253.349.349,0,0,0-.1.253h0v.088a.641.641,0,0,0,.033.209c.011.033.011.066.022.11V39.1a2.845,2.845,0,0,1,.033.595.23.23,0,0,1-.088.143l-.022.022h0L46.512,40a5.535,5.535,0,0,0-.595.088,4.245,4.245,0,0,0-2.181,1.233l-.11-.077H43.6c-.022,0-.044.011-.066.011a.178.178,0,0,1-.1-.033A2.92,2.92,0,0,1,43,40.817h0a.509.509,0,0,0-.077-.077,1.829,1.829,0,0,0-.143-.154c-.011-.011-.033-.022-.055-.044s-.022-.011-.022-.022h0a.385.385,0,0,0-.242-.088.313.313,0,0,0-.253.121.368.368,0,0,0,.077.5h0c.011,0,.011.011.022.011s.033.033.055.044a1.657,1.657,0,0,0,.187.11.446.446,0,0,1,.1.055h0a3.213,3.213,0,0,1,.5.341.2.2,0,0,1,.055.165V41.8h0l.11.1a.386.386,0,0,0-.055.088,4.289,4.289,0,0,0-.617,2.907l-.143.044c0,.011-.011.011-.011.022a.256.256,0,0,1-.121.121,2.781,2.781,0,0,1-.595.1h-.011a.375.375,0,0,0-.11.011,1.5,1.5,0,0,0-.209.022c-.022,0-.044.011-.066.011a.04.04,0,0,0-.033.011h0a.361.361,0,0,0-.286.407.339.339,0,0,0,.352.253.243.243,0,0,0,.088-.011h0c.011,0,.022,0,.022-.011.022,0,.044-.011.066-.011a1.06,1.06,0,0,0,.2-.077c.033-.011.066-.033.1-.044h.011a2.706,2.706,0,0,1,.573-.165h.022a.245.245,0,0,1,.143.055c.011,0,.011.011.022.011h0l.154-.022a4.355,4.355,0,0,0,1.443,2.07,4.459,4.459,0,0,0,.474.319l-.066.143c0,.011.011.011.011.022a.226.226,0,0,1,.022.176,3.1,3.1,0,0,1-.286.518v.011c-.022.033-.044.055-.066.088-.044.055-.077.11-.121.176a.241.241,0,0,0-.033.055.038.038,0,0,1-.011.022h0a.348.348,0,0,0,.143.474.293.293,0,0,0,.132.033.4.4,0,0,0,.33-.209h0a.038.038,0,0,1,.011-.022.241.241,0,0,1,.033-.055,2.082,2.082,0,0,0,.066-.2l.033-.1h0a2.588,2.588,0,0,1,.231-.551.283.283,0,0,1,.143-.1c.011,0,.011,0,.022-.011h0l.077-.143a4.3,4.3,0,0,0,1.542.286,4,4,0,0,0,.958-.11,4.9,4.9,0,0,0,.573-.165l.066.121c.011,0,.011,0,.022.011a.2.2,0,0,1,.143.1,3.77,3.77,0,0,1,.231.551v.011l.033.1a1.4,1.4,0,0,0,.066.2c.011.022.022.033.033.055a.038.038,0,0,0,.011.022h0a.374.374,0,0,0,.33.209.293.293,0,0,0,.132-.033.328.328,0,0,0,.165-.2.4.4,0,0,0-.022-.275h0c0-.011-.011-.011-.011-.022a.241.241,0,0,0-.033-.055,1,1,0,0,0-.121-.176c-.022-.033-.044-.055-.066-.088v-.011a2.471,2.471,0,0,1-.286-.518.307.307,0,0,1,.011-.176c0-.011.011-.011.011-.022h0l-.055-.132a4.369,4.369,0,0,0,1.916-2.412l.132.022c.011,0,.011-.011.022-.011a.28.28,0,0,1,.143-.055h.022a2.705,2.705,0,0,1,.573.165h.011c.033.011.066.033.1.044a1.06,1.06,0,0,0,.2.077c.022,0,.044.011.066.011a.04.04,0,0,1,.033.011h0a.242.242,0,0,0,.088.011.371.371,0,0,0,.352-.253.424.424,0,0,0-.319-.363Zm-5.1-.54-.485.231-.485-.231-.121-.518.33-.418h.54l.33.418-.11.518Zm2.874-1.145a3.472,3.472,0,0,1,.077,1.112l-1.685-.485a.3.3,0,0,1-.209-.352.262.262,0,0,1,.066-.121l1.333-1.2a3.528,3.528,0,0,1,.418,1.046Zm-.947-1.707L47.844,42.9a.293.293,0,0,1-.385-.066.244.244,0,0,1-.055-.121l-.1-1.795a3.343,3.343,0,0,1,1.982.958Zm-3.194-.9.352-.066-.1,1.762a.3.3,0,0,1-.3.286.262.262,0,0,1-.132-.033l-1.465-1.046a3.36,3.36,0,0,1,1.641-.9Zm-2.169,1.564L45.234,43.7a.293.293,0,0,1,.033.407.219.219,0,0,1-.132.088l-1.707.5a3.545,3.545,0,0,1,.5-2.158Zm-.3,2.984,1.751-.3a.3.3,0,0,1,.308.231.314.314,0,0,1-.011.176h0L45,47.248a3.471,3.471,0,0,1-1.377-1.729Zm4.02,2.191a3.6,3.6,0,0,1-.771.088,3.731,3.731,0,0,1-1.112-.176l.87-1.575a.289.289,0,0,1,.352-.077.469.469,0,0,1,.132.121h0l.848,1.531c-.1.033-.209.055-.319.088Zm2.147-1.531a3.5,3.5,0,0,1-1.057,1.068l-.694-1.663a.3.3,0,0,1,.154-.341.352.352,0,0,1,.154-.033l1.762.3a2.216,2.216,0,0,1-.319.672Z" transform="translate(-37.72 -35.522)"/></g></svg>