<svg xmlns="http://www.w3.org/2000/svg" viewBox="0 0 16.217 19.31"><defs><style>.lockA{fill:#54b7e3;}</style></defs><g transform="translate(-10.6 -2.6)"><path class="lockA" d="M14.2,9.579a.088.088,0,0,1-.081.081H11.17a.569.569,0,0,0-.57.57V21.34a.569.569,0,0,0,.57.57H26.248a.569.569,0,0,0,.57-.57V10.23a.569.569,0,0,0-.57-.57h-2.91a.088.088,0,0,1-.081-.081V7.138a4.527,4.527,0,1,0-9.055,0V9.579ZM25.6,10.8a.088.088,0,0,1,.081.081v9.808a.088.088,0,0,1-.081.081H11.821a.088.088,0,0,1-.081-.081V10.882a.088.088,0,0,1,.081-.081ZM15.361,7.138a3.378,3.378,0,1,1,6.756,0V9.579a.088.088,0,0,1-.081.081H15.443a.088.088,0,0,1-.081-.081Z"/><path class="lockA" d="M46.427,63.963a1.363,1.363,0,1,0-1.872,1.262l.02.02v1.2h.956v-1.2c0-.02,0-.02.02-.02A1.342,1.342,0,0,0,46.427,63.963Z" transform="translate(-26.365 -47.791)"/></g></svg>