<svg xmlns="http://www.w3.org/2000/svg" viewBox="0 0 94.631 107.2"><defs><style>.meshIconA{fill:#35393b;}.meshIconB{fill:#54b7e3;}</style></defs><rect class="meshIconA" width="2.514" height="2.957" transform="translate(6.358 39.479)"/><rect class="meshIconA" width="2.514" height="2.957" transform="translate(6.358 43.767)"/><rect class="meshIconA" width="2.957" height="2.514" transform="translate(35.387 10.906) rotate(-28.215)"/><rect class="meshIconA" width="2.957" height="2.514" transform="translate(31.491 12.862) rotate(-28.215)"/><rect class="meshIconA" width="2.514" height="2.957" transform="translate(77.57 24.031) rotate(-61.156)"/><rect class="meshIconA" width="2.514" height="2.957" transform="translate(73.77 22.012) rotate(-61.156)"/><rect class="meshIconA" width="2.957" height="2.514" transform="translate(56.178 95.345) rotate(-28.231)"/><rect class="meshIconA" width="2.957" height="2.514" transform="translate(60.071 93.396) rotate(-28.215)"/><rect class="meshIconA" width="2.514" height="2.957" transform="translate(14.058 85.243) rotate(-61.156)"/><rect class="meshIconA" width="2.514" height="2.957" transform="translate(17.786 87.392) rotate(-61.156)"/><rect class="meshIconA" width="2.514" height="2.957" transform="translate(86.203 65.059)"/><rect class="meshIconA" width="2.514" height="2.957" transform="translate(86.203 60.623)"/><path class="meshIconA" d="M9.09,61.351a7.794,7.794,0,0,0-6.8,4.14L-17.377,52.923a15.515,15.515,0,0,0,1.626-6.949,14.433,14.433,0,0,0-1.479-6.506L3.62,28.23A6.784,6.784,0,0,0,8.2,30.448V51.592h2.514V30.448A7.557,7.557,0,0,0,9.09,15.514h0A7.573,7.573,0,0,0,1.55,23.055h0a7.946,7.946,0,0,0,.739,3.105L-18.412,37.4a15.027,15.027,0,0,0-10.5-6.21V7.234a8.1,8.1,0,0,0,5.323-3.7L-5.252,13.592l1.183-2.218L-22.7,1.172a4.094,4.094,0,0,0,.148-1.331A7.573,7.573,0,0,0-30.093-7.7,7.573,7.573,0,0,0-37.634-.159a7.475,7.475,0,0,0,6.21,7.393V30.892A15.233,15.233,0,0,0-43.4,37.841L-62.622,25.717a8.635,8.635,0,0,0,.591-2.662,7.608,7.608,0,0,0-2.218-5.323L-46.21,8.121-47.393,5.9l-19.222,10.35a5.831,5.831,0,0,0-2.957-.739,7.573,7.573,0,0,0-7.541,7.541A7.573,7.573,0,0,0-69.572,30.6a7.312,7.312,0,0,0,5.619-2.662l19.37,12.273a15.462,15.462,0,0,0-1.183,5.767,14.005,14.005,0,0,0,1.922,7.245l-20.7,11.09A7.94,7.94,0,0,0-68.98,61.5V40.355h-2.514V61.5A7.489,7.489,0,0,0-78,68.892a7.573,7.573,0,0,0,7.541,7.541,7.573,7.573,0,0,0,7.541-7.541,6.7,6.7,0,0,0-.444-2.366l20.848-11.237a14.847,14.847,0,0,0,11.09,5.619V84.566A7.315,7.315,0,0,0-37.19,89.3L-55.229,79.39l-1.183,2.218,18.631,10.35h0A7.573,7.573,0,0,0-30.241,99.5,7.573,7.573,0,0,0-22.7,91.959a7.475,7.475,0,0,0-6.21-7.393V60.908a15.208,15.208,0,0,0,10.2-5.914L1.7,68.005v.739a7.389,7.389,0,0,0,2.07,5.175l-17.891,9.611,1.183,2.218,18.926-10.2a7.946,7.946,0,0,0,3.105.739,7.467,7.467,0,1,0,0-14.934Zm0,12.568a5.027,5.027,0,1,1,5.027-5.027A5.08,5.08,0,0,1,9.09,73.92ZM-30.241,97.134a4.986,4.986,0,0,1-5.027-5.027,4.986,4.986,0,0,1,5.027-5.027,4.986,4.986,0,0,1,5.027,5.027A5.08,5.08,0,0,1-30.241,97.134Zm-.444-38.74A12.653,12.653,0,0,1-43.253,45.826,12.465,12.465,0,0,1-30.98,33.406h.3a4.094,4.094,0,0,1,1.331.148,12.483,12.483,0,0,1,11.09,12.42,12.4,12.4,0,0,1-12.42,12.42Zm.444-63.58A4.986,4.986,0,0,1-25.213-.159a4.986,4.986,0,0,1-5.027,5.027A4.986,4.986,0,0,1-35.268-.159a5.181,5.181,0,0,1,5.027-5.027ZM9.09,18.028a5.027,5.027,0,1,1-5.027,5.027A4.986,4.986,0,0,1,9.09,18.028ZM-69.572,28.082A4.986,4.986,0,0,1-74.6,23.055a4.986,4.986,0,0,1,5.027-5.027,4.986,4.986,0,0,1,5.027,5.027A5.08,5.08,0,0,1-69.572,28.082ZM-70.607,73.92a4.986,4.986,0,0,1-5.027-5.027,4.986,4.986,0,0,1,5.027-5.027,4.986,4.986,0,0,1,5.027,5.027,4.986,4.986,0,0,1-5.027,5.027Z" transform="translate(78 7.7)"/><path class="meshIconB" d="M-28.406,24.754a15.392,15.392,0,0,0-10.5-6.506l-1.331-.148h-1.183A15.335,15.335,0,0,0-56.5,33.625a14.485,14.485,0,0,0,2.218,7.689l.591.887a15.042,15.042,0,0,0,9.907,6.358,18.117,18.117,0,0,0,2.809.3A14.724,14.724,0,0,0-32.4,46.194,15.454,15.454,0,0,0-28.406,24.754Zm-11.977-3.4.739.148a11.552,11.552,0,0,1,8.132,4.436,12.2,12.2,0,0,1,2.662,8.872,11.552,11.552,0,0,1-4.436,8.132A12.894,12.894,0,0,1-42.157,45.6a11.552,11.552,0,0,1-8.132-4.436,12.2,12.2,0,0,1-2.662-8.872A12.253,12.253,0,0,1-41.122,21.353Z" transform="translate(88.289 20.048)"/></svg>