<svg xmlns="http://www.w3.org/2000/svg" width="25" height="30" viewBox="0 0 25 30"><defs><style>.namespaceA{fill:#2196c9;}</style></defs><path class="namespaceA" d="M317.474,385.229a.213.213,0,0,0-.008-.023l-.009-.01a3.386,3.386,0,0,0-1.436-1.519l-9.275-5.085a3.114,3.114,0,0,0-2.961,0l-9.267,5.085a3.4,3.4,0,0,0-1.313,1.282l-.01.01c-.006.01-.006.022-.013.032a3.188,3.188,0,0,0-.413,1.552V399.9a3.307,3.307,0,0,0,1.748,2.858l9.271,5.085a3.1,3.1,0,0,0,2.961,0l9.272-5.089a3.3,3.3,0,0,0,1.748-2.874V386.534A3.165,3.165,0,0,0,317.474,385.229Zm-22.5-.8,9.267-5.085a2.146,2.146,0,0,1,2.048,0l9.275,5.084a2.525,2.525,0,0,1,.89.83l-3.066,1.666a2.43,2.43,0,0,0-.861-.784l-6.193-3.391a2.234,2.234,0,0,0-2.128,0l-6.2,3.392a2.428,2.428,0,0,0-.75.646l-3.019-1.723A2.5,2.5,0,0,1,294.975,384.428Zm2.7,3.6,2.941,1.68v3.594l-2.157-1.182a1.489,1.489,0,0,1-.787-1.153v-.3h-.021v-2.477A1.56,1.56,0,0,1,297.673,388.032Zm3.4-2.57,3.293,1.779-3.25,1.747-3.077-1.756a1.57,1.57,0,0,1,.42-.34Zm.917-.5,2.67-1.462a1.28,1.28,0,0,1,1.215,0l2.7,1.479-3.284,1.766Zm3.285,6.913c-.012-.019-.023-.038-.034-.057l.037,0,.03,0Zm-3.75-1.593,1.955,1.069.042.024a2.445,2.445,0,0,1,1.292,2.125v2.084a1.159,1.159,0,0,1-.158-.061l-3.131-1.715Zm2.675,5.992a2.176,2.176,0,0,0,.614.214V399.3c0,.01,0,.017.005.027v.215a1.326,1.326,0,0,1-.142-.055l-3.152-1.727v-2.951Zm1.533.212a2.188,2.188,0,0,0,.6-.212l2.709-1.484v2.975l-3.144,1.722a1.134,1.134,0,0,1-.16.062Zm.139-.962a1.119,1.119,0,0,1-.139.055V393.5a2.444,2.444,0,0,1,1.295-2.121l2.009-1.092v3.5Zm.7-4.9a2.723,2.723,0,0,1-2.589,0l-.05-.028-1.919-1.1,3.275-1.761,3.295,1.779Zm-8.9,2.013a2.39,2.39,0,0,0,.336.24l2.608,1.429v2.951l-2.136-1.171a1.488,1.488,0,0,1-.808-1.292v-2.157Zm0,3.948a2.442,2.442,0,0,0,.357.254l2.587,1.417v2.459l-2.136-1.17a1.491,1.491,0,0,1-.808-1.292Zm3.857,2.171,2.7,1.477a2.139,2.139,0,0,0,.6.212V403a1.339,1.339,0,0,1-.142-.055l-3.152-1.727Zm4.208,1.692a2.152,2.152,0,0,0,.616-.215l2.688-1.472v2.459l-3.144,1.722a1.258,1.258,0,0,1-.16.062Zm4.217-2.187,2.59-1.419a2.413,2.413,0,0,0,.362-.258v1.665a1.5,1.5,0,0,1-.813,1.3l-2.139,1.171Zm2.952-3.471a1.5,1.5,0,0,1-.813,1.3l-2.139,1.171v-2.974l2.569-1.407a2.427,2.427,0,0,0,.383-.273v2.184Zm-.021-6.6v2.633a1.493,1.493,0,0,1-.813,1.3l-2.118,1.161v-3.5l2.931-1.592Zm-3.366.83-3.3-1.783,3.277-1.763,2.58,1.413.086.047a1.521,1.521,0,0,1,.434.415Zm-14.543,12.981a2.445,2.445,0,0,1-1.293-2.111V386.554a2.326,2.326,0,0,1,.128-.727l3.025,1.727a2.277,2.277,0,0,0-.1.635v2.646c0,.049.017.093.021.14v7.282a2.352,2.352,0,0,0,1.27,2.041l6.2,3.394a2.139,2.139,0,0,0,.6.212V407.3a2.071,2.071,0,0,1-.578-.2Zm21.882-2.129A2.444,2.444,0,0,1,315.564,402l-9.272,5.089a2.083,2.083,0,0,1-.557.2v-3.387a2.152,2.152,0,0,0,.616-.215l6.19-3.391a2.361,2.361,0,0,0,1.275-2.048v-7.585H313.8V388.2a2.237,2.237,0,0,0-.066-.461l3.058-1.661a2.259,2.259,0,0,1,.068.463Z" transform="translate(-292.769 -378.218)"/></svg>