<?xml version="1.0" encoding="utf-8"?>
<!-- Generator: Adobe Illustrator 22.1.0, SVG Export Plug-In . SVG Version: 6.00 Build 0)  -->
<svg version="1.1" id="Layer_1" xmlns="http://www.w3.org/2000/svg" xmlns:xlink="http://www.w3.org/1999/xlink" x="0px" y="0px"
	 viewBox="0 0 421.373 118.014" style="enable-background:new 0 0 421.373 118.014;" xml:space="preserve">
<style type="text/css">
	.st0{fill:#93D500;}
	.st1{fill:#4D5A31;}
	.st2{fill:#6BA43A;}
	.st3{fill:#424143;}
</style>
<g>
	<g>
		<g>
			<path class="st0" d="M32.601,67.409h-0.113H3.044c0.005,0.144,0.009,0.289,0.017,0.433c0.012,0.278,0.032,0.555,0.049,0.833
				c0.008,0.119,0.013,0.238,0.022,0.356c0.023,0.322,0.051,0.642,0.08,0.962c0.007,0.073,0.013,0.145,0.02,0.215
				c0.034,0.356,0.073,0.712,0.115,1.065c0.002,0.035,0.006,0.069,0.011,0.103c0.046,0.382,0.095,0.764,0.151,1.144
				c0,0.004,0.001,0.01,0.003,0.014c0.339,2.356,0.848,4.69,1.527,6.984c0.003,0.01,0.007,0.019,0.009,0.029
				c0.106,0.361,0.218,0.72,0.333,1.077c0.007,0.021,0.014,0.042,0.02,0.063s0.013,0.042,0.02,0.063
				c0.105,0.323,0.215,0.645,0.325,0.968c0.029,0.081,0.056,0.163,0.086,0.244c0.099,0.279,0.2,0.558,0.304,0.837
				c0.048,0.126,0.096,0.251,0.143,0.378c0.09,0.231,0.179,0.46,0.27,0.691c0.069,0.173,0.141,0.346,0.213,0.519
				c0.074,0.18,0.15,0.359,0.226,0.54c0.094,0.22,0.192,0.439,0.289,0.658c0.058,0.131,0.117,0.261,0.175,0.391
				c0.12,0.263,0.244,0.526,0.368,0.787c0.041,0.084,0.08,0.168,0.122,0.252c0.145,0.301,0.293,0.599,0.443,0.895
				c0.025,0.046,0.047,0.091,0.07,0.137c0.169,0.328,0.341,0.656,0.518,0.981c0.008,0.014,0.016,0.028,0.023,0.044
				c0.037,0.068,0.078,0.133,0.115,0.2l25.243-15.207l0.093-0.056C33.451,71.909,32.831,69.677,32.601,67.409z"/>
			<polygon class="st0" points="4.44,80.962 4.448,80.989 5.402,80.689 			"/>
			<path class="st1" d="M39.865,80.977l-0.071,0.071l-20.819,20.82c0.107,0.1,0.213,0.201,0.323,0.298
				c0.194,0.176,0.392,0.351,0.589,0.523c0.102,0.091,0.202,0.181,0.304,0.269c0.236,0.204,0.474,0.403,0.711,0.602
				c0.065,0.054,0.128,0.107,0.192,0.16c0.267,0.221,0.539,0.438,0.812,0.654c0.035,0.027,0.07,0.055,0.105,0.083
				c0.295,0.232,0.593,0.458,0.894,0.686c0.013,0.008,0.024,0.016,0.034,0.025c1.254,0.937,2.554,1.815,3.895,2.633
				c0.046,0.029,0.092,0.056,0.139,0.085c0.255,0.153,0.51,0.304,0.767,0.453c0.157,0.09,0.314,0.179,0.471,0.268
				c0.148,0.086,0.296,0.168,0.446,0.251c0.27,0.148,0.542,0.295,0.814,0.439c0.037,0.02,0.075,0.04,0.113,0.06
				c0.757,0.396,1.527,0.764,2.303,1.118l0,0l0.739-1.794L43.095,83.25l0.039-0.094C41.992,82.547,40.896,81.822,39.865,80.977z"/>
			<path class="st2" d="M37.697,78.904c-0.225-0.25-0.439-0.506-0.649-0.765c-0.186-0.23-0.366-0.462-0.54-0.697
				c-0.199-0.27-0.394-0.541-0.578-0.818c-0.186-0.278-0.368-0.558-0.54-0.843L10.114,91.006c0.388,0.645,0.793,1.273,1.206,1.894
				c0.014,0.021,0.027,0.044,0.041,0.065l0,0c0.005,0.008,0.01,0.015,0.015,0.023c0.014,0.02,0.026,0.042,0.04,0.063
				c0.001,0.002,0.003,0.004,0.004,0.006c0.033,0.05,0.067,0.098,0.101,0.148c0.002,0.003,0.004,0.006,0.006,0.009l0,0
				c0.001,0.001,0.002,0.003,0.003,0.004c0.439,0.649,0.89,1.288,1.355,1.91c0.01,0.013,0.021,0.027,0.031,0.04
				s0.02,0.026,0.03,0.039c0.202,0.268,0.405,0.535,0.614,0.8c0.027,0.035,0.054,0.069,0.083,0.103
				c0.214,0.274,0.432,0.544,0.654,0.812c0.052,0.063,0.106,0.127,0.158,0.191c0.2,0.239,0.4,0.477,0.604,0.713
				c0.087,0.101,0.178,0.202,0.266,0.302c0.174,0.198,0.346,0.395,0.524,0.59c0.097,0.107,0.198,0.215,0.297,0.322
				c0.045,0.049,0.089,0.097,0.135,0.146c0.13,0.14,0.259,0.28,0.39,0.419c0.052,0.055,0.107,0.109,0.16,0.164
				c0.23,0.24,0.462,0.48,0.699,0.716l20.85-20.85C38.142,79.396,37.918,79.151,37.697,78.904z"/>
			<path class="st1" d="M65.334,80.966c-0.229,0.185-0.461,0.366-0.697,0.54l0.052,0.087l15.202,25.235
				c0.704-0.46,1.4-0.934,2.08-1.432c1.471-1.085,2.895-2.261,4.267-3.527L65.416,81.048L65.334,80.966z"/>
			<path class="st0" d="M77.97,108.03c0.011-0.006,0.023-0.013,0.034-0.019l-0.001-0.001
				C77.992,108.017,77.981,108.023,77.97,108.03L77.97,108.03z"/>
			<polygon class="st0" points="77.956,108.039 77.956,108.039 77.956,108.038 77.955,108.039 			"/>
			<path class="st0" d="M78.003,108.01L78.003,108.01c0.067-0.036,0.134-0.071,0.2-0.11l-0.004-0.007
				C78.133,107.932,78.068,107.971,78.003,108.01z"/>
			<polygon class="st0" points="77.961,108.035 77.97,108.03 77.97,108.03 			"/>
			<polygon class="st0" points="77.955,108.039 77.956,108.038 77.919,107.976 			"/>
			<path class="st0" d="M77.97,108.03L77.97,108.03c0.012-0.006,0.023-0.012,0.034-0.018l0,0
				C77.993,108.017,77.981,108.024,77.97,108.03z"/>
			<polygon class="st0" points="77.942,108.046 77.942,108.046 77.951,108.042 77.951,108.041 			"/>
			<polygon class="st0" points="77.955,108.039 77.951,108.041 77.951,108.042 77.956,108.039 			"/>
			<path class="st0" d="M77.961,108.035c-0.002,0.001-0.004,0.002-0.006,0.003l0,0c0.005-0.003,0.01-0.005,0.015-0.008v-0.001
				C77.967,108.032,77.964,108.033,77.961,108.035z"/>
			<path class="st0" d="M78.004,108.012c0.066-0.039,0.133-0.072,0.198-0.112C78.137,107.94,78.07,107.974,78.004,108.012
				L78.004,108.012z"/>
			<polygon class="st0" points="78.202,107.9 78.198,107.893 78.198,107.893 			"/>
			<polygon class="st0" points="77.934,108.051 77.935,108.051 77.936,108.05 			"/>
			<polygon class="st0" points="77.942,108.047 77.936,108.05 77.936,108.05 77.942,108.047 77.942,108.046 			"/>
			<path class="st0" d="M77.682,107.036l-0.516-0.856l-14.19-23.555c-0.287,0.173-0.581,0.329-0.874,0.487
				c-0.296,0.159-0.594,0.308-0.896,0.451c-2.726,1.293-5.677,1.953-8.632,1.953c-1.936,0-3.871-0.28-5.742-0.838
				c-0.319-0.095-0.63-0.22-0.945-0.332c-0.315-0.111-0.634-0.207-0.944-0.335L34.48,109.423l-0.41,0.996l-0.351,0.853l-0.002,0.004
				c0.027,0.011,0.055,0.02,0.082,0.031c0.029,0.012,0.057,0.021,0.086,0.033h0.001c0.001,0,0.002,0.001,0.002,0.001
				c0.007,0.003,0.014,0.005,0.02,0.008c0.247,0.101,0.496,0.188,0.744,0.285c0.311,0.121,0.622,0.244,0.934,0.358
				c0.159,0.058,0.317,0.126,0.476,0.182h0.001l0,0c3.278,1.158,6.67,1.968,10.119,2.422c0.135,0.016,0.269,0.035,0.404,0.054
				c0.141,0.016,0.283,0.03,0.424,0.046c0.266,0.03,0.531,0.061,0.798,0.087c0.066,0.005,0.132,0.011,0.198,0.017
				c0.327,0.031,0.654,0.059,0.979,0.082c0.111,0.008,0.223,0.013,0.333,0.021c0.287,0.019,0.572,0.037,0.858,0.05
				c0.175,0.01,0.35,0.015,0.526,0.021c0.227,0.008,0.453,0.017,0.682,0.024c0.327,0.008,0.657,0.011,0.986,0.012
				c0.078,0,0.155,0.002,0.232,0.003c2.755,0,5.509-0.229,8.233-0.686l0,0c0.046-0.007,0.091-0.015,0.138-0.021
				c0.288-0.05,0.576-0.104,0.864-0.157c0.164-0.032,0.329-0.063,0.491-0.095c0.168-0.035,0.337-0.07,0.505-0.106
				c0.281-0.059,0.561-0.12,0.842-0.185c0.05-0.011,0.101-0.021,0.152-0.035c4.141-0.965,8.14-2.459,11.897-4.436l0.001-0.001l0,0
				c0.246-0.13,0.486-0.278,0.731-0.411c0.292-0.16,0.582-0.325,0.872-0.491c0.201-0.115,0.404-0.221,0.603-0.34l0.001-0.001
				c0.002-0.001,0.004-0.003,0.006-0.004c0,0,0,0,0.001,0l0,0c0.003-0.002,0.006-0.003,0.009-0.005
				c0.002-0.001,0.003-0.002,0.004-0.003l-0.037-0.063l0.037,0.063c0.002-0.001,0.004-0.002,0.006-0.003
				c0.003-0.002,0.006-0.003,0.009-0.005c0.011-0.007,0.022-0.013,0.033-0.02c0.065-0.039,0.13-0.078,0.195-0.117l0,0
				L77.682,107.036z"/>
			<path class="st0" d="M39.876,49.852c0.23-0.186,0.462-0.366,0.697-0.54l-0.052-0.087L25.32,23.99
				c-0.706,0.461-1.404,0.936-2.085,1.436c-1.47,1.082-2.893,2.257-4.262,3.522L39.795,49.77L39.876,49.852z"/>
			<path class="st1" d="M17.53,30.334c-0.237,0.237-0.461,0.482-0.692,0.722c-0.231,0.24-0.466,0.479-0.692,0.723
				c-1.538,1.665-2.944,3.409-4.212,5.22c-0.061,0.085-0.122,0.174-0.182,0.261c-0.143,0.208-0.284,0.416-0.423,0.625
				c-0.145,0.217-0.289,0.437-0.429,0.656c-0.053,0.08-0.105,0.161-0.156,0.241c-4.789,7.513-7.355,16.034-7.7,24.627
				c-0.013,0.333-0.02,0.667-0.027,1C3.011,64.742,3,65.076,3,65.409h29.488c0-0.334,0.031-0.666,0.048-1
				c0.017-0.334,0.022-0.668,0.055-1c0.381-3.84,1.863-7.589,4.447-10.739c0.21-0.256,0.447-0.496,0.672-0.743
				c0.224-0.247,0.432-0.504,0.671-0.742L17.53,30.334z"/>
			<path class="st1" d="M78.373,23.014c-0.04-0.025-0.082-0.049-0.122-0.073c-0.259-0.159-0.521-0.312-0.783-0.465
				c-0.152-0.088-0.304-0.173-0.457-0.26c-0.154-0.086-0.306-0.172-0.461-0.256c-0.266-0.146-0.533-0.29-0.801-0.432
				c-0.042-0.021-0.083-0.044-0.126-0.066c-1.729-0.904-3.505-1.7-5.318-2.391c-0.046-0.019-0.094-0.037-0.141-0.054
				c-0.395-0.148-0.791-0.295-1.19-0.433c-3.221-1.125-6.552-1.914-9.936-2.358c-0.138-0.019-0.277-0.038-0.415-0.056
				c-0.139-0.017-0.277-0.031-0.415-0.046c-0.267-0.031-0.533-0.061-0.801-0.087c-0.074-0.007-0.149-0.012-0.224-0.02
				c-0.317-0.029-0.636-0.057-0.953-0.08c-0.123-0.009-0.248-0.016-0.371-0.023c-0.272-0.018-0.547-0.037-0.819-0.049
				c-0.146-0.008-0.29-0.012-0.434-0.017l-0.001,29.444v0.115c1.517,0.157,3.02,0.48,4.478,0.975l21.754-21.754
				C80.03,24.069,79.213,23.525,78.373,23.014z"/>
			<polygon class="st2" points="27.529,23.781 27.013,22.924 27.013,22.924 			"/>
			<polygon class="st2" points="27.01,22.919 27.013,22.924 27.013,22.924 			"/>
			<path class="st2" d="M51.606,15.825c-0.333,0.007-0.667,0.008-1,0.021c-2.086,0.084-4.168,0.297-6.233,0.643
				c-0.045,0.008-0.09,0.015-0.136,0.023c-0.29,0.05-0.577,0.103-0.865,0.157c-0.163,0.031-0.327,0.061-0.49,0.094
				c-0.17,0.034-0.339,0.069-0.508,0.106c-0.28,0.058-0.56,0.119-0.84,0.184l0,0c-0.051,0.011-0.101,0.023-0.153,0.034
				c-4.141,0.966-8.142,2.461-11.898,4.438l0,0h-0.001c-0.245,0.13-0.484,0.277-0.728,0.411c-0.292,0.16-0.582,0.325-0.872,0.491
				c-0.215,0.124-0.434,0.238-0.648,0.366c-0.002,0.001-0.005,0.003-0.007,0.004h-0.001c-0.015,0.009-0.03,0.017-0.045,0.026
				c-0.056,0.034-0.114,0.062-0.17,0.096l0.003,0.005l0.516,0.857l0,0l14.705,24.412c0.287-0.173,0.581-0.33,0.874-0.487
				c0.295-0.159,0.594-0.308,0.895-0.451c2.1-1,4.332-1.62,6.601-1.85c0.333-0.034,0.666-0.062,1-0.079
				c0.333-0.017,0.666-0.034,1-0.034l0.001-29.487C52.272,15.804,51.939,15.818,51.606,15.825z"/>
			<path class="st1" d="M102.15,62.971c-0.014-0.265-0.03-0.529-0.048-0.795c-0.008-0.132-0.015-0.263-0.026-0.397
				c-0.022-0.311-0.048-0.623-0.077-0.934c-0.006-0.081-0.014-0.161-0.021-0.242c-0.034-0.348-0.071-0.696-0.111-1.043
				c-0.004-0.028-0.007-0.056-0.01-0.084c-0.002-0.013-0.003-0.027-0.005-0.04c-0.046-0.375-0.096-0.75-0.149-1.124
				c-0.001-0.011-0.002-0.025-0.005-0.035c-0.339-2.351-0.847-4.681-1.524-6.972c-0.005-0.016-0.009-0.03-0.014-0.044
				c-0.107-0.356-0.216-0.71-0.328-1.063c-0.015-0.046-0.031-0.093-0.045-0.14c-0.105-0.319-0.211-0.636-0.321-0.954
				c-0.031-0.085-0.061-0.171-0.091-0.258c-0.097-0.275-0.197-0.549-0.299-0.823c-0.049-0.131-0.099-0.261-0.15-0.391
				c-0.086-0.227-0.175-0.454-0.265-0.678c-0.072-0.18-0.144-0.357-0.218-0.534c-0.072-0.176-0.146-0.35-0.22-0.526
				c-0.097-0.224-0.195-0.448-0.294-0.671c-0.056-0.125-0.112-0.252-0.17-0.378c-0.122-0.266-0.247-0.532-0.373-0.797
				c-0.039-0.08-0.077-0.162-0.116-0.242c-0.147-0.303-0.296-0.606-0.448-0.906c-0.022-0.041-0.043-0.083-0.065-0.125
				c-0.17-0.331-0.344-0.663-0.521-0.99c-0.007-0.011-0.012-0.024-0.019-0.035c-0.859-1.58-1.802-3.108-2.822-4.578L71.632,58.931
				c0.495,1.459,0.817,2.961,0.974,4.477h0.116h29.444C102.161,63.262,102.157,63.116,102.15,62.971z"/>
			<path class="st2" d="M72.722,65.408c0,0.334-0.031,0.666-0.048,1c-0.016,0.334-0.022,0.668-0.055,1
				c-0.381,3.84-1.863,7.59-4.446,10.74c-0.21,0.256-0.447,0.496-0.672,0.743c-0.224,0.247-0.432,0.504-0.671,0.742l20.851,20.85
				c0.237-0.237,0.46-0.482,0.691-0.723s0.466-0.479,0.691-0.723c1.543-1.671,2.953-3.419,4.224-5.236
				c0.051-0.072,0.099-0.143,0.148-0.214c0.155-0.223,0.306-0.448,0.458-0.673c0.133-0.201,0.266-0.402,0.395-0.605
				c0.064-0.097,0.128-0.198,0.19-0.295c4.782-7.509,7.341-16.021,7.685-24.607c0.013-0.333,0.02-0.667,0.027-1s0.017-0.666,0.017-1
				H72.722V65.408z"/>
		</g>
		<path class="st3" d="M110.967,7.046c-5.395-5.395-14.142-5.395-19.536,0c-4.304,4.303-5.164,10.736-2.601,15.902L58.739,53.04
			c-5.166-2.562-11.599-1.703-15.903,2.6c-5.395,5.395-5.394,14.142,0,19.537c5.396,5.395,14.143,5.393,19.538-0.001
			c4.303-4.303,5.162-10.736,2.599-15.903l30.091-30.091c5.167,2.562,11.599,1.703,15.902-2.601
			C116.362,21.188,116.362,12.441,110.967,7.046z"/>
	</g>
	<g>
		<path class="st3" d="M117.381,54.729c0-14.783,10.811-25.374,25.668-25.374c14.782,0,25.594,10.591,25.594,25.374
			c0,14.782-10.811,25.375-25.594,25.375C128.193,80.103,117.381,69.511,117.381,54.729z M157.906,54.729
			c0-9.194-5.81-16.107-14.856-16.107c-9.121,0-14.931,6.913-14.931,16.107c0,9.119,5.81,16.107,14.931,16.107
			C152.095,70.836,157.906,63.848,157.906,54.729z"/>
		<path class="st3" d="M174.154,79.22V30.164h22.948c10.663,0,16.474,7.207,16.474,15.812c0,8.531-5.885,15.74-16.474,15.74h-12.504
			V79.22H174.154z M202.912,45.976c0-4.119-3.162-6.619-7.282-6.619h-11.031v13.165h11.031
			C199.75,52.522,202.912,50.022,202.912,45.976z"/>
		<path class="st3" d="M218.279,79.22V30.164h34.715v9.193h-24.27v10.297h23.756v9.194h-23.756v11.179h24.27v9.194L218.279,79.22
			L218.279,79.22z"/>
		<path class="st3" d="M293.146,79.22L269.76,47.227V79.22h-10.446V30.164h10.739l22.726,30.817V30.164h10.444V79.22H293.146z"/>
		<path class="st3" d="M347.424,79.22l-3.09-8.311H323.3l-3.089,8.311H308.37l18.902-49.056h13.094l18.899,49.056H347.424z
			 M333.817,40.608l-7.648,21.108h15.299L333.817,40.608z"/>
		<path class="st3" d="M361.981,79.22V30.164h22.947c10.663,0,16.474,7.207,16.474,15.812c0,8.531-5.886,15.74-16.474,15.74h-12.504
			V79.22H361.981z M390.739,45.976c0-4.119-3.162-6.619-7.282-6.619h-11.032v13.165h11.032
			C387.576,52.522,390.739,50.022,390.739,45.976z"/>
		<path class="st3" d="M406.106,79.22V30.164h10.445V79.22H406.106z"/>
	</g>
	<g>
		<path class="st2" d="M240.558,110.779V94.427h2.869v16.352H240.558z"/>
		<path class="st2" d="M265.293,110.779l-8.532-11.695v11.695h-2.869V94.427h2.942l8.361,11.326V94.427h2.867v16.352H265.293z"/>
		<path class="st2" d="M278.529,110.779V94.427h2.869v16.352H278.529z"/>
		<path class="st2" d="M295.762,110.779V96.951h-4.953v-2.525h12.773v2.525h-4.951v13.827L295.762,110.779L295.762,110.779z"/>
		<path class="st2" d="M312.994,110.779V94.427h2.869v16.352H312.994z"/>
		<path class="st2" d="M337.804,110.779l-1.203-3.163H329.1l-1.202,3.163h-3.261l6.424-16.352h3.578l6.423,16.352H337.804z
			 M332.851,97.294l-2.943,7.796h5.884L332.851,97.294z"/>
		<path class="st2" d="M352.118,110.779V96.951h-4.953v-2.525h12.774v2.525h-4.952v13.827L352.118,110.779L352.118,110.779z"/>
		<path class="st2" d="M369.351,110.779V94.427h2.869v16.352H369.351z"/>
		<path class="st2" d="M387.419,110.779l-6.425-16.352h3.261l4.953,13.214l4.953-13.214h3.259l-6.422,16.352H387.419z"/>
		<path class="st2" d="M406.169,110.779V94.427h11.203v2.525h-8.335v4.216h8.163v2.525h-8.163v4.56h8.335v2.526
			C417.372,110.779,406.169,110.779,406.169,110.779z"/>
	</g>
</g>
</svg>
