<svg xmlns="http://www.w3.org/2000/svg" xmlns:xlink="http://www.w3.org/1999/xlink" viewBox="0 0 63.683 28.829">
  <defs>
    <clipPath id="clip-path">
      <rect id="Rectangle_8533" data-name="Rectangle 8533" width="2" height="28.829" transform="translate(843.934 400.785)"/>
    </clipPath>
  </defs>
  <g id="proxy-icxon-large-black" transform="translate(0 0)">
    <g id="Group_24739" data-name="Group 24739" transform="translate(-823.422 -400.785)">
      <rect id="Rectangle_8530" data-name="Rectangle 8530" width="2.829" height="1.505" transform="translate(858.485 415.447)"/>
      <path id="Path_38717" data-name="Path 38717" d="M871.594,405.431v4.187h-22.31v1.521h23.83v-2.8l11.337,7.868-11.337,7.978v-2.789h-23.83v1.52h22.31v4.2L886.813,416.4l.293-.205Z"/>
      <rect id="Rectangle_8531" data-name="Rectangle 8531" width="2.829" height="1.505" transform="translate(867.931 415.447)"/>
      <rect id="Rectangle_8532" data-name="Rectangle 8532" width="2.829" height="1.505" transform="translate(863.272 415.447)"/>
    </g>
    <g id="Group_24753" data-name="Group 24753" transform="translate(-823.422 -400.785)">
      <g id="Group_24752" data-name="Group 24752" clip-path="url(#clip-path)">
        <g id="Repeat_Grid_55" data-name="Repeat Grid 55">
          <g id="Group_24741" data-name="Group 24741">
            <g id="Group_24740" data-name="Group 24740">
              <rect id="Rectangle_3801" data-name="Rectangle 3801" width="1.005" height="2.329" transform="translate(844.184 401.035)"/>
              <path id="Path_38718" data-name="Path 38718" d="M845.439,403.614h-1.5v-2.829h1.5Zm-1-.5h.5v-1.829h-.5Z"/>
            </g>
          </g>
          <g id="Group_24743" data-name="Group 24743">
            <g id="Group_24742" data-name="Group 24742">
              <rect id="Rectangle_3801-2" data-name="Rectangle 3801-2" width="1.005" height="2.329" transform="translate(844.184 406.035)"/>
              <path id="Path_38719" data-name="Path 38719" d="M845.439,408.614h-1.5v-2.829h1.5Zm-1-.5h.5v-1.829h-.5Z"/>
            </g>
          </g>
          <g id="Group_24745" data-name="Group 24745">
            <g id="Group_24744" data-name="Group 24744">
              <rect id="Rectangle_3801-3" data-name="Rectangle 3801-3" width="1.005" height="2.329" transform="translate(844.184 411.035)"/>
              <path id="Path_38720" data-name="Path 38720" d="M845.439,413.614h-1.5v-2.829h1.5Zm-1-.5h.5v-1.829h-.5Z"/>
            </g>
          </g>
          <g id="Group_24747" data-name="Group 24747">
            <g id="Group_24746" data-name="Group 24746">
              <rect id="Rectangle_3801-4" data-name="Rectangle 3801-4" width="1.005" height="2.329" transform="translate(844.184 416.035)"/>
              <path id="Path_38721" data-name="Path 38721" d="M845.439,418.614h-1.5v-2.829h1.5Zm-1-.5h.5v-1.829h-.5Z"/>
            </g>
          </g>
          <g id="Group_24749" data-name="Group 24749">
            <g id="Group_24748" data-name="Group 24748">
              <rect id="Rectangle_3801-5" data-name="Rectangle 3801-5" width="1.005" height="2.329" transform="translate(844.184 421.035)"/>
              <path id="Path_38722" data-name="Path 38722" d="M845.439,423.614h-1.5v-2.829h1.5Zm-1-.5h.5v-1.829h-.5Z"/>
            </g>
          </g>
          <g id="Group_24751" data-name="Group 24751">
            <g id="Group_24750" data-name="Group 24750">
              <rect id="Rectangle_3801-6" data-name="Rectangle 3801-6" width="1.005" height="2.329" transform="translate(844.184 426.035)"/>
              <path id="Path_38723" data-name="Path 38723" d="M845.439,428.614h-1.5v-2.829h1.5Zm-1-.5h.5v-1.829h-.5Z"/>
            </g>
          </g>
        </g>
      </g>
    </g>
    <g id="noun_Lock_969076" data-name="noun Lock 969076" transform="translate(-823.422 -400.785)">
      <path id="Path_4295" data-name="Path 4295" d="M827.022,411.494a.087.087,0,0,1-.081.081h-2.949a.57.57,0,0,0-.57.568v11.112a.569.569,0,0,0,.568.57h15.08a.568.568,0,0,0,.57-.568V412.145a.569.569,0,0,0-.568-.57H836.16a.087.087,0,0,1-.081-.081v-2.441a4.527,4.527,0,0,0-9.055,0v2.441Zm11.4,1.221a.089.089,0,0,1,.081.081V422.6a.087.087,0,0,1-.081.081H824.643a.087.087,0,0,1-.081-.081V412.8a.089.089,0,0,1,.081-.081Zm-10.239-3.662a3.378,3.378,0,1,1,6.756,0v2.441a.087.087,0,0,1-.081.081h-6.593a.087.087,0,0,1-.081-.081Z"/>
      <path id="Path_4296" data-name="Path 4296" d="M832.884,418.087a1.363,1.363,0,1,0-1.872,1.262l.02.02v1.2h.956v-1.2c0-.02,0-.02.02-.02A1.34,1.34,0,0,0,832.884,418.087Z"/>
    </g>
  </g>
</svg>
