<svg xmlns="http://www.w3.org/2000/svg" viewBox="0 0 70 70">
    <defs>
        <style>
            .route-icon-b{fill:#466bb0}
        </style>
    </defs>
    <rect width="70" height="70" style="opacity:0;fill:#466bb0"/>
    <g transform="translate(1.167 5.833)">
        <path class="route-icon-b" d="M360.739,440.231a3.3,3.3,0,0,0,3.028,5.417l3.334,5.969a1.145,1.145,0,0,0,.994.581h18.866l-2.195,1.4a.983.983,0,0,0-.3,1.346l0,.007a.981.981,0,0,0,.826.45.941.941,0,0,0,.52-.153l5.288-3.366a1.012,1.012,0,0,0,.282-.284.983.983,0,0,0-.294-1.359l-5.312-3.38a.978.978,0,0,0-1.008,1.672l2.19,1.395h-18.2l-2.977-5.322a3.337,3.337,0,0,0-3.1-5.546l-4.336-7.757a1.135,1.135,0,0,0-.991-.588H340.925q.142,1.148.348,2.277H356.69Z" transform="translate(-340.59 -396.071)"/>
        <path class="route-icon-b" d="M378.676,435.219a3.341,3.341,0,0,0,3.3-2.848h21.274l-2.2,1.4a.984.984,0,0,0-.3,1.341l.01.01a.977.977,0,0,0,1.346.294l5.269-3.356a1.042,1.042,0,0,0,.3-.294.98.98,0,0,0-.3-1.356l-5.313-3.383a.979.979,0,0,0-1.239.275,1,1,0,0,0,.229,1.4l2.192,1.395H381.512a3.333,3.333,0,0,0-5.672,0H340.8c0,.117-.017.231-.017.35,0,.649.068,1.281.1,1.922h34.492A3.343,3.343,0,0,0,378.676,435.219Z" transform="translate(-340.787 -401.497)"/>
        <path class="route-icon-b" d="M358.341,440.559l3.983-7.126a3.286,3.286,0,0,0,.994.168,3.338,3.338,0,0,0,2.192-5.867l3.247-5.806h18.2L384.8,423.3a.987.987,0,0,0-.479.576.98.98,0,0,0,.642,1.227.923.923,0,0,0,.27.044,1.167,1.167,0,0,0,.574-.17l5.283-3.363a.983.983,0,0,0,.284-1.359,1.094,1.094,0,0,0-.292-.287l-5.271-3.354a.977.977,0,0,0-1.351.294l0,.007a.986.986,0,0,0,.3,1.346l2.192,1.4H368.089a1.136,1.136,0,0,0-.992.583l-3.725,6.666-.054,0a3.342,3.342,0,0,0-2.821,5.147l-3.813,6.822H341.276c-.138.751-.25,1.509-.348,2.275h16.424A1.134,1.134,0,0,0,358.341,440.559Z" transform="translate(-340.584 -416.456)"/>
    </g>
</svg>
