<svg xmlns="http://www.w3.org/2000/svg" width="26" height="24" viewBox="0 0 26 24"><defs><style>.versionA{fill:#2196c9;}</style></defs><path class="versionA" d="M20.534,38.83h9.428a1.6,1.6,0,0,0,1.458-1.706V16.536a1.6,1.6,0,0,0-1.458-1.706H20.534a1.6,1.6,0,0,0-1.458,1.706V17.56h-6.8a1.6,1.6,0,0,0-1.458,1.706v1.024H6.878A1.6,1.6,0,0,0,5.42,22v9.67a1.6,1.6,0,0,0,1.458,1.706h3.937v1.024A1.6,1.6,0,0,0,12.273,36.1h6.8v1.024A1.6,1.6,0,0,0,20.534,38.83Zm-.292-22.291a.319.319,0,0,1,.292-.341h9.428a.319.319,0,0,1,.292.341V37.124a.319.319,0,0,1-.292.341H20.534a.319.319,0,0,1-.292-.341ZM6.878,32.006a.319.319,0,0,1-.292-.341V22a.319.319,0,0,1,.292-.341h3.937V32.006Zm5.395,2.73a.319.319,0,0,1-.292-.341V19.266a.319.319,0,0,1,.292-.341h6.8V34.736Z" transform="translate(-5.42 -14.83)"/></svg>