<svg xmlns="http://www.w3.org/2000/svg" width="27.754" height="16.27" viewBox="0 0 27.754 16.27">
    <defs>
        <style>
            .view-icon{fill:#282b2d}
        </style>
    </defs>
    <path class="view-icon" d="M169.359,390.606h0a5.255,5.255,0,1,0,5.256,5.255A5.262,5.262,0,0,0,169.359,390.605Zm0,9.357a4.1,4.1,0,0,1-4.1-4.1,4.081,4.081,0,0,1,3.6-4.07v-.028l.5,0a4.1,4.1,0,1,1,0,8.2Z" transform="translate(-155.483 -387.724)"/>
    <path class="view-icon" d="M169.367,387.728h-.016l-.31,0a16.212,16.212,0,0,0-13.47,7.8.642.642,0,0,0,.005.657,16.071,16.071,0,0,0,27.57-.007.626.626,0,0,0,0-.654C179.915,390.528,174.764,387.6,169.367,387.728Zm12.5,8.451a15.048,15.048,0,0,1-12.519,6.656c-.085,0-.171,0-.257,0a15.116,15.116,0,0,1-12.248-6.658l-.23-.319.23-.319a15.148,15.148,0,0,1,12.505-6.655h0a15.091,15.091,0,0,1,12.519,6.654l.229.319Z" transform="translate(-155.483 -387.724)"/>
</svg>
