<svg xmlns="http://www.w3.org/2000/svg" viewBox="0 0 24 24.001"><defs><style>.watchedNamespacesA,.watchedNamespacesB{fill:#2196c9;}.watchedNamespacesA{opacity:0;}</style></defs><rect class="watchedNamespacesA" width="24" height="24"/><g transform="translate(0 0.004)"><path class="watchedNamespacesB" d="M40.762,28.97a2.487,2.487,0,0,0-2.512,1.675L34.5,29.977a4.237,4.237,0,0,0-2.086-3.294l1.357-2.647.009,0a2.5,2.5,0,0,0,.42.036,2.5,2.5,0,0,0,2.453-2.089,2.494,2.494,0,1,0-3.982,1.551L31.287,26.23a4.16,4.16,0,0,0-3.951,1.1l-2.081-2.11a2.493,2.493,0,0,0-1.893-3.892,2.452,2.452,0,0,0-1.808.612,2.508,2.508,0,0,0,1.472,4.385c.057,0,.114.006.171.006a2.456,2.456,0,0,0,1.164-.3L26.6,28.308a4.217,4.217,0,0,0-.234,3.554l-3.033,2.108a2.467,2.467,0,0,0-1.585-.734,2.5,2.5,0,0,0-.336,5c.057,0,.113.006.169.006a2.488,2.488,0,0,0,2.377-3.234l3-2.086A4.2,4.2,0,0,0,30.3,34.576c.041,0,.081-.005.122-.006l.994,3.8a2.526,2.526,0,0,0-.413.293,2.508,2.508,0,0,0,1.472,4.386c.057,0,.114.006.171.006a2.5,2.5,0,0,0,2.484-2.336,2.5,2.5,0,0,0-2.32-2.667c-.078-.006-.154,0-.232.006l-.966-3.7a4.242,4.242,0,0,0,2.817-3.169l3.706.66a2.5,2.5,0,0,0,2.292,2.114c.057,0,.113.006.169.006a2.505,2.505,0,0,0,.167-5ZM32.92,21.353a1.289,1.289,0,1,1,1.057,1.493A1.293,1.293,0,0,1,32.92,21.353ZM21.5,37.028a1.293,1.293,0,0,1-1.2-1.379,1.294,1.294,0,0,1,1.286-1.208l.088,0a1.295,1.295,0,0,1-.174,2.584ZM33.612,39.7a1.3,1.3,0,0,1-.123,1.827,1.276,1.276,0,0,1-.935.317,1.3,1.3,0,0,1-.761-2.267,1.285,1.285,0,0,1,1.819.123ZM30.3,33.367a3.025,3.025,0,1,1,3.011-3.025A3.022,3.022,0,0,1,30.3,33.367Zm10.209-.605a1.295,1.295,0,1,1,1.373-1.2A1.295,1.295,0,0,1,40.507,32.761Z" transform="translate(-19.088 -19.063)"/></g></svg>