<svg xmlns="http://www.w3.org/2000/svg" width="24" height="24" viewBox="0 0 24 24"><defs><style>.a,.b{fill:#fff;}.a{opacity:0;}</style></defs><rect class="a" width="24" height="24" transform="translate(0)"/><path class="b" d="M-8.808,15.748a3.027,3.027,0,0,0-3,3.051,3.053,3.053,0,0,0,.91,2.189l.319.315-5.168,1.274-.092-.163a2.276,2.276,0,0,0-1.977-1.167,2.3,2.3,0,0,0-2.271,2.163l-.012.187-4.062.9.154-.426a3.086,3.086,0,0,0,.184-1.054,3.027,3.027,0,0,0-3-3.05,3.027,3.027,0,0,0-3,3.05,3.027,3.027,0,0,0,3,3.051,2.93,2.93,0,0,0,1.194-.252l.046-.015,5.691-1.256.089.16a2.293,2.293,0,0,0,.961.933l.24.123-3.223,5.249a.485.485,0,0,0-.012.491.468.468,0,0,0,.416.249h7.2a.469.469,0,0,0,.416-.249.486.486,0,0,0-.013-.491l-3.223-5.249.24-.123A2.326,2.326,0,0,0-15.54,23.7l.011-.184,6.805-1.672A3.009,3.009,0,0,0-5.812,18.8,3.027,3.027,0,0,0-8.808,15.748ZM-26.815,25.1a2.067,2.067,0,0,1-2.046-2.083,2.067,2.067,0,0,1,2.046-2.082,2.067,2.067,0,0,1,2.046,2.082A2.067,2.067,0,0,1-26.815,25.1Zm11.748,5.683h-5.488l2.744-4.469Zm-2.744-5.866a1.339,1.339,0,0,1-1.325-1.35,1.339,1.339,0,0,1,1.325-1.349,1.339,1.339,0,0,1,1.326,1.349A1.339,1.339,0,0,1-17.812,24.914Zm9-4.033A2.067,2.067,0,0,1-10.854,18.8a2.067,2.067,0,0,1,2.045-2.082A2.067,2.067,0,0,1-6.763,18.8,2.067,2.067,0,0,1-8.808,20.881Z" transform="translate(29.812 -11.235)"/></svg>