<svg version="1.1" xmlns="http://www.w3.org/2000/svg" viewBox="0 0 599.6127368620828 627.5342812427847" width="599.6127368620828" height="627.5342812427847">
  <!-- svg-source:excalidraw -->
  
  <defs>
    <style class="style-fonts">
      @font-face {
        font-family: "Virgil";
        src: url("https://excalidraw.com/Virgil.woff2");
      }
      @font-face {
        font-family: "Cascadia";
        src: url("https://excalidraw.com/Cascadia.woff2");
      }
      @font-face {
        font-family: "Assistant";
        src: url("https://app.excalidraw.com//dist/excalidraw-assets/Assistant-Regular.woff2");
      }
    </style>
    
  </defs>
  <rect x="0" y="0" width="599.6127368620828" height="627.5342812427847" fill="#ffffff"></rect><g stroke-linecap="round"><g transform="translate(61.58214438350484 58.9160821094803) rotate(0 -0.11470761279684893 278.57595705931675)"><path d="M0 0 C-0.07 160.6, -0.13 321.21, -0.23 557.15" stroke="#003c6a" stroke-width="1.5" fill="none" stroke-dasharray="8 9"></path></g></g><mask></mask><g stroke-linecap="round"><g transform="translate(215.46300375850484 56.45262317737584) rotate(0 0.1057499728192397 280.54082903270444)"><path d="M0 0 C0.08 199.65, 0.15 399.3, 0.21 561.08" stroke="#003c6a" stroke-width="1.5" fill="none" stroke-dasharray="8 9"></path></g></g><mask></mask><g stroke-linecap="round"><g transform="translate(374.17182134815477 69.20342952737442) rotate(0 1.0733138208009336 272.81256589249654)"><path d="M0 0 C0.84 213.49, 1.68 426.99, 2.15 545.63" stroke="#003c6a" stroke-width="1.5" fill="none" stroke-dasharray="8 9"></path></g></g><mask></mask><g stroke-linecap="round"><g transform="translate(538.715800899824 63.88454992352018) rotate(359.7617346086621 1.6585628131037424 274.4018124583425)"><path d="M0 0 C0.96 158.44, 1.92 316.89, 3.32 548.8" stroke="#003c6a" stroke-width="1.5" fill="none" stroke-dasharray="8 9"></path></g></g><mask></mask><g stroke-linecap="round" transform="translate(10 13.634187799290146) rotate(0 51.78478699586461 28)"><path d="M0 0 L103.57 0 L103.57 56 L0 56" stroke="none" stroke-width="0" fill="#ffffff"></path><path d="M0 0 C35.78 0, 71.55 0, 103.57 0 M0 0 C25.35 0, 50.71 0, 103.57 0 M103.57 0 C103.57 13.91, 103.57 27.83, 103.57 56 M103.57 0 C103.57 21.22, 103.57 42.45, 103.57 56 M103.57 56 C70.04 56, 36.51 56, 0 56 M103.57 56 C66.25 56, 28.93 56, 0 56 M0 56 C0 42.25, 0 28.51, 0 0 M0 56 C0 39.62, 0 23.23, 0 0" stroke="#003c6a" stroke-width="1" fill="none"></path></g><g transform="translate(16.882443245864636 23.23418779929014) rotate(0 44.90234375 18.400000000000006)"><text x="44.90234375" y="0" font-family="Helvetica, Segoe UI Emoji" font-size="16px" fill="#1e1e1e" text-anchor="middle" style="white-space: pre;" direction="ltr" dominant-baseline="text-before-edge">Downstream</text><text x="44.90234375" y="18.4" font-family="Helvetica, Segoe UI Emoji" font-size="16px" fill="#1e1e1e" text-anchor="middle" style="white-space: pre;" direction="ltr" dominant-baseline="text-before-edge">service</text></g><g stroke-linecap="round" transform="translate(165.64130578157034 12.131089994288772) rotate(0 51.78478699586458 28)"><path d="M0 0 L103.57 0 L103.57 56 L0 56" stroke="none" stroke-width="0" fill="#ffffff"></path><path d="M0 0 C37.41 0, 74.83 0, 103.57 0 M0 0 C27.63 0, 55.26 0, 103.57 0 M103.57 0 C103.57 12.74, 103.57 25.48, 103.57 56 M103.57 0 C103.57 14.81, 103.57 29.61, 103.57 56 M103.57 56 C78.32 56, 53.07 56, 0 56 M103.57 56 C76.75 56, 49.93 56, 0 56 M0 56 C0 44.13, 0 32.26, 0 0 M0 56 C0 37.19, 0 18.37, 0 0" stroke="#003c6a" stroke-width="1" fill="none"></path></g><g transform="translate(187.62921777743492 21.731089994288766) rotate(0 29.796875 18.39999999999999)"><text x="29.796875" y="0" font-family="Helvetica, Segoe UI Emoji" font-size="16px" fill="#1e1e1e" text-anchor="middle" style="white-space: pre;" direction="ltr" dominant-baseline="text-before-edge">Envoy </text><text x="29.796875" y="18.4" font-family="Helvetica, Segoe UI Emoji" font-size="16px" fill="#1e1e1e" text-anchor="middle" style="white-space: pre;" direction="ltr" dominant-baseline="text-before-edge">gateway</text></g><g stroke-linecap="round" transform="translate(323.2404848830167 11.13028254212702) rotate(0 51.784786995864636 28.22409112034444)"><path d="M0 0 L103.57 0 L103.57 56.45 L0 56.45" stroke="none" stroke-width="0" fill="#ffffff"></path><path d="M0 0 C37.12 0, 74.23 0, 103.57 0 M0 0 C32.32 0, 64.64 0, 103.57 0 M103.57 0 C103.57 22.35, 103.57 44.71, 103.57 56.45 M103.57 0 C103.57 17.29, 103.57 34.59, 103.57 56.45 M103.57 56.45 C71.57 56.45, 39.57 56.45, 0 56.45 M103.57 56.45 C78.52 56.45, 53.48 56.45, 0 56.45 M0 56.45 C0 39.47, 0 22.49, 0 0 M0 56.45 C0 41.17, 0 25.89, 0 0" stroke="#003c6a" stroke-width="1" fill="none"></path></g><g transform="translate(344.79480312888126 20.954373662471454) rotate(0 30.23046875 18.400000000000006)"><text x="30.23046875" y="0" font-family="Helvetica, Segoe UI Emoji" font-size="16px" fill="#1e1e1e" text-anchor="middle" style="white-space: pre;" direction="ltr" dominant-baseline="text-before-edge">ExtProc </text><text x="30.23046875" y="18.4" font-family="Helvetica, Segoe UI Emoji" font-size="16px" fill="#1e1e1e" text-anchor="middle" style="white-space: pre;" direction="ltr" dominant-baseline="text-before-edge">server</text></g><g stroke-linecap="round" transform="translate(486.0431628703537 10) rotate(0 51.78478699586458 28)"><path d="M0 0 L103.57 0 L103.57 56 L0 56" stroke="none" stroke-width="0" fill="#ffffff"></path><path d="M0 0 C36.45 0, 72.89 0, 103.57 0 M0 0 C24.42 0, 48.83 0, 103.57 0 M103.57 0 C103.57 19.02, 103.57 38.03, 103.57 56 M103.57 0 C103.57 21.34, 103.57 42.69, 103.57 56 M103.57 56 C69.94 56, 36.31 56, 0 56 M103.57 56 C74.39 56, 45.22 56, 0 56 M0 56 C0 37.94, 0 19.88, 0 0 M0 56 C0 36.98, 0 17.95, 0 0" stroke="#003c6a" stroke-width="1" fill="none"></path></g><g transform="translate(500.92951236621826 19.599999999999994) rotate(0 36.8984375 18.400000000000006)"><text x="36.8984375" y="0" font-family="Helvetica, Segoe UI Emoji" font-size="16px" fill="#1e1e1e" text-anchor="middle" style="white-space: pre;" direction="ltr" dominant-baseline="text-before-edge">Upstream </text><text x="36.8984375" y="18.4" font-family="Helvetica, Segoe UI Emoji" font-size="16px" fill="#1e1e1e" text-anchor="middle" style="white-space: pre;" direction="ltr" dominant-baseline="text-before-edge">service</text></g><g stroke-linecap="round"><g transform="translate(61.140261084829376 165.52004614439247) rotate(0 77.01043705715088 -0.327274736661451)"><path d="M0 0 C49.66 -0.21, 99.31 -0.42, 154.02 -0.65 M0 0 C44.62 -0.19, 89.24 -0.38, 154.02 -0.65" stroke="#1e1e1e" stroke-width="2" fill="none"></path></g><g transform="translate(61.140261084829376 165.52004614439247) rotate(0 77.01043705715088 -0.327274736661451)"><path d="M154.02 -0.65 L140.45 5.74 L140.4 -6.94 L154.02 -0.65" stroke="none" stroke-width="0" fill="#1e1e1e" fill-rule="evenodd"></path><path d="M154.02 -0.65 C149.65 1.41, 145.27 3.47, 140.45 5.74 M154.02 -0.65 C150.09 1.2, 146.16 3.05, 140.45 5.74 M140.45 5.74 C140.44 3.06, 140.43 0.37, 140.4 -6.94 M140.45 5.74 C140.44 2.87, 140.43 0, 140.4 -6.94 M140.4 -6.94 C144.11 -5.22, 147.82 -3.51, 154.02 -0.65 M140.4 -6.94 C143.73 -5.4, 147.07 -3.86, 154.02 -0.65 M154.02 -0.65 C154.02 -0.65, 154.02 -0.65, 154.02 -0.65 M154.02 -0.65 C154.02 -0.65, 154.02 -0.65, 154.02 -0.65" stroke="#1e1e1e" stroke-width="2" fill="none"></path></g></g><mask></mask><g transform="translate(74.98249785540463 113.9598858883829) rotate(0 49.81249999999997 18.400000000000006)"><text x="49.8125" y="0" font-family="Helvetica, Segoe UI Emoji" font-size="16px" fill="#1e1e1e" text-anchor="middle" style="white-space: pre;" direction="ltr" dominant-baseline="text-before-edge">Send request </text><text x="49.8125" y="18.4" font-family="Helvetica, Segoe UI Emoji" font-size="16px" fill="#1e1e1e" text-anchor="middle" style="white-space: pre;" direction="ltr" dominant-baseline="text-before-edge">with headers</text></g><g stroke-linecap="round"><g transform="translate(215.4747340682224 222.57276134817093) rotate(0 78.89343856286513 -0.2488380061303701)"><path d="M0 0 C56.57 -0.18, 113.14 -0.36, 157.79 -0.5 M0 0 C42.87 -0.14, 85.74 -0.27, 157.79 -0.5" stroke="#1e1e1e" stroke-width="2" fill="none"></path></g><g transform="translate(215.4747340682224 222.57276134817093) rotate(0 78.89343856286513 -0.2488380061303701)"><path d="M157.79 -0.5 L144.21 5.88 L144.17 -6.79 L157.79 -0.5" stroke="none" stroke-width="0" fill="#1e1e1e" fill-rule="evenodd"></path><path d="M157.79 -0.5 C152.92 1.79, 148.05 4.08, 144.21 5.88 M157.79 -0.5 C154.1 1.24, 150.41 2.97, 144.21 5.88 M144.21 5.88 C144.2 3.29, 144.2 0.69, 144.17 -6.79 M144.21 5.88 C144.2 1.68, 144.19 -2.53, 144.17 -6.79 M144.17 -6.79 C148.79 -4.66, 153.4 -2.53, 157.79 -0.5 M144.17 -6.79 C149.48 -4.34, 154.79 -1.88, 157.79 -0.5 M157.79 -0.5 C157.79 -0.5, 157.79 -0.5, 157.79 -0.5 M157.79 -0.5 C157.79 -0.5, 157.79 -0.5, 157.79 -0.5" stroke="#1e1e1e" stroke-width="2" fill="none"></path></g></g><mask></mask><g transform="translate(234.26446946680488 176.9332302680048) rotate(0 60.46875 18.400000000000006)"><text x="60.46875" y="0" font-family="Helvetica, Segoe UI Emoji" font-size="16px" fill="#1e1e1e" text-anchor="middle" style="white-space: pre;" direction="ltr" dominant-baseline="text-before-edge">Forward request </text><text x="60.46875" y="18.4" font-family="Helvetica, Segoe UI Emoji" font-size="16px" fill="#1e1e1e" text-anchor="middle" style="white-space: pre;" direction="ltr" dominant-baseline="text-before-edge">headers</text></g><g transform="translate(416.7997083328593 281.3741366219308) rotate(0 44.48046875 27.599999999999994)"><text x="44.48046875" y="0" font-family="Helvetica, Segoe UI Emoji" font-size="16px" fill="#1e1e1e" text-anchor="middle" style="white-space: pre;" direction="ltr" dominant-baseline="text-before-edge">Modify, </text><text x="44.48046875" y="18.4" font-family="Helvetica, Segoe UI Emoji" font-size="16px" fill="#1e1e1e" text-anchor="middle" style="white-space: pre;" direction="ltr" dominant-baseline="text-before-edge">remove, and</text><text x="44.48046875" y="36.8" font-family="Helvetica, Segoe UI Emoji" font-size="16px" fill="#1e1e1e" text-anchor="middle" style="white-space: pre;" direction="ltr" dominant-baseline="text-before-edge">add headers</text></g><g stroke-linecap="round"><g transform="translate(373.75446328915274 402.94534747341584) rotate(0 -78.63484470451556 0.0942017674476574)"><path d="M0 0 C-26.21 0.03, -131.06 0.16, -157.27 0.19 M0 0 C-26.21 0.03, -131.06 0.16, -157.27 0.19" stroke="#1e1e1e" stroke-width="2" fill="none"></path></g><g transform="translate(373.75446328915274 402.94534747341584) rotate(0 -78.63484470451556 0.0942017674476574)"><path d="M-157.27 0.19 L-143.68 -6.17 L-143.67 6.51 L-157.27 0.19" stroke="none" stroke-width="0" fill="#1e1e1e" fill-rule="evenodd"></path><path d="M-157.27 0.19 C-152.89 -1.86, -148.52 -3.9, -143.68 -6.17 M-157.27 0.19 C-154.5 -1.11, -151.74 -2.4, -143.68 -6.17 M-143.68 -6.17 C-143.68 -2.7, -143.67 0.77, -143.67 6.51 M-143.68 -6.17 C-143.68 -3.13, -143.68 -0.1, -143.67 6.51 M-143.67 6.51 C-146.55 5.17, -149.44 3.83, -157.27 0.19 M-143.67 6.51 C-147.71 4.63, -151.75 2.75, -157.27 0.19 M-157.27 0.19 C-157.27 0.19, -157.27 0.19, -157.27 0.19 M-157.27 0.19 C-157.27 0.19, -157.27 0.19, -157.27 0.19" stroke="#1e1e1e" stroke-width="2" fill="none"></path></g></g><mask></mask><g transform="translate(233.20115668603756 348.4282359167753) rotate(0 61.37109375 18.400000000000006)"><text x="61.37109375" y="0" font-family="Helvetica, Segoe UI Emoji" font-size="16px" fill="#1e1e1e" text-anchor="middle" style="white-space: pre;" direction="ltr" dominant-baseline="text-before-edge">Send back </text><text x="61.37109375" y="18.4" font-family="Helvetica, Segoe UI Emoji" font-size="16px" fill="#1e1e1e" text-anchor="middle" style="white-space: pre;" direction="ltr" dominant-baseline="text-before-edge">modified headers</text></g><g stroke-linecap="round"><g transform="translate(216.0403593821339 440.3001004817768) rotate(0 12.700806460214892 30.21318720966957)"><path d="M0 0 C2.53 2.39, 11.34 9.65, 15.18 14.33 C19.02 19.02, 21.33 23.83, 23.03 28.1 C24.74 32.37, 25.97 35.96, 25.4 39.98 C24.84 44, 23.22 48.81, 19.64 52.21 C16.05 55.62, 6.51 59.06, 3.89 60.43 M0 0 C2.53 2.39, 11.34 9.65, 15.18 14.33 C19.02 19.02, 21.33 23.83, 23.03 28.1 C24.74 32.37, 25.97 35.96, 25.4 39.98 C24.84 44, 23.22 48.81, 19.64 52.21 C16.05 55.62, 6.51 59.06, 3.89 60.43" stroke="#1e1e1e" stroke-width="2" fill="none"></path></g><g transform="translate(216.0403593821339 440.3001004817768) rotate(0 12.700806460214892 30.21318720966957)"><path d="M3.89 60.43 L9.71 53.72 L12.77 60.57 L3.89 60.43" stroke="none" stroke-width="0" fill="#1e1e1e" fill-rule="evenodd"></path><path d="M3.89 60.43 C5.44 58.64, 6.99 56.85, 9.71 53.72 M3.89 60.43 C5.58 58.48, 7.27 56.53, 9.71 53.72 M9.71 53.72 C10.48 55.44, 11.25 57.17, 12.77 60.57 M9.71 53.72 C10.72 55.98, 11.73 58.24, 12.77 60.57 M12.77 60.57 C10.73 60.54, 8.69 60.5, 3.89 60.43 M12.77 60.57 C9.52 60.52, 6.28 60.47, 3.89 60.43 M3.89 60.43 C3.89 60.43, 3.89 60.43, 3.89 60.43 M3.89 60.43 C3.89 60.43, 3.89 60.43, 3.89 60.43" stroke="#1e1e1e" stroke-width="2" fill="none"></path></g></g><mask></mask><g transform="translate(252.84086343532482 455.19242527758615) rotate(0 45.3671875 18.399999999999977)"><text x="45.3671875" y="0" font-family="Helvetica, Segoe UI Emoji" font-size="16px" fill="#1e1e1e" text-anchor="middle" style="white-space: pre;" direction="ltr" dominant-baseline="text-before-edge">Add headers</text><text x="45.3671875" y="18.4" font-family="Helvetica, Segoe UI Emoji" font-size="16px" fill="#1e1e1e" text-anchor="middle" style="white-space: pre;" direction="ltr" dominant-baseline="text-before-edge">to request</text></g><g stroke-linecap="round"><g transform="translate(216.28271430424076 592.913142778399) rotate(0 162.49603620822546 -1.09724084904974)"><path d="M0 0 C54.17 -0.37, 270.83 -1.83, 324.99 -2.19 M0 0 C54.17 -0.37, 270.83 -1.83, 324.99 -2.19" stroke="#1e1e1e" stroke-width="2" fill="none"></path></g><g transform="translate(216.28271430424076 592.913142778399) rotate(0 162.49603620822546 -1.09724084904974)"><path d="M324.99 -2.19 L311.44 4.24 L311.35 -8.44 L324.99 -2.19" stroke="none" stroke-width="0" fill="#1e1e1e" fill-rule="evenodd"></path><path d="M324.99 -2.19 C321.54 -0.56, 318.08 1.08, 311.44 4.24 M324.99 -2.19 C320.42 -0.02, 315.84 2.15, 311.44 4.24 M311.44 4.24 C311.41 -0.6, 311.38 -5.43, 311.35 -8.44 M311.44 4.24 C311.41 -0.14, 311.38 -4.51, 311.35 -8.44 M311.35 -8.44 C314.71 -6.91, 318.06 -5.37, 324.99 -2.19 M311.35 -8.44 C314.84 -6.85, 318.32 -5.25, 324.99 -2.19 M324.99 -2.19 C324.99 -2.19, 324.99 -2.19, 324.99 -2.19 M324.99 -2.19 C324.99 -2.19, 324.99 -2.19, 324.99 -2.19" stroke="#1e1e1e" stroke-width="2" fill="none"></path></g></g><mask></mask><g transform="translate(228.5710648351008 548.5827276956356) rotate(0 60.46875 18.399999999999977)"><text x="60.46875" y="0" font-family="Helvetica, Segoe UI Emoji" font-size="16px" fill="#1e1e1e" text-anchor="middle" style="white-space: pre;" direction="ltr" dominant-baseline="text-before-edge">Forward request </text><text x="60.46875" y="18.4" font-family="Helvetica, Segoe UI Emoji" font-size="16px" fill="#1e1e1e" text-anchor="middle" style="white-space: pre;" direction="ltr" dominant-baseline="text-before-edge">to upstream</text></g><g stroke-linecap="round"><g transform="translate(377.8408377211452 275.243856063698) rotate(0 11.73495723963299 32.849175138158785)"><path d="M0 0 C2.53 2.39, 11.34 9.65, 15.18 14.33 C19.02 19.02, 21.33 23.83, 23.03 28.1 C24.74 32.37, 25.97 35.96, 25.4 39.98 C24.84 44, 24.19 47.93, 19.64 52.21 C15.08 56.5, 1.66 63.45, -1.93 65.7 M0 0 C2.53 2.39, 11.34 9.65, 15.18 14.33 C19.02 19.02, 21.33 23.83, 23.03 28.1 C24.74 32.37, 25.97 35.96, 25.4 39.98 C24.84 44, 24.19 47.93, 19.64 52.21 C15.08 56.5, 1.66 63.45, -1.93 65.7" stroke="#1e1e1e" stroke-width="2" fill="none"></path></g><g transform="translate(377.8408377211452 275.243856063698) rotate(0 11.73495723963299 32.849175138158785)"><path d="M-1.93 65.7 L5.38 55.29 L10.74 64.62 L-1.93 65.7" stroke="none" stroke-width="0" fill="#1e1e1e" fill-rule="evenodd"></path><path d="M-1.93 65.7 C-0.29 63.37, 1.34 61.04, 5.38 55.29 M-1.93 65.7 C0.24 62.61, 2.41 59.52, 5.38 55.29 M5.38 55.29 C6.89 57.91, 8.39 60.52, 10.74 64.62 M5.38 55.29 C7.11 58.29, 8.83 61.29, 10.74 64.62 M10.74 64.62 C6.68 64.96, 2.62 65.31, -1.93 65.7 M10.74 64.62 C5.85 65.03, 0.97 65.45, -1.93 65.7 M-1.93 65.7 C-1.93 65.7, -1.93 65.7, -1.93 65.7 M-1.93 65.7 C-1.93 65.7, -1.93 65.7, -1.93 65.7" stroke="#1e1e1e" stroke-width="2" fill="none"></path></g></g><mask></mask></svg>