<?xml version="1.0" encoding="utf-8"?>
<!-- Generator: Adobe Illustrator 26.5.0, SVG Export Plug-In . SVG Version: 6.00 Build 0)  -->
<svg version="1.1" id="Layer_1" xmlns="http://www.w3.org/2000/svg" xmlns:xlink="http://www.w3.org/1999/xlink" x="0px" y="0px"
	 viewBox="0 0 369.1 369.1" style="enable-background:new 0 0 369.1 369.1;" xml:space="preserve">
<style type="text/css">
	.st0{fill:#FFFFFF;}
	.st1{fill-rule:evenodd;clip-rule:evenodd;fill:#158BC2;}
	.st2{fill-rule:evenodd;clip-rule:evenodd;fill:#FFFFFF;}
	.st3{fill:#35393B;}
	.st4{fill-rule:evenodd;clip-rule:evenodd;fill:#35393B;}
	.st5{fill:none;}
</style>
<g>
	
		<ellipse transform="matrix(0.1597 -0.9872 0.9872 0.1597 -27.1027 337.2413)" class="st1" cx="184.5" cy="184.5" rx="184.5" ry="184.5"/>
	<g>
		<path class="st2" d="M146.1,293.6c21.2,0,25.2-13.8,39.2-13.9c14,0.1,18,13.9,39.2,13.9c23.8,0,44.9-34.2,51.8-79
			c3,5.4,6,10.8,8.5,15.8c10.1,20.2,21.4,19.4,28,15.6c6.6-3.7,9.7-17.6-0.9-33.2c-6.4-9.4-21.3-22.8-33.3-30.7
			c-0.9-48.6-42.3-81.2-93.3-81.6c-16.6,0.1-32.2,3.6-45.7,10c-2.1,1-5.4,1-6.8-0.8c-3.8-5-8.3-8.4-12.5-10.4
			c-3-1.5-5.3-2.6-5.3-5.4c0-2.5-0.3-5.1-1.2-7.6C109.9,74.7,96.4,68,84.6,72c-11.8,4-17.4,17-13.4,28.8c4,11.8,16.7,18.2,28.5,14.2
			c2.5-0.8,4.7-2,6.6-3.5c1.9-1.5,3.4-2,6.2-2c4.1,0,13.8,8.2,8.2,13.1c-16.6,14.7-28,34.4-28.7,58.6c-12.3,7.7-28.2,21.8-34.9,31.6
			c-10.6,15.6-7.5,29.5-0.9,33.2c6.6,3.7,17.9,4.5,28-15.6c2.8-5.6,6.3-11.8,9.7-17.9C100.5,258.3,121.9,293.6,146.1,293.6"/>
	</g>
	<path class="st1" d="M263.4,155.1c1.9-0.3,3.9,1.2,4.6,3.4c0.7,2.2-0.3,4.2-2.1,4.5c-1.9,0.3-3.9-1.2-4.6-3.4
		C260.6,157.5,261.5,155.4,263.4,155.1 M188.2,129.1c-16.6,3.4-21.7-12.6-0.8-17.7c26.3-6.3,63.6,10.8,74.8,34.4
		c3,6.3-1.7,8.6-6.8,2.3C241.4,130.7,216,123.4,188.2,129.1z"/>
</g>
</svg>
