<svg xmlns="http://www.w3.org/2000/svg" xmlns:xlink="http://www.w3.org/1999/xlink" width="247.323" height="80.378" viewBox="0 0 247.323 80.378"><defs><style>.glooLogoA{fill:none;}.glooLogoB{clip-path:url(#a);}.glooLogoC{fill:#359bce;}.glooLogoC,.glooLogoD,.glooLogoG,.glooLogoH,.glooLogoI,.glooLogoJ{fill-rule:evenodd;}.glooLogoD{fill:#fff;}.glooLogoE{opacity:0.24;}.glooLogoF{clip-path:url(#d);}.glooLogoG{fill:#030404;}.glooLogoH{fill:#43adde;}.glooLogoI{fill:#002749;}.glooLogoJ{fill:#f1f9fa;}</style><clipPath id="a"><rect class="glooLogoA" width="247.323" height="80.378"/></clipPath><clipPath id="d"><rect class="glooLogoA" width="57.966" height="2.835"/></clipPath></defs><g transform="translate(-89.425 -86.801)"><g transform="translate(89.425 86.801)"><g class="glooLogoB"><g class="glooLogoB"><g class="glooLogoB"><path class="glooLogoC" d="M467.065,186a8.5,8.5,0,0,0-3.91-.885,11.824,11.824,0,0,0-4.4.913,14.375,14.375,0,0,0-4.166,2.568,13.56,13.56,0,0,0-3.112,4.054,11.727,11.727,0,0,0-1.227,5.423,8.781,8.781,0,0,0,.885,4.481,5.771,5.771,0,0,0,2.4,2.425,6.3,6.3,0,0,0,3.225.657c6.41-.31,13.435-6.754,5.6-5.265-3.813.724-6.313.97-5.865-2.524.462-3.615.5-5.553,6.086-6.257l12.8-1.615c6.477-.816,8.115.717,7.438,6.13a19.932,19.932,0,0,1-2.283,6.422,42.979,42.979,0,0,1-3.054,5.222,39.884,39.884,0,0,1-2.654,3.511q-1.056,1.2-1.17,1.313a20.406,20.406,0,0,1-5,3.6,26.868,26.868,0,0,1-6.307,2.34,27.188,27.188,0,0,1-6.965.715,21.658,21.658,0,0,1-6.849-1.257,18.955,18.955,0,0,1-6.023-3.568,17.577,17.577,0,0,1-4.481-6.222,24.581,24.581,0,0,1-2.226-8.534,26.546,26.546,0,0,1,3.8-15.727,30.167,30.167,0,0,1,5.138-6.364,31.436,31.436,0,0,1,6.707-4.824,28.809,28.809,0,0,1,7.82-2.855c.077,0,.485-.047,1.227-.142a19.079,19.079,0,0,1,3.225-.029,23,23,0,0,1,4.738.827,26.7,26.7,0,0,1,5.708,2.4c7.745,4.231,5.259,6.159,2.913,9.35a29.233,29.233,0,0,1-2.892,3.439c-1.7,1.631-4.027,1.858-7.127.283m21.753-14.577,2.828-.225c5.124-.408,5.869-.022,5.81,5.207-.134,12.036-.233,20.892-.368,32.927-.043,3.911.013,7.343-3.448,7.639l-3.942.338c-5.419.465-4.69-.812-4.736-6.111-.108-12.329-.183-21.037-.291-33.366-.046-5.338-1.026-6,4.147-6.41m22.458,30.932a4.962,4.962,0,0,0,3.083,2.911,6.754,6.754,0,0,0,4.795-.458,6.937,6.937,0,0,0,3.625-3.11,4.834,4.834,0,0,0,.085-4.2,5.063,5.063,0,0,0-3.083-2.882,6.474,6.474,0,0,0-4.738.428,6.889,6.889,0,0,0-3.682,3.139,4.775,4.775,0,0,0-.086,4.168m35.221,0a4.96,4.96,0,0,0,3.082,2.911,6.754,6.754,0,0,0,4.8-.458A6.938,6.938,0,0,0,558,201.7a4.833,4.833,0,0,0,.086-4.2A5.06,5.06,0,0,0,555,194.623a6.476,6.476,0,0,0-4.739.428,6.891,6.891,0,0,0-3.681,3.139,4.775,4.775,0,0,0-.086,4.168m15.286-21.623a13.705,13.705,0,0,0-3.848,2.358q-.307-.077-.62-.144a21.089,21.089,0,0,0-7.279-.228,20.053,20.053,0,0,0-6.935,2.2,16.46,16.46,0,0,0-8.22,10.333l-.041.148a17.5,17.5,0,0,0-1.986-4.858,16.033,16.033,0,0,0-4.566-4.938,16.906,16.906,0,0,0-6.194-2.655,21.08,21.08,0,0,0-7.277-.228,20.052,20.052,0,0,0-6.936,2.2,16.466,16.466,0,0,0-8.219,10.333,17.7,17.7,0,0,0-.371,7.335,17.514,17.514,0,0,0,2.34,6.935,16.144,16.144,0,0,0,4.566,4.91,16.9,16.9,0,0,0,6.223,2.654,21.268,21.268,0,0,0,7.307.228,20.03,20.03,0,0,0,6.935-2.2,16.85,16.85,0,0,0,5.195-4.281,16.524,16.524,0,0,0,3.026-5.994l.026-.1a16.572,16.572,0,0,0,1.943,4.776,16.143,16.143,0,0,0,4.568,4.91,16.9,16.9,0,0,0,6.222,2.654,21.264,21.264,0,0,0,7.306.228,20.033,20.033,0,0,0,6.936-2.2,16.85,16.85,0,0,0,5.195-4.281,16.519,16.519,0,0,0,3.025-5.994,17.715,17.715,0,0,0,.371-7.336,18.447,18.447,0,0,0-2.4-6.964,16.045,16.045,0,0,0-4.565-4.936l0,0c-1.421-1.108-.53-2.076.755-2.61,2.423-1.415,3.174,5.018,9.328,3.166a6.644,6.644,0,0,0,4.69-8.689c-1.258-3.609-5.6-5.469-9.688-4.156a5.38,5.38,0,0,0-3.829,4.908c-.184,2.218-.4,1.442-2.982,2.514" transform="translate(-331.35 -144.679)"/><path class="glooLogoD" d="M888.231,188.93a2.568,2.568,0,0,0-2.568,2.567c0,2.583,5.119,2.713,5.119-.372a2.261,2.261,0,0,0-2.551-2.195" transform="translate(-645.642 -158.144)"/><g class="glooLogoE" transform="translate(21.655 77.543)"><g class="glooLogoF"><path class="glooLogoG" d="M190.246,344.04c16.007,0,28.983.635,28.983,1.418s-12.976,1.418-28.983,1.418-28.983-.635-28.983-1.418,12.975-1.418,28.983-1.418" transform="translate(-161.263 -344.04)"/></g></g><path class="glooLogoC" d="M123.928,166.027c7.762,0,9.238-5.062,14.371-5.1s7.36,5.1,14.849,5.1c9.693,0,16.676-16.668,19.074-30.615,1.076,1.509,2.12,3,3.024,4.386,4.5,6.924,8.594,6.156,10.847,4.524s2.815-6.821-1.691-12.044c-2.34-2.711-7.075-6.238-11.349-8.672-1.193-17-16.155-28.29-34.44-28.29A39.487,39.487,0,0,0,120.336,99.6a18.546,18.546,0,0,0-4.021-2.249c-3.467-1.442-3.765-.4-4.012-3.382a7.237,7.237,0,0,0-5.152-6.6c-5.507-1.768-11.343.735-13.037,5.591s.774,10.025,6.311,11.693c8.28,2.493,9.293-6.163,12.554-4.259,1.627.677,2.786,1.873,1.317,3.256l-.264.227-.037.03a.384.384,0,0,0-.053.049,28.346,28.346,0,0,0-9.773,19.652c-4.274,2.433-9.008,5.959-11.347,8.67-4.507,5.223-3.945,10.412-1.691,12.044s6.342,2.4,10.847-4.524c.834-1.283,1.788-2.648,2.775-4.035,2.289,17.048,10.23,30.264,19.175,30.264" transform="translate(-89.424 -86.801)"/><path class="glooLogoH" d="M186.637,117.924a30.783,30.783,0,0,1,30.783,30.783c0,30.968-61.373,32.538-61.373-4.469,0-17,13.589-26.315,30.59-26.315" transform="translate(-135.964 -108.542)"/><path class="glooLogoD" d="M372.738,223.877c-.576,1.113,2.107,2.517,4.548,5.645s4.421,3.69,5,2.577-.518-3.292-3.019-5.337-5.95-4-6.528-2.885" transform="translate(-287.28 -182.331)"/><path class="glooLogoD" d="M99.268,235.21a1.657,1.657,0,0,1,.542,2.037,1.2,1.2,0,0,1-1.682.752,1.657,1.657,0,0,1-.542-2.037,1.2,1.2,0,0,1,1.682-.752m8.911-11.611c1.155.548-2.6,1.188-6.266,7.518-1.309,2.26-1.623,3.506-2.771,3.22-.493-.123-1.623-.8.26-3.934s7.5-7.411,8.777-6.8" transform="translate(-95.029 -182.322)"/><path class="glooLogoI" d="M229.364,230.849c5.221,0,7.141-1.835,9.407.19s-2.031,8.7-9.453,8.7-11.59-6.611-9.453-8.7,4.278-.19,9.5-.19" transform="translate(-180.154 -186.873)"/><path class="glooLogoC" d="M245.607,250.192a9.676,9.676,0,0,1-10.14-.075c.114-1.584,2.947-2.436,5.068-1.388,2.226-1.048,5.025-.155,5.072,1.463" transform="translate(-191.443 -199.595)"/><path class="glooLogoD" d="M236.7,232.922c3.418,0,5.3-.737,6.847-.736,0,.027,0,.053,0,.081a2.084,2.084,0,0,1-2,2.159,1.882,1.882,0,0,1-.983-.279,2.263,2.263,0,0,1-3.845.238,2.263,2.263,0,0,1-3.866-.276,1.887,1.887,0,0,1-1.045.317,2.083,2.083,0,0,1-2-2.159c0-.035,0-.07,0-.1,1.546.033,3.467.76,6.886.76" transform="translate(-187.495 -188.344)"/><path class="glooLogoJ" d="M269.314,142.2a1.621,1.621,0,0,1,1.658,1.231,1.193,1.193,0,0,1-.779,1.646,1.622,1.622,0,0,1-1.659-1.232,1.192,1.192,0,0,1,.78-1.646m-27.264-9.449c-6.014,1.232-7.883-4.57-.278-6.405,9.527-2.3,23.051,3.91,27.109,12.461,1.08,2.277-.609,3.13-2.454.848-5.106-6.319-14.287-8.973-24.377-6.9" transform="translate(-192.356 -114.089)"/><path class="glooLogoI" d="M300.262,203.655a5.475,5.475,0,1,1-5.475,5.475,5.475,5.475,0,0,1,5.475-5.475" transform="translate(-232.882 -168.43)"/><path class="glooLogoJ" d="M317.643,209.477A1.527,1.527,0,1,1,316.116,211a1.527,1.527,0,0,1,1.527-1.526" transform="translate(-247.781 -172.497)"/><path class="glooLogoI" d="M179.558,203.655a5.475,5.475,0,1,1-5.475,5.475,5.475,5.475,0,0,1,5.475-5.475" transform="translate(-148.563 -168.43)"/><path class="glooLogoJ" d="M196.939,209.477A1.527,1.527,0,1,1,195.412,211a1.526,1.526,0,0,1,1.527-1.526" transform="translate(-163.463 -172.497)"/><path class="glooLogoD" d="M133.989,92.127a3.749,3.749,0,0,1,3.749,3.75c0,3.772-7.475,3.963-7.475-.545,0-2.071,1.655-3.2,3.726-3.2" transform="translate(-117.953 -90.522)"/></g></g></g></g></g></svg>