<?xml version="1.0" encoding="UTF-8"?>
<svg id="Layer_1" data-name="Layer 1" xmlns="http://www.w3.org/2000/svg" xmlns:xlink="http://www.w3.org/1999/xlink" version="1.1" viewBox="0 0 3259.7 640.1">
  <defs>
    <style>
      .cls-1 {
        fill: url(#linear-gradient);
      }

      .cls-1, .cls-2, .cls-3 {
        stroke-width: 0px;
      }

      .cls-2 {
        fill: #666;
      }

      .cls-3 {
        fill: #000;
      }
    </style>
    <linearGradient id="linear-gradient" x1="546.6" y1="367.4" x2="125.3" y2="-53.9" gradientTransform="translate(412.8 656) rotate(-90) scale(1 -1)" gradientUnits="userSpaceOnUse">
      <stop offset="0" stop-color="#2196c9"/>
      <stop offset="1" stop-color="#03a4b0"/>
    </linearGradient>
  </defs>
  <path class="cls-1" d="M512,472.1v13.3l-9.4,9.4-136,136-9.3,9.3h-42.6l-9.4-9.4-136-136-9.4-9.4v-101.2h64v-192h64v-10.7l-112-112-111.9,112v10.7h64v160h-64v-96H0v-101.3l9.4-9.4L145.4,9.4l9.4-9.4h42.5l9.4,9.4,136,136,9.4,9.4v101.3h-64.1v192h-64v10.7l112,112,112-112v-10.7h-64v-160h64v96h64v88Z"/>
  <g>
    <path class="cls-3" d="M707.4,479.7c-22.1,0-42.5-3.5-61.2-10.6-18.7-7.1-34.8-17.1-48.4-30.2-13.6-13.1-24.2-28.4-31.8-46s-11.4-36.9-11.4-58,3.8-40.4,11.4-58,18.3-32.9,32.2-46c13.9-13.1,30.1-23.1,48.8-30.2,18.7-7.1,39.2-10.6,61.6-10.6s47.1,4.1,67,12.4c19.9,8.3,36.6,20.3,50.2,36l-41.2,38.4c-10.4-10.9-21.6-19-33.6-24.2s-25.2-7.8-39.6-7.8-25.6,2.2-36.8,6.6c-11.2,4.4-20.9,10.6-29,18.6-8.1,8-14.4,17.5-18.8,28.4-4.4,10.9-6.6,23.1-6.6,36.4s2.2,24.7,6.6,35.8c4.4,11.1,10.7,20.6,18.8,28.6,8.1,8,17.7,14.3,28.8,18.8,11.1,4.5,23.3,6.8,36.6,6.8s25.3-2.1,37.4-6.4c12.1-4.3,23.9-11.3,35.4-21.2l36.8,46.8c-15.5,11.7-33.2,20.6-53.2,26.6s-40,9-60,9ZM761.4,435.7v-105.2h59.2v113.6l-59.2-8.4Z"/>
    <path class="cls-3" d="M876.2,474.9V178.1h62.4v296.8h-62.4Z"/>
    <path class="cls-3" d="M1098.6,478.1c-22.7,0-42.9-4.8-60.6-14.4-17.7-9.6-31.7-22.7-41.8-39.4-10.1-16.7-15.2-35.7-15.2-57s5.1-40.7,15.2-57.4c10.1-16.7,24.1-29.7,41.8-39.2,17.7-9.5,37.9-14.2,60.6-14.2s43.3,4.7,61.2,14.2c17.9,9.5,31.9,22.5,42,39.2,10.1,16.7,15.2,35.8,15.2,57.4s-5.1,40.7-15.2,57.2c-10.1,16.5-24.1,29.6-42,39.2-17.9,9.6-38.3,14.4-61.2,14.4ZM1098.6,426.9c10.7,0,20.1-2.3,28.2-7,8.1-4.7,14.7-11.5,19.6-20.6,4.9-9.1,7.4-19.7,7.4-32s-2.5-23.2-7.4-32c-4.9-8.8-11.5-15.5-19.6-20.2-8.1-4.7-17.4-7-27.8-7s-19.7,2.3-28,7c-8.3,4.7-14.9,11.4-19.8,20.2-4.9,8.8-7.4,19.5-7.4,32s2.5,22.9,7.4,32c4.9,9.1,11.5,15.9,19.8,20.6,8.3,4.7,17.5,7,27.6,7Z"/>
    <path class="cls-3" d="M1360.6,478.1c-22.7,0-42.9-4.8-60.6-14.4-17.7-9.6-31.7-22.7-41.8-39.4-10.1-16.7-15.2-35.7-15.2-57s5.1-40.7,15.2-57.4c10.1-16.7,24.1-29.7,41.8-39.2,17.7-9.5,37.9-14.2,60.6-14.2s43.3,4.7,61.2,14.2c17.9,9.5,31.9,22.5,42,39.2,10.1,16.7,15.2,35.8,15.2,57.4s-5.1,40.7-15.2,57.2c-10.1,16.5-24.1,29.6-42,39.2-17.9,9.6-38.3,14.4-61.2,14.4ZM1360.6,426.9c10.7,0,20.1-2.3,28.2-7,8.1-4.7,14.7-11.5,19.6-20.6,4.9-9.1,7.4-19.7,7.4-32s-2.5-23.2-7.4-32c-4.9-8.8-11.5-15.5-19.6-20.2-8.1-4.7-17.4-7-27.8-7s-19.7,2.3-28,7c-8.3,4.7-14.9,11.4-19.8,20.2-4.9,8.8-7.4,19.5-7.4,32s2.5,22.9,7.4,32c4.9,9.1,11.5,15.9,19.8,20.6,8.3,4.7,17.5,7,27.6,7Z"/>
  </g>
  <g>
    <path class="cls-2" d="M1682.3,477.3c-21.3,0-41-3.5-59-10.6-18-7.1-33.6-17-46.8-29.8-13.2-12.8-23.5-27.9-30.8-45.2-7.3-17.3-11-36.3-11-56.8s3.7-39.5,11-56.8c7.3-17.3,17.7-32.4,31-45.2,13.3-12.8,29-22.7,47-29.8,18-7.1,37.7-10.6,59-10.6s40.9,3.3,58.6,10c17.7,6.7,32.9,16.8,45.4,30.4l-18.4,18.8c-11.7-11.7-24.7-20.1-38.8-25.2-14.1-5.1-29.3-7.6-45.6-7.6s-33.3,2.9-47.8,8.6c-14.5,5.7-27.2,13.9-38,24.4-10.8,10.5-19.2,22.8-25.2,36.8s-9,29.4-9,46.2,3,31.9,9,46c6,14.1,14.4,26.5,25.2,37,10.8,10.5,23.5,18.7,38,24.4,14.5,5.7,30.3,8.6,47.4,8.6s31.1-2.4,45.4-7.2c14.3-4.8,27.4-12.9,39.4-24.4l16.8,22.4c-13.3,11.7-28.9,20.6-46.8,26.6-17.9,6-36.5,9-56,9ZM1756.7,438.1v-103.2h28.4v106.8l-28.4-3.6Z"/>
    <path class="cls-2" d="M1921.9,476.9c-15.7,0-29.4-2.6-41-7.8-11.6-5.2-20.5-12.4-26.6-21.6-6.1-9.2-9.2-19.8-9.2-31.8s2.6-20.9,7.8-29.8c5.2-8.9,13.7-16.1,25.6-21.6,11.9-5.5,27.8-8.2,47.8-8.2h72.4v21.2h-71.6c-20.3,0-34.3,3.6-42.2,10.8-7.9,7.2-11.8,16.1-11.8,26.8s4.7,21.6,14,28.8c9.3,7.2,22.4,10.8,39.2,10.8s29.8-3.7,41.4-11c11.6-7.3,20.1-17.9,25.4-31.8l6.4,19.6c-5.3,13.9-14.6,24.9-27.8,33.2-13.2,8.3-29.8,12.4-49.8,12.4ZM1994.3,474.9v-46.4l-1.2-7.6v-77.6c0-17.9-5-31.6-15-41.2-10-9.6-24.9-14.4-44.6-14.4s-26.5,2.3-38.8,6.8c-12.3,4.5-22.7,10.5-31.2,18l-12.8-21.2c10.7-9.1,23.5-16.1,38.4-21,14.9-4.9,30.7-7.4,47.2-7.4,27.2,0,48.2,6.7,63,20.2,14.8,13.5,22.2,33.9,22.2,61.4v130.4h-27.2Z"/>
    <path class="cls-2" d="M2065.9,288.5v-23.6h130v23.6h-130ZM2165.1,476.9c-19.7,0-34.9-5.3-45.6-16-10.7-10.7-16-25.7-16-45.2v-197.2h28.4v195.6c0,12.3,3.1,21.7,9.4,28.4,6.3,6.7,15.3,10,27,10s22.9-3.6,31.2-10.8l10,20.4c-5.6,5.1-12.3,8.8-20.2,11.2-7.9,2.4-15.9,3.6-24.2,3.6Z"/>
    <path class="cls-2" d="M2342.7,476.9c-21.9,0-41.1-4.6-57.6-13.8-16.5-9.2-29.5-21.9-38.8-38-9.3-16.1-14-34.6-14-55.4s4.5-39.2,13.4-55.2c8.9-16,21.2-28.6,36.8-37.8,15.6-9.2,33.1-13.8,52.6-13.8s37.3,4.5,52.6,13.4c15.3,8.9,27.4,21.5,36.2,37.6,8.8,16.1,13.2,34.7,13.2,55.8s0,2.7-.2,4.2c-.1,1.5-.2,3-.2,4.6h-182.8v-21.2h167.6l-11.2,8.4c0-15.2-3.3-28.7-9.8-40.6-6.5-11.9-15.4-21.1-26.6-27.8-11.2-6.7-24.1-10-38.8-10s-27.3,3.3-38.8,10c-11.5,6.7-20.4,16-26.8,28-6.4,12-9.6,25.7-9.6,41.2v4.4c0,16,3.5,30.1,10.6,42.2,7.1,12.1,16.9,21.6,29.6,28.4,12.7,6.8,27.1,10.2,43.4,10.2s24.7-2.3,35.8-6.8c11.1-4.5,20.6-11.5,28.6-20.8l16,18.4c-9.3,11.2-21,19.7-35,25.6-14,5.9-29.4,8.8-46.2,8.8Z"/>
    <path class="cls-2" d="M2533.9,474.9l-79.2-210h27.2l72,194.8h-12.4l74-194.8h24.4l73.2,194.8h-12.4l73.2-194.8h26l-79.6,210h-26.8l-70.4-183.2h8.4l-70.8,183.2h-26.8Z"/>
    <path class="cls-2" d="M2895.5,476.9c-15.7,0-29.4-2.6-41-7.8-11.6-5.2-20.5-12.4-26.6-21.6-6.1-9.2-9.2-19.8-9.2-31.8s2.6-20.9,7.8-29.8c5.2-8.9,13.7-16.1,25.6-21.6,11.9-5.5,27.8-8.2,47.8-8.2h72.4v21.2h-71.6c-20.3,0-34.3,3.6-42.2,10.8-7.9,7.2-11.8,16.1-11.8,26.8s4.7,21.6,14,28.8c9.3,7.2,22.4,10.8,39.2,10.8s29.8-3.7,41.4-11c11.6-7.3,20.1-17.9,25.4-31.8l6.4,19.6c-5.3,13.9-14.6,24.9-27.8,33.2-13.2,8.3-29.8,12.4-49.8,12.4ZM2967.9,474.9v-46.4l-1.2-7.6v-77.6c0-17.9-5-31.6-15-41.2-10-9.6-24.9-14.4-44.6-14.4s-26.5,2.3-38.8,6.8c-12.3,4.5-22.7,10.5-31.2,18l-12.8-21.2c10.7-9.1,23.5-16.1,38.4-21,14.9-4.9,30.7-7.4,47.2-7.4,27.2,0,48.2,6.7,63,20.2,14.8,13.5,22.2,33.9,22.2,61.4v130.4h-27.2Z"/>
    <path class="cls-2" d="M3069.9,554.5c-9.9,0-19.3-1.6-28.2-4.8-8.9-3.2-16.6-8-23-14.4l13.2-21.2c5.3,5.1,11.1,9,17.4,11.8,6.3,2.8,13.3,4.2,21,4.2s17.4-2.6,24.2-7.8c6.8-5.2,13.3-14.3,19.4-27.4l13.6-30.8,3.2-4.4,86.4-194.8h28l-105.2,235.2c-5.9,13.6-12.3,24.4-19.4,32.4-7.1,8-14.7,13.7-23,17-8.3,3.3-17.5,5-27.6,5ZM3125.9,480.9l-96.8-216h29.6l85.6,192.8-18.4,23.2Z"/>
  </g>
</svg>