<?xml version="1.0" encoding="UTF-8"?>
<svg id="a" data-name="Layer 1" xmlns="http://www.w3.org/2000/svg" width="1760" height="330" viewBox="0 0 1760 330">
  <defs>
    <style>
      .e {
        fill: #707070;
      }

      .e, .f, .g {
        stroke-width: 0px;
      }

      .f {
        fill: #35393b;
      }

      .g {
        fill: #e005a3;
      }
    </style>
  </defs>
  <path id="b" data-name="Gateway Icon" class="g" d="m263.08,238.02v6.02l-4.25,4.25-61.56,61.56-4.21,4.21h-19.28l-4.25-4.25-61.56-61.56-4.25-4.25v-45.81h28.97v-86.91h28.97v-4.84l-50.7-50.69-50.65,50.69v4.84h28.97v72.42h-28.97v-43.45h-28.97v-45.85l4.25-4.25,61.56-61.56,4.25-4.25h19.24l4.25,4.25,61.56,61.56,4.25,4.25v45.85h-29.01v86.91h-28.97v4.84l50.7,50.69,50.7-50.69v-4.84h-28.97v-72.42h28.97v43.45h28.97v39.83Z"/>
  <g id="c" data-name="Gloo">
    <g>
      <path class="f" d="m373.25,237.92c-11.75,0-22.63-2.1-32.62-6.3-10-4.2-18.81-10.07-26.44-17.63-7.63-7.56-13.59-16.29-17.86-26.21-4.27-9.92-6.41-20.68-6.41-32.28s2.14-22.36,6.41-32.28c4.27-9.92,10.22-18.66,17.86-26.21,7.63-7.55,16.44-13.43,26.44-17.63,9.99-4.2,20.87-6.3,32.62-6.3,7.48,0,14.69.84,21.64,2.52,6.94,1.68,13.31,4.12,19.12,7.33,1.98,1.07,3.43,2.48,4.35,4.24.92,1.76,1.37,3.55,1.37,5.38,0,3.05-1.07,5.76-3.21,8.13-2.14,2.37-4.73,3.55-7.78,3.55-1.07,0-2.14-.15-3.21-.46-1.07-.3-2.14-.69-3.2-1.14-4.27-1.98-8.85-3.58-13.74-4.81-4.89-1.22-10-1.83-15.34-1.83-10.99,0-20.91,2.67-29.76,8.01-8.85,5.34-15.84,12.48-20.95,21.41-5.12,8.93-7.67,18.97-7.67,30.11s2.55,21.03,7.67,30.11c5.11,9.08,12.09,16.25,20.95,21.52,8.85,5.27,18.77,7.9,29.76,7.9,5.34,0,10.99-.65,16.94-1.95,5.95-1.3,10.99-3.01,15.11-5.15l-1.83,6.18v-43.5l3.66,3.21h-29.99c-3.36,0-6.15-1.07-8.36-3.21-2.21-2.14-3.32-4.88-3.32-8.24s1.11-6.1,3.32-8.24c2.21-2.14,5-3.21,8.36-3.21h39.38c3.36,0,6.14,1.11,8.36,3.32,2.21,2.21,3.32,5,3.32,8.36v50.83c0,2.44-.61,4.5-1.83,6.18-1.22,1.68-2.6,3.05-4.12,4.12-7.02,4.27-14.69,7.71-23.01,10.3-8.32,2.59-16.98,3.89-25.98,3.89Z"/>
      <path class="f" d="m480.4,223.96c0,3.36-1.11,6.15-3.32,8.36s-4.92,3.32-8.13,3.32-5.92-1.11-8.13-3.32c-2.21-2.21-3.32-5-3.32-8.36V77.89c0-3.36,1.14-6.14,3.43-8.36,2.29-2.21,5.04-3.32,8.24-3.32s6.07,1.11,8.13,3.32c2.06,2.21,3.09,5,3.09,8.36v146.06Z"/>
      <path class="f" d="m627.61,175.42c0,12.21-2.67,23.01-8.01,32.4-5.34,9.39-12.59,16.75-21.75,22.09-9.16,5.34-19.46,8.01-30.91,8.01s-21.75-2.67-30.91-8.01c-9.16-5.34-16.45-12.71-21.86-22.09-5.42-9.39-8.13-20.18-8.13-32.4s2.71-23.24,8.13-32.62c5.42-9.39,12.71-16.79,21.86-22.21,9.16-5.42,19.46-8.13,30.91-8.13s21.75,2.71,30.91,8.13c9.16,5.42,16.41,12.82,21.75,22.21,5.34,9.39,8.01,20.26,8.01,32.62Zm-22.89,0c0-8.39-1.68-15.68-5.04-21.86-3.36-6.18-7.9-11.03-13.62-14.54-5.72-3.51-12.1-5.27-19.12-5.27s-13.43,1.76-19.23,5.27c-5.8,3.51-10.38,8.36-13.74,14.54-3.36,6.18-5.04,13.47-5.04,21.86s1.68,15.26,5.04,21.52c3.36,6.26,7.93,11.14,13.74,14.65,5.8,3.51,12.21,5.27,19.23,5.27s13.39-1.75,19.12-5.27c5.72-3.51,10.26-8.39,13.62-14.65,3.36-6.26,5.04-13.43,5.04-21.52Z"/>
      <path class="f" d="m768.86,175.42c0,12.21-2.67,23.01-8.01,32.4-5.34,9.39-12.59,16.75-21.75,22.09-9.16,5.34-19.46,8.01-30.91,8.01s-21.75-2.67-30.91-8.01c-9.16-5.34-16.45-12.71-21.86-22.09-5.42-9.39-8.13-20.18-8.13-32.4s2.71-23.24,8.13-32.62c5.42-9.39,12.71-16.79,21.86-22.21,9.16-5.42,19.46-8.13,30.91-8.13s21.75,2.71,30.91,8.13c9.16,5.42,16.41,12.82,21.75,22.21,5.34,9.39,8.01,20.26,8.01,32.62Zm-22.89,0c0-8.39-1.68-15.68-5.04-21.86-3.36-6.18-7.9-11.03-13.62-14.54-5.72-3.51-12.1-5.27-19.12-5.27s-13.43,1.76-19.23,5.27c-5.8,3.51-10.38,8.36-13.74,14.54-3.36,6.18-5.04,13.47-5.04,21.86s1.68,15.26,5.04,21.52c3.36,6.26,7.93,11.14,13.74,14.65,5.8,3.51,12.21,5.27,19.23,5.27s13.39-1.75,19.12-5.27c5.72-3.51,10.26-8.39,13.62-14.65,3.36-6.26,5.04-13.43,5.04-21.52Z"/>
    </g>
  </g>
  <g id="d" data-name="Gateway">
    <g>
      <path class="e" d="m902.79,237.92c-11.91,0-22.86-2.02-32.85-6.07-10-4.04-18.7-9.77-26.1-17.17-7.4-7.4-13.13-16.14-17.17-26.21-4.05-10.07-6.07-21.06-6.07-32.97s2.02-22.89,6.07-32.97c4.04-10.07,9.77-18.81,17.17-26.21s16.1-13.12,26.1-17.17c9.99-4.04,20.95-6.07,32.85-6.07,8.39,0,16.48,1.03,24.27,3.09s14.73,5.15,20.83,9.27c.76.46,1.3,1.03,1.6,1.72.3.69.46,1.41.46,2.17,0,1.53-.54,2.67-1.6,3.43-1.07.77-1.99,1.14-2.75,1.14-.61,0-1.14-.11-1.6-.34-.46-.23-.92-.42-1.37-.57-5.65-3.2-11.83-5.8-18.54-7.78-6.72-1.98-13.81-2.98-21.29-2.98-14.19,0-26.75,3.17-37.66,9.5-10.91,6.34-19.46,15-25.64,25.98-6.18,10.99-9.27,23.58-9.27,37.78s3.09,26.83,9.27,37.89c6.18,11.07,14.73,19.73,25.64,25.98,10.91,6.26,23.47,9.39,37.66,9.39,7.63,0,15.15-1.18,22.55-3.55,7.4-2.36,13.93-5.46,19.57-9.27l-.92,4.12v-57.24l3.21,2.98h-44.41c-1.22,0-2.29-.46-3.21-1.37s-1.37-1.98-1.37-3.21c0-1.37.46-2.48,1.37-3.32.92-.84,1.98-1.26,3.21-1.26h45.79c1.37,0,2.48.46,3.32,1.37.84.92,1.26,1.99,1.26,3.21v57.46c0,.61-.15,1.3-.46,2.06-.31.77-.84,1.45-1.6,2.06-6.72,4.58-14.23,8.24-22.55,10.99-8.32,2.75-16.91,4.12-25.76,4.12Z"/>
      <path class="e" d="m1084.8,121.39c1.37,0,2.48.46,3.32,1.37.84.92,1.26,1.99,1.26,3.21v105.08c0,1.22-.46,2.29-1.37,3.21s-1.99,1.37-3.21,1.37c-1.37,0-2.48-.46-3.32-1.37-.84-.92-1.26-1.98-1.26-3.21v-32.51l3.66-2.98c0,4.89-1.22,9.84-3.66,14.88-2.44,5.04-5.8,9.62-10.07,13.74-4.27,4.12-9.31,7.44-15.11,9.96-5.8,2.52-12.06,3.78-18.77,3.78-10.23,0-19.35-2.67-27.36-8.01-8.01-5.34-14.31-12.59-18.89-21.75-4.58-9.16-6.87-19.46-6.87-30.91s2.33-21.86,6.98-30.79c4.65-8.93,10.99-15.95,19-21.06,8.01-5.11,17.06-7.67,27.13-7.67,6.56,0,12.74,1.18,18.54,3.55,5.8,2.37,10.87,5.69,15.22,9.96,4.35,4.27,7.74,9.27,10.19,15,2.44,5.72,3.66,11.94,3.66,18.66l-3.66-5.72v-33.2c0-1.22.42-2.29,1.26-3.21.84-.92,1.95-1.37,3.32-1.37Zm-48.08,107.83c8.55,0,16.18-2.25,22.89-6.75,6.71-4.5,11.98-10.68,15.8-18.54,3.81-7.86,5.72-16.75,5.72-26.67s-1.91-18.05-5.72-25.76c-3.82-7.71-9.08-13.81-15.8-18.32-6.72-4.5-14.35-6.75-22.89-6.75s-15.95,2.17-22.67,6.52c-6.72,4.35-12.02,10.34-15.91,17.97-3.89,7.63-5.84,16.41-5.84,26.33s1.91,18.81,5.72,26.67c3.81,7.86,9.08,14.04,15.8,18.54,6.71,4.5,14.34,6.75,22.89,6.75Z"/>
      <path class="e" d="m1116.85,120.47h53.11c1.22,0,2.25.46,3.09,1.37.84.92,1.26,1.91,1.26,2.98,0,1.22-.42,2.25-1.26,3.09s-1.87,1.26-3.09,1.26h-53.11c-1.07,0-2.06-.46-2.98-1.37s-1.37-1.91-1.37-2.98c0-1.22.46-2.25,1.37-3.09.92-.84,1.91-1.26,2.98-1.26Zm23.35-33.65c1.37,0,2.48.46,3.32,1.37.84.92,1.26,1.99,1.26,3.21v119.28c0,5.04.65,8.74,1.95,11.1,1.3,2.37,2.94,3.89,4.92,4.58,1.98.69,3.89,1.03,5.72,1.03,1.07,0,1.98-.15,2.75-.46.76-.3,1.68-.46,2.75-.46s1.98.42,2.75,1.26c.76.84,1.14,1.8,1.14,2.86,0,1.37-.88,2.56-2.63,3.55-1.76.99-3.93,1.49-6.52,1.49-.92,0-2.56-.04-4.92-.11-2.37-.07-4.89-.76-7.55-2.06-2.67-1.3-4.92-3.66-6.75-7.1-1.83-3.43-2.75-8.51-2.75-15.22v-119.74c0-1.22.46-2.29,1.37-3.21s1.98-1.37,3.21-1.37Z"/>
      <path class="e" d="m1250.09,237.92c-11.45,0-21.56-2.44-30.33-7.33-8.78-4.88-15.68-11.79-20.72-20.72-5.04-8.93-7.56-19.42-7.56-31.48,0-12.82,2.48-23.73,7.44-32.74,4.96-9,11.37-15.91,19.23-20.72,7.86-4.81,16.22-7.21,25.07-7.21,6.41,0,12.67,1.03,18.77,3.09,6.1,2.06,11.56,5.27,16.37,9.62,4.81,4.35,8.7,9.77,11.68,16.25,2.98,6.49,4.61,14.23,4.92,23.24,0,1.22-.46,2.33-1.37,3.32-.92.99-1.99,1.49-3.21,1.49h-93.41l-1.37-8.7h92.26l-2.29,2.06v-4.12c-.77-8.09-3.32-14.88-7.67-20.38-4.35-5.49-9.58-9.65-15.68-12.48-6.11-2.82-12.44-4.24-19-4.24-4.58,0-9.39,1.03-14.42,3.09s-9.69,5.19-13.97,9.39c-4.27,4.2-7.75,9.5-10.42,15.91-2.67,6.41-4.01,13.89-4.01,22.44,0,9.31,1.87,17.86,5.61,25.64,3.74,7.78,9.31,14.04,16.71,18.77,7.4,4.73,16.52,7.1,27.36,7.1,5.19,0,10.07-.88,14.65-2.63,4.58-1.75,8.7-4.08,12.36-6.98,3.66-2.9,6.64-6.03,8.93-9.39,1.22-1.37,2.52-2.06,3.89-2.06,1.07,0,1.98.42,2.75,1.26.76.84,1.14,1.8,1.14,2.86s-.31,1.99-.92,2.75c-4.73,6.11-10.8,11.45-18.2,16.03-7.4,4.58-15.61,6.87-24.61,6.87Z"/>
      <path class="e" d="m1464.15,117.27c1.22,0,2.33.34,3.32,1.03.99.69,1.49,1.8,1.49,3.32,0,.15-.04.5-.11,1.03-.08.54-.19.95-.34,1.26l-35.49,108.75c-.46.92-1.07,1.64-1.83,2.18-.77.54-1.6.8-2.52.8-1.83,0-3.28-.99-4.35-2.98l-35.26-79.44,3.43,1.14-31.14,78.3c-.77,1.99-2.21,2.98-4.35,2.98-.92,0-1.8-.26-2.63-.8-.84-.53-1.41-1.26-1.72-2.18l-36.63-108.75c-.31-.92-.46-1.68-.46-2.29,0-1.37.46-2.44,1.37-3.2.92-.76,2.06-1.14,3.43-1.14.92,0,1.75.27,2.52.8.76.54,1.3,1.26,1.6,2.17l34.11,105.08h-3.89l32.51-80.59c.76-1.98,2.21-2.98,4.35-2.98.92,0,1.79.27,2.63.8.84.54,1.41,1.26,1.72,2.18l35.03,80.82h-4.58l33.65-105.31c.76-1.98,2.14-2.98,4.12-2.98Z"/>
      <path class="e" d="m1592.13,121.39c1.37,0,2.48.46,3.32,1.37.84.92,1.26,1.99,1.26,3.21v105.08c0,1.22-.46,2.29-1.37,3.21s-1.99,1.37-3.21,1.37c-1.37,0-2.48-.46-3.32-1.37-.84-.92-1.26-1.98-1.26-3.21v-32.51l3.66-2.98c0,4.89-1.22,9.84-3.66,14.88-2.44,5.04-5.8,9.62-10.07,13.74-4.27,4.12-9.31,7.44-15.11,9.96-5.8,2.52-12.06,3.78-18.77,3.78-10.23,0-19.35-2.67-27.36-8.01-8.01-5.34-14.31-12.59-18.89-21.75-4.58-9.16-6.87-19.46-6.87-30.91s2.33-21.86,6.98-30.79c4.65-8.93,10.99-15.95,19-21.06,8.01-5.11,17.06-7.67,27.13-7.67,6.56,0,12.74,1.18,18.54,3.55,5.8,2.37,10.87,5.69,15.22,9.96,4.35,4.27,7.74,9.27,10.19,15,2.44,5.72,3.66,11.94,3.66,18.66l-3.66-5.72v-33.2c0-1.22.42-2.29,1.26-3.21.84-.92,1.95-1.37,3.32-1.37Zm-48.08,107.83c8.55,0,16.18-2.25,22.89-6.75,6.71-4.5,11.98-10.68,15.8-18.54,3.81-7.86,5.72-16.75,5.72-26.67s-1.91-18.05-5.72-25.76c-3.82-7.71-9.08-13.81-15.8-18.32-6.72-4.5-14.35-6.75-22.89-6.75s-15.95,2.17-22.67,6.52c-6.72,4.35-12.02,10.34-15.91,17.97-3.89,7.63-5.84,16.41-5.84,26.33s1.91,18.81,5.72,26.67c3.81,7.86,9.08,14.04,15.8,18.54,6.71,4.5,14.34,6.75,22.89,6.75Z"/>
      <path class="e" d="m1720.79,117.73c1.37,0,2.48.46,3.32,1.37.84.92,1.26,1.99,1.26,3.21v102.11c0,11.75-2.37,21.9-7.1,30.45-4.73,8.55-11.14,15.11-19.23,19.69-8.09,4.58-17.32,6.87-27.7,6.87-7.02,0-13.32-.84-18.89-2.52-5.57-1.68-10.11-3.74-13.62-6.18-1.07-.77-1.91-1.68-2.52-2.75-.61-1.07-.61-2.21,0-3.43.61-1.22,1.49-2.06,2.63-2.52,1.14-.46,2.25-.31,3.32.46,2.59,1.52,6.52,3.36,11.79,5.49,5.27,2.14,11.18,3.21,17.74,3.21,8.85,0,16.6-2.06,23.24-6.18,6.64-4.12,11.83-9.84,15.57-17.17,3.74-7.33,5.61-15.8,5.61-25.41v-16.94l.46,5.72c-2.14,4.58-5.38,8.74-9.73,12.48-4.35,3.74-9.24,6.72-14.65,8.93-5.42,2.21-11.03,3.32-16.83,3.32-9.47,0-17.21-1.87-23.24-5.61-6.03-3.74-10.46-8.89-13.28-15.45-2.83-6.56-4.24-14.27-4.24-23.12v-71.43c0-1.22.42-2.29,1.26-3.21.84-.92,1.95-1.37,3.32-1.37s2.48.46,3.32,1.37c.84.92,1.26,1.99,1.26,3.21v71.43c0,10.84,2.4,19.46,7.21,25.87,4.81,6.41,12.94,9.62,24.38,9.62,6.87,0,13.39-1.72,19.57-5.15,6.18-3.43,11.25-7.9,15.22-13.39,3.97-5.49,5.95-11.14,5.95-16.94v-71.43c0-1.22.42-2.29,1.26-3.21.84-.92,1.95-1.37,3.32-1.37Z"/>
    </g>
  </g>
</svg>