<?xml version="1.0" encoding="UTF-8" standalone="no"?>
<!-- Generator: Adobe Illustrator 26.5.0, SVG Export Plug-In . SVG Version: 6.00 Build 0)  -->

<svg
   version="1.1"
   id="Layer_1"
   x="0px"
   y="0px"
   viewBox="0 0 825.4 109"
   style="enable-background:new 0 0 825.4 109;"
   xml:space="preserve"
   sodipodi:docname="logo.svg"
   inkscape:export-filename="/Users/artberger/Downloads/logo.png"
   inkscape:export-xdpi="54.301201"
   inkscape:export-ydpi="54.301201"
   inkscape:version="1.1 (c4e8f9e, 2021-05-24)"
   xmlns:inkscape="http://www.inkscape.org/namespaces/inkscape"
   xmlns:sodipodi="http://sodipodi.sourceforge.net/DTD/sodipodi-0.dtd"
   xmlns="http://www.w3.org/2000/svg"
   xmlns:svg="http://www.w3.org/2000/svg"><defs
   id="defs1920" /><sodipodi:namedview
   id="namedview1918"
   pagecolor="#ffffff"
   bordercolor="#666666"
   borderopacity="1.0"
   inkscape:pageshadow="2"
   inkscape:pageopacity="0.0"
   inkscape:pagecheckerboard="0"
   showgrid="false"
   inkscape:zoom="1.3653986"
   inkscape:cx="412.70001"
   inkscape:cy="54.19663"
   inkscape:window-width="1296"
   inkscape:window-height="982"
   inkscape:window-x="0"
   inkscape:window-y="25"
   inkscape:window-maximized="0"
   inkscape:current-layer="Layer_1" />
<style
   type="text/css"
   id="style1871">
	.st0{fill:#003C6A;}
	.st1{opacity:0.3;fill-rule:evenodd;clip-rule:evenodd;fill:#003C6A;}
	.st2{fill-rule:evenodd;clip-rule:evenodd;fill:#CF63CC;}
	.st3{fill:none;stroke:#CF63CC;stroke-width:4.9997;stroke-linecap:round;stroke-linejoin:round;stroke-miterlimit:2.6131;}
	.st4{fill-rule:evenodd;clip-rule:evenodd;fill:#E005A3;}
	.st5{fill-rule:evenodd;clip-rule:evenodd;fill:#B11AA9;}
	.st6{fill-rule:evenodd;clip-rule:evenodd;fill:#158BC2;}
	.st7{fill-rule:evenodd;clip-rule:evenodd;fill:#FFFFFF;}
	.st8{fill-rule:evenodd;clip-rule:evenodd;fill:#289BCD;}
	.st9{fill-rule:evenodd;clip-rule:evenodd;fill:#003C6A;}
	.st10{fill-rule:evenodd;clip-rule:evenodd;fill:#EEF7F8;}
	.st11{fill-rule:evenodd;clip-rule:evenodd;fill:#466BAF;}
	.st12{fill:#E005A3;}
	.st13{fill:#466BAF;}
	.st14{fill:none;stroke:#466BAF;stroke-width:1.9998;stroke-miterlimit:2.6131;}
	.st15{fill:none;stroke:#0DCE93;stroke-width:2.9999;stroke-linecap:round;stroke-linejoin:round;stroke-miterlimit:2.6131;}
	.st16{fill-rule:evenodd;clip-rule:evenodd;fill:#0DCE93;}
	.st17{fill-rule:evenodd;clip-rule:evenodd;fill:#1756BC;}
	.st18{fill-rule:evenodd;clip-rule:evenodd;fill:#FBC65F;}
	.st19{fill-rule:evenodd;clip-rule:evenodd;fill:#BC4797;}
	.st20{fill-rule:evenodd;clip-rule:evenodd;fill:#BF0A17;}
	.st21{fill-rule:evenodd;clip-rule:evenodd;fill:#E251B5;}
	.st22{fill-rule:evenodd;clip-rule:evenodd;fill:#FFB830;}
	.st23{fill-rule:evenodd;clip-rule:evenodd;fill:#0FAC7C;}
	.st24{fill-rule:evenodd;clip-rule:evenodd;fill:#316DE6;}
	.st25{fill-rule:evenodd;clip-rule:evenodd;fill:#3F609D;}
	.st26{fill-rule:evenodd;clip-rule:evenodd;fill:#373737;}
	.st27{fill-rule:evenodd;clip-rule:evenodd;fill:#F8C514;}
	.st28{fill-rule:evenodd;clip-rule:evenodd;fill:#C9DD72;}
	.st29{fill-rule:evenodd;clip-rule:evenodd;fill:#96C83F;}
	.st30{fill-rule:evenodd;clip-rule:evenodd;fill:#6388C5;}
	.st31{fill-rule:evenodd;clip-rule:evenodd;fill:#8062A8;}
	.st32{fill-rule:evenodd;clip-rule:evenodd;fill:#F17424;}
	.st33{fill-rule:evenodd;clip-rule:evenodd;fill:#E8232A;}
	.st34{fill-rule:evenodd;clip-rule:evenodd;fill:#466BB0;}
	.st35{fill:#FFFFFF;}
	.st36{opacity:0.5;fill-rule:evenodd;clip-rule:evenodd;fill:#869ECB;}
	.st37{fill-rule:evenodd;clip-rule:evenodd;fill:#7E4BC6;}
	.st38{fill-rule:evenodd;clip-rule:evenodd;fill:#4D9DC9;}
	.st39{fill-rule:evenodd;clip-rule:evenodd;fill:#E5EAF4;}
	.st40{fill-rule:evenodd;clip-rule:evenodd;fill:#7C86E2;}
	.st41{fill:none;stroke:#DF3EAD;stroke-width:0.279;stroke-miterlimit:10;}
	.st42{fill:#CF63CC;}
	.st43{fill:#B11AA9;}
	.st44{fill:none;stroke:#DF3EAD;stroke-width:0.3116;stroke-miterlimit:10;}
	.st45{fill:none;stroke:#466BAF;stroke-width:2.8883;stroke-miterlimit:2.6131;}
	.st46{fill:none;stroke:#466BAF;stroke-width:2.5881;stroke-miterlimit:2.6131;}
	.st47{fill:none;stroke:#0DCE93;stroke-width:3.8973;stroke-linecap:round;stroke-linejoin:round;stroke-miterlimit:2.6131;}
	.st48{fill:none;stroke:#0DCE93;stroke-width:4.342;stroke-linecap:round;stroke-linejoin:round;stroke-miterlimit:2.6131;}
	.st49{fill:none;stroke:#939598;stroke-width:5;stroke-miterlimit:10;}
	.st50{fill:#6B6B6B;stroke:#939598;stroke-width:3.5824;stroke-miterlimit:10;}
	.st51{opacity:0.5;}
	.st52{fill:#6B6B6B;stroke:#939598;stroke-width:3.4266;stroke-miterlimit:10;}
	.st53{fill:#6B6B6B;stroke:#939598;stroke-width:4.7527;stroke-miterlimit:10;}
	.st54{fill:#6B6B6B;stroke:#939598;stroke-width:4.7676;stroke-miterlimit:10;}
	.st55{fill-rule:evenodd;clip-rule:evenodd;fill:#456989;}
	.st56{fill-rule:evenodd;clip-rule:evenodd;fill:#8592A4;}
	.st57{fill-rule:evenodd;clip-rule:evenodd;fill:#E88C5E;}
</style>
<g
   id="g1915">
	<g
   id="g1911">
		<g
   id="g1877">
			<path
   class="st11"
   d="M65,94.3h-5.6h-5.6c-3.5,0-4.6-1.5-2.6-3.3c2.1-1.8,6.6-3.3,10.1-3.3h29h25.5c3.5,0,8-1.5,10.1-3.3     c2.1-1.8,0.9-3.3-2.6-3.3H98.1H80.2c-3.5,0-4.6-1.5-2.6-3.3c2.1-1.8,6.6-3.3,10.1-3.3h18h1.5c3.5,0,8-1.5,10.1-3.3     c2.1-1.8,0.9-3.3-2.6-3.3h-1.4H83.9H57.6l9.6-8.2L0,84.6L9.9,109l9.6-8.2h27h11.1c3.5,0,8-1.5,10.1-3.3     C69.7,95.8,68.5,94.3,65,94.3 M92.3,94.6H85c-3.5,0-8,1.5-10.1,3.3c-2.1,1.8-0.9,3.3,2.6,3.3h7.2c3.5,0,8-1.5,10.1-3.3     C96.9,96.1,95.8,94.6,92.3,94.6z M69.1,74.8h-9.9c-3.5,0-8,1.5-10.1,3.3c-2.1,1.8-0.9,3.3,2.6,3.3h9.9c3.5,0,8-1.5,10.1-3.3     C73.8,76.2,72.6,74.8,69.1,74.8z"
   id="path1873" />
			<path
   class="st4"
   d="M208.7,74.8h5.6h5.6c3.5,0,4.6,1.5,2.6,3.3c-2.1,1.8-6.6,3.3-10.1,3.3h-26.5c-3.5,0-8,1.5-10.1,3.3     c-2.1,1.8-0.9,3.3,2.6,3.3h15.2c3.5,0,4.6,1.5,2.6,3.3c-2.1,1.8-6.6,3.3-10.1,3.3h-28h-1.5c-3.5,0-8,1.5-10.1,3.3     c-2.1,1.8-0.9,3.3,2.6,3.3h1.4h39.5h26.3l-9.6,8.2l67.2-24.5l-9.9-24.5l-9.6,8.2h-27h-11.1c-3.5,0-8,1.5-10.1,3.3     C204.1,73.3,205.2,74.8,208.7,74.8 M181.4,74.5h7.2c3.5,0,8-1.5,10.1-3.3c2.1-1.8,0.9-3.3-2.6-3.3h-7.2c-3.5,0-8,1.5-10.1,3.3     C176.8,73.1,178,74.5,181.4,74.5z M204.6,94.3h9.9c3.5,0,8-1.5,10.1-3.3c2.1-1.8,0.9-3.3-2.6-3.3h-9.9c-3.5,0-8,1.5-10.1,3.3     C200,92.9,201.1,94.3,204.6,94.3z"
   id="path1875" />
		</g>
		<path
   class="st1"
   d="M145.2,74.4c20.4,0,35.4,2.6,33.5,5.7c-1.9,3.2-20,5.7-40.4,5.7c-20.4,0-35.4-2.6-33.5-5.7    C106.7,77,124.8,74.4,145.2,74.4"
   id="path1879" />
		<g
   id="g1909">
			<path
   class="st6"
   d="M159.6,33.1c2.1,1.9,11.5-5,18.4-8.7c6.9-3.8,6.4-7.7,5.1-10c-1.4-2.3-6.3-3.2-11.5,0.7     C166.2,19.1,157.5,31.2,159.6,33.1"
   id="path1881" />
			<path
   class="st7"
   d="M170.4,21.5c0.9,0.8,2.8-1.4,6.2-3c3.4-1.6,4.4-3.3,3.5-4.1c-0.9-0.8-3.2-0.2-5.6,1.7     C172.1,17.9,169.5,20.7,170.4,21.5"
   id="path1883" />
			<path
   class="st6"
   d="M102.7,11.4c4.7-1.6,7.5-2.6,10.3-2.6l-6.6,7.8c1.6-2-0.7-2.3-1.6-2.3c-7.2,0.3-4.4,10.3-14,12.2     c-6,1.2-10.7-2.6-11.2-8.1c-0.5-5.5,2.7-10.6,8.7-11.7c3.6-0.6,7.6,0.8,9.1,3.5C99,12.9,100.4,12.2,102.7,11.4"
   id="path1885" />
			<path
   class="st6"
   d="M124.5,74.8c10.3-2.3,12.2-6.2,23.1-9c10.9-2.8,13.1-1.1,19.8-0.4c11.3,1.3,13.7-8.5,3.5-15.2     c2-5.6,2.6-18,2-22.7c-2.3-18.7-19.7-29.5-39.3-27.3c-19.6,2.2-34,16.6-31.8,35.3c1.5,12,6.6,21.3,13.8,27.4     C106.5,67.4,116.7,76.6,124.5,74.8"
   id="path1887" />
			<path
   class="st7"
   d="M86.4,8.9c2-1,4.3-0.3,5.2,1.7c1.7,3.6-5.4,7.6-7.4,3.2C83.3,11.9,84.4,10,86.4,8.9"
   id="path1889" />
			<path
   class="st6"
   d="M115.7,41c-0.1,3.1-12.8,6.3-21.1,9.5c-8.3,3.2-11.1,0.2-11.8-2.5c-0.7-2.7,2.3-7.4,9.5-9.1     C99.4,37.1,115.8,38,115.7,41"
   id="path1891" />
			<path
   class="st7"
   d="M87.9,45.6c0.3,0.7-0.2,1.6-0.9,2c-0.8,0.5-1.6,0.3-1.9-0.3c-0.3-0.7,0.2-1.6,0.9-2     C86.8,44.8,87.7,44.9,87.9,45.6 M102.9,41c0.6,1.1-2.9-0.5-10.1,2.7c-2.6,1.1-3.7,2-4.4,1.1c-0.3-0.4-0.8-1.6,2.9-3.2     C94.9,40.1,102.3,39.8,102.9,41z"
   id="path1893" />
			<path
   class="st8"
   d="M132.3,1.6c17-3.7,33.2,7.6,36.3,25.1c5.6,32-55.3,47-62,8.7C103.5,17.9,115.4,5.3,132.3,1.6"
   id="path1895" />
			<path
   class="st10"
   d="M161,15.6c0.7-0.3,1.5,0.2,1.8,0.9c0.4,0.8,0.1,1.6-0.5,1.9c-0.7,0.3-1.5-0.2-1.8-0.9     C160.2,16.7,160.4,15.8,161,15.6 M132.7,11.5c-5.8,2.6-8.5-3.1-1.2-6.7c9.1-4.5,23.4-0.9,28.7,7.2c1.4,2.2-0.2,3.4-2.3,1.4     C151.9,8,142.4,7.2,132.7,11.5z"
   id="path1897" />
			<path
   class="st9"
   d="M148.1,33.4c2.3-0.7,3.5-1.6,4.6-2.2c1-0.5,1.8-0.7,2.9,0c1.1,0.7,1.3,2.9,0.5,5.3c-0.8,2.4-2.5,5.1-5.6,6.5     c-3.2,1.4-6.6,0.8-8.9-0.8c-2.4-1.6-3.5-4.1-2.7-5.7c0.8-1.6,1.9-2,3.5-2.2C143.9,34.2,145.8,34.1,148.1,33.4"
   id="path1899" />
			<path
   class="st6"
   d="M154.5,38.3c-1,1.4-2.8,3-4.3,3.6c-1.5,0.6-2.1,0.7-3.1,0.7c-1,0.1-2-0.1-2.9-0.3c-0.2-1,0.4-2.2,1.5-2.9     c1-0.7,2.3-1.2,3.5-0.9c0.9-1,2.1-1.5,3.2-1.5C153.5,37,154.3,37.4,154.5,38.3"
   id="path1901" />
			<path
   class="st7"
   d="M148.3,34.5c1.6-0.5,2.7-1,3.6-1.5c0.9-0.5,1.5-0.9,2.1-1c0,0-0.1-0.5,0,0.1c0.2,0.6-0.4,2.5-1,2.7     c-0.6,0.2-0.6,0.1-0.9,0c-0.1,0.8-0.7,1.6-1.4,1.9c-0.7,0.3-1.4,0-2-0.5c-0.2,0.8-0.7,1.4-1.5,1.7c-0.8,0.3-1.8,0-2.4-0.7     c-0.3,0.3-0.2,0.5-1,0.7c-0.8,0.3-2.6-1.1-2.8-1.9c-0.2-0.7,0-0.1,0-0.1c0.9-0.2,1.8-0.3,3.1-0.4C145.3,35.2,146.7,35,148.3,34.5     "
   id="path1903" />
			<path
   class="st9"
   d="M136.3,32.9c-0.2-2.4-2.8-5.4-6.3-5.2c-1.1,0.1-5.6,0.2-6,5.2c-0.3,3.4,2.9,2.9,3.1,0.6     c0.1-1.5,2-2.8,3.5-2.8c1.4,0,3,0.7,3.8,2.9C134.8,34.6,136.4,34.3,136.3,32.9"
   id="path1905" />
			<path
   class="st9"
   d="M153,27.5c-1.2-2-1.1-5.6,0.8-7.7c1.1-1.2,4.6-2.3,6.6,0.4c1.9,2.6-0.2,4-1.6,2.3c-0.9-1.2-2.7-1.1-3.6-0.2     c-0.8,0.9-1.4,2.3-0.8,4.5C154.8,27.9,153.7,28.7,153,27.5"
   id="path1907" />
		</g>
	</g>
	<path
   class="st9"
   d="M381,72.9c0,1.5-0.5,2.8-1.5,3.8c-1,1-2.3,1.5-3.8,1.5c-1.5,0-2.7-0.5-3.7-1.5c-1-1-1.5-2.3-1.5-3.8V18.5   c0-1.5,0.5-2.8,1.5-3.8c1-1,2.3-1.5,3.8-1.5c1.5,0,2.7,0.5,3.7,1.5c1,1,1.5,2.3,1.5,3.8V72.9z M424,54.8c0-2.9-0.6-5.4-1.8-7.7   c-1.2-2.3-2.8-4-4.8-5.2c-2-1.2-4.3-1.8-6.7-1.8c-2.5,0-4.7,0.6-6.7,1.8c-2,1.2-3.6,3-4.8,5.2c-1.2,2.3-1.8,4.8-1.8,7.7   c0,2.9,0.6,5.4,1.8,7.7c1.2,2.2,2.8,4,4.8,5.2c2,1.2,4.3,1.8,6.7,1.8c2.5,0,4.7-0.6,6.7-1.8c2-1.2,3.6-3,4.8-5.2   C423.4,60.2,424,57.7,424,54.8z M434.5,54.8c0,4.7-1.1,8.9-3.2,12.6c-2.1,3.7-5,6.6-8.7,8.7c-3.7,2.1-7.7,3.1-12.1,3.1   c-4.5,0-8.5-1-12.1-3.1c-3.6-2.1-6.5-4.9-8.6-8.7c-2.1-3.7-3.2-7.9-3.2-12.6c0-4.7,1.1-8.9,3.2-12.6c2.1-3.7,5-6.6,8.6-8.7   c3.6-2.1,7.7-3.1,12.1-3.1c4.4,0,8.4,1,12.1,3.1c3.7,2.1,6.6,5,8.7,8.7C433.5,45.9,434.5,50.1,434.5,54.8z M475.5,54.8   c0-2.9-0.6-5.4-1.8-7.7c-1.2-2.3-2.8-4-4.8-5.2c-2-1.2-4.3-1.8-6.7-1.8c-2.5,0-4.7,0.6-6.7,1.8c-2,1.2-3.6,3-4.8,5.2   c-1.2,2.3-1.8,4.8-1.8,7.7c0,2.9,0.6,5.4,1.8,7.7c1.2,2.2,2.8,4,4.8,5.2c2,1.2,4.3,1.8,6.7,1.8c2.5,0,4.7-0.6,6.7-1.8   c2-1.2,3.6-3,4.8-5.2C474.9,60.2,475.5,57.7,475.5,54.8z M486,54.8c0,4.7-1.1,8.9-3.2,12.6c-2.1,3.7-5,6.6-8.7,8.7   c-3.7,2.1-7.7,3.1-12.1,3.1c-4.5,0-8.5-1-12.1-3.1c-3.6-2.1-6.5-4.9-8.6-8.7c-2.1-3.7-3.2-7.9-3.2-12.6c0-4.7,1.1-8.9,3.2-12.6   c2.1-3.7,5-6.6,8.6-8.7c3.6-2.1,7.7-3.1,12.1-3.1c4.4,0,8.4,1,12.1,3.1c3.7,2.1,6.6,5,8.7,8.7C485,45.9,486,50.1,486,54.8z    M541.8,47.2c0.8,0,1.4,0.2,1.9,0.7c0.5,0.5,0.7,1.1,0.7,1.9v21.2c0,1-0.4,1.8-1.3,2.4c-2.6,1.8-5.6,3.2-8.8,4.2   c-3.2,1-6.5,1.5-9.9,1.5c-6,0-11.4-1.4-16.2-4.1c-4.8-2.8-8.6-6.5-11.4-11.4c-2.8-4.8-4.1-10.2-4.1-16.2c0-6,1.4-11.4,4.1-16.2   c2.8-4.8,6.5-8.6,11.4-11.4c4.8-2.8,10.2-4.1,16.2-4.1c3.1,0,6.1,0.4,9,1.1c2.9,0.8,5.5,1.8,7.8,3.3c0.8,0.5,1.2,1.3,1.2,2.2   c0,0.8-0.3,1.4-0.7,1.9c-0.5,0.5-1.1,0.8-1.7,0.8c-0.6,0-1.1-0.1-1.6-0.4c-4.4-2.4-9.1-3.6-14-3.6c-5,0-9.5,1.1-13.4,3.4   c-4,2.3-7.1,5.4-9.3,9.5c-2.2,4-3.3,8.5-3.3,13.5c0,5,1.1,9.5,3.3,13.5c2.2,4,5.3,7.2,9.3,9.5c4,2.3,8.4,3.4,13.4,3.4   c2.5,0,5.1-0.4,7.6-1.1s4.8-1.7,6.8-2.9V52.5h-13.9c-0.8,0-1.4-0.2-1.9-0.7c-0.5-0.5-0.8-1.1-0.8-1.9c0-0.8,0.3-1.4,0.8-1.9   c0.5-0.5,1.2-0.7,1.9-0.7H541.8z M573,74.2c3.1,0,5.8-0.8,8.2-2.4c2.4-1.6,4.3-3.8,5.7-6.7c1.4-2.8,2.1-6,2.1-9.6   c0-3.4-0.7-6.5-2.1-9.3c-1.4-2.8-3.3-5-5.7-6.6c-2.4-1.6-5.2-2.4-8.2-2.4c-3.1,0-5.8,0.8-8.2,2.4c-2.4,1.6-4.3,3.8-5.7,6.6   c-1.4,2.8-2.1,5.9-2.1,9.5c0,3.5,0.7,6.7,2,9.6c1.3,2.8,3.2,5.1,5.7,6.7C567.1,73.4,569.9,74.2,573,74.2z M591.3,33.3   c0.8,0,1.4,0.3,1.9,0.8c0.5,0.5,0.7,1.2,0.7,1.9v39.6c0,0.8-0.3,1.4-0.7,1.9c-0.5,0.5-1.1,0.7-1.9,0.7c-0.8,0-1.4-0.2-1.9-0.7   c-0.5-0.5-0.7-1.1-0.7-1.9v-5.9c-1.5,2.6-3.7,4.9-6.6,6.7c-2.9,1.8-6.1,2.7-9.6,2.7c-3.9,0-7.5-1-10.6-3.1   c-3.1-2.1-5.6-4.9-7.4-8.5c-1.8-3.6-2.7-7.6-2.7-12.1c0-4.5,0.9-8.5,2.7-12c1.8-3.6,4.3-6.3,7.4-8.3c3.1-2,6.6-3,10.4-3   c3.5,0,6.7,0.9,9.7,2.6c2.9,1.7,5.1,3.9,6.6,6.7V36c0-0.8,0.2-1.4,0.7-1.9C589.9,33.6,590.6,33.3,591.3,33.3z M613.5,38.4v29.5   c0,2.2,0.4,3.7,1.2,4.5c0.8,0.8,1.9,1.2,3.3,1.2c0.4,0,0.8-0.1,1.3-0.2c0.5-0.1,0.9-0.2,1.2-0.2c0.5,0,1,0.2,1.4,0.7   c0.4,0.4,0.6,1,0.6,1.5c0,0.8-0.5,1.5-1.4,2.1c-0.9,0.6-2.1,0.8-3.3,0.8c-1.6,0-3-0.1-4.2-0.4c-1.2-0.3-2.4-1.2-3.6-2.6   c-1.1-1.5-1.7-3.8-1.7-7V38.4h-6.4c-0.7,0-1.3-0.2-1.8-0.7c-0.5-0.5-0.7-1.1-0.7-1.8c0-0.7,0.2-1.3,0.7-1.8   c0.5-0.5,1.1-0.7,1.8-0.7h6.4v-9.8c0-0.8,0.2-1.4,0.8-1.9c0.5-0.5,1.1-0.7,1.9-0.7c0.8,0,1.4,0.2,1.9,0.7c0.5,0.5,0.7,1.1,0.7,1.9   v9.8h8.8c0.6,0,1.2,0.3,1.7,0.8c0.5,0.5,0.7,1.1,0.7,1.8c0,0.7-0.2,1.3-0.7,1.7c-0.5,0.4-1.1,0.7-1.8,0.7H613.5z M648.6,37.4   c-3.4,0-6.6,1.2-9.5,3.5c-2.9,2.3-4.8,5.7-5.6,10.1h30v-0.7c-0.3-2.6-1.2-4.9-2.6-6.9c-1.5-2-3.3-3.5-5.5-4.5   C653.2,37.9,651,37.4,648.6,37.4z M669,53.2c0,0.7-0.3,1.3-0.8,1.8c-0.5,0.5-1.1,0.7-1.8,0.7h-33.3c0,3.5,0.7,6.7,2.2,9.5   c1.4,2.8,3.5,5,6.2,6.6c2.7,1.6,5.8,2.4,9.5,2.4c2.8,0,5.3-0.6,7.6-1.8c2.2-1.2,4-2.7,5.4-4.5c0.6-0.5,1.3-0.8,1.8-0.8   c0.6,0,1.1,0.2,1.6,0.7c0.5,0.5,0.7,1,0.7,1.6c0,0.6-0.3,1.3-0.9,1.8c-1.9,2.3-4.2,4.2-7.1,5.6c-2.8,1.5-5.9,2.2-9,2.2   c-4.5,0-8.5-1-12-2.9c-3.5-1.9-6.2-4.7-8.1-8.1C629,64.6,628,60.6,628,56c0-4.8,1-9,2.9-12.6c1.9-3.6,4.4-6.4,7.6-8.3   c3.2-1.9,6.5-2.9,10.1-2.9c3.5,0,6.8,0.8,9.9,2.5c3.1,1.6,5.6,4,7.5,7.2C668,45.1,669,48.9,669,53.2z M730.3,32.3   c0.8,0,1.4,0.2,1.9,0.7c0.5,0.5,0.7,1.1,0.7,1.9c0,0.1-0.1,0.4-0.3,1.1l-13.6,40.5c-0.3,0.5-0.7,1-1.1,1.3c-0.5,0.3-1,0.5-1.5,0.4   c-0.5,0-1-0.1-1.4-0.4c-0.4-0.3-0.7-0.7-1-1.2l-11.5-27.1l-10.3,27.1c-0.2,0.5-0.6,0.9-1,1.2c-0.4,0.3-0.9,0.5-1.4,0.5   c-0.6,0.1-1.1-0.1-1.6-0.4c-0.5-0.3-0.8-0.7-1-1.3l-13.9-40.5c-0.2-0.4-0.3-0.7-0.3-1.1c0-0.8,0.3-1.4,0.8-1.9   c0.5-0.5,1.2-0.7,1.9-0.7c0.5,0,1,0.2,1.5,0.5c0.4,0.3,0.7,0.7,0.9,1.3l11.7,35.1l10.5-26.3c0.4-1.1,1.2-1.7,2.5-1.7   c1.2,0,2,0.6,2.5,1.7l11,26.1l11.5-34.9C728.2,32.9,729,32.3,730.3,32.3z M758.6,74.2c3.1,0,5.8-0.8,8.2-2.4   c2.4-1.6,4.3-3.8,5.7-6.7c1.4-2.8,2.1-6,2.1-9.6c0-3.4-0.7-6.5-2.1-9.3c-1.4-2.8-3.3-5-5.7-6.6c-2.4-1.6-5.2-2.4-8.2-2.4   c-3.1,0-5.8,0.8-8.2,2.4c-2.4,1.6-4.3,3.8-5.7,6.6c-1.4,2.8-2.1,5.9-2.1,9.5c0,3.5,0.7,6.7,2,9.6c1.3,2.8,3.2,5.1,5.7,6.7   C752.7,73.4,755.5,74.2,758.6,74.2z M776.9,33.3c0.8,0,1.4,0.3,1.9,0.8c0.5,0.5,0.7,1.2,0.7,1.9v39.6c0,0.8-0.3,1.4-0.7,1.9   c-0.5,0.5-1.1,0.7-1.9,0.7c-0.8,0-1.4-0.2-1.9-0.7c-0.5-0.5-0.7-1.1-0.7-1.9v-5.9c-1.5,2.6-3.7,4.9-6.6,6.7   c-2.9,1.8-6.1,2.7-9.6,2.7c-3.9,0-7.5-1-10.6-3.1c-3.1-2.1-5.6-4.9-7.4-8.5c-1.8-3.6-2.7-7.6-2.7-12.1c0-4.5,0.9-8.5,2.7-12   c1.8-3.6,4.3-6.3,7.4-8.3c3.1-2,6.6-3,10.4-3c3.5,0,6.7,0.9,9.7,2.6c2.9,1.7,5.1,3.9,6.6,6.7V36c0-0.8,0.2-1.4,0.7-1.9   C775.5,33.6,776.1,33.3,776.9,33.3z M822.7,32.5c0.8,0,1.4,0.2,1.9,0.7c0.5,0.5,0.8,1.1,0.8,1.9V74c0,4.6-0.9,8.6-2.7,11.9   c-1.8,3.3-4.3,5.8-7.6,7.5c-3.2,1.7-6.9,2.6-10.9,2.6c-2.5,0-4.8-0.3-6.9-0.8c-2.1-0.5-3.9-1.2-5.3-2.1c-1.2-0.8-1.8-1.6-1.8-2.6   c0-0.1,0.1-0.4,0.2-0.9c0.2-0.6,0.5-1,0.9-1.3c0.4-0.3,0.8-0.4,1.3-0.4c0.4,0,0.7,0.1,1.1,0.3c3.8,2.1,7.3,3.1,10.7,3.1   c4.9,0,8.7-1.5,11.6-4.6c2.8-3.1,4.3-7.2,4.3-12.5V71c-1.5,2.5-3.6,4.4-6.3,5.9c-2.8,1.5-5.8,2.2-9,2.2c-5.1,0-9-1.5-11.6-4.6   c-2.6-3.1-4-7.2-4-12.4v-27c0-0.8,0.2-1.4,0.7-1.9c0.5-0.5,1.1-0.7,1.9-0.7c0.8,0,1.4,0.2,1.9,0.7c0.5,0.5,0.7,1.1,0.7,1.9v26.2   c0,4.2,0.9,7.4,2.8,9.6c1.8,2.2,4.7,3.3,8.7,3.3c2.4,0,4.7-0.6,6.9-1.8c2.2-1.2,4-2.8,5.3-4.8c1.3-2,2-4.1,2-6.3V35.2   c0-0.8,0.2-1.4,0.7-1.9C821.3,32.8,822,32.5,822.7,32.5z M357.7,45c1.5,0,2.8,0.5,3.8,1.5c1,1,1.5,2.3,1.5,3.8V69   c0,2.1-0.9,3.6-2.7,4.8c-5.8,3.6-12.1,5.4-18.9,5.4c-5.8,0-11.2-1.4-16.1-4.3c-4.9-2.8-8.8-6.7-11.7-11.5   c-2.9-4.8-4.3-10.1-4.3-15.9c0-5.8,1.4-11,4.3-15.9c2.9-4.8,6.8-8.7,11.7-11.5c4.9-2.8,10.3-4.3,16.1-4.3c5.8,0,10.9,1.2,15.1,3.5   c0.9,0.5,1.5,1.1,2,1.8c0.4,0.8,0.7,1.6,0.7,2.5c0,1.5-0.5,2.7-1.5,3.8c-1,1.1-2.2,1.6-3.6,1.6c-0.9,0-1.8-0.2-2.9-0.7   c-3.2-1.4-6.5-2-9.9-2c-3.8,0-7.2,1-10.4,2.9c-3.2,1.9-5.7,4.5-7.5,7.7c-1.8,3.2-2.8,6.8-2.8,10.6c0,3.8,0.9,7.3,2.8,10.6   c1.8,3.2,4.4,5.8,7.5,7.7c3.2,1.9,6.6,2.9,10.4,2.9c1.6,0,3.4-0.1,5.3-0.4c1.9-0.3,3.5-0.7,4.9-1.1V55.6h-8.3   c-1.5,0-2.8-0.5-3.8-1.5c-1-1-1.5-2.3-1.5-3.8c0-1.5,0.5-2.8,1.5-3.8c1-1,2.3-1.5,3.8-1.5H357.7z"
   id="path1913" />
</g>
</svg>
