<svg version="1.1" xmlns="http://www.w3.org/2000/svg" viewBox="0 0 762.9666137695311 632.4178751001878" width="1525.9332275390623" height="1264.8357502003755">
  <!-- svg-source:excalidraw -->
  
  <defs>
    <style>
      @font-face {
        font-family: "Virgil";
        src: url("https://plus.excalidraw.com/Virgil.woff2");
      }
      @font-face {
        font-family: "Cascadia";
        src: url("https://plus.excalidraw.com/Cascadia.woff2");
      }
    </style>
  </defs>
  <rect x="0" y="0" width="762.9666137695311" height="632.4178751001878" fill="#ffffff"></rect><g stroke-linecap="round" transform="translate(241.7248077046056 50.46811449970836) rotate(306.4434673675469 12.592942533039206 3.8127930291668335)"><path d="M20.69 0.89 C22.75 1.42, 24.53 2.35, 24.99 3.15 C25.46 3.96, 24.85 5.01, 23.5 5.72 C22.15 6.43, 19.44 7.12, 16.9 7.4 C14.36 7.68, 10.82 7.68, 8.29 7.4 C5.75 7.12, 3.04 6.43, 1.69 5.72 C0.34 5.01, -0.28 3.96, 0.19 3.15 C0.66 2.35, 2.43 1.42, 4.5 0.89 C6.57 0.37, 9.89 0, 12.59 0 C15.29 0, 18.62 0.37, 20.69 0.89" stroke="none" stroke-width="0" fill="#0eb1e4"></path><path d="M20.69 0.89 C22.75 1.42, 24.53 2.35, 24.99 3.15 C25.46 3.96, 24.85 5.01, 23.5 5.72 C22.15 6.43, 19.44 7.12, 16.9 7.4 C14.36 7.68, 10.82 7.68, 8.29 7.4 C5.75 7.12, 3.04 6.43, 1.69 5.72 C0.34 5.01, -0.28 3.96, 0.19 3.15 C0.66 2.35, 2.43 1.42, 4.5 0.89 C6.57 0.37, 9.89 0, 12.59 0 C15.29 0, 18.62 0.37, 20.69 0.89" stroke="#0eb1e4" stroke-width="1" fill="none"></path></g><g stroke-linecap="round" transform="translate(296.8571110303884 50.31384265891481) rotate(44.97704373639855 12.592942533039206 3.8127930291668335)"><path d="M20.69 0.89 C22.75 1.42, 24.53 2.35, 24.99 3.15 C25.46 3.96, 24.85 5.01, 23.5 5.72 C22.15 6.43, 19.44 7.12, 16.9 7.4 C14.36 7.68, 10.82 7.68, 8.29 7.4 C5.75 7.12, 3.04 6.43, 1.69 5.72 C0.34 5.01, -0.28 3.96, 0.19 3.15 C0.66 2.35, 2.43 1.42, 4.5 0.89 C6.57 0.37, 9.89 0, 12.59 0 C15.29 0, 18.62 0.37, 20.69 0.89" stroke="none" stroke-width="0" fill="#0eb1e4"></path><path d="M20.69 0.89 C22.75 1.42, 24.53 2.35, 24.99 3.15 C25.46 3.96, 24.85 5.01, 23.5 5.72 C22.15 6.43, 19.44 7.12, 16.9 7.4 C14.36 7.68, 10.82 7.68, 8.29 7.4 C5.75 7.12, 3.04 6.43, 1.69 5.72 C0.34 5.01, -0.28 3.96, 0.19 3.15 C0.66 2.35, 2.43 1.42, 4.5 0.89 C6.57 0.37, 9.89 0, 12.59 0 C15.29 0, 18.62 0.37, 20.69 0.89" stroke="#0eb1e4" stroke-width="1" fill="none"></path></g><g stroke-linecap="round" transform="translate(285.3707967785921 48.57883547228971) rotate(14.251129668680113 8.687172837790683 15.05726457219999)"><path d="M14.27 3.52 C15.7 5.6, 16.92 9.27, 17.24 12.44 C17.57 15.62, 17.14 19.79, 16.21 22.59 C15.28 25.38, 13.41 28.1, 11.66 29.21 C9.91 30.31, 7.47 30.31, 5.72 29.21 C3.97 28.1, 2.09 25.38, 1.16 22.59 C0.23 19.79, -0.19 15.62, 0.13 12.44 C0.46 9.27, 1.68 5.6, 3.1 3.52 C4.53 1.45, 6.83 0, 8.69 0 C10.55 0, 12.85 1.45, 14.27 3.52" stroke="none" stroke-width="0" fill="#0eb1e4"></path><path d="M14.27 3.52 C15.7 5.6, 16.92 9.27, 17.24 12.44 C17.57 15.62, 17.14 19.79, 16.21 22.59 C15.28 25.38, 13.41 28.1, 11.66 29.21 C9.91 30.31, 7.47 30.31, 5.72 29.21 C3.97 28.1, 2.09 25.38, 1.16 22.59 C0.23 19.79, -0.19 15.62, 0.13 12.44 C0.46 9.27, 1.68 5.6, 3.1 3.52 C4.53 1.45, 6.83 0, 8.69 0 C10.55 0, 12.85 1.45, 14.27 3.52" stroke="#0eb1e4" stroke-width="1" fill="none"></path></g><g stroke-linecap="round" transform="translate(259.98481056298624 54.083715719512185) rotate(334.0400495723031 7.452192384270944 12.91670310561458)"><path d="M12.24 3.02 C13.47 4.8, 14.51 7.95, 14.79 10.67 C15.07 13.4, 14.7 16.98, 13.91 19.38 C13.11 21.77, 11.5 24.11, 10 25.05 C8.5 26, 6.4 26, 4.9 25.05 C3.4 24.11, 1.8 21.77, 1 19.38 C0.2 16.98, -0.16 13.4, 0.11 10.67 C0.39 7.95, 1.44 4.8, 2.66 3.02 C3.89 1.24, 5.86 0, 7.45 0 C9.05 0, 11.02 1.24, 12.24 3.02" stroke="none" stroke-width="0" fill="#0eb1e4"></path><path d="M12.24 3.02 C13.47 4.8, 14.51 7.95, 14.79 10.67 C15.07 13.4, 14.7 16.98, 13.91 19.38 C13.11 21.77, 11.5 24.11, 10 25.05 C8.5 26, 6.4 26, 4.9 25.05 C3.4 24.11, 1.8 21.77, 1 19.38 C0.2 16.98, -0.16 13.4, 0.11 10.67 C0.39 7.95, 1.44 4.8, 2.66 3.02 C3.89 1.24, 5.86 0, 7.45 0 C9.05 0, 11.02 1.24, 12.24 3.02" stroke="#0eb1e4" stroke-width="1" fill="none"></path></g><g stroke-linecap="round" transform="translate(255.09267642058813 26.21065871189861) rotate(0 25.149846278474314 24.78380043577872)"><path d="M41.32 5.8 C45.44 9.21, 48.98 15.25, 49.92 20.48 C50.85 25.71, 49.62 32.58, 46.93 37.18 C44.24 41.77, 38.82 46.26, 33.75 48.07 C28.69 49.89, 21.61 49.89, 16.55 48.07 C11.48 46.26, 6.06 41.77, 3.37 37.18 C0.68 32.58, -0.55 25.71, 0.38 20.48 C1.32 15.25, 4.86 9.21, 8.98 5.8 C13.11 2.38, 19.76 0, 25.15 0 C30.54 0, 37.19 2.38, 41.32 5.8" stroke="none" stroke-width="0" fill="#0eb1e4"></path><path d="M41.32 5.8 C45.44 9.21, 48.98 15.25, 49.92 20.48 C50.85 25.71, 49.62 32.58, 46.93 37.18 C44.24 41.77, 38.82 46.26, 33.75 48.07 C28.69 49.89, 21.61 49.89, 16.55 48.07 C11.48 46.26, 6.06 41.77, 3.37 37.18 C0.68 32.58, -0.55 25.71, 0.38 20.48 C1.32 15.25, 4.86 9.21, 8.98 5.8 C13.11 2.38, 19.76 0, 25.15 0 C30.54 0, 37.19 2.38, 41.32 5.8" stroke="#0eb1e4" stroke-width="1" fill="none"></path></g><g stroke-linecap="round" transform="translate(262.02712955213946 15.071475361077319) rotate(310.82721671153615 1.6663941790458239 10.553260928976272)"><path d="M0.83 0 L2.5 0 L3.33 0.83 L3.33 20.27 L2.5 21.11 L0.21 20.9 L0 20.27 L0 0.83 L0.83 0" stroke="none" stroke-width="0" fill="#0eb1e4"></path><path d="M0.83 0 M0.83 0 C1.24 0, 1.66 0, 2.5 0 M0.83 0 C1.32 0, 1.81 0, 2.5 0 M2.5 0 C3.06 0, 3.33 0.28, 3.33 0.83 M2.5 0 C3.06 0, 3.33 0.28, 3.33 0.83 M3.33 0.83 C3.33 7.72, 3.33 14.6, 3.33 20.27 M3.33 0.83 C3.33 6.06, 3.33 11.28, 3.33 20.27 M3.33 20.27 C3.33 20.83, 3.06 21.11, 2.5 21.11 M3.33 20.27 C3.33 20.83, 3.06 21.11, 2.5 21.11 M2.5 21.11 C1.89 21.11, 1.27 21.11, 0.83 21.11 M2.5 21.11 C1.84 21.11, 1.19 21.11, 0.83 21.11 M0.83 21.11 C0.28 21.11, 0 20.83, 0 20.27 M0.83 21.11 C0.28 21.11, 0 20.83, 0 20.27 M0 20.27 C0 15.6, 0 10.93, 0 0.83 M0 20.27 C0 14.58, 0 8.9, 0 0.83 M0 0.83 C0 0.28, 0.28 0, 0.83 0 M0 0.83 C0 0.28, 0.28 0, 0.83 0" stroke="#0eb1e4" stroke-width="1" fill="none"></path></g><g stroke-linecap="round" transform="translate(244.6878602417483 10) rotate(0 7.057975153569004 7.6332427632085995)"><path d="M11.59 1.79 C12.75 2.84, 13.75 4.7, 14.01 6.31 C14.27 7.92, 13.93 10.03, 13.17 11.45 C12.41 12.87, 10.89 14.25, 9.47 14.81 C8.05 15.37, 6.07 15.37, 4.64 14.81 C3.22 14.25, 1.7 12.87, 0.95 11.45 C0.19 10.03, -0.16 7.92, 0.11 6.31 C0.37 4.7, 1.36 2.84, 2.52 1.79 C3.68 0.73, 5.55 0, 7.06 0 C8.57 0, 10.44 0.73, 11.59 1.79" stroke="none" stroke-width="0" fill="#0eb1e4"></path><path d="M11.59 1.79 C12.75 2.84, 13.75 4.7, 14.01 6.31 C14.27 7.92, 13.93 10.03, 13.17 11.45 C12.41 12.87, 10.89 14.25, 9.47 14.81 C8.05 15.37, 6.07 15.37, 4.64 14.81 C3.22 14.25, 1.7 12.87, 0.95 11.45 C0.19 10.03, -0.16 7.92, 0.11 6.31 C0.37 4.7, 1.36 2.84, 2.52 1.79 C3.68 0.73, 5.55 0, 7.06 0 C8.57 0, 10.44 0.73, 11.59 1.79" stroke="#0eb1e4" stroke-width="1" fill="none"></path></g><g stroke-linecap="round" transform="translate(246.037841796875 116.80325107675029) rotate(0 116.0872802734375 37.29615783691406)"><path d="M18.67 -1.67 L215.45 -1.88 L219.87 -0.09 L230.8 6.8 L230.51 13.04 L230.39 57.45 L230.66 65.26 L224.46 71.16 L212.48 73.44 L19.07 75.42 L10.04 74.36 L0.81 69.13 L0.08 58.96 L-1.03 13.03 L2.01 6.66 L9.28 1.95 L20.04 0.68" stroke="none" stroke-width="0" fill="#d0f4f9"></path><path d="M18.65 0 M18.65 0 C83.48 3.14, 145.91 3.29, 213.53 0 M18.65 0 C58.01 -0.59, 97.01 -1.97, 213.53 0 M213.53 0 C225.45 -1.82, 233.87 6.55, 232.17 18.65 M213.53 0 C226.3 1.28, 232.14 8.29, 232.17 18.65 M232.17 18.65 C233.39 30.99, 233.17 40.57, 232.17 55.94 M232.17 18.65 C231.83 29.76, 232.43 40.93, 232.17 55.94 M232.17 55.94 C231.3 66.54, 225.35 75.19, 213.53 74.59 M232.17 55.94 C230.33 70.02, 225.3 76.16, 213.53 74.59 M213.53 74.59 C148.43 72.95, 78.58 73.34, 18.65 74.59 M213.53 74.59 C148.59 75.4, 83.3 75.7, 18.65 74.59 M18.65 74.59 C7.79 73.54, 1.5 66.52, 0 55.94 M18.65 74.59 C7.69 74.67, 1.91 67.28, 0 55.94 M0 55.94 C-1.65 44.66, 1.25 30.87, 0 18.65 M0 55.94 C-1.02 44.26, -0.54 34.27, 0 18.65 M0 18.65 C1.75 7.65, 4.49 -1.69, 18.65 0 M0 18.65 C-0.57 7.21, 6.71 1.42, 18.65 0" stroke="#0eb1e4" stroke-width="1" fill="none"></path></g><g transform="translate(303.718505859375 124.41413669686747) rotate(0 55.5 16)"><text x="55.5" y="26" font-family="Helvetica, Segoe UI Emoji" font-size="28px" fill="black" text-anchor="middle" style="white-space: pre;" direction="ltr">Gateway</text></g><g transform="translate(331.70684814453125 12.531645679976712) rotate(0 80 32)"><text x="80" y="26" font-family="Helvetica, Segoe UI Emoji" font-size="28px" fill="black" text-anchor="middle" style="white-space: pre;" direction="ltr">Gloo Edge </text><text x="80" y="58" font-family="Helvetica, Segoe UI Emoji" font-size="28px" fill="black" text-anchor="middle" style="white-space: pre;" direction="ltr">configuration</text></g><g stroke-linecap="round" transform="translate(10 516.7835367212815) rotate(0 76.57861328125 52.817169189453125)"><path d="M27.28 -0.26 L125.34 1.57 L138.74 3.46 L148.16 8.08 L151.5 16.18 L155.04 25.54 L154.38 86.4 L150.87 89.41 L147.18 99.81 L136.42 102.4 L126.11 105.73 L26.79 106.91 L16.27 103.6 L7.17 99.36 L3.17 90.19 L-0.37 86.46 L-0.04 21.08 L4.76 9.57 L5.14 7.31 L15.76 0.75 L25.09 1.03" stroke="none" stroke-width="0" fill="#dbe4ec"></path><path d="M26.41 0 M26.41 0 C64.92 1.32, 103.01 1.33, 126.75 0 M26.41 0 C46.83 -0.72, 68.69 -1.56, 126.75 0 M126.75 0 C143.5 -0.29, 151.16 9.4, 153.16 26.41 M126.75 0 C144.84 0.75, 152.01 9.82, 153.16 26.41 M153.16 26.41 C154.38 42.09, 154.38 60.2, 153.16 79.23 M153.16 26.41 C153.38 47.21, 151.73 65.9, 153.16 79.23 M153.16 79.23 C152.78 97.45, 145.16 106.54, 126.75 105.63 M153.16 79.23 C155.08 98.35, 143.29 103.44, 126.75 105.63 M126.75 105.63 C96.52 105.61, 63.66 106.92, 26.41 105.63 M126.75 105.63 C93.7 105.21, 59.62 106.7, 26.41 105.63 M26.41 105.63 C9.52 107.22, -0.76 98.75, 0 79.23 M26.41 105.63 C10.04 106.76, -0.6 98.05, 0 79.23 M0 79.23 C-0.46 60.16, -1.61 42.23, 0 26.41 M0 79.23 C-0.55 64.34, -0.5 47.34, 0 26.41 M0 26.41 C-1.24 9.86, 9.19 1.02, 26.41 0 M0 26.41 C0.59 9.88, 7.64 2.23, 26.41 0" stroke="#325476" stroke-width="1" fill="none"></path></g><g transform="translate(27.8839111328125 529.6628396997971) rotate(0 60.5 16)"><text x="60.5" y="26" font-family="Helvetica, Segoe UI Emoji" font-size="28px" fill="black" text-anchor="middle" style="white-space: pre;" direction="ltr">Upstream</text></g><g transform="translate(45.57861328125 580.4002969751878) rotate(0 41 12)"><text x="41" y="19" font-family="Cascadia, Segoe UI Emoji" font-size="20px" fill="black" text-anchor="middle" style="white-space: pre;" direction="ltr">details</text></g><g stroke-linecap="round" transform="translate(100.41162109375 245.793294716887) rotate(0 122.15179443359375 103.47947692871094)"><path d="M51.1 0.26 L197.58 1.56 L214.8 5.09 L225.53 7.41 L231.94 12.76 L236.53 21.71 L239.23 29.48 L243.56 53.73 L243.7 161.37 L240.44 177.16 L238.5 185.62 L232.21 192.31 L223.81 199.69 L216.21 204.67 L192.15 205.09 L45.05 207.19 L30.8 201.95 L20.77 198.75 L12.93 195.46 L3.41 180.84 L0 160.56 L-0.33 52.61 L1.56 32.75 L8.85 20.65 L14.74 14.54 L21.69 7.27 L35.48 3.71 L50.87 1.64" stroke="none" stroke-width="0" fill="#fff6e5"></path><path d="M51.74 0 M51.74 0 C101.51 1.75, 148.15 -0.62, 192.56 0 M51.74 0 C90.11 0.44, 127.03 0.01, 192.56 0 M192.56 0 C227.38 1.52, 243.71 16.46, 244.3 51.74 M192.56 0 C228.26 -0.52, 245.29 18.44, 244.3 51.74 M244.3 51.74 C244.45 78.02, 242.23 107.13, 244.3 155.22 M244.3 51.74 C243.46 92.72, 242.88 133.22, 244.3 155.22 M244.3 155.22 C242.44 189.43, 228.3 206.28, 192.56 206.96 M244.3 155.22 C244.08 191.44, 224.9 205.97, 192.56 206.96 M192.56 206.96 C152.77 208.03, 111.13 208.26, 51.74 206.96 M192.56 206.96 C149 205.41, 104.66 206.15, 51.74 206.96 M51.74 206.96 C18.75 205.09, 1.83 191.15, 0 155.22 M51.74 206.96 C19.53 204.81, -0.26 189.28, 0 155.22 M0 155.22 C1.26 122.31, -1.35 84.86, 0 51.74 M0 155.22 C0.57 122.71, 0.02 90.62, 0 51.74 M0 51.74 C0.77 18.43, 17.68 1.86, 51.74 0 M0 51.74 C-1.48 19.15, 19.21 0.83, 51.74 0" stroke="#e98d5e" stroke-width="1" fill="none"></path></g><g transform="translate(138.82525634765625 264.72685794930885) rotate(0 86 16)"><text x="86" y="26" font-family="Helvetica, Segoe UI Emoji" font-size="28px" fill="black" text-anchor="middle" style="white-space: pre;" direction="ltr">VirtualService</text></g><g transform="translate(134.56341552734375 322.827718545012) rotate(0 88 48)"><text x="88" y="19" font-family="Cascadia, Segoe UI Emoji" font-size="20px" fill="black" text-anchor="middle" style="white-space: pre;" direction="ltr">foo.example.com</text><text x="88" y="43" font-family="Cascadia, Segoe UI Emoji" font-size="20px" fill="black" text-anchor="middle" style="white-space: pre;" direction="ltr">/foo</text><text x="88" y="67" font-family="Cascadia, Segoe UI Emoji" font-size="20px" fill="black" text-anchor="middle" style="white-space: pre;" direction="ltr">/bar/user</text><text x="88" y="91" font-family="Cascadia, Segoe UI Emoji" font-size="20px" fill="black" text-anchor="middle" style="white-space: pre;" direction="ltr">/forty-two</text></g><g stroke-linecap="round" transform="translate(383.5274658203125 245.793294716887) rotate(0 122.15179443359375 103.47947692871094)"><path d="M53.48 1.88 L200.76 -0.94 L216.5 4.76 L223.2 6.06 L230.75 12.78 L235.26 20.16 L242.23 29.13 L242.68 52.12 L242.22 161.9 L243.04 178.11 L235.15 187.26 L232.14 193.92 L223.45 198.66 L217.11 205.53 L192.91 206.6 L47.3 207.38 L31.08 205.2 L20.53 200.84 L14.41 194.62 L3.59 182.86 L-1.41 161.79 L0.97 53.08 L2.46 35.19 L8.72 19.59 L11.41 11.33 L21.35 7.18 L32.65 2.96 L50.31 0.49" stroke="none" stroke-width="0" fill="#fff6e5"></path><path d="M51.74 0 M51.74 0 C106.42 1.48, 158.88 -0.3, 192.56 0 M51.74 0 C101.23 -0.96, 150.31 0.36, 192.56 0 M192.56 0 C226.07 0.66, 242.57 16.16, 244.3 51.74 M192.56 0 C229.25 -1.38, 245.62 15.58, 244.3 51.74 M244.3 51.74 C246.46 91.29, 245.55 131.41, 244.3 155.22 M244.3 51.74 C243.99 87.18, 243.33 124.44, 244.3 155.22 M244.3 155.22 C243.98 191.07, 226.04 205.11, 192.56 206.96 M244.3 155.22 C243.57 191.81, 227.05 205.43, 192.56 206.96 M192.56 206.96 C154.41 208.45, 117.8 206.49, 51.74 206.96 M192.56 206.96 C157.12 205.67, 121.77 206.31, 51.74 206.96 M51.74 206.96 C17.5 207.21, -1.51 188.43, 0 155.22 M51.74 206.96 C17.7 207.83, -0.08 188.45, 0 155.22 M0 155.22 C0.73 122.53, -0.19 85.29, 0 51.74 M0 155.22 C-0.26 123.59, 0.15 92.52, 0 51.74 M0 51.74 C1.6 18.87, 16.61 0.97, 51.74 0 M0 51.74 C-2.05 15.05, 16.98 -0.11, 51.74 0" stroke="#e98d5e" stroke-width="1" fill="none"></path></g><g transform="translate(421.03204345703125 264.72685794930885) rotate(0 86 16)"><text x="86" y="26" font-family="Helvetica, Segoe UI Emoji" font-size="28px" fill="black" text-anchor="middle" style="white-space: pre;" direction="ltr">VirtualService</text></g><g transform="translate(406.17926025390625 322.762777138762) rotate(0 99.5 48)"><text x="99.5" y="19" font-family="Cascadia, Segoe UI Emoji" font-size="20px" fill="black" text-anchor="middle" style="white-space: pre;" direction="ltr">water.example.com</text><text x="99.5" y="43" font-family="Cascadia, Segoe UI Emoji" font-size="20px" fill="black" text-anchor="middle" style="white-space: pre;" direction="ltr">/mar</text><text x="99.5" y="67" font-family="Cascadia, Segoe UI Emoji" font-size="20px" fill="black" text-anchor="middle" style="white-space: pre;" direction="ltr">/sea/user</text><text x="99.5" y="91" font-family="Cascadia, Segoe UI Emoji" font-size="20px" fill="black" text-anchor="middle" style="white-space: pre;" direction="ltr">/riverways</text></g><g stroke-linecap="round" transform="translate(206.58146158854163 516.7185953150315) rotate(0 76.57861328125 52.817169189453125)"><path d="M25.62 -1.18 L125.49 1.58 L139.39 3.54 L147.7 6.14 L149.52 13.04 L153.47 27.49 L154.26 86.16 L152.73 89.39 L147.05 97.81 L137.48 103.64 L125.94 105.3 L28.26 106.55 L14.04 102.9 L5.85 97.26 L3.05 88.98 L2.11 86.02 L0.52 19.58 L5.61 10.53 L7.51 5 L15.74 0.01 L25.18 -0.57" stroke="none" stroke-width="0" fill="#dbe4ec"></path><path d="M26.41 0 M26.41 0 C47.42 1.07, 68.2 0.2, 126.75 0 M26.41 0 C60.29 -0.08, 96.48 -0.69, 126.75 0 M126.75 0 C143.26 0.1, 154.99 7.12, 153.16 26.41 M126.75 0 C145.97 -1.32, 151.42 8.97, 153.16 26.41 M153.16 26.41 C151.22 39.18, 153.2 50.87, 153.16 79.23 M153.16 26.41 C153.52 39.09, 154.53 51.19, 153.16 79.23 M153.16 79.23 C154.27 97.21, 142.78 105.92, 126.75 105.63 M153.16 79.23 C152.32 94.73, 145.82 105.37, 126.75 105.63 M126.75 105.63 C98.69 107.47, 73.97 107.78, 26.41 105.63 M126.75 105.63 C103.27 105.72, 78.24 105.36, 26.41 105.63 M26.41 105.63 C7.8 107.4, -0.71 96.47, 0 79.23 M26.41 105.63 C9.04 103.73, -1.29 98.06, 0 79.23 M0 79.23 C-1.86 63.02, -0.71 44.05, 0 26.41 M0 79.23 C0.34 65.37, -0.23 51.44, 0 26.41 M0 26.41 C-1.71 8.07, 7.47 0.7, 26.41 0 M0 26.41 C-0.21 7.7, 7.96 -0.95, 26.41 0" stroke="#325476" stroke-width="1" fill="none"></path></g><g transform="translate(225.96891276041663 529.6628396997971) rotate(0 60.5 16)"><text x="60.5" y="26" font-family="Helvetica, Segoe UI Emoji" font-size="28px" fill="black" text-anchor="middle" style="white-space: pre;" direction="ltr">Upstream</text></g><g transform="translate(242.16007486979163 580.3353555689378) rotate(0 41 12)"><text x="41" y="19" font-family="Cascadia, Segoe UI Emoji" font-size="20px" fill="black" text-anchor="middle" style="white-space: pre;" direction="ltr">answers</text></g><g stroke-linecap="round" transform="translate(403.097920735677 516.7185953150315) rotate(0 76.57861328125 52.817169189453125)"><path d="M26.83 0.41 L125.44 1.72 L139.43 2.49 L144.65 5.35 L153.45 16.7 L151.88 27.61 L154.63 87.35 L151.43 89.26 L144.67 98.98 L136.49 105.36 L126.74 106.72 L27.6 105.62 L13.84 102.86 L8.34 100.79 L0.39 91.97 L0.23 86.93 L1.49 20.48 L4.27 9.7 L6.54 5.24 L15.08 0.5 L25.85 -0.75" stroke="none" stroke-width="0" fill="#dbe4ec"></path><path d="M26.41 0 M26.41 0 C57.29 1.4, 90.77 -0.3, 126.75 0 M26.41 0 C59.63 -1.62, 91.82 -1.19, 126.75 0 M126.75 0 C146.03 -1.87, 154.87 9.14, 153.16 26.41 M126.75 0 C146.18 1.75, 155.24 10.98, 153.16 26.41 M153.16 26.41 C152.19 43.05, 151.41 58.26, 153.16 79.23 M153.16 26.41 C153.84 36.69, 153.3 48.77, 153.16 79.23 M153.16 79.23 C151.75 96.39, 145.26 107, 126.75 105.63 M153.16 79.23 C151.13 98.09, 146.37 104.18, 126.75 105.63 M126.75 105.63 C104.45 104.6, 83.96 106.28, 26.41 105.63 M126.75 105.63 C103.53 104.99, 80.74 103.87, 26.41 105.63 M26.41 105.63 C10.31 106.72, -1.29 98.72, 0 79.23 M26.41 105.63 C6.99 107.21, 0.77 97.02, 0 79.23 M0 79.23 C-1.38 59.2, -0.15 38.08, 0 26.41 M0 79.23 C0.8 62.53, -0.43 47.45, 0 26.41 M0 26.41 C-0.97 8.46, 10.24 1.85, 26.41 0 M0 26.41 C0.23 9.14, 9.26 -1.1, 26.41 0" stroke="#325476" stroke-width="1" fill="none"></path></g><g transform="translate(422.64546712239576 529.6628396997971) rotate(0 60.5 16)"><text x="60.5" y="26" font-family="Helvetica, Segoe UI Emoji" font-size="28px" fill="black" text-anchor="middle" style="white-space: pre;" direction="ltr">Upstream</text></g><g transform="translate(438.676534016927 580.3353555689378) rotate(0 41 12)"><text x="41" y="19" font-family="Cascadia, Segoe UI Emoji" font-size="20px" fill="black" text-anchor="middle" style="white-space: pre;" direction="ltr">persons</text></g><g stroke-linecap="round" transform="translate(599.8093872070311 516.7185953150315) rotate(0 76.57861328125 52.817169189453125)"><path d="M27.99 1.06 L125.72 -0.47 L137.51 2.59 L146.5 5.44 L150 13.09 L152.28 27.66 L151.12 84.26 L151.87 91.28 L144.68 100.89 L139.18 102.46 L126.13 107.11 L27.62 104.88 L14.96 105.08 L5.86 98.04 L2.27 90.03 L0.67 85.54 L2 19.85 L2.49 11.44 L4.6 7.68 L15.61 0.34 L27.62 -0.39" stroke="none" stroke-width="0" fill="#dbe4ec"></path><path d="M26.41 0 M26.41 0 C62.23 -0.95, 102.25 -1.34, 126.75 0 M26.41 0 C65.21 0.63, 103.16 -0.16, 126.75 0 M126.75 0 C145.31 1.1, 153.05 10.28, 153.16 26.41 M126.75 0 C144.77 1.82, 151.16 10.36, 153.16 26.41 M153.16 26.41 C151.92 46.4, 151.83 67.29, 153.16 79.23 M153.16 26.41 C153.12 41.84, 152.85 57.48, 153.16 79.23 M153.16 79.23 C153.86 96.47, 145.36 105.83, 126.75 105.63 M153.16 79.23 C155.45 95.36, 144.5 105.22, 126.75 105.63 M126.75 105.63 C101.82 104.2, 78.24 107.61, 26.41 105.63 M126.75 105.63 C88.6 104.35, 51.49 104.52, 26.41 105.63 M26.41 105.63 C8.91 106.53, 0.89 98.52, 0 79.23 M26.41 105.63 C8.38 106.71, -2.17 96.54, 0 79.23 M0 79.23 C-1 60.64, -0.22 39.64, 0 26.41 M0 79.23 C-0.99 58.06, 0.68 37.34, 0 26.41 M0 26.41 C-0.98 8.69, 9.99 1.97, 26.41 0 M0 26.41 C-0.45 10.31, 9.08 2.14, 26.41 0" stroke="#325476" stroke-width="1" fill="none"></path></g><g transform="translate(617.8081054687499 529.6628396997971) rotate(0 60.5 16)"><text x="60.5" y="26" font-family="Helvetica, Segoe UI Emoji" font-size="28px" fill="black" text-anchor="middle" style="white-space: pre;" direction="ltr">Upstream</text></g><g transform="translate(652.8880004882811 580.3353555689378) rotate(0 23.5 12)"><text x="23.5" y="19" font-family="Cascadia, Segoe UI Emoji" font-size="20px" fill="black" text-anchor="middle" style="white-space: pre;" direction="ltr">maps</text></g><g stroke-linecap="round"><g transform="translate(358.8434763382278 192.5754983912034) rotate(0 -74.35579719259846 25.322525510583077)"><path d="M0.09 -0.33 C-17.52 3.56, -80.26 14.34, -105.07 22.91 C-129.89 31.48, -141.75 46.27, -148.8 51.1 M-1.32 -1.55 C-18.59 2.53, -78.53 15.13, -102.69 24.08 C-126.85 33.04, -138.94 47.34, -146.29 52.19" stroke="black" stroke-width="1" fill="none"></path></g><g transform="translate(358.8434763382278 192.5754983912034) rotate(0 -74.35579719259846 25.322525510583077)"><path d="M-144.34 51.85 L-140.51 37.74 L-129.9 47.94 L-145.65 51.47" stroke="none" stroke-width="0" fill="black" fill-rule="evenodd"></path><path d="M-146.7 51.41 C-144.79 46.58, -142.15 43.65, -139.22 39.45 M-145.86 51.5 C-145.01 48.23, -142.86 43.98, -139.31 39.44 M-140.9 38.72 C-135.5 42.43, -133.14 44.74, -131.19 47.81 M-139.56 38.42 C-136.95 41.82, -134.13 45.46, -131.29 48.62 M-133.1 47.95 C-135.2 50.32, -141.26 50.31, -147.35 52.48 M-131.63 47.87 C-136 49.79, -140.32 50.48, -146.52 52.45 M-146.29 52.19 C-146.29 52.19, -146.29 52.19, -146.29 52.19 M-146.29 52.19 C-146.29 52.19, -146.29 52.19, -146.29 52.19" stroke="black" stroke-width="1" fill="none"></path></g></g><g stroke-linecap="round"><g transform="translate(360.156202821031 192.00008945565654) rotate(0 71.72447056566 24.906228304365655)"><path d="M1.15 -0.81 C17.84 2.93, 76.6 13.5, 100.27 21.86 C123.94 30.23, 136.15 44.82, 143.16 49.39 M0.29 1.38 C16.78 4.83, 75.5 11.89, 99.16 20.1 C122.82 28.3, 135.14 45.6, 142.27 50.62" stroke="black" stroke-width="1" fill="none"></path></g><g transform="translate(360.156202821031 192.00008945565654) rotate(0 71.72447056566 24.906228304365655)"><path d="M140.99 52.33 L127.3 46.95 L134.91 35.37 L142.42 51.59" stroke="none" stroke-width="0" fill="black" fill-rule="evenodd"></path><path d="M141.26 50.25 C138.66 49.08, 133.13 46.59, 127.63 45.86 M142.94 50.77 C138.62 50.03, 135.33 48.33, 128.23 46.8 M126.73 45.84 C130.92 42.43, 132.5 40.51, 137.21 36.77 M127.57 46.66 C130.49 43.82, 132.23 40.88, 135.86 37.36 M136.22 37.27 C139.38 42.98, 141.04 47.27, 142.36 51.64 M136.27 36.7 C137.41 40.85, 139.26 43.58, 142.04 50.64 M142.27 50.62 C142.27 50.62, 142.27 50.62, 142.27 50.62 M142.27 50.62 C142.27 50.62, 142.27 50.62, 142.27 50.62" stroke="black" stroke-width="1" fill="none"></path></g></g><g stroke-linecap="round"><g transform="translate(220.36257934570312 453.43285923104713) rotate(0 -74.18254685965923 30.294804200539375)"><path d="M-0.85 -0.82 C-16.72 1.62, -71.68 4.24, -96.27 14.42 C-120.87 24.6, -139.63 52.7, -148.42 60.28 M0.9 1.36 C-15.06 4.01, -72.44 5.8, -97.47 15.81 C-122.49 25.82, -140.64 53.95, -149.26 61.41" stroke="black" stroke-width="1" fill="none"></path></g><g transform="translate(220.36257934570312 453.43285923104713) rotate(0 -74.18254685965923 30.294804200539375)"><path d="M-148.12 61.56 L-145.66 47.99 L-134.08 54.16 L-147.48 59.42" stroke="none" stroke-width="0" fill="black" fill-rule="evenodd"></path><path d="M-150.29 60.83 C-148.66 58.3, -147.81 54.56, -145.71 46.21 M-149.44 60.76 C-148.3 56.51, -146.73 51.33, -144.53 47.11 M-145.39 46.48 C-141.18 50.69, -139.25 53.99, -135.15 55.3 M-145.29 47.25 C-141.14 50.7, -137.31 53.83, -135.42 55.31 M-136.51 54.52 C-139.22 57.5, -140.19 57, -148.38 62.69 M-135.08 55.5 C-139.47 56.99, -143.95 59.77, -149.51 61.99 M-149.26 61.41 C-149.26 61.41, -149.26 61.41, -149.26 61.41 M-149.26 61.41 C-149.26 61.41, -149.26 61.41, -149.26 61.41" stroke="black" stroke-width="1" fill="none"></path></g></g><g stroke-linecap="round"><g transform="translate(221.16189575195312 453.11807041268776) rotate(0 31.864445855528032 34.12194528074005)"><path d="M-0.37 0.21 C5.05 4.92, 22.79 16.08, 33.54 27.54 C44.28 39, 59.16 62.38, 64.1 68.97 M1.64 -0.73 C6.89 3.7, 22.72 14.5, 33.1 25.8 C43.48 37.09, 58.86 60.09, 63.93 67.06" stroke="black" stroke-width="1" fill="none"></path></g><g transform="translate(221.16189575195312 453.11807041268776) rotate(0 31.864445855528032 34.12194528074005)"><path d="M62.97 67.96 L52.7 58.05 L61.31 52.51 L63.95 66.54" stroke="none" stroke-width="0" fill="black" fill-rule="evenodd"></path><path d="M64.19 68.28 C59.86 65.55, 54.97 61.5, 49.59 60.41 M64.06 66.64 C60.86 65.02, 58.95 63.27, 51.31 59.07 M51.24 58.95 C52.54 57.94, 56.34 57.01, 61.59 52.73 M50.92 59.46 C54.17 57.62, 57.36 54.58, 61.82 51.69 M61.57 52.8 C61.55 55.68, 62.99 58.08, 62.77 68.05 M60.63 52.3 C62.08 56.22, 62.16 62.15, 64.38 67.18 M63.93 67.06 C63.93 67.06, 63.93 67.06, 63.93 67.06 M63.93 67.06 C63.93 67.06, 63.93 67.06, 63.93 67.06" stroke="black" stroke-width="1" fill="none"></path></g></g><g stroke-linecap="round"><g transform="translate(226.12689208984375 454.27209262948463) rotate(0 125.57498244067003 31.264743355521944)"><path d="M1.03 0.48 C22.46 2.45, 87.38 1.67, 129.04 12.06 C170.71 22.46, 230.74 54.31, 251.03 62.84 M0.12 -0.31 C21.4 1.82, 86.67 3.32, 128.42 13.49 C170.18 23.65, 230.15 52.76, 250.63 60.7" stroke="black" stroke-width="1" fill="none"></path></g><g transform="translate(226.12689208984375 454.27209262948463) rotate(0 125.57498244067003 31.264743355521944)"><path d="M252.28 59.6 L235.57 61.59 L239.19 50.02 L250.91 61.39" stroke="none" stroke-width="0" fill="black" fill-rule="evenodd"></path><path d="M251.24 61.48 C245.25 61.87, 240.9 61.77, 236.65 61.46 M250.18 60.05 C245.06 60.48, 240.72 61.07, 235.02 61.65 M235.29 61.72 C236.84 58.15, 238.75 55.23, 240.09 50.25 M236.13 60.77 C237.42 58.11, 238.54 54.15, 240.21 49.24 M239.8 50.33 C241.79 50.79, 245.38 54.62, 250.85 60.68 M241.01 50.01 C243.37 53.7, 247.65 56.33, 250.03 61.21 M250.63 60.7 C250.63 60.7, 250.63 60.7, 250.63 60.7 M250.63 60.7 C250.63 60.7, 250.63 60.7, 250.63 60.7" stroke="black" stroke-width="1" fill="none"></path></g></g><g stroke-linecap="round"><g transform="translate(503.1242370605469 452.83816318612526) rotate(0 -11.845415674580806 34.07030633054674)"><path d="M-0.69 -0.55 C-3.53 4.04, -11.96 15.38, -15.94 26.92 C-19.92 38.46, -23.02 61.9, -24.59 68.69 M1.15 1.77 C-1.41 6.11, -9.32 14.5, -13.65 25.36 C-17.99 36.22, -22.95 59.69, -24.84 66.94" stroke="black" stroke-width="1" fill="none"></path></g><g transform="translate(503.1242370605469 452.83816318612526) rotate(0 -11.845415674580806 34.07030633054674)"><path d="M-23.31 67.61 L-26.36 53.35 L-13.5 57.06 L-24.01 65.51" stroke="none" stroke-width="0" fill="black" fill-rule="evenodd"></path><path d="M-25.53 65.92 C-24.6 62.37, -25.71 55.61, -27.69 52.67 M-25.53 66.46 C-26.44 63.75, -26.03 59.42, -28.48 52.09 M-26.6 52.84 C-24.8 51.73, -21.37 53.1, -14.25 55.07 M-27.43 52.72 C-23.92 52.85, -18.56 53.71, -14.97 54.9 M-14.12 54.64 C-18.55 56.65, -19.13 61.73, -24.93 68.24 M-14.79 55.23 C-18.58 59.66, -21.41 63.08, -24.62 67.5 M-24.84 66.94 C-24.84 66.94, -24.84 66.94, -24.84 66.94 M-24.84 66.94 C-24.84 66.94, -24.84 66.94, -24.84 66.94" stroke="black" stroke-width="1" fill="none"></path></g></g><g stroke-linecap="round"><g transform="translate(503.0749206542969 454.37502842050026) rotate(0 92.15156588218758 31.524066453799605)"><path d="M0.06 -1.13 C19.11 1.08, 84.27 3.53, 114.8 14.41 C145.33 25.29, 171.5 55.82, 183.21 64.18 M-1.37 0.89 C17.57 3.73, 83.19 5.26, 114.37 15.45 C145.54 25.64, 174.36 54.21, 185.67 62.05" stroke="black" stroke-width="1" fill="none"></path></g><g transform="translate(503.0749206542969 454.37502842050026) rotate(0 92.15156588218758 31.524066453799605)"><path d="M184.12 60.98 L171.86 56.73 L179.46 50.4 L186.22 61.83" stroke="none" stroke-width="0" fill="black" fill-rule="evenodd"></path><path d="M184.26 63.27 C179.51 59.82, 176.26 60.98, 172.09 58.89 M185.07 62.56 C181.23 61.23, 177.88 59.56, 170.68 58.16 M170.42 59.7 C171.68 56.17, 173.76 53.52, 179.68 47.75 M170.97 58.55 C173.42 54.83, 176.65 51.53, 178.83 48.67 M178.56 48.96 C182.88 54.46, 185.28 59.12, 185.59 62.45 M178.39 48.11 C181 52.42, 182.3 56.31, 186.33 61.32 M185.67 62.05 C185.67 62.05, 185.67 62.05, 185.67 62.05 M185.67 62.05 C185.67 62.05, 185.67 62.05, 185.67 62.05" stroke="black" stroke-width="1" fill="none"></path></g></g><g transform="translate(319.29681396484375 158.57760410409404) rotate(0 39 11.5)"><text x="39" y="18" font-family="Helvetica, Segoe UI Emoji" font-size="20px" fill="black" text-anchor="middle" style="white-space: pre;" direction="ltr">(listener)</text></g></svg>