<svg version="1.1" xmlns="http://www.w3.org/2000/svg" viewBox="0 0 714.7122192382812 333.86818590214466" width="1429.4244384765625" height="667.7363718042893">
  <!-- svg-source:excalidraw -->
  
  <defs>
    <style>
      @font-face {
        font-family: "Virgil";
        src: url("https://plus.excalidraw.com/Virgil.woff2");
      }
      @font-face {
        font-family: "Cascadia";
        src: url("https://plus.excalidraw.com/Cascadia.woff2");
      }
    </style>
  </defs>
  <rect x="0" y="0" width="714.7122192382812" height="333.86818590214466" fill="#ffffff"></rect><g stroke-linecap="round" transform="translate(74.98025512695312 276.87296295166016) rotate(0 57.564208984375 19.47479248046875)"><path d="M11.43 -0.2 L109.62 1.9 L113.93 6.25 L112.86 34.5 L114.13 37.14 L106.38 40.5 L5.76 37.29 L-0.53 34.24 L-0.17 11.22 L1.66 4.19 L11.01 -1.87" stroke="none" stroke-width="0" fill="#dbe4ec"></path><path d="M9.74 0 M9.74 0 C38.03 -2.24, 63.53 0.83, 105.39 0 M9.74 0 C29.03 -0.62, 48.83 -0.04, 105.39 0 M105.39 0 C113.01 1.2, 116.68 4.74, 115.13 9.74 M105.39 0 C113.22 -1.96, 116.42 1.24, 115.13 9.74 M115.13 9.74 C113.81 14.05, 116.88 18.23, 115.13 29.21 M115.13 9.74 C115.72 13.89, 116.02 18.89, 115.13 29.21 M115.13 29.21 C115.71 34.12, 113.82 40.37, 105.39 38.95 M115.13 29.21 C116.83 38, 109.71 40.2, 105.39 38.95 M105.39 38.95 C82.8 37.87, 56.18 37.34, 9.74 38.95 M105.39 38.95 C70.42 37.54, 34.48 38.81, 9.74 38.95 M9.74 38.95 C1.25 39.24, 0.94 34.46, 0 29.21 M9.74 38.95 C1.21 38.98, 1.5 37.49, 0 29.21 M0 29.21 C-0.92 22.97, -1.01 17.65, 0 9.74 M0 29.21 C0.18 22.82, -0.16 17.56, 0 9.74 M0 9.74 C0.5 5.22, 2.39 0.95, 9.74 0 M0 9.74 C-1.85 1.22, 2.14 -0.08, 9.74 0" stroke="#dbe4ec" stroke-width="1" fill="none"></path></g><g transform="translate(440.84014892578125 16.81351523374211) rotate(0 79 11.5)"><text x="79" y="18" font-family="Helvetica, Segoe UI Emoji" font-size="20px" fill="black" text-anchor="middle" style="white-space: pre;" direction="ltr">Sample route rule</text></g><g stroke-linecap="round" transform="translate(10 221.03420152714466) rotate(0 133.59921264648438 51.4169921875)"><path d="M25.71 0 M25.71 0 C101.17 1.71, 175.47 2.73, 241.49 0 M25.71 0 C107.19 -1.63, 187.74 -0.82, 241.49 0 M241.49 0 C257.99 -1.37, 267.82 9.35, 267.2 25.71 M241.49 0 C256.46 -1.82, 266.46 8.68, 267.2 25.71 M267.2 25.71 C267.14 42.69, 267.85 60.06, 267.2 77.13 M267.2 25.71 C266.77 40.05, 267.52 53.16, 267.2 77.13 M267.2 77.13 C265.74 94.97, 259.53 101.94, 241.49 102.83 M267.2 77.13 C265.69 95.45, 260.73 101.79, 241.49 102.83 M241.49 102.83 C182.25 104.63, 124.74 103.51, 25.71 102.83 M241.49 102.83 C163.97 101.83, 84.76 102.53, 25.71 102.83 M25.71 102.83 C6.57 103.43, 0.42 94.92, 0 77.13 M25.71 102.83 C7.43 103.85, 0.34 92.85, 0 77.13 M0 77.13 C1.15 66.14, 1.1 52.23, 0 25.71 M0 77.13 C-1.31 56.89, -0.56 37.19, 0 25.71 M0 25.71 C0.8 9.48, 10.25 1.32, 25.71 0 M0 25.71 C-1.07 6.37, 8.95 0.43, 25.71 0" stroke="#325476" stroke-width="1" fill="none"></path></g><g transform="translate(74.5257568359375 231.44475450566028) rotate(0 60.5 16)"><text x="60.5" y="26" font-family="Helvetica, Segoe UI Emoji" font-size="28px" fill="black" text-anchor="middle" style="white-space: pre;" direction="ltr">Upstream</text></g><g stroke-linecap="round" transform="translate(357.90777587890625 44.101546192672004) rotate(0 173.4022216796875 127.59207153320312)"><path d="M63.8 0 M63.8 0 C123.76 0.85, 182.99 2.44, 283.01 0 M63.8 0 C130.79 0.82, 197.41 0.33, 283.01 0 M283.01 0 C324.8 1.99, 346.4 21.15, 346.8 63.8 M283.01 0 C324.82 -0.8, 348.5 19.97, 346.8 63.8 M346.8 63.8 C345.72 108.44, 346.65 150.65, 346.8 191.39 M346.8 63.8 C347.38 89.24, 346.81 115.99, 346.8 191.39 M346.8 191.39 C346.8 235.35, 323.89 253.53, 283.01 255.18 M346.8 191.39 C346.58 232.85, 325.16 256.18, 283.01 255.18 M283.01 255.18 C220.47 258.25, 158.56 257.96, 63.8 255.18 M283.01 255.18 C216.93 257.69, 152.02 256.7, 63.8 255.18 M63.8 255.18 C19.89 255.81, 0.78 232.03, 0 191.39 M63.8 255.18 C19.44 254.45, 0.11 234.36, 0 191.39 M0 191.39 C-0.34 145.33, 0.62 98.03, 0 63.8 M0 191.39 C-0.24 158.62, -1.04 124.08, 0 63.8 M0 63.8 C0.71 22.17, 20.37 -1.31, 63.8 0 M0 63.8 C1.18 23.36, 20.23 -0.76, 63.8 0" stroke="#e98d5e" stroke-width="1" fill="none"></path></g><g transform="translate(439.20953369140625 56.496138477828254) rotate(0 86 16)"><text x="86" y="26" font-family="Helvetica, Segoe UI Emoji" font-size="28px" fill="black" text-anchor="middle" style="white-space: pre;" direction="ltr">VirtualService</text></g><g transform="translate(383.52838134765625 108.35719194462513) rotate(0 117 84)"><text x="0" y="19" font-family="Cascadia, Segoe UI Emoji" font-size="20px" fill="black" text-anchor="start" style="white-space: pre;" direction="ltr">Transform</text><text x="0" y="43" font-family="Cascadia, Segoe UI Emoji" font-size="20px" fill="black" text-anchor="start" style="white-space: pre;" direction="ltr">Fault</text><text x="0" y="67" font-family="Cascadia, Segoe UI Emoji" font-size="20px" fill="black" text-anchor="start" style="white-space: pre;" direction="ltr">Append/Remove header</text><text x="0" y="91" font-family="Cascadia, Segoe UI Emoji" font-size="20px" fill="black" text-anchor="start" style="white-space: pre;" direction="ltr">Prefix rewrite</text><text x="0" y="115" font-family="Cascadia, Segoe UI Emoji" font-size="20px" fill="black" text-anchor="start" style="white-space: pre;" direction="ltr">Timeout</text><text x="0" y="139" font-family="Cascadia, Segoe UI Emoji" font-size="20px" fill="black" text-anchor="start" style="white-space: pre;" direction="ltr">Retry</text><text x="0" y="163" font-family="Cascadia, Segoe UI Emoji" font-size="20px" fill="black" text-anchor="start" style="white-space: pre;" direction="ltr">Shadow</text></g><g transform="translate(92.21005249023438 283.0105972290039) rotate(0 41 12)"><text x="41" y="19" font-family="Cascadia, Segoe UI Emoji" font-size="20px" fill="black" text-anchor="middle" style="white-space: pre;" direction="ltr">answers</text></g><g stroke-linecap="round" transform="translate(11.390380859375 10) rotate(0 131.77633666992185 78.85147857666016)"><path d="M39.43 0 M39.43 0 C93.1 0.87, 147.66 -0.61, 224.13 0 M39.43 0 C112.39 -1.91, 185.17 -1.91, 224.13 0 M224.13 0 C252.21 1.49, 264.52 12.65, 263.55 39.43 M224.13 0 C249.16 -0.84, 262.5 12.32, 263.55 39.43 M263.55 39.43 C263.71 62.9, 264.56 83.47, 263.55 118.28 M263.55 39.43 C264.51 56.17, 264.91 72.77, 263.55 118.28 M263.55 118.28 C264.56 145.78, 251.11 157.86, 224.13 157.7 M263.55 118.28 C265.09 142.88, 252.17 155.61, 224.13 157.7 M224.13 157.7 C158.5 158.79, 89.34 155.18, 39.43 157.7 M224.13 157.7 C178.84 158.16, 134.91 157.86, 39.43 157.7 M39.43 157.7 C14.76 158.88, -1.22 143.9, 0 118.28 M39.43 157.7 C14.12 156.54, -0.21 142.33, 0 118.28 M0 118.28 C-1.76 86.78, 0.82 60.36, 0 39.43 M0 118.28 C-0.09 88.59, -0.35 57.53, 0 39.43 M0 39.43 C-1.66 13.08, 13.25 -1.84, 39.43 0 M0 39.43 C-1.58 12.22, 12.47 -0.1, 39.43 0" stroke="#0eb1e4" stroke-width="1" fill="none"></path></g><g transform="translate(91.27865600585938 14.475837707519531) rotate(0 50.5 16)"><text x="50.5" y="26" font-family="Helvetica, Segoe UI Emoji" font-size="28px" fill="black" text-anchor="middle" style="white-space: pre;" direction="ltr">Matcher</text></g><g transform="translate(21.867340087890625 54.224830627441406) rotate(0 64.5 48)"><text x="0" y="19" font-family="Cascadia, Segoe UI Emoji" font-size="20px" fill="black" text-anchor="start" style="white-space: pre;" direction="ltr">Path</text><text x="0" y="43" font-family="Cascadia, Segoe UI Emoji" font-size="20px" fill="black" text-anchor="start" style="white-space: pre;" direction="ltr">Header </text><text x="0" y="67" font-family="Cascadia, Segoe UI Emoji" font-size="20px" fill="black" text-anchor="start" style="white-space: pre;" direction="ltr">Query param</text><text x="0" y="91" font-family="Cascadia, Segoe UI Emoji" font-size="20px" fill="black" text-anchor="start" style="white-space: pre;" direction="ltr">Method</text></g><g transform="translate(101.41452026367188 77.78372955322266) rotate(0 82 12)"><text x="0" y="19" font-family="Cascadia, Segoe UI Emoji" font-size="20px" fill="#0eb1e4" text-anchor="start" style="white-space: pre;" direction="ltr">contains '005'</text></g><g transform="translate(451.8701477050781 132.46134185791016) rotate(0 94 12)"><text x="0" y="19" font-family="Cascadia, Segoe UI Emoji" font-size="20px" fill="#e98d5e" text-anchor="start" style="white-space: pre;" direction="ltr">10% --&gt; HTTP:500</text></g><g stroke-linecap="round"><g transform="translate(271.0476989746094 90.15457916259766) rotate(0 -20.44354762321413 99.4681550797075)"><path d="M0.48 -0.28 C6.63 3.62, 31.92 3.46, 37.39 22.76 C42.87 42.07, 41.22 90.71, 33.33 115.55 C25.45 140.4, 9.21 157.91, -9.93 171.85 C-29.06 185.8, -69.45 194.3, -81.49 199.22" stroke="#0eb1e4" stroke-width="1.5" fill="none" stroke-dasharray="8 9"></path></g><g transform="translate(271.0476989746094 90.15457916259766) rotate(0 -20.44354762321413 99.4681550797075)"><path d="M-80.64 198.46 L-69.06 188.15 L-67.55 200.16 L-79.51 199.71" stroke="none" stroke-width="0" fill="#0eb1e4" fill-rule="evenodd"></path><path d="M-81.84 200.34 C-77.36 196.74, -72.71 192.91, -71.77 190.43 M-70.47 188.78 C-68.79 191.41, -68.22 192.96, -67.2 202.38 M-65.61 201.42 C-70.27 199.37, -74.18 200.09, -80.57 199.46 M-81.49 199.22 C-81.49 199.22, -81.49 199.22, -81.49 199.22" stroke="#0eb1e4" stroke-width="1.5" fill="none"></path></g></g><g stroke-linecap="round"><g transform="translate(193.69265747070312 298.19959259033203) rotate(0 93.34239568077027 -69.2183335778326)"><path d="M-0.92 -0.07 C15.43 2.11, 74.73 19.74, 97.47 12.43 C120.21 5.12, 126.98 -18.39, 135.51 -43.93 C144.05 -69.47, 140 -122.76, 148.68 -140.82 C157.36 -158.87, 181.03 -150.28, 187.61 -152.28" stroke="#e98d5e" stroke-width="1.5" fill="none" stroke-dasharray="8 9"></path></g><g transform="translate(193.69265747070312 298.19959259033203) rotate(0 93.34239568077027 -69.2183335778326)"><path d="M186.82 -152.88 L174.38 -144.08 L172.74 -159.46 L186.89 -150.55" stroke="none" stroke-width="0" fill="#e98d5e" fill-rule="evenodd"></path><path d="M187.52 -152.06 C182.75 -152.25, 180.42 -148.64, 172.6 -145.68 M174.29 -147.28 C174.33 -149.28, 172.94 -153.6, 175.16 -157.51 M174.99 -159.75 C180.48 -157.69, 184.4 -153.19, 186.6 -153.44 M187.61 -152.28 C187.61 -152.28, 187.61 -152.28, 187.61 -152.28" stroke="#e98d5e" stroke-width="1.5" fill="none"></path></g></g><g stroke-linecap="round" transform="translate(18.764373779296875 77.53699493408203) rotate(0 124.05026245117188 12.419967651367188)"><path d="M6.21 0 M6.21 0 C59.69 0.71, 116.13 0.48, 241.89 0 M241.89 0 C245.46 -0.54, 248.49 1.47, 248.1 6.21 M248.1 6.21 C248.12 10.32, 248.39 12.42, 248.1 18.63 M248.1 18.63 C248.54 22.81, 245.5 26.14, 241.89 24.84 M241.89 24.84 C179.54 23.87, 118 24.07, 6.21 24.84 M6.21 24.84 C0.7 26.23, 0.17 23.83, 0 18.63 M0 18.63 C-0.17 13.64, 0.09 9.91, 0 6.21 M0 6.21 C1.91 2.51, 2.52 -1.95, 6.21 0" stroke="#0eb1e4" stroke-width="1.5" fill="none" stroke-dasharray="8 9"></path></g><g stroke-linecap="round" transform="translate(382.46148681640625 133.01815032958984) rotate(0 130.98300170898438 11.461822509765625)"><path d="M5.73 0 M5.73 0 C85.46 0.2, 161.95 1.01, 256.24 0 M256.24 0 C261.38 1.02, 260.74 3.61, 261.97 5.73 M261.97 5.73 C261.79 8.46, 262.59 12.89, 261.97 17.19 M261.97 17.19 C263.36 20.59, 258.38 21.79, 256.24 22.92 M256.24 22.92 C201.64 23.37, 145.52 22.75, 5.73 22.92 M5.73 22.92 C0.17 24.4, 0.43 19.14, 0 17.19 M0 17.19 C-0.77 13.98, -1.11 10.15, 0 5.73 M0 5.73 C1.43 0.11, 3.79 -1.76, 5.73 0" stroke="#e98d5e" stroke-width="1.5" fill="none" stroke-dasharray="8 9"></path></g><g transform="translate(59.616058349609375 193.36136627197266) rotate(0 78 11.5)"><text x="78" y="18" font-family="Helvetica, Segoe UI Emoji" font-size="20px" fill="black" text-anchor="middle" style="white-space: pre;" direction="ltr">Route destination</text></g></svg>