<svg version="1.1" xmlns="http://www.w3.org/2000/svg" viewBox="0 0 1618.36083984375 724.8425435071251" width="3236.7216796875" height="1449.6850870142503">
  <!-- svg-source:excalidraw -->
  
  <defs>
    <style>
      @font-face {
        font-family: "Virgil";
        src: url("https://plus.excalidraw.com/Virgil.woff2");
      }
      @font-face {
        font-family: "Cascadia";
        src: url("https://plus.excalidraw.com/Cascadia.woff2");
      }
    </style>
  </defs>
  <rect x="0" y="0" width="1618.36083984375" height="724.8425435071251" fill="#ffffff"></rect><g stroke-linecap="round"><g transform="translate(886.9498213371394 345.63664140751587) rotate(0 154.0157880495358 9.244233231917008)"><path d="M-0.99 0.95 C7.29 -22.77, 27.65 -108.64, 48.53 -143.38 C69.4 -178.11, 97.78 -194.38, 124.28 -207.44 C150.78 -220.49, 181.09 -224.22, 207.54 -221.73 C233.99 -219.23, 267.45 -212.51, 282.99 -192.46 C298.53 -172.4, 300.8 -127.19, 300.76 -101.39 C300.72 -75.59, 282.33 -59.44, 282.76 -37.63 C283.19 -15.83, 302.36 7.28, 303.35 29.45 C304.34 51.61, 287.78 74.02, 288.69 95.35 C289.61 116.67, 307.23 133.15, 308.87 157.42 C310.5 181.68, 300.22 227.06, 298.5 240.94" stroke="black" stroke-width="1.5" fill="none" stroke-dasharray="8 9"></path></g><g transform="translate(886.9498213371394 345.63664140751587) rotate(0 154.0157880495358 9.244233231917008)"><path d="M297.57 242.38 L292.52 226.65 L306.34 228.64 L298.92 242.16" stroke="none" stroke-width="0" fill="black" fill-rule="evenodd"></path><path d="M299.69 240.61 C299.26 236.52, 297.38 234.81, 294.82 226.06 M294.53 226.16 C295.83 226.8, 298.54 227.02, 306.57 228.96 M306.82 229.35 C304.76 232.3, 302.35 235.24, 298.28 241.27 M298.5 240.94 C298.5 240.94, 298.5 240.94, 298.5 240.94" stroke="black" stroke-width="1.5" fill="none"></path></g></g><g stroke-linecap="round"><g transform="translate(704.4459800123934 204.66133775761352) rotate(0 33.60281482200264 221.52254604083006)"><path d="M1.09 -0.76 C-10.47 2.3, -51.51 4.06, -68.36 17.54 C-85.21 31.02, -99.96 58.09, -100.01 80.13 C-100.06 102.17, -68.77 127.1, -68.65 149.8 C-68.53 172.5, -100.37 194.12, -99.3 216.33 C-98.24 238.55, -62.3 261.54, -62.26 283.09 C-62.21 304.65, -95.49 324.04, -99.05 345.65 C-102.6 367.26, -106.67 396.87, -83.58 412.76 C-60.49 428.65, 5.37 451.96, 39.5 441.01 C73.64 430.05, 99.64 386.77, 121.23 347.02 C142.81 307.28, 161.1 226.54, 169 202.55" stroke="black" stroke-width="1.5" fill="none" stroke-dasharray="8 9"></path></g><g transform="translate(704.4459800123934 204.66133775761352) rotate(0 33.60281482200264 221.52254604083006)"><path d="M170.03 202.22 L169.65 216.13 L160.96 213.27 L169.41 200.77" stroke="none" stroke-width="0" fill="black" fill-rule="evenodd"></path><path d="M168.05 201.24 C170.01 207.2, 170.9 214.63, 172.32 216.6 M170.32 217.89 C169.33 216.56, 163.9 216.26, 158.03 213.64 M160.65 213.42 C163.76 208.59, 165.74 206.79, 168.72 201.43 M169 202.55 C169 202.55, 169 202.55, 169 202.55" stroke="black" stroke-width="1.5" fill="none"></path></g></g><g stroke-linecap="round" transform="translate(411.6072082519532 105.36524858525016) rotate(0 483.7813720703125 304.7386474609375)"><path d="M152.37 0 M152.37 0 C295.21 -1.22, 437.5 -1.55, 815.19 0 M152.37 0 C411.64 0.71, 671.02 0.77, 815.19 0 M815.19 0 C916.17 1.48, 969 51.94, 967.56 152.37 M815.19 0 C916.9 -2.18, 968.45 50.75, 967.56 152.37 M967.56 152.37 C967.48 264.67, 968.78 378.88, 967.56 457.11 M967.56 152.37 C968.31 259.03, 968.25 366.23, 967.56 457.11 M967.56 457.11 C966.85 557.56, 918.49 610.93, 815.19 609.48 M967.56 457.11 C968.34 559.31, 914.64 610.83, 815.19 609.48 M815.19 609.48 C578.55 610.4, 340.86 611.05, 152.37 609.48 M815.19 609.48 C624.6 608.59, 433.31 608.4, 152.37 609.48 M152.37 609.48 C50.3 610.67, -0.89 557.68, 0 457.11 M152.37 609.48 C50.71 608.41, -0.71 556.47, 0 457.11 M0 457.11 C-2.66 391.92, -0.92 323.49, 0 152.37 M0 457.11 C-1.6 339.28, -1.03 220.51, 0 152.37 M0 152.37 C0.05 52.08, 49.74 1.03, 152.37 0 M0 152.37 C1.71 52.46, 52.3 -1.17, 152.37 0" stroke="black" stroke-width="1" fill="none"></path></g><g stroke-linecap="round"><g transform="translate(122.82092948581857 158.11164331873206) rotate(0 27.97012163914522 -24.270054081905233)" fill-rule="evenodd"><path d="M-0.07 1.07 L3.5 -25.87 L4.72 -31.72 L13.57 -42.9 L26.95 -47.74 L31.44 -46.2 L43.4 -40.1 L54.36 -20.2 L57.67 -10.37 L55.6 -4.48 L41.97 1.49 L-1.7 -1.53" stroke="none" stroke-width="0" fill="#dbe4ec" fill-rule="evenodd"></path><path d="M0.84 -0.79 C1.89 -6.39, 1.02 -25.26, 5.23 -33.1 C9.43 -40.95, 19.23 -47.41, 26.08 -47.88 C32.93 -48.35, 41.59 -43.17, 46.33 -35.94 C51.07 -28.71, 62.12 -10.3, 54.53 -4.49 C46.93 1.33, 9.91 -1.99, 0.75 -1.07 M-0.17 1.41 C1.34 -4.11, 3.24 -23.55, 7.48 -32.11 C11.73 -40.67, 18.78 -49.46, 25.31 -49.95 C31.85 -50.44, 42.06 -42.58, 46.7 -35.03 C51.34 -27.49, 61.12 -10.71, 53.15 -4.7 C45.18 1.3, 7.76 0.16, -1.11 0.99" stroke="#000000" stroke-width="1" fill="none"></path></g></g><g stroke-linecap="round" transform="translate(136.73397296407927 84.47799068134944) rotate(0 13.913043478260875 12.173913043478308)"><path d="M17.16 0.27 C19.98 0.63, 23.25 1.85, 25 4 C26.75 6.15, 27.86 10.27, 27.67 13.16 C27.47 16.05, 25.71 19.35, 23.84 21.33 C21.98 23.31, 19.35 24.7, 16.49 25.04 C13.63 25.37, 9.2 24.93, 6.68 23.31 C4.16 21.7, 2.14 17.92, 1.37 15.34 C0.6 12.77, 1.09 10.33, 2.07 7.88 C3.04 5.42, 4.56 1.85, 7.2 0.63 C9.84 -0.59, 16.11 0.61, 17.93 0.56 C19.74 0.52, 18.2 0.07, 18.09 0.36 M15.1 0.41 C17.97 0.43, 19.22 2.2, 21.4 4 C23.58 5.8, 27.29 9.02, 28.18 11.19 C29.08 13.36, 28.35 14.86, 26.76 17.01 C25.16 19.16, 21.34 22.85, 18.61 24.1 C15.87 25.34, 12.96 25.45, 10.33 24.48 C7.7 23.51, 4.64 20.41, 2.84 18.29 C1.03 16.16, -0.75 14.2, -0.5 11.73 C-0.24 9.26, 1.95 5.62, 4.35 3.46 C6.76 1.3, 12.14 -0.49, 13.91 -1.23 C15.68 -1.97, 15.14 -1.62, 14.97 -0.98" stroke="none" stroke-width="0" fill="#dbe4ec"></path><path d="M8.29 0.8 C10.82 -0.61, 14.78 -1.12, 17.73 -0.53 C20.67 0.06, 24.36 1.9, 25.97 4.35 C27.58 6.8, 27.77 11.34, 27.38 14.18 C27 17.01, 25.72 19.79, 23.67 21.36 C21.62 22.92, 18.17 23.42, 15.09 23.57 C12.01 23.73, 7.77 23.66, 5.2 22.29 C2.62 20.92, 0.21 17.84, -0.37 15.34 C-0.94 12.84, 0.23 9.6, 1.76 7.31 C3.3 5.02, 7.4 2.61, 8.83 1.6 C10.26 0.58, 10.3 1.27, 10.34 1.22 M15.5 -1.25 C18.63 -1.33, 24.14 1.05, 26 3.1 C27.86 5.16, 26.77 8.01, 26.68 11.08 C26.59 14.14, 27.06 19.55, 25.46 21.51 C23.86 23.46, 20.05 22.61, 17.07 22.8 C14.08 22.99, 10.36 23.88, 7.56 22.64 C4.76 21.4, 1.35 18.03, 0.27 15.35 C-0.82 12.68, -0.19 8.74, 1.06 6.59 C2.3 4.43, 5.02 3.6, 7.72 2.41 C10.42 1.22, 15.92 -0.16, 17.25 -0.56 C18.58 -0.96, 15.72 -0.21, 15.71 0.01" stroke="#000000" stroke-width="1" fill="none"></path></g><g stroke-linecap="round" transform="translate(1455.20361328125 364.6911152844689) rotate(0 76.57861328125 52.817169189453125)"><path d="M27.6 -1.4 L128.42 -1.59 L136.83 1.65 L146.23 8.08 L152.17 13.56 L153.54 27.04 L151.45 84.03 L151.74 92.48 L146.49 101.01 L137.15 105.85 L128.52 105.04 L27.36 105.27 L16.65 103.82 L5.09 99.91 L1.4 91.32 L0.91 86.21 L-0.05 21.37 L2.94 12.26 L5.8 8.25 L14.89 1.86 L27.36 0.34" stroke="none" stroke-width="0" fill="#dbe4ec"></path><path d="M26.41 0 M26.41 0 C53.77 -1.35, 79.75 -0.24, 126.75 0 M26.41 0 C63.52 1.54, 99.59 1.28, 126.75 0 M126.75 0 C142.84 1.37, 153.85 7.45, 153.16 26.41 M126.75 0 C145.82 -0.24, 152.91 9.53, 153.16 26.41 M153.16 26.41 C153.64 36.78, 152.29 52.1, 153.16 79.23 M153.16 26.41 C152.56 45.75, 152.04 64.32, 153.16 79.23 M153.16 79.23 C154.64 98.51, 143.27 106.64, 126.75 105.63 M153.16 79.23 C154.39 96.27, 144.45 106.71, 126.75 105.63 M126.75 105.63 C90.75 105.83, 51.94 103.64, 26.41 105.63 M126.75 105.63 C87.61 104.94, 46.97 105.31, 26.41 105.63 M26.41 105.63 C10.52 103.71, 1.21 98.62, 0 79.23 M26.41 105.63 C9.65 104.73, -0.98 95.47, 0 79.23 M0 79.23 C1.22 58.37, -1.19 41.02, 0 26.41 M0 79.23 C-0.62 59.56, -0.74 42.07, 0 26.41 M0 26.41 C-1.29 8.44, 8.48 0.23, 26.41 0 M0 26.41 C-1.18 7.9, 6.93 0.73, 26.41 0" stroke="black" stroke-width="1" fill="none"></path></g><g transform="translate(1471.2822265625 401.508284473922) rotate(0 60.5 16)"><text x="60.5" y="26" font-family="Helvetica, Segoe UI Emoji" font-size="28px" fill="black" text-anchor="middle" style="white-space: pre;" direction="ltr">Upstream</text></g><g transform="translate(113.09881591796864 40.97328844120719) rotate(0 36 16)"><text x="36" y="26" font-family="Helvetica, Segoe UI Emoji" font-size="28px" fill="black" text-anchor="middle" style="white-space: pre;" direction="ltr">Client</text></g><g stroke-linecap="round" transform="translate(639.5855390138959 50.46811449970836) rotate(306.4434673675469 12.592942533039206 3.8127930291668344)"><path d="M20.69 0.89 C22.75 1.42, 24.53 2.35, 24.99 3.15 C25.46 3.96, 24.85 5.01, 23.5 5.72 C22.15 6.43, 19.44 7.12, 16.9 7.4 C14.36 7.68, 10.82 7.68, 8.29 7.4 C5.75 7.12, 3.04 6.43, 1.69 5.72 C0.34 5.01, -0.28 3.96, 0.19 3.15 C0.66 2.35, 2.43 1.42, 4.5 0.89 C6.57 0.37, 9.89 0, 12.59 0 C15.29 0, 18.62 0.37, 20.69 0.89" stroke="none" stroke-width="0" fill="#0eb1e4"></path><path d="M20.69 0.89 C22.75 1.42, 24.53 2.35, 24.99 3.15 C25.46 3.96, 24.85 5.01, 23.5 5.72 C22.15 6.43, 19.44 7.12, 16.9 7.4 C14.36 7.68, 10.82 7.68, 8.29 7.4 C5.75 7.12, 3.04 6.43, 1.69 5.72 C0.34 5.01, -0.28 3.96, 0.19 3.15 C0.66 2.35, 2.43 1.42, 4.5 0.89 C6.57 0.37, 9.89 0, 12.59 0 C15.29 0, 18.62 0.37, 20.69 0.89" stroke="#0eb1e4" stroke-width="1" fill="none"></path></g><g stroke-linecap="round" transform="translate(694.7178423396788 50.31384265891481) rotate(44.97704373639855 12.592942533039206 3.8127930291668344)"><path d="M20.69 0.89 C22.75 1.42, 24.53 2.35, 24.99 3.15 C25.46 3.96, 24.85 5.01, 23.5 5.72 C22.15 6.43, 19.44 7.12, 16.9 7.4 C14.36 7.68, 10.82 7.68, 8.29 7.4 C5.75 7.12, 3.04 6.43, 1.69 5.72 C0.34 5.01, -0.28 3.96, 0.19 3.15 C0.66 2.35, 2.43 1.42, 4.5 0.89 C6.57 0.37, 9.89 0, 12.59 0 C15.29 0, 18.62 0.37, 20.69 0.89" stroke="none" stroke-width="0" fill="#0eb1e4"></path><path d="M20.69 0.89 C22.75 1.42, 24.53 2.35, 24.99 3.15 C25.46 3.96, 24.85 5.01, 23.5 5.72 C22.15 6.43, 19.44 7.12, 16.9 7.4 C14.36 7.68, 10.82 7.68, 8.29 7.4 C5.75 7.12, 3.04 6.43, 1.69 5.72 C0.34 5.01, -0.28 3.96, 0.19 3.15 C0.66 2.35, 2.43 1.42, 4.5 0.89 C6.57 0.37, 9.89 0, 12.59 0 C15.29 0, 18.62 0.37, 20.69 0.89" stroke="#0eb1e4" stroke-width="1" fill="none"></path></g><g stroke-linecap="round" transform="translate(683.2315280878825 48.57883547228971) rotate(14.251129668680113 8.687172837790683 15.05726457219999)"><path d="M14.27 3.52 C15.7 5.6, 16.92 9.27, 17.24 12.44 C17.57 15.62, 17.14 19.79, 16.21 22.59 C15.28 25.38, 13.41 28.1, 11.66 29.21 C9.91 30.31, 7.47 30.31, 5.72 29.21 C3.97 28.1, 2.09 25.38, 1.16 22.59 C0.23 19.79, -0.19 15.62, 0.13 12.44 C0.46 9.27, 1.68 5.6, 3.1 3.52 C4.53 1.45, 6.83 0, 8.69 0 C10.55 0, 12.85 1.45, 14.27 3.52" stroke="none" stroke-width="0" fill="#0eb1e4"></path><path d="M14.27 3.52 C15.7 5.6, 16.92 9.27, 17.24 12.44 C17.57 15.62, 17.14 19.79, 16.21 22.59 C15.28 25.38, 13.41 28.1, 11.66 29.21 C9.91 30.31, 7.47 30.31, 5.72 29.21 C3.97 28.1, 2.09 25.38, 1.16 22.59 C0.23 19.79, -0.19 15.62, 0.13 12.44 C0.46 9.27, 1.68 5.6, 3.1 3.52 C4.53 1.45, 6.83 0, 8.69 0 C10.55 0, 12.85 1.45, 14.27 3.52" stroke="#0eb1e4" stroke-width="1" fill="none"></path></g><g stroke-linecap="round" transform="translate(657.8455418722765 54.083715719512185) rotate(334.0400495723031 7.4521923842709725 12.916703105614578)"><path d="M12.24 3.02 C13.47 4.8, 14.51 7.95, 14.79 10.67 C15.07 13.4, 14.7 16.98, 13.91 19.38 C13.11 21.77, 11.5 24.11, 10 25.05 C8.5 26, 6.4 26, 4.9 25.05 C3.4 24.11, 1.8 21.77, 1 19.38 C0.2 16.98, -0.16 13.4, 0.11 10.67 C0.39 7.95, 1.44 4.8, 2.66 3.02 C3.89 1.24, 5.86 0, 7.45 0 C9.05 0, 11.02 1.24, 12.24 3.02" stroke="none" stroke-width="0" fill="#0eb1e4"></path><path d="M12.24 3.02 C13.47 4.8, 14.51 7.95, 14.79 10.67 C15.07 13.4, 14.7 16.98, 13.91 19.38 C13.11 21.77, 11.5 24.11, 10 25.05 C8.5 26, 6.4 26, 4.9 25.05 C3.4 24.11, 1.8 21.77, 1 19.38 C0.2 16.98, -0.16 13.4, 0.11 10.67 C0.39 7.95, 1.44 4.8, 2.66 3.02 C3.89 1.24, 5.86 0, 7.45 0 C9.05 0, 11.02 1.24, 12.24 3.02" stroke="#0eb1e4" stroke-width="1" fill="none"></path></g><g stroke-linecap="round" transform="translate(652.9534077298786 26.210658711898617) rotate(0 25.149846278474342 24.783800435778716)"><path d="M41.32 5.8 C45.44 9.21, 48.98 15.25, 49.92 20.48 C50.85 25.71, 49.62 32.58, 46.93 37.18 C44.24 41.77, 38.82 46.26, 33.75 48.07 C28.69 49.89, 21.61 49.89, 16.55 48.07 C11.48 46.26, 6.06 41.77, 3.37 37.18 C0.68 32.58, -0.55 25.71, 0.38 20.48 C1.32 15.25, 4.86 9.21, 8.98 5.8 C13.11 2.38, 19.76 0, 25.15 0 C30.54 0, 37.19 2.38, 41.32 5.8" stroke="none" stroke-width="0" fill="#0eb1e4"></path><path d="M41.32 5.8 C45.44 9.21, 48.98 15.25, 49.92 20.48 C50.85 25.71, 49.62 32.58, 46.93 37.18 C44.24 41.77, 38.82 46.26, 33.75 48.07 C28.69 49.89, 21.61 49.89, 16.55 48.07 C11.48 46.26, 6.06 41.77, 3.37 37.18 C0.68 32.58, -0.55 25.71, 0.38 20.48 C1.32 15.25, 4.86 9.21, 8.98 5.8 C13.11 2.38, 19.76 0, 25.15 0 C30.54 0, 37.19 2.38, 41.32 5.8" stroke="#0eb1e4" stroke-width="1" fill="none"></path></g><g stroke-linecap="round" transform="translate(659.8878608614298 15.071475361077319) rotate(310.82721671153615 1.6663941790458239 10.553260928976272)"><path d="M0.83 0 L2.5 0 L3.33 0.83 L3.33 20.27 L2.5 21.11 L0.21 20.9 L0 20.27 L0 0.83 L0.83 0" stroke="none" stroke-width="0" fill="#0eb1e4"></path><path d="M0.83 0 M0.83 0 C1.24 0, 1.64 0, 2.5 0 M0.83 0 C1.24 0, 1.64 0, 2.5 0 M2.5 0 C3.06 0, 3.33 0.28, 3.33 0.83 M2.5 0 C3.06 0, 3.33 0.28, 3.33 0.83 M3.33 0.83 C3.33 7.99, 3.33 15.15, 3.33 20.27 M3.33 0.83 C3.33 5.75, 3.33 10.66, 3.33 20.27 M3.33 20.27 C3.33 20.83, 3.06 21.11, 2.5 21.11 M3.33 20.27 C3.33 20.83, 3.06 21.11, 2.5 21.11 M2.5 21.11 C2.07 21.11, 1.65 21.11, 0.83 21.11 M2.5 21.11 C1.92 21.11, 1.34 21.11, 0.83 21.11 M0.83 21.11 C0.28 21.11, 0 20.83, 0 20.27 M0.83 21.11 C0.28 21.11, 0 20.83, 0 20.27 M0 20.27 C0 15.01, 0 9.74, 0 0.83 M0 20.27 C0 15.49, 0 10.71, 0 0.83 M0 0.83 C0 0.28, 0.28 0, 0.83 0 M0 0.83 C0 0.28, 0.28 0, 0.83 0" stroke="#0eb1e4" stroke-width="1" fill="none"></path></g><g stroke-linecap="round" transform="translate(642.5485915510387 10) rotate(0 7.057975153568975 7.6332427632085995)"><path d="M11.59 1.79 C12.75 2.84, 13.75 4.7, 14.01 6.31 C14.27 7.92, 13.93 10.03, 13.17 11.45 C12.41 12.87, 10.89 14.25, 9.47 14.81 C8.05 15.37, 6.07 15.37, 4.64 14.81 C3.22 14.25, 1.7 12.87, 0.95 11.45 C0.19 10.03, -0.16 7.92, 0.11 6.31 C0.37 4.7, 1.36 2.84, 2.52 1.79 C3.68 0.73, 5.55 0, 7.06 0 C8.57 0, 10.44 0.73, 11.59 1.79" stroke="none" stroke-width="0" fill="#0eb1e4"></path><path d="M11.59 1.79 C12.75 2.84, 13.75 4.7, 14.01 6.31 C14.27 7.92, 13.93 10.03, 13.17 11.45 C12.41 12.87, 10.89 14.25, 9.47 14.81 C8.05 15.37, 6.07 15.37, 4.64 14.81 C3.22 14.25, 1.7 12.87, 0.95 11.45 C0.19 10.03, -0.16 7.92, 0.11 6.31 C0.37 4.7, 1.36 2.84, 2.52 1.79 C3.68 0.73, 5.55 0, 7.06 0 C8.57 0, 10.44 0.73, 11.59 1.79" stroke="#0eb1e4" stroke-width="1" fill="none"></path></g><g transform="translate(729.9374542236328 28.531645679976712) rotate(0 191.5 16)"><text x="191.5" y="26" font-family="Helvetica, Segoe UI Emoji" font-size="28px" fill="black" text-anchor="middle" style="white-space: pre;" direction="ltr">Order of filters applied to traffic</text></g><g stroke-linecap="round" transform="translate(490.1766967773438 152.72820940067984) rotate(0 125.62786865234375 24.110916137695312)"><path d="M13.17 1.59 L242.39 -0.58 L247.9 2.2 L250.29 6.95 L252.06 40.51 L249.43 45.23 L237.97 49.27 L8.92 47.55 L5.42 48.16 L-0.49 41.97 L-1.78 14.04 L3.24 3.11 L10.08 -1.03" stroke="none" stroke-width="0" fill="#fff6e5"></path><path d="M12.06 0 M12.06 0 C61.59 0.91, 107.38 -0.03, 239.2 0 M12.06 0 C91.93 -1.48, 172.99 -2.16, 239.2 0 M239.2 0 C247.27 -2, 250.25 5.5, 251.26 12.06 M239.2 0 C248.89 -1.62, 251.44 2.76, 251.26 12.06 M251.26 12.06 C249.56 20.22, 252.08 27.2, 251.26 36.17 M251.26 12.06 C250.45 16.89, 251.45 23.3, 251.26 36.17 M251.26 36.17 C252.65 45.31, 246.8 47.8, 239.2 48.22 M251.26 36.17 C252.7 46.38, 246.81 47.4, 239.2 48.22 M239.2 48.22 C168.5 48.04, 100.11 47.73, 12.06 48.22 M239.2 48.22 C180.19 46.74, 121 46.73, 12.06 48.22 M12.06 48.22 C4.23 48.04, -1.92 44.46, 0 36.17 M12.06 48.22 C5.8 48.26, -1.2 42.22, 0 36.17 M0 36.17 C1.3 27.77, -0.08 17.11, 0 12.06 M0 36.17 C0.04 31.75, 0.4 26.63, 0 12.06 M0 12.06 C-1.96 3.56, 3.21 1.58, 12.06 0 M0 12.06 C-1.14 6.15, 6.08 -0.56, 12.06 0" stroke="black" stroke-width="1" fill="none"></path></g><g transform="translate(593.8045654296875 166.21806230595328) rotate(0 22 11.5)"><text x="22" y="18" font-family="Helvetica, Segoe UI Emoji" font-size="20px" fill="black" text-anchor="middle" style="white-space: pre;" direction="ltr">Fault</text></g><g stroke-linecap="round" transform="translate(490.5014038085938 219.13237548605932) rotate(0 125.62786865234375 24.110916137695312)"><path d="M11.29 0.68 L243.87 -1.74 L245.53 1.74 L250.7 7.29 L249.85 40.02 L247.73 43.32 L239.41 48.79 L8.87 48.79 L3.71 46.48 L2.46 41.08 L-0.94 10.86 L4.94 4.32 L10.49 1.11" stroke="none" stroke-width="0" fill="#ebfff9"></path><path d="M12.06 0 M12.06 0 C100.13 1.91, 186.15 -0.96, 239.2 0 M12.06 0 C98.46 -0.88, 185.1 -0.72, 239.2 0 M239.2 0 C248.86 0.18, 251.24 2.78, 251.26 12.06 M239.2 0 C247.05 -0.82, 249.58 6.26, 251.26 12.06 M251.26 12.06 C250.76 18.19, 250.71 25.42, 251.26 36.17 M251.26 12.06 C251.99 19.58, 250.13 27.54, 251.26 36.17 M251.26 36.17 C251.43 43.2, 247.09 49.08, 239.2 48.22 M251.26 36.17 C250.66 46.4, 249.37 47.57, 239.2 48.22 M239.2 48.22 C150.35 46.86, 60.23 46.78, 12.06 48.22 M239.2 48.22 C162.24 47.77, 86.56 46.77, 12.06 48.22 M12.06 48.22 C4.81 49.16, 1.83 44.08, 0 36.17 M12.06 48.22 C3.84 46.94, 1.42 45.46, 0 36.17 M0 36.17 C-1.04 26.87, -0.21 21.19, 0 12.06 M0 36.17 C-0.77 29.74, 0.15 24.91, 0 12.06 M0 12.06 C1.56 2.07, 2.46 -1.81, 12.06 0 M0 12.06 C2.24 6.09, 2.02 0.78, 12.06 0" stroke="black" stroke-width="1" fill="none"></path></g><g transform="translate(549.1292724609375 232.62222839133275) rotate(0 67 11.5)"><text x="67" y="18" font-family="Helvetica, Segoe UI Emoji" font-size="20px" fill="black" text-anchor="middle" style="white-space: pre;" direction="ltr">Transformation</text></g><g stroke-linecap="round" transform="translate(490.095443725586 285.61771832925126) rotate(0 125.62786865234375 24.110916137695312)"><path d="M10.94 1.23 L243.12 1.2 L244.94 0.23 L249.27 5.94 L250.67 40.93 L247.22 46.51 L240.21 46.99 L8.38 48.65 L6.19 48.08 L-1.19 39.88 L-1.81 14 L4.81 1.28 L12.74 0.77" stroke="none" stroke-width="0" fill="#fff6e5"></path><path d="M12.06 0 M12.06 0 C102.85 0.04, 190.8 -1.79, 239.2 0 M12.06 0 C66.43 0.71, 119.89 0.5, 239.2 0 M239.2 0 C246.35 1.13, 252.4 4.44, 251.26 12.06 M239.2 0 C248.99 0.95, 253.03 2.02, 251.26 12.06 M251.26 12.06 C250.18 17.92, 251.22 20.97, 251.26 36.17 M251.26 12.06 C250.54 18.06, 251.15 24.65, 251.26 36.17 M251.26 36.17 C252.23 44.03, 245.74 49.28, 239.2 48.22 M251.26 36.17 C250.89 42.64, 245.03 49.64, 239.2 48.22 M239.2 48.22 C155.24 50.27, 73.23 47.32, 12.06 48.22 M239.2 48.22 C185.22 48.29, 131.56 47.27, 12.06 48.22 M12.06 48.22 C2.08 48.71, -0.08 44.59, 0 36.17 M12.06 48.22 C1.79 49.21, -0.93 43.64, 0 36.17 M0 36.17 C0.11 27.44, -1.11 19.74, 0 12.06 M0 36.17 C-0.87 29.4, 0.49 24.97, 0 12.06 M0 12.06 C1.77 4.7, 4.35 -0.79, 12.06 0 M0 12.06 C-2.19 3.58, 5.96 -1.63, 12.06 0" stroke="black" stroke-width="1" fill="none"></path></g><g transform="translate(586.7233123779297 299.1075712345247) rotate(0 29 11.5)"><text x="29" y="18" font-family="Helvetica, Segoe UI Emoji" font-size="20px" fill="black" text-anchor="middle" style="white-space: pre;" direction="ltr">CORS</text></g><g stroke-linecap="round" transform="translate(490.2578735351563 352.1842379302558) rotate(0 125.62786865234375 24.110916137695312)"><path d="M13.29 1.38 L243.54 0.84 L246.39 3.35 L252.47 4.99 L249.79 38.43 L247.92 44.33 L240.08 47.21 L7.72 46.09 L5.2 46.45 L1.14 39.5 L0.86 11.24 L2.52 3.53 L12.53 1.09" stroke="none" stroke-width="0" fill="#fff6e5"></path><path d="M12.06 0 M12.06 0 C81.43 0.01, 153.72 0.23, 239.2 0 M12.06 0 C66.08 -0.65, 119.72 -1.27, 239.2 0 M239.2 0 C246.45 -1.91, 250.87 5.71, 251.26 12.06 M239.2 0 C245.61 -1.5, 251.18 2.84, 251.26 12.06 M251.26 12.06 C253.47 16.23, 251.06 24.3, 251.26 36.17 M251.26 12.06 C251.48 18.83, 250.86 23.36, 251.26 36.17 M251.26 36.17 C249.47 42.43, 246.8 49.99, 239.2 48.22 M251.26 36.17 C250.32 42.8, 245.8 46.77, 239.2 48.22 M239.2 48.22 C177.6 49.94, 117.36 49.22, 12.06 48.22 M239.2 48.22 C176.01 48.36, 112.39 48.67, 12.06 48.22 M12.06 48.22 C3.49 49.65, 1.48 44.61, 0 36.17 M12.06 48.22 C2.68 46.75, -0.86 44.49, 0 36.17 M0 36.17 C-0.06 29.91, -0.41 20.36, 0 12.06 M0 36.17 C0.27 27.59, -0.56 16.5, 0 12.06 M0 12.06 C-1.96 4.6, 3.82 -1.15, 12.06 0 M0 12.06 C-0.68 5.2, 4.95 -2.03, 12.06 0" stroke="black" stroke-width="1" fill="none"></path></g><g transform="translate(596.3857421875 365.6740908355292) rotate(0 19.5 11.5)"><text x="19.5" y="18" font-family="Helvetica, Segoe UI Emoji" font-size="20px" fill="black" text-anchor="middle" style="white-space: pre;" direction="ltr">DLP</text></g><g stroke-linecap="round" transform="translate(490.3390502929688 418.6695807734477) rotate(0 125.62786865234375 24.110916137695312)"><path d="M10.87 0.29 L240.62 0.58 L248.5 0.84 L249.91 4.99 L249.3 38.56 L250.01 44.39 L237.98 46.98 L7.97 47.36 L5.83 47.58 L-0.5 42.26 L-0.91 12.03 L2.58 5 L12.94 0.17" stroke="none" stroke-width="0" fill="#fff6e5"></path><path d="M12.06 0 M12.06 0 C60.57 2.16, 111.25 1.29, 239.2 0 M12.06 0 C67.1 0.9, 122.5 0.55, 239.2 0 M239.2 0 C247.34 1.47, 251 3.66, 251.26 12.06 M239.2 0 C249.4 0.53, 253.33 4.76, 251.26 12.06 M251.26 12.06 C249.17 22.09, 250.93 29.81, 251.26 36.17 M251.26 12.06 C250.5 17.81, 250.62 25.63, 251.26 36.17 M251.26 36.17 C249.27 45.37, 245.8 47.07, 239.2 48.22 M251.26 36.17 C249.8 43.65, 246.37 49.93, 239.2 48.22 M239.2 48.22 C190.08 50.68, 140.21 49.03, 12.06 48.22 M239.2 48.22 C163.25 47.53, 87.12 46.79, 12.06 48.22 M12.06 48.22 C3.42 49.04, 1.8 43.14, 0 36.17 M12.06 48.22 C4.79 47.05, -1.18 45.46, 0 36.17 M0 36.17 C-0.17 25.54, -0.74 17.76, 0 12.06 M0 36.17 C-0.26 28.7, 0.82 22.14, 0 12.06 M0 12.06 C1.54 5.57, 2.41 -1.86, 12.06 0 M0 12.06 C-0.89 2.07, 4.09 -2.13, 12.06 0" stroke="black" stroke-width="1" fill="none"></path></g><g transform="translate(593.9669189453125 432.15943367872114) rotate(0 22 11.5)"><text x="22" y="18" font-family="Helvetica, Segoe UI Emoji" font-size="20px" fill="black" text-anchor="middle" style="white-space: pre;" direction="ltr">WAF</text></g><g stroke-linecap="round" transform="translate(490.5014038085938 485.15492361663973) rotate(0 125.62786865234375 24.110916137695312)"><path d="M12.88 1.8 L240.96 0.86 L245.53 0.67 L251.6 8.36 L249.65 37.56 L247.9 43.73 L238.29 48.09 L9.15 48.23 L5.84 46.06 L0.1 43.13 L0.51 13.6 L4.57 1.4 L10.2 -0.78" stroke="none" stroke-width="0" fill="#ebfff9"></path><path d="M12.06 0 M12.06 0 C62.05 1.4, 110.58 3.32, 239.2 0 M12.06 0 C99.6 -0.25, 186.73 -0.34, 239.2 0 M239.2 0 C245.94 0.34, 250.95 5.54, 251.26 12.06 M239.2 0 C245.28 -0.7, 250.36 4.43, 251.26 12.06 M251.26 12.06 C250.95 16.13, 250.9 22.43, 251.26 36.17 M251.26 12.06 C251.28 17.27, 251.65 21.64, 251.26 36.17 M251.26 36.17 C252.57 42.24, 248.66 47.89, 239.2 48.22 M251.26 36.17 C250.48 43.53, 246.01 48.12, 239.2 48.22 M239.2 48.22 C175.19 48.44, 110.86 47.76, 12.06 48.22 M239.2 48.22 C187.24 49.13, 136.05 49.49, 12.06 48.22 M12.06 48.22 C2.19 46.33, 1.79 45.19, 0 36.17 M12.06 48.22 C3.83 48.27, -0.39 45.35, 0 36.17 M0 36.17 C0.37 29.02, 1.12 26.54, 0 12.06 M0 36.17 C0.8 28.33, 1.13 19.54, 0 12.06 M0 12.06 C-0.59 5.71, 4.64 -1.43, 12.06 0 M0 12.06 C1.72 3.23, 2.82 1.71, 12.06 0" stroke="black" stroke-width="1" fill="none"></path></g><g transform="translate(561.1292724609375 498.6447765219132) rotate(0 55 11.5)"><text x="55" y="18" font-family="Helvetica, Segoe UI Emoji" font-size="20px" fill="black" text-anchor="middle" style="white-space: pre;" direction="ltr">Rate limiting</text></g><g stroke-linecap="round" transform="translate(490.4202270507813 551.6402664598317) rotate(0 125.62786865234375 24.110916137695312)"><path d="M13.63 -1.29 L242.37 -0.12 L248.07 -0.01 L249.89 6 L251.43 37.09 L246.56 44.41 L239.1 47.36 L9.08 48.54 L3.01 46.14 L0.84 41.59 L0.06 12.93 L1.45 4.32 L10.09 1.43" stroke="none" stroke-width="0" fill="#fff6e5"></path><path d="M12.06 0 M12.06 0 C75.56 0.49, 140.62 0.33, 239.2 0 M12.06 0 C82.9 -0.36, 152.42 0.04, 239.2 0 M239.2 0 C248.22 -0.88, 251.14 4.06, 251.26 12.06 M239.2 0 C248.08 -2.1, 249.08 6.07, 251.26 12.06 M251.26 12.06 C250.9 21.47, 249.93 28.76, 251.26 36.17 M251.26 12.06 C251.85 17.85, 251.81 21.05, 251.26 36.17 M251.26 36.17 C249.86 45.36, 248.49 50.06, 239.2 48.22 M251.26 36.17 C251.92 43.52, 249.19 48.94, 239.2 48.22 M239.2 48.22 C186.37 48.83, 135.85 48.77, 12.06 48.22 M239.2 48.22 C166.7 49.03, 94.62 48.19, 12.06 48.22 M12.06 48.22 C4.12 46.58, -1.19 44.87, 0 36.17 M12.06 48.22 C5.18 47.99, -0.93 45.54, 0 36.17 M0 36.17 C1.33 29.44, -1.42 25.37, 0 12.06 M0 36.17 C0.2 29.2, 0.14 20.45, 0 12.06 M0 12.06 C0.38 3.7, 3.25 0.48, 12.06 0 M0 12.06 C-0.64 2.11, 3.63 -0.54, 12.06 0" stroke="black" stroke-width="1" fill="none"></path></g><g transform="translate(580.548095703125 565.1301193651051) rotate(0 35.5 11.5)"><text x="35.5" y="18" font-family="Helvetica, Segoe UI Emoji" font-size="20px" fill="black" text-anchor="middle" style="white-space: pre;" direction="ltr">Sanitize</text></g><g stroke-linecap="round" transform="translate(770.4654998779299 350.45717515995716) rotate(0 125.6278686523437 24.110916137695312)"><path d="M11.17 -0.12 L242.07 0.92 L244.72 -0.2 L252.29 7.76 L250.9 39.04 L247.91 46.2 L237.9 48.09 L7.33 48.39 L3.22 47.63 L2.44 42.46 L-1.79 10.66 L4.17 4.27 L13.89 0.58" stroke="none" stroke-width="0" fill="#0eb1e4"></path><path d="M12.06 0 M12.06 0 C72.27 0.67, 134.33 -1.5, 239.2 0 M12.06 0 C97.24 -0.72, 182.16 -1.52, 239.2 0 M239.2 0 C248.79 0.35, 250.86 4.12, 251.26 12.06 M239.2 0 C245.35 -1.37, 252.02 5.18, 251.26 12.06 M251.26 12.06 C250.27 17.06, 250.27 27.12, 251.26 36.17 M251.26 12.06 C251.35 19.29, 251.68 25.53, 251.26 36.17 M251.26 36.17 C253.22 44.81, 247.6 48.6, 239.2 48.22 M251.26 36.17 C250.89 43.32, 247.79 47.58, 239.2 48.22 M239.2 48.22 C188.44 46.67, 139.49 46.59, 12.06 48.22 M239.2 48.22 C165.33 49.09, 91.66 48.98, 12.06 48.22 M12.06 48.22 C5.12 46.91, -1.77 43.72, 0 36.17 M12.06 48.22 C4.56 49.03, -1.93 45.44, 0 36.17 M0 36.17 C-1.69 27.21, 2.01 22.06, 0 12.06 M0 36.17 C-0.59 28.72, 0.11 22.63, 0 12.06 M0 12.06 C-0.24 5.86, 2.25 -1.79, 12.06 0 M0 12.06 C-2.19 2.09, 6.23 -1.89, 12.06 0" stroke="black" stroke-width="1" fill="none"></path></g><g transform="translate(837.0933685302734 363.9470280652306) rotate(0 59 11.5)"><text x="59" y="18" font-family="Helvetica, Segoe UI Emoji" font-size="20px" fill="black" text-anchor="middle" style="white-space: pre;" direction="ltr">External auth</text></g><g stroke-linecap="round" transform="translate(1055.7891845703125 174.47921648075797) rotate(0 125.62786865234375 24.110916137695312)"><path d="M12.5 0.83 L242.49 -0.15 L245.29 1.97 L250 5.98 L251.15 40.92 L248.44 43.9 L240.49 46.28 L9.04 46.76 L3.25 45.63 L0.68 42.5 L1.36 11.68 L3.51 1.63 L10.65 0.38" stroke="none" stroke-width="0" fill="#ebfff9"></path><path d="M12.06 0 M12.06 0 C99.16 -1.76, 188.21 -0.01, 239.2 0 M12.06 0 C84.41 -0.24, 155.41 -0.27, 239.2 0 M239.2 0 C245.3 -0.06, 251.32 3.45, 251.26 12.06 M239.2 0 C248.83 0.46, 252.78 4.2, 251.26 12.06 M251.26 12.06 C249.97 19.25, 250.11 22.47, 251.26 36.17 M251.26 12.06 C250.17 21.32, 250.2 31.02, 251.26 36.17 M251.26 36.17 C252.8 44.38, 247.96 49.15, 239.2 48.22 M251.26 36.17 C250.59 46.43, 247.03 47.88, 239.2 48.22 M239.2 48.22 C172.67 48.03, 105.18 49.64, 12.06 48.22 M239.2 48.22 C171.81 48.85, 104.27 49.09, 12.06 48.22 M12.06 48.22 C2.05 48.45, -1.74 42.26, 0 36.17 M12.06 48.22 C3.76 49.07, -1.84 42.05, 0 36.17 M0 36.17 C1.31 27.02, 1.21 20.86, 0 12.06 M0 36.17 C0.14 28.05, 0.49 18.95, 0 12.06 M0 12.06 C-1.13 2.44, 5.66 -0.66, 12.06 0 M0 12.06 C2.2 5.83, 1.72 0.6, 12.06 0" stroke="black" stroke-width="1" fill="none"></path></g><g transform="translate(1160.9170532226562 187.9690693860314) rotate(0 20.5 11.5)"><text x="20.5" y="18" font-family="Helvetica, Segoe UI Emoji" font-size="20px" fill="black" text-anchor="middle" style="white-space: pre;" direction="ltr">JWT</text></g><g stroke-linecap="round" transform="translate(1055.7080078125 243.60905478845655) rotate(0 125.62786865234375 24.110916137695312)"><path d="M12.52 -0.34 L240.77 0.47 L246.05 0.89 L250.58 8.71 L251.26 37.68 L249.53 43.27 L239.01 46.95 L7.77 47.13 L4.63 47.59 L2.11 41.06 L0.5 10.67 L1.61 3.39 L13.86 1.45" stroke="none" stroke-width="0" fill="#d4d8de"></path><path d="M12.06 0 M12.06 0 C84.45 1.93, 159.19 2.74, 239.2 0 M12.06 0 C91.79 -0.99, 170.6 -1.72, 239.2 0 M239.2 0 C247.3 -0.57, 252.64 4.42, 251.26 12.06 M239.2 0 C248.77 0.18, 249.56 2.64, 251.26 12.06 M251.26 12.06 C250.11 19.1, 252.81 25.77, 251.26 36.17 M251.26 12.06 C250.14 18.44, 251.81 24.09, 251.26 36.17 M251.26 36.17 C251.98 45.13, 246.66 50.16, 239.2 48.22 M251.26 36.17 C251.05 43.86, 247.05 48.27, 239.2 48.22 M239.2 48.22 C164.03 48.38, 91.47 47.69, 12.06 48.22 M239.2 48.22 C168.07 49.9, 97.69 49.32, 12.06 48.22 M12.06 48.22 C2.28 46.28, -0.23 44.94, 0 36.17 M12.06 48.22 C2.18 46.07, 0.21 46.46, 0 36.17 M0 36.17 C1.26 30.11, 0.99 23.42, 0 12.06 M0 36.17 C0.32 27.94, -0.56 18.74, 0 12.06 M0 12.06 C1.64 3.36, 5.93 1.57, 12.06 0 M0 12.06 C-2.29 4.62, 2.74 0.03, 12.06 0" stroke="black" stroke-width="1" fill="none"></path></g><g transform="translate(1153.3358764648438 257.09890769373) rotate(0 28 11.5)"><text x="28" y="18" font-family="Helvetica, Segoe UI Emoji" font-size="20px" fill="black" text-anchor="middle" style="white-space: pre;" direction="ltr">RBAC</text></g><g stroke-linecap="round" transform="translate(1055.7891845703125 312.73889309615515) rotate(0 125.62786865234375 24.110916137695312)"><path d="M10.8 0.28 L241.53 -0.61 L246.62 3.63 L250.7 5.47 L252.35 37.05 L248.05 43.93 L237.74 47.32 L9.16 49.1 L6.06 46.15 L1.25 40.06 L-1.4 12.43 L4.81 4.46 L12.52 -1.75" stroke="none" stroke-width="0" fill="#d4d8de"></path><path d="M12.06 0 M12.06 0 C63.05 0.75, 114.39 0.9, 239.2 0 M12.06 0 C99.23 -1.64, 188.08 -1.86, 239.2 0 M239.2 0 C248.63 0.4, 252.59 4.18, 251.26 12.06 M239.2 0 C245.54 -1.37, 251.54 2.71, 251.26 12.06 M251.26 12.06 C252.83 20.04, 250.09 28.87, 251.26 36.17 M251.26 12.06 C251.81 19.35, 251.4 26.93, 251.26 36.17 M251.26 36.17 C250.68 46.14, 247.06 47.93, 239.2 48.22 M251.26 36.17 C251.07 44.25, 247.81 47.96, 239.2 48.22 M239.2 48.22 C179.96 49.52, 121.04 48.65, 12.06 48.22 M239.2 48.22 C158.54 49.87, 78.81 48.94, 12.06 48.22 M12.06 48.22 C3.79 48.96, -1.6 42.33, 0 36.17 M12.06 48.22 C4.22 50.48, -1.52 45.98, 0 36.17 M0 36.17 C1.01 29.52, 0.73 25.72, 0 12.06 M0 36.17 C-0.64 26.85, 0.74 18.78, 0 12.06 M0 12.06 C1.91 5.59, 2.02 0.52, 12.06 0 M0 12.06 C-1.28 4.05, 3.44 -2.22, 12.06 0" stroke="black" stroke-width="1" fill="none"></path></g><g transform="translate(1132.9170532226562 326.2287460014285) rotate(0 48.5 11.5)"><text x="48.5" y="18" font-family="Helvetica, Segoe UI Emoji" font-size="20px" fill="black" text-anchor="middle" style="white-space: pre;" direction="ltr">gRPC-web</text></g><g stroke-linecap="round" transform="translate(1055.7891845703125 381.86873140385364) rotate(0 125.62786865234375 24.110916137695312)"><path d="M11.56 -0.8 L242.1 2.12 L246.74 0.38 L251.79 4.84 L250.87 37.72 L246.78 44.31 L239.13 49.28 L10.59 47.66 L5.21 45.14 L-0.65 41.82 L1.8 13.5 L3.48 1.27 L10.52 -1.21" stroke="none" stroke-width="0" fill="#ebfff9"></path><path d="M12.06 0 M12.06 0 C86.92 -0.02, 161.54 -1.33, 239.2 0 M12.06 0 C99.14 -0.18, 186.76 0.23, 239.2 0 M239.2 0 C248.57 0.16, 249.78 2.82, 251.26 12.06 M239.2 0 C247.52 -1.31, 253.26 2.86, 251.26 12.06 M251.26 12.06 C250.41 16.85, 251.43 23.55, 251.26 36.17 M251.26 12.06 C251.8 20.76, 251.15 29.5, 251.26 36.17 M251.26 36.17 C251.08 43.91, 247.08 48.26, 239.2 48.22 M251.26 36.17 C251.83 43.94, 246.33 46.41, 239.2 48.22 M239.2 48.22 C158.85 47.86, 79.06 46.92, 12.06 48.22 M239.2 48.22 C152.16 47.61, 66.5 48.76, 12.06 48.22 M12.06 48.22 C2.42 46.35, 0.18 46.16, 0 36.17 M12.06 48.22 C2.5 50, -1.95 45.86, 0 36.17 M0 36.17 C0.76 29.36, 0.93 23.32, 0 12.06 M0 36.17 C0.96 28.37, 1.09 22.03, 0 12.06 M0 12.06 C-1.99 4.54, 2.91 0.03, 12.06 0 M0 12.06 C-0.58 1.8, 1.73 -1.78, 12.06 0" stroke="black" stroke-width="1" fill="none"></path></g><g transform="translate(1114.4170532226562 395.3585843091271) rotate(0 67 11.5)"><text x="67" y="18" font-family="Helvetica, Segoe UI Emoji" font-size="20px" fill="black" text-anchor="middle" style="white-space: pre;" direction="ltr">Transformation</text></g><g stroke-linecap="round" transform="translate(1055.7891845703125 450.99856971155225) rotate(0 125.62786865234375 24.110916137695312)"><path d="M12.13 1.93 L242.22 -1.12 L247.83 -0.24 L250.31 5.51 L249.61 38.09 L248.17 46.27 L240.56 47.85 L9.73 46.65 L3.3 46.9 L2.55 42.89 L0.47 10.31 L1.48 1.8 L12.57 0.31" stroke="none" stroke-width="0" fill="#ebfff9"></path><path d="M12.06 0 M12.06 0 C98.35 -1.49, 183.08 -3.24, 239.2 0 M12.06 0 C80.08 0.72, 147.48 0.62, 239.2 0 M239.2 0 C245.76 -1.2, 251.5 2.88, 251.26 12.06 M239.2 0 C249.24 -1.16, 250.69 5.97, 251.26 12.06 M251.26 12.06 C251.1 15.87, 251.96 24.82, 251.26 36.17 M251.26 12.06 C251.05 20.48, 251.25 26.81, 251.26 36.17 M251.26 36.17 C251.1 44.24, 247.74 48, 239.2 48.22 M251.26 36.17 C250.35 42.39, 248.49 48.11, 239.2 48.22 M239.2 48.22 C168.74 45.93, 97.9 45.83, 12.06 48.22 M239.2 48.22 C168.39 46.65, 97.1 45.53, 12.06 48.22 M12.06 48.22 C4.2 50.18, -1.32 45.75, 0 36.17 M12.06 48.22 C2.07 49.88, -0.47 45.56, 0 36.17 M0 36.17 C0.97 31.32, 0.08 24.09, 0 12.06 M0 36.17 C0.76 31.62, -1.19 25.76, 0 12.06 M0 12.06 C-1.11 4.05, 3.51 -1.93, 12.06 0 M0 12.06 C-2.29 2.24, 3.11 0.55, 12.06 0" stroke="black" stroke-width="1" fill="none"></path></g><g transform="translate(1126.4170532226562 464.4884226168257) rotate(0 55 11.5)"><text x="55" y="18" font-family="Helvetica, Segoe UI Emoji" font-size="20px" fill="black" text-anchor="middle" style="white-space: pre;" direction="ltr">Rate limiting</text></g><g stroke-linecap="round" transform="translate(1055.7080078125 520.1284080192507) rotate(0 125.62786865234375 24.110916137695312)"><path d="M12.25 -1.31 L243.31 -1.75 L246.35 0.42 L249.04 5.88 L250.99 40.05 L249.6 44.83 L239.7 46.84 L7.83 48.41 L6.51 47.98 L1.22 39.7 L-1.53 10.85 L3.53 3.32 L13.52 1.02" stroke="none" stroke-width="0" fill="#d4d8de"></path><path d="M12.06 0 M12.06 0 C100.21 -1.76, 185.47 -0.05, 239.2 0 M12.06 0 C74.3 -0.32, 134.78 -0.9, 239.2 0 M239.2 0 C247.48 -1.14, 253 3.01, 251.26 12.06 M239.2 0 C246.67 1.95, 249.7 2.82, 251.26 12.06 M251.26 12.06 C252.09 18.61, 251.43 22.78, 251.26 36.17 M251.26 12.06 C251.1 20.26, 251.11 28.78, 251.26 36.17 M251.26 36.17 C251.76 43.98, 246.45 46.65, 239.2 48.22 M251.26 36.17 C252.51 44.09, 247.56 48.44, 239.2 48.22 M239.2 48.22 C180.81 44.75, 119.88 44.94, 12.06 48.22 M239.2 48.22 C192.47 48.14, 147.19 49.78, 12.06 48.22 M12.06 48.22 C2.7 49.76, -1.7 45.65, 0 36.17 M12.06 48.22 C3.55 49.58, -1.68 45.24, 0 36.17 M0 36.17 C0.06 27.89, -1.71 23.5, 0 12.06 M0 36.17 C-1.23 29.99, -0.78 23.31, 0 12.06 M0 12.06 C-0.51 2.09, 2.03 -1.55, 12.06 0 M0 12.06 C-0.9 4.57, 3.78 -1.54, 12.06 0" stroke="black" stroke-width="1" fill="none"></path></g><g transform="translate(1154.3358764648438 533.5370078727664) rotate(0 27 11.5)"><text x="27" y="18" font-family="Helvetica, Segoe UI Emoji" font-size="20px" fill="black" text-anchor="middle" style="white-space: pre;" direction="ltr">CSRF</text></g><g stroke-linecap="round" transform="translate(1055.947265625 589.2582463269493) rotate(0 125.62786865234375 24.110916137695312)"><path d="M13.34 -1.94 L241.83 -1.09 L245.09 0.79 L250.43 7.84 L252.42 38.62 L248.74 43.82 L237.8 48.6 L11.03 49.48 L5.17 44.78 L-0.78 40.23 L0.52 12.36 L4.48 4.03 L13.69 1.75" stroke="none" stroke-width="0" fill="#e98d5e"></path><path d="M12.06 0 M12.06 0 C81.43 1.93, 150.44 3.06, 239.2 0 M12.06 0 C84.08 -0.67, 157.46 -0.64, 239.2 0 M239.2 0 C248.98 -1.01, 250.77 5.71, 251.26 12.06 M239.2 0 C245.69 -1.2, 249.13 3.99, 251.26 12.06 M251.26 12.06 C251.54 17.85, 252.29 21.63, 251.26 36.17 M251.26 12.06 C251.15 21.65, 251.48 31.09, 251.26 36.17 M251.26 36.17 C250.47 42.63, 248.33 48.13, 239.2 48.22 M251.26 36.17 C251.58 44.43, 246.39 49.4, 239.2 48.22 M239.2 48.22 C192.23 44.83, 143.22 46.12, 12.06 48.22 M239.2 48.22 C162.76 47.24, 85.6 47.06, 12.06 48.22 M12.06 48.22 C2.32 49.67, -0.41 45.38, 0 36.17 M12.06 48.22 C2.34 49.26, -0.08 45.44, 0 36.17 M0 36.17 C-1.6 29.82, -0.68 22.1, 0 12.06 M0 36.17 C-0.31 27.05, -0.01 16.94, 0 12.06 M0 12.06 C-1.99 2.47, 3.23 0.48, 12.06 0 M0 12.06 C-0.24 2.47, 3.58 0.44, 12.06 0" stroke="black" stroke-width="1" fill="none"></path></g><g transform="translate(1151.4939575195312 602.7480992322228) rotate(0 30 11.5)"><text x="30" y="18" font-family="Helvetica, Segoe UI Emoji" font-size="20px" fill="black" text-anchor="middle" style="white-space: pre;" direction="ltr">Router</text></g><g stroke-linecap="round" transform="translate(490.5014038085938 618.1256093030236) rotate(0 125.62786865234375 24.110916137695312)"><path d="M11.69 1.45 L240.57 0.08 L246.5 0.8 L252.21 5.63 L250.08 38.64 L249.94 43.68 L240.78 46.65 L10.95 48.46 L4.48 47.44 L2.05 40.96 L-0.95 12.82 L1.32 4.75 L12.26 1.79" stroke="none" stroke-width="0" fill="#ebfff9"></path><path d="M12.06 0 M12.06 0 C68.58 -1.44, 124.54 -1.29, 239.2 0 M12.06 0 C94.66 -0.1, 178.18 -0.29, 239.2 0 M239.2 0 C247.85 1.02, 249.95 5.66, 251.26 12.06 M239.2 0 C247.45 0.42, 250.1 4.91, 251.26 12.06 M251.26 12.06 C252.6 18.26, 253.1 28.91, 251.26 36.17 M251.26 12.06 C251.3 17.2, 251.38 22.27, 251.26 36.17 M251.26 36.17 C251.5 42.69, 248.91 46.47, 239.2 48.22 M251.26 36.17 C252.72 46.49, 245.58 50.19, 239.2 48.22 M239.2 48.22 C158.89 46.26, 79.15 47.48, 12.06 48.22 M239.2 48.22 C177.36 49.62, 115.39 50.61, 12.06 48.22 M12.06 48.22 C2.34 48.71, -1.82 46.12, 0 36.17 M12.06 48.22 C2.57 49.09, -0.06 43.75, 0 36.17 M0 36.17 C-0.18 30.41, -0.83 23.1, 0 12.06 M0 36.17 C0.69 29.8, 0.84 21.5, 0 12.06 M0 12.06 C0.93 3.31, 4.64 -1.66, 12.06 0 M0 12.06 C0.31 6.13, 5.25 -0.92, 12.06 0" stroke="black" stroke-width="1" fill="none"></path></g><g transform="translate(595.6292724609375 631.615462208297) rotate(0 20.5 11.5)"><text x="20.5" y="18" font-family="Helvetica, Segoe UI Emoji" font-size="20px" fill="black" text-anchor="middle" style="white-space: pre;" direction="ltr">JWT</text></g><g stroke-linecap="round"><g transform="translate(195.21554565429665 56.332082146381055) rotate(0 152.38948681812752 28.972872375098643)"><path d="M1.11 0.17 C20.3 -0.45, 80.4 -3.8, 115.59 -3.06 C150.77 -2.32, 183.53 -0.16, 212.22 4.6 C240.91 9.36, 272.62 16.1, 287.73 25.49 C302.84 34.89, 300.06 54.95, 302.87 60.95 M0.23 -0.78 C19.31 -1.36, 79.86 -2.66, 115.17 -2.11 C150.47 -1.57, 183.25 -1.74, 212.05 2.48 C240.84 6.7, 272.52 13.42, 287.94 23.2 C303.36 32.97, 302.08 54.9, 304.55 61.11" stroke="black" stroke-width="1" fill="none"></path></g><g transform="translate(195.21554565429665 56.332082146381055) rotate(0 152.38948681812752 28.972872375098643)"><path d="M304.04 62.35 L294.38 50.33 L307.03 45.14 L305.38 60.91" stroke="none" stroke-width="0" fill="black" fill-rule="evenodd"></path><path d="M304.77 62.36 C300.1 58.51, 299.06 52.9, 296.36 47.77 M304.19 61.21 C302.45 58.06, 299.71 54.15, 295.97 49.38 M295.29 49.53 C298.82 49.53, 300.48 47.92, 308.16 47.21 M296.02 48.44 C298.38 48.79, 301.84 48.21, 308.5 47.11 M308.34 47.21 C308.32 51.02, 306.86 56.85, 306.04 60.81 M307.85 46.33 C307.32 51.57, 305.53 55.45, 304.41 61.33 M304.55 61.11 C304.55 61.11, 304.55 61.11, 304.55 61.11 M304.55 61.11 C304.55 61.11, 304.55 61.11, 304.55 61.11" stroke="black" stroke-width="1" fill="none"></path></g></g><g stroke-linecap="round"><g transform="translate(1359.3948364257812 660.230910206344) rotate(0 85.77046413539904 -89.12183294486033)"><path d="M-1.03 0.23 C8.89 0.73, 40.99 5.57, 60.59 3.1 C80.19 0.62, 101.04 -2.91, 116.57 -14.63 C132.11 -26.35, 148.01 -48.17, 153.8 -67.24 C159.59 -86.3, 148.4 -109.86, 151.32 -129.03 C154.25 -148.2, 167.76 -173.22, 171.35 -182.27 M0.62 -0.7 C10.81 -0.09, 43.42 6.76, 62.68 4.08 C81.93 1.4, 101.45 -5.06, 116.16 -16.79 C130.87 -28.52, 144.76 -47.15, 150.95 -66.3 C157.13 -85.46, 149.67 -112.28, 153.28 -131.72 C156.88 -151.15, 169.71 -174.67, 172.58 -182.92" stroke="black" stroke-width="1" fill="none"></path></g><g transform="translate(1359.3948364257812 660.230910206344) rotate(0 85.77046413539904 -89.12183294486033)"><path d="M174.02 -181.94 L173.45 -166.24 L160.4 -174.69 L171.08 -184.31" stroke="none" stroke-width="0" fill="black" fill-rule="evenodd"></path><path d="M172.86 -184.41 C171.44 -176.27, 173.36 -170, 172.62 -168.48 M173.3 -183.12 C173.32 -177.7, 172.8 -170.81, 173.58 -167.85 M171.8 -168.91 C171.37 -170.27, 168.62 -169.56, 160.79 -173.68 M173.28 -167.9 C169.95 -168.81, 166.68 -170.49, 161.25 -173.22 M162.31 -172.57 C162.63 -176.05, 166.73 -176.35, 171.96 -182.91 M161.71 -172.21 C164.98 -176.02, 167.28 -178.58, 173.24 -183.32 M172.58 -182.92 C172.58 -182.92, 172.58 -182.92, 172.58 -182.92 M172.58 -182.92 C172.58 -182.92, 172.58 -182.92, 172.58 -182.92" stroke="black" stroke-width="1" fill="none"></path></g></g><g stroke-linecap="round"><g transform="translate(504.336624145508 118.76724901249634) rotate(0 53.66874028481544 17.55366532467306)"><path d="M0.68 0.49 C12.96 0.95, 56.27 -2.71, 73.93 3.1 C91.59 8.9, 101.31 30.21, 106.66 35.32" stroke="black" stroke-width="1.5" fill="none" stroke-dasharray="8 9"></path></g></g><g stroke-linecap="round"><g transform="translate(1187.4970465875524 637.0496052747034) rotate(0 84.38013872581928 19.959501770511224)"><path d="M0.61 -0.46 C3.86 5.56, 2.68 29.81, 18.61 36.15 C34.55 42.49, 75.26 40.62, 96.21 37.57 C117.16 34.52, 132.34 20.91, 144.33 17.86 C156.32 14.81, 164.02 19.13, 168.15 19.25" stroke="black" stroke-width="1.5" fill="none" stroke-dasharray="8 9"></path></g><g transform="translate(1187.4970465875524 637.0496052747034) rotate(0 84.38013872581928 19.959501770511224)"><path d="M167.51 19.11 L154.7 24.02 L155.26 9.37 L170.01 18.85" stroke="none" stroke-width="0" fill="black" fill-rule="evenodd"></path><path d="M167.58 20.4 C164.91 19.79, 161.2 19.86, 154.28 22.63 M154.28 22.97 C153.55 18.42, 154.6 14.27, 155.57 11.53 M157.31 9.63 C160.87 13.77, 164.07 15.22, 167.72 18.8 M168.15 19.25 C168.15 19.25, 168.15 19.25, 168.15 19.25" stroke="black" stroke-width="1.5" fill="none"></path></g></g><g stroke-linecap="round" transform="translate(10 266.9160145764612) rotate(0 25.152130126953068 25.152130126953068)"><path d="M15.79 1.11 C20.33 -1.08, 28.12 -0.52, 33.12 1.36 C38.12 3.24, 42.93 7.9, 45.77 12.39 C48.62 16.88, 50.86 23.01, 50.16 28.28 C49.46 33.55, 45.67 40.23, 41.59 44 C37.51 47.78, 30.9 50.76, 25.69 50.94 C20.49 51.12, 14.49 48.52, 10.35 45.07 C6.21 41.63, 1.92 35.45, 0.84 30.25 C-0.24 25.04, 0.72 18.82, 3.89 13.82 C7.06 8.82, 16.62 2.35, 19.89 0.23 C23.15 -1.89, 23.54 0.51, 23.46 1.1 M27.06 0.71 C32.27 0.97, 39.41 2.58, 43.07 6.41 C46.73 10.25, 48.63 18.32, 49.01 23.7 C49.39 29.09, 48.23 34.37, 45.34 38.74 C42.45 43.12, 37.07 48.3, 31.69 49.96 C26.31 51.61, 17.93 51.05, 13.06 48.65 C8.2 46.24, 4.58 40.59, 2.5 35.55 C0.41 30.52, -0.78 23.89, 0.55 18.43 C1.89 12.98, 6.04 5.69, 10.5 2.82 C14.97 -0.04, 24.54 1.47, 27.33 1.27 C30.13 1.07, 27.25 1.36, 27.27 1.64" stroke="none" stroke-width="0" fill="#0eb1e4"></path><path d="M16.82 2.09 C21.58 -0.26, 28.87 -1.16, 33.84 0.55 C38.82 2.26, 44.01 7.57, 46.67 12.33 C49.33 17.09, 50.52 23.84, 49.78 29.1 C49.04 34.35, 46.35 40.29, 42.21 43.85 C38.08 47.41, 30.53 50.13, 24.97 50.45 C19.41 50.77, 13.07 49.03, 8.84 45.78 C4.61 42.53, 0.39 36.43, -0.42 30.95 C-1.23 25.47, 0.96 17.96, 3.98 12.93 C7 7.9, 15.18 2.78, 17.69 0.78 C20.2 -1.22, 19.15 0.48, 19.03 0.93 M34.91 2.28 C39.62 4.33, 44.4 9.13, 46.67 14.11 C48.94 19.08, 49.89 26.82, 48.53 32.13 C47.16 37.45, 42.72 43.04, 38.46 46.01 C34.21 48.98, 28.2 50.32, 22.98 49.96 C17.76 49.59, 11.03 47.58, 7.16 43.84 C3.29 40.09, 0.1 33.29, -0.23 27.51 C-0.57 21.73, 2.04 13.52, 5.15 9.16 C8.26 4.8, 13.15 2.32, 18.45 1.36 C23.75 0.4, 34.06 3.34, 36.95 3.42 C39.84 3.5, 36.19 1.72, 35.77 1.83" stroke="black" stroke-width="1" fill="none"></path></g><g transform="translate(25.95489501953125 276.1586216931604) rotate(0 8 16)"><text x="0" y="26" font-family="Helvetica, Segoe UI Emoji" font-size="28px" fill="black" text-anchor="start" style="white-space: pre;" direction="ltr">1</text></g><g stroke-linecap="round" transform="translate(10 361.4779824261926) rotate(0 25.152130126953068 25.152130126953068)"><path d="M30.89 1.01 C36.06 1.67, 41.62 5.14, 44.93 9.35 C48.24 13.56, 50.78 20.94, 50.76 26.26 C50.74 31.58, 48.29 37.19, 44.79 41.25 C41.29 45.32, 35.05 49.87, 29.75 50.66 C24.44 51.46, 17.63 48.85, 12.98 46.02 C8.32 43.2, 3.71 38.87, 1.8 33.72 C-0.12 28.57, -0.48 20.17, 1.47 15.12 C3.42 10.07, 8.29 5.66, 13.5 3.44 C18.7 1.21, 28.75 1.78, 32.7 1.76 C36.65 1.74, 37.06 2.96, 37.2 3.29 M23.18 1.23 C28.32 -0.19, 35.03 0.15, 39.56 2.68 C44.1 5.22, 48.93 11.06, 50.39 16.44 C51.84 21.82, 50.56 29.78, 48.27 34.96 C45.98 40.15, 41.3 45.11, 36.64 47.57 C31.97 50.02, 25.71 50.84, 20.29 49.69 C14.87 48.54, 7.31 45, 4.13 40.66 C0.94 36.31, 0.75 29.14, 1.19 23.62 C1.63 18.1, 3.46 11.46, 6.75 7.53 C10.04 3.61, 18.26 1.01, 20.92 0.04 C23.58 -0.93, 22.73 1.36, 22.71 1.72" stroke="none" stroke-width="0" fill="#ebfff9"></path><path d="M18.71 1.3 C23.55 -0.41, 31.7 -0.12, 36.45 2.06 C41.19 4.25, 44.97 9.43, 47.17 14.41 C49.38 19.39, 51.17 26.83, 49.69 31.96 C48.2 37.1, 42.79 42.18, 38.27 45.21 C33.76 48.23, 27.95 50.48, 22.59 50.1 C17.24 49.73, 9.88 46.94, 6.16 42.96 C2.45 38.98, 0.42 31.61, 0.3 26.22 C0.19 20.82, 1.26 14.99, 5.46 10.57 C9.66 6.15, 21.16 1.32, 25.51 -0.3 C29.87 -1.92, 31.81 0.44, 31.62 0.85 M34.17 2.04 C39 3.55, 43.62 8.9, 46.32 13.78 C49.02 18.65, 51.2 25.97, 50.38 31.28 C49.56 36.59, 45.48 42.52, 41.42 45.64 C37.35 48.77, 31.57 50.07, 26 50.01 C20.42 49.94, 12.11 48.55, 7.99 45.23 C3.86 41.92, 1.77 35.75, 1.26 30.13 C0.75 24.51, 2.17 16.22, 4.94 11.53 C7.72 6.85, 13.18 3.83, 17.89 2 C22.59 0.18, 30.28 0.66, 33.17 0.6 C36.05 0.55, 35 0.96, 35.2 1.65" stroke="black" stroke-width="1" fill="none"></path></g><g transform="translate(26.619140624999943 368.78868188908325) rotate(0 8 16)"><text x="0" y="26" font-family="Helvetica, Segoe UI Emoji" font-size="28px" fill="black" text-anchor="start" style="white-space: pre;" direction="ltr">2</text></g><g stroke-linecap="round" transform="translate(10 456.03995027592407) rotate(0 25.152130126953068 25.152130126953068)"><path d="M31.99 0.55 C37.2 1.64, 43.29 6.93, 46.19 11.37 C49.09 15.81, 50.07 21.97, 49.41 27.2 C48.74 32.44, 45.84 38.88, 42.19 42.79 C38.54 46.71, 32.88 50.27, 27.5 50.7 C22.11 51.13, 14.47 48.77, 9.87 45.39 C5.27 42.01, 0.97 35.63, -0.12 30.41 C-1.21 25.19, 0.82 18.81, 3.33 14.05 C5.85 9.3, 9.71 3.76, 14.97 1.88 C20.23 0.01, 31.2 2.53, 34.89 2.79 C38.58 3.04, 37.23 3.01, 37.13 3.42 M20.36 1.65 C25.49 0.25, 31.62 -0.33, 36.25 1.87 C40.88 4.07, 46.14 9.86, 48.13 14.87 C50.13 19.89, 49.66 26.98, 48.22 31.98 C46.78 36.98, 43.63 41.76, 39.51 44.87 C35.39 47.98, 28.76 51.02, 23.5 50.63 C18.24 50.24, 11.91 46.44, 7.95 42.53 C3.98 38.63, 0.14 32.51, -0.31 27.22 C-0.75 21.93, 1.91 15.38, 5.27 10.77 C8.64 6.16, 17.69 1.19, 19.88 -0.45 C22.08 -2.09, 18.3 0.43, 18.43 0.93" stroke="none" stroke-width="0" fill="#fff6e5"></path><path d="M22.6 0.31 C27.61 -0.74, 34.17 0.6, 38.5 3.35 C42.84 6.11, 47.08 11.54, 48.6 16.84 C50.13 22.13, 49.59 29.96, 47.65 35.14 C45.7 40.33, 41.7 45.36, 36.91 47.95 C32.12 50.53, 24.28 51.84, 18.88 50.63 C13.49 49.42, 7.62 44.98, 4.55 40.7 C1.48 36.41, -0.02 30.21, 0.48 24.92 C0.98 19.62, 3.31 13.07, 7.53 8.93 C11.75 4.79, 22.15 1.35, 25.79 0.09 C29.43 -1.16, 29.52 1.14, 29.34 1.39 M20.75 0.14 C25.81 -0.91, 34.24 0.85, 39.05 3.73 C43.86 6.62, 48.22 12.17, 49.62 17.46 C51.03 22.75, 49.91 30.47, 47.49 35.47 C45.07 40.46, 39.91 45.08, 35.1 47.45 C30.3 49.81, 23.43 50.66, 18.65 49.66 C13.88 48.67, 9.78 45.74, 6.46 41.47 C3.14 37.19, -1.26 29.76, -1.27 24.02 C-1.29 18.27, 2.42 10.95, 6.36 7 C10.3 3.04, 19.66 1.3, 22.37 0.27 C25.08 -0.77, 22.62 0.34, 22.62 0.79" stroke="black" stroke-width="1" fill="none"></path></g><g transform="translate(26.84687805175787 464.97796144535766) rotate(0 8 16)"><text x="0" y="26" font-family="Helvetica, Segoe UI Emoji" font-size="28px" fill="black" text-anchor="start" style="white-space: pre;" direction="ltr">3</text></g><g transform="translate(102.7335510253908 214.8847874646448) rotate(0 46.5 16)"><text x="46.5" y="26" font-family="Helvetica, Segoe UI Emoji" font-size="28px" fill="black" text-anchor="middle" style="white-space: pre;" direction="ltr">Legend</text></g><g stroke-linecap="round" transform="translate(10 645.163885975387) rotate(0 25.152130126953068 25.152130126953068)"><path d="M32.83 1.1 C37.69 2.42, 42.82 7.17, 45.73 11.62 C48.65 16.07, 50.83 22.37, 50.33 27.79 C49.84 33.21, 46.7 40.37, 42.76 44.12 C38.83 47.87, 32.29 50.09, 26.74 50.29 C21.19 50.49, 13.8 48.56, 9.48 45.3 C5.16 42.05, 1.84 36.23, 0.83 30.78 C-0.19 25.33, 1 17.47, 3.38 12.62 C5.75 7.77, 9.57 3.44, 15.09 1.67 C20.61 -0.09, 32.51 1.48, 36.51 2.04 C40.51 2.61, 39.25 4.59, 39.07 5.05 M18.93 0.67 C23.62 -1.3, 30.54 -0.85, 35.39 1.59 C40.25 4.04, 45.55 10.44, 48.07 15.33 C50.58 20.22, 51.8 26.07, 50.5 30.93 C49.2 35.8, 45 41.25, 40.27 44.52 C35.55 47.8, 27.66 50.83, 22.15 50.57 C16.63 50.32, 10.89 46.81, 7.17 42.98 C3.46 39.15, 0.23 33.15, -0.12 27.57 C-0.48 22, 2.21 13.88, 5.05 9.54 C7.88 5.19, 14.53 2.75, 16.9 1.5 C19.26 0.26, 19.12 1.61, 19.24 2.08" stroke="none" stroke-width="0" fill="#e98d5e"></path><path d="M25.04 -0.24 C30.04 -0.55, 36.51 2.52, 40.48 5.95 C44.46 9.37, 47.87 15.08, 48.89 20.32 C49.9 25.56, 48.88 32.54, 46.58 37.4 C44.28 42.25, 40.15 47.5, 35.06 49.45 C29.97 51.39, 21.34 51.06, 16.04 49.05 C10.75 47.05, 5.88 42.04, 3.29 37.4 C0.7 32.77, -0.46 26.42, 0.49 21.22 C1.44 16.02, 4.76 9.71, 8.99 6.21 C13.22 2.71, 22.93 1.13, 25.89 0.21 C28.86 -0.72, 26.71 0.43, 26.79 0.66 M29.39 0.91 C34.3 1.36, 39.56 4.08, 42.9 7.94 C46.25 11.8, 49.07 18.48, 49.48 24.09 C49.9 29.7, 48.81 37.37, 45.41 41.61 C42.02 45.84, 34.73 48.83, 29.11 49.52 C23.49 50.21, 16.04 48.33, 11.69 45.74 C7.33 43.14, 4.66 38.81, 2.98 33.94 C1.31 29.07, 0.16 21.4, 1.62 16.53 C3.09 11.66, 7.41 7.6, 11.79 4.74 C16.17 1.89, 25.02 -0.17, 27.91 -0.6 C30.81 -1.03, 29.15 1.83, 29.14 2.16" stroke="black" stroke-width="1" fill="none"></path></g><g transform="translate(27.761260986328182 652.7476033215781) rotate(0 8 16)"><text x="0" y="26" font-family="Helvetica, Segoe UI Emoji" font-size="28px" fill="black" text-anchor="start" style="white-space: pre;" direction="ltr">5</text></g><g transform="translate(77.69805908203153 272.114096546676) rotate(0 101.5 23)"><text x="0" y="18" font-family="Helvetica, Segoe UI Emoji" font-size="20px" fill="black" text-anchor="start" style="white-space: pre;" direction="ltr">External authentication</text><text x="0" y="41" font-family="Helvetica, Segoe UI Emoji" font-size="20px" fill="black" text-anchor="start" style="white-space: pre;" direction="ltr">for client requests.</text></g><g transform="translate(77.69805908203153 366.50948419621216) rotate(0 126 23)"><text x="0" y="18" font-family="Helvetica, Segoe UI Emoji" font-size="20px" fill="black" text-anchor="start" style="white-space: pre;" direction="ltr">Filters you can apply</text><text x="0" y="41" font-family="Helvetica, Segoe UI Emoji" font-size="20px" fill="black" text-anchor="start" style="white-space: pre;" direction="ltr">before or after external auth.</text></g><g transform="translate(77.69805908203153 460.9048718457482) rotate(0 144 23)"><text x="0" y="18" font-family="Helvetica, Segoe UI Emoji" font-size="20px" fill="black" text-anchor="start" style="white-space: pre;" direction="ltr">Filters you can apply only before</text><text x="0" y="41" font-family="Helvetica, Segoe UI Emoji" font-size="20px" fill="black" text-anchor="start" style="white-space: pre;" direction="ltr">external auth.</text></g><g transform="translate(77.69805908203153 649.6956471448204) rotate(0 163.5 23)"><text x="0" y="18" font-family="Helvetica, Segoe UI Emoji" font-size="20px" fill="black" text-anchor="start" style="white-space: pre;" direction="ltr">Router to add or remove</text><text x="0" y="41" font-family="Helvetica, Segoe UI Emoji" font-size="20px" fill="black" text-anchor="start" style="white-space: pre;" direction="ltr">headers, rewrites, and other policies.</text></g><g stroke-linecap="round" transform="translate(10 550.6019181256555) rotate(0 25.152130126953068 25.152130126953068)"><path d="M26.76 -0.39 C31.92 -0.24, 39.96 3.52, 43.75 7.46 C47.54 11.4, 49.08 17.92, 49.52 23.26 C49.96 28.6, 49.61 35.12, 46.4 39.5 C43.19 43.89, 35.62 48.23, 30.26 49.59 C24.91 50.95, 18.89 50.11, 14.28 47.66 C9.68 45.2, 4.76 39.6, 2.64 34.85 C0.52 30.1, 0.08 24.15, 1.57 19.15 C3.06 14.14, 6.26 7.67, 11.57 4.83 C16.89 1.98, 28.92 2.11, 33.44 2.09 C37.95 2.07, 38.77 4.53, 38.68 4.71 M37.35 2.27 C42.03 4.27, 45.38 10.84, 47.18 16 C48.97 21.16, 49.54 28.21, 48.13 33.22 C46.72 38.23, 43.01 43.22, 38.72 46.03 C34.42 48.84, 27.39 50.61, 22.36 50.09 C17.33 49.56, 12.2 46.91, 8.54 42.9 C4.88 38.89, 1.21 31.39, 0.4 26.02 C-0.42 20.65, 0.51 14.92, 3.64 10.67 C6.78 6.41, 13.9 2.07, 19.23 0.49 C24.56 -1.09, 33.03 0.97, 35.64 1.2 C38.25 1.43, 35.06 1.2, 34.91 1.84" stroke="none" stroke-width="0" fill="#d4d8de"></path><path d="M13.59 2.84 C18.11 0.19, 26.65 -0.43, 32.04 0.68 C37.42 1.8, 42.74 5.26, 45.89 9.52 C49.03 13.77, 51.45 20.73, 50.89 26.24 C50.34 31.74, 46.38 38.47, 42.55 42.56 C38.72 46.65, 33.19 50.3, 27.93 50.78 C22.67 51.27, 15.65 48.72, 11.01 45.46 C6.37 42.2, 1.44 36.45, 0.09 31.22 C-1.25 26, 0.54 18.95, 2.95 14.1 C5.37 9.26, 12.41 4.19, 14.56 2.14 C16.71 0.08, 15.55 1.57, 15.86 1.79 M15.08 2.86 C19.75 0.66, 29.37 -0.26, 34.63 1.51 C39.88 3.28, 44.24 9, 46.61 13.47 C48.99 17.94, 49.69 23.43, 48.88 28.31 C48.06 33.19, 45.55 39.04, 41.72 42.75 C37.89 46.45, 31.16 50.33, 25.89 50.55 C20.61 50.77, 14.11 47.69, 10.07 44.07 C6.03 40.45, 2.76 33.75, 1.65 28.82 C0.54 23.88, 1.2 19.12, 3.41 14.45 C5.61 9.79, 12.75 2.69, 14.88 0.8 C17.01 -1.09, 15.74 2.8, 16.18 3.12" stroke="black" stroke-width="1" fill="none"></path></g><g transform="translate(26.76570129394537 559.5399292950891) rotate(0 8 16)"><text x="0" y="26" font-family="Helvetica, Segoe UI Emoji" font-size="28px" fill="black" text-anchor="start" style="white-space: pre;" direction="ltr">4</text></g><g transform="translate(77.69805908203153 555.3002594952843) rotate(0 135.5 23.00000000000003)"><text x="0" y="18" font-family="Helvetica, Segoe UI Emoji" font-size="20px" fill="black" text-anchor="start" style="white-space: pre;" direction="ltr">Filters you can apply only after</text><text x="0" y="41" font-family="Helvetica, Segoe UI Emoji" font-size="20px" fill="black" text-anchor="start" style="white-space: pre;" direction="ltr">external auth.</text></g></svg>