<svg xmlns="http://www.w3.org/2000/svg" width="59" height="59">
  <defs><style>.appAppIconB{fill:#2196c9}</style></defs>
  <path class="appAppIconB" d="M2.329 20.267l26.529 14.629a.891.891 0 00.876 0L56.275 20.26a1.27 1.27 0 00-.01-2.142L29.734 3.489a.889.889 0 00-.577-.107.939.939 0 00-.3.106L2.316 18.125a1.271 1.271 0 00-.389 1.743 1.28 1.28 0 00.402.399zm3.142-1.247L29.297 5.873l24.16 13.331-24.16 13.3-.1-.056-24.06-13.249z"/>
  <path class="appAppIconB" d="M2.335 30.734l26.539 13.938a.892.892 0 00.845 0l26.542-13.939a1.187 1.187 0 00.63-.97 1.257 1.257 0 00-.453-1.109.9.9 0 00-1.015-.077L29.296 42.283l-.1-.051L3.174 28.583a.894.894 0 00-.494-.128h-.006a1.084 1.084 0 00-.969.95 1.227 1.227 0 00.63 1.329z"/>
  <path class="appAppIconB" d="M56.435 38.407a.9.9 0 00-1.015-.076L29.296 52.04l-.1-.051L3.177 38.335a.92.92 0 00-.451-.13h-.032a1.082 1.082 0 00-.987.952 1.227 1.227 0 00.625 1.331l26.542 13.939a.886.886 0 00.844 0l26.542-13.94a1.185 1.185 0 00.63-.97 1.258 1.258 0 00-.455-1.11z"/>
</svg>