<svg xmlns="http://www.w3.org/2000/svg" width="29.098" height="29" viewBox="0 0 29.098 29"><defs><style>.a{fill:#252f3e;}.b{fill:#fff;}.c{fill:#f90;}</style></defs><g transform="translate(-47.902 -186)"><path class="a" d="M14.5,0h.1a14.5,14.5,0,0,1,0,29h-.1a14.5,14.5,0,0,1,0-29Z" transform="translate(47.902 186)"/><g transform="translate(2.535 84.546)"><path class="b" d="M66.983,114.514a2.045,2.045,0,0,0,.074.6,3.62,3.62,0,0,0,.216.487.294.294,0,0,1,.047.155.268.268,0,0,1-.128.2l-.426.284a.324.324,0,0,1-.176.061.311.311,0,0,1-.2-.095,2.091,2.091,0,0,1-.243-.318c-.068-.115-.135-.243-.21-.4a2.5,2.5,0,0,1-1.987.933,1.852,1.852,0,0,1-1.352-.487,1.907,1.907,0,0,1,.115-2.69,2.459,2.459,0,0,1,1.656-.527,5.354,5.354,0,0,1,.716.054c.25.034.507.088.777.149v-.493a1.5,1.5,0,0,0-.318-1.082,1.556,1.556,0,0,0-1.1-.311,3.076,3.076,0,0,0-.73.088,5.386,5.386,0,0,0-.73.23,1.948,1.948,0,0,1-.237.088.414.414,0,0,1-.108.02c-.095,0-.142-.068-.142-.21v-.331a.428.428,0,0,1,.047-.237.505.505,0,0,1,.189-.142,3.893,3.893,0,0,1,.852-.3,4.1,4.1,0,0,1,1.055-.128,2.47,2.47,0,0,1,1.771.548,2.237,2.237,0,0,1,.561,1.663v2.19Zm-2.744,1.028a2.191,2.191,0,0,0,.7-.122,1.506,1.506,0,0,0,.642-.433,1.073,1.073,0,0,0,.23-.433,2.427,2.427,0,0,0,.068-.588v-.284a5.642,5.642,0,0,0-.622-.115,5.094,5.094,0,0,0-.635-.041,1.558,1.558,0,0,0-1.007.27.966.966,0,0,0,.629,1.744Zm5.428.73a.377.377,0,0,1-.257-.068.551.551,0,0,1-.142-.264l-1.589-5.225a1.184,1.184,0,0,1-.061-.27.148.148,0,0,1,.162-.169h.662a.375.375,0,0,1,.264.068.553.553,0,0,1,.135.264l1.136,4.475,1.055-4.475a.474.474,0,0,1,.128-.264.465.465,0,0,1,.27-.068h.541a.407.407,0,0,1,.27.068.455.455,0,0,1,.128.264l1.068,4.529,1.169-4.529a.58.58,0,0,1,.135-.264.441.441,0,0,1,.264-.068h.629a.15.15,0,0,1,.169.169.675.675,0,0,1-.014.108.961.961,0,0,1-.047.169l-1.629,5.225a.518.518,0,0,1-.142.264.432.432,0,0,1-.257.068h-.581a.407.407,0,0,1-.27-.068.479.479,0,0,1-.128-.27l-1.048-4.36-1.041,4.353a.527.527,0,0,1-.128.27.419.419,0,0,1-.27.068Zm8.687.183a4.474,4.474,0,0,1-1.041-.122,3.076,3.076,0,0,1-.777-.27.487.487,0,0,1-.21-.189.477.477,0,0,1-.041-.189v-.345c0-.142.054-.21.155-.21a.383.383,0,0,1,.122.02c.041.014.1.041.169.068a3.678,3.678,0,0,0,.744.237,4.059,4.059,0,0,0,.8.081,1.824,1.824,0,0,0,.987-.223.728.728,0,0,0,.352-.642.658.658,0,0,0-.183-.473,1.7,1.7,0,0,0-.683-.352l-.98-.3a2.062,2.062,0,0,1-1.082-.69,1.611,1.611,0,0,1-.338-.98,1.5,1.5,0,0,1,.183-.75,1.738,1.738,0,0,1,.487-.554,2.146,2.146,0,0,1,.7-.352,2.946,2.946,0,0,1,.852-.115,3.392,3.392,0,0,1,.453.027c.155.02.3.047.439.074s.264.068.385.108a1.476,1.476,0,0,1,.284.122.585.585,0,0,1,.2.169.364.364,0,0,1,.061.223v.318c0,.142-.054.216-.155.216a.7.7,0,0,1-.257-.081,3.093,3.093,0,0,0-1.3-.264,1.745,1.745,0,0,0-.9.189.653.653,0,0,0-.318.6.638.638,0,0,0,.2.48,2.019,2.019,0,0,0,.744.372l.96.3a2.056,2.056,0,0,1,1.048.649,1.53,1.53,0,0,1,.311.946,1.738,1.738,0,0,1-.176.784,1.818,1.818,0,0,1-.493.595,2.179,2.179,0,0,1-.75.379A3.215,3.215,0,0,1,78.354,116.454Z" transform="translate(-11.591 0)"/><path class="c" d="M68.04,224.255a14.581,14.581,0,0,1-8.234,2.515,14.9,14.9,0,0,1-10.052-3.833c-.21-.189-.02-.446.23-.3a19.964,19.964,0,0,0,17.731,1.1C68.088,223.572,68.405,223.984,68.04,224.255Zm.926-1.055c-.284-.365-1.879-.176-2.6-.088-.216.027-.25-.162-.054-.3a4.015,4.015,0,0,1,3.6-.338c.243.3-.068,2.393-1.257,3.393-.183.155-.358.074-.277-.128C68.649,225.066,69.25,223.558,68.966,223.2Z" transform="translate(0 -104.515)"/></g></g></svg>