<svg xmlns="http://www.w3.org/2000/svg" width="32" height="32" viewBox="0 0 32 32"><defs><style>.codeSproketA,.codeSproketB{fill:#2196c9;}.codeSproketA{opacity:0;}</style></defs><rect class="codeSproketA" width="32" height="32"/><g transform="translate(0 0)"><path class="codeSproketB" d="M3.133,20.967l1.8.4A.065.065,0,0,1,5,21.433a15.212,15.212,0,0,0,1.4,3.4V24.9l-1,1.6a1.4,1.4,0,0,0,.2,1.733l2.2,2.2a1.415,1.415,0,0,0,1.733.2l1.6-1H11.2a15.212,15.212,0,0,0,3.4,1.4.065.065,0,0,1,.067.067l.4,1.8a1.427,1.427,0,0,0,1.4,1.133H19.6A1.484,1.484,0,0,0,21,32.9l.4-1.8.067-.067a15.212,15.212,0,0,0,3.4-1.4l-.333-.6.4.6,1.6,1a1.4,1.4,0,0,0,1.733-.2l2.2-2.2a1.415,1.415,0,0,0,.2-1.733l-1-1.6v-.067a15.212,15.212,0,0,0,1.4-3.4.065.065,0,0,1,.067-.067l1.8-.4A1.37,1.37,0,0,0,34,19.567V16.5a1.439,1.439,0,0,0-1.067-1.4l-1.867-.4L31,14.633a15.212,15.212,0,0,0-1.4-3.4v-.067l1-1.6a1.415,1.415,0,0,0-.2-1.733l-2.2-2.2a1.415,1.415,0,0,0-1.733-.2l-1.6,1H24.8a15.212,15.212,0,0,0-3.4-1.4.065.065,0,0,1-.067-.067l-.4-1.8a1.37,1.37,0,0,0-1.4-1.067H16.4A1.5,1.5,0,0,0,15,3.167l-.333,1.8a.065.065,0,0,1-.067.067,15.212,15.212,0,0,0-3.4,1.4l.333.6-.4-.533-1.6-1A1.415,1.415,0,0,0,7.8,5.7L5.6,7.9a1.415,1.415,0,0,0-.2,1.733l1,1.6V11.3A15.212,15.212,0,0,0,5,14.7a.065.065,0,0,1-.067.067l-1.8.4A1.427,1.427,0,0,0,2,16.567v3.067A1.411,1.411,0,0,0,3.133,20.967Zm.2-4.467c0-.067,0-.067.067-.067l1.8-.4a1.447,1.447,0,0,0,1.067-1.067,9.915,9.915,0,0,1,1.267-3,1.444,1.444,0,0,0,0-1.467l-1-1.6V8.767l2.2-2.2h.133l1.6,1a1.444,1.444,0,0,0,1.467,0,13.065,13.065,0,0,1,3-1.267A1.447,1.447,0,0,0,16,5.233l.4-1.8c0-.067,0-.067.067-.067H19.6c.067,0,.067,0,.067.067l.4,1.8a1.475,1.475,0,0,0,1,1.067,9.915,9.915,0,0,1,3,1.267,1.444,1.444,0,0,0,1.467,0l1.6-1H27.2l2.2,2.2V8.9l-1,1.6a1.444,1.444,0,0,0,0,1.467,11.936,11.936,0,0,1,1.267,3,1.275,1.275,0,0,0,1.067,1l1.8.4a.065.065,0,0,1,.067.067V19.5c0,.067,0,.067-.067.067l-1.8.4a1.475,1.475,0,0,0-1.067,1,9.915,9.915,0,0,1-1.267,3,1.444,1.444,0,0,0,0,1.467l1,1.6v.133l-2.2,2.2h-.133l-1.6-1a1.444,1.444,0,0,0-1.467,0,13.065,13.065,0,0,1-3,1.267A1.275,1.275,0,0,0,20,30.7l-.4,1.8a.065.065,0,0,1-.067.067H16.4a.065.065,0,0,1-.067-.067l-.4-1.8a1.447,1.447,0,0,0-1.067-1.067,9.915,9.915,0,0,1-3-1.267,1.444,1.444,0,0,0-1.467,0l-1.6,1H8.733l-2.2-2.2v-.133l1-1.6a1.444,1.444,0,0,0,0-1.467,11.936,11.936,0,0,1-1.267-3,1.275,1.275,0,0,0-1.067-1l-1.8-.4c-.067.067-.067.067-.067,0Z" transform="translate(-2 -2.1)"/><path class="codeSproketB" d="M22.042,31.479A9.44,9.44,0,1,0,12.6,22.04,9.441,9.441,0,0,0,22.042,31.479Zm0-17.47a8.031,8.031,0,1,1-8.033,8.031A8.028,8.028,0,0,1,22.042,14.009Z" transform="translate(-6.042 -6.104)"/><path class="codeSproketB" d="M23.28,27.324a.614.614,0,0,0,.8-.309l2.6-5.939a.609.609,0,1,0-1.114-.495l-2.6,5.939A.614.614,0,0,0,23.28,27.324Z" transform="translate(-8.827 -7.865)"/><path class="codeSproketB" d="M30.664,27.322l-1.3,1.052a.614.614,0,0,0,.8.928l1.918-1.547a.764.764,0,0,0,.247-.495.563.563,0,0,0-.247-.495l-1.918-1.547a.658.658,0,0,0-.866.062.745.745,0,0,0,.062.99Z" transform="translate(-10.892 -9.571)"/><path class="codeSproketB" d="M19.965,24.063a.614.614,0,0,0,.8-.928l-1.3-1.052,1.3-1.052a.614.614,0,0,0-.8-.928L18.047,21.65a.764.764,0,0,0-.247.495.563.563,0,0,0,.247.495Z" transform="translate(-7.175 -7.905)"/></g></svg>