<svg xmlns="http://www.w3.org/2000/svg" viewBox="0 0 163.141 37.123">
    <defs>
        <style>
            .company-logo-a{fill:#adb3bc}.company-logo-b{fill:#6e7477}
        </style>
    </defs>
    <path d="M19.172 36.4a14.637 14.637 0 01-14.32-24.8 14.62 14.62 0 003.971 13.383c.183.183.369.36.56.533.054.251.115.5.183.756A14.617 14.617 0 0019.172 36.4zM27.491 36.62a14.547 14.547 0 01-8.318-.22 14.619 14.619 0 009.6-10.128c.069-.251.129-.5.181-.754.193-.173.379-.35.564-.535A14.62 14.62 0 0033.487 11.6a14.637 14.637 0 01-6 25.02z" class="company-logo-a"/>
    <path d="M28.957 25.519c-.052.251-.113.5-.18.754a9.619 9.619 0 11-19.21 0 14.54 14.54 0 01-.183-.756 14.635 14.635 0 0019.573.002z" class="company-logo-b"/>
    <path d="M33.489 11.6a14.621 14.621 0 00-13.574-3.253c-.251.068-.5.14-.743.222-.245-.08-.494-.153-.745-.222A14.625 14.625 0 004.851 11.6a14.637 14.637 0 0128.637 0z" class="company-logo-a"/>
    <path d="M9.382 25.517c-.19-.173-.377-.35-.56-.533a9.619 9.619 0 119.606-16.636c.25.068.5.142.744.222a14.636 14.636 0 00-9.79 16.947zM29.521 24.984c-.185.185-.371.362-.564.535A14.635 14.635 0 0019.173 8.57c.244-.082.492-.154.743-.222a9.618 9.618 0 119.605 16.636z" class="company-logo-b"/>
    <path fill="#35393b" d="M50.093 24.511a4.745 4.745 0 01-2.468-.686 5.129 5.129 0 01-1.831-1.846 4.942 4.942 0 010-5 5.147 5.147 0 011.831-1.84 4.8 4.8 0 014.364-.3 4.958 4.958 0 011.6 1.1l-.75.764a3.889 3.889 0 00-1.253-.904 3.619 3.619 0 00-3.409.219 4.072 4.072 0 00-1.414 1.471 4 4 0 000 3.981 4.148 4.148 0 001.414 1.469 3.6 3.6 0 003.409.226 3.889 3.889 0 001.252-.905l.75.764a5.171 5.171 0 01-1.6 1.089 4.679 4.679 0 01-1.895.398zm9.688 0a4.745 4.745 0 01-2.468-.686 5.129 5.129 0 01-1.831-1.846 4.942 4.942 0 010-5 5.147 5.147 0 011.832-1.84 4.745 4.745 0 012.468-.686 4.7 4.7 0 012.468.686 5.184 5.184 0 011.817 1.839 4.942 4.942 0 010 5 5.166 5.166 0 01-1.817 1.846 4.7 4.7 0 01-2.468.687zm0-1.018a3.553 3.553 0 001.916-.552 4.089 4.089 0 001.407-1.471 4.048 4.048 0 000-3.981 4.015 4.015 0 00-1.407-1.471 3.645 3.645 0 00-3.833 0 4.072 4.072 0 00-1.413 1.471 4 4 0 000 3.981 4.148 4.148 0 001.414 1.469 3.553 3.553 0 001.917.554zm7.213-8.868h1.1l3.611 6.774 3.607-6.775h1.1v9.715h-1.1v-7.338l-3.607 6.775-3.607-6.775v7.338h-1.1zm12.4 0h3.946a4.109 4.109 0 011.81.4 3.169 3.169 0 011.294 1.11 2.839 2.839 0 01.475 1.604 2.839 2.839 0 01-.47 1.6 3.169 3.169 0 01-1.294 1.11 4.109 4.109 0 01-1.81.4h-2.843v3.49h-1.1zm3.748 5.176a3.118 3.118 0 001.931-.552 1.8 1.8 0 00.732-1.51 1.8 1.8 0 00-.728-1.513 3.118 3.118 0 00-1.931-.552h-2.644v4.13zm12.253 2.338h-5.417l-.976 2.2h-1.2l4.285-9.716h1.2l4.286 9.716h-1.2zm-.453-1.047l-2.249-5.11-2.263 5.106zm4.427-6.467h1.1l6.025 7.906v-7.906h1.1v9.714h-1.1l-6.022-7.9v7.9h-1.1zm13.86 5.756l-3.917-5.756h1.372l3.125 4.714 3.154-4.71h1.329l-3.9 5.756v3.954h-1.163zm16.972 2.914v1.044h-6.406v-9.714h1.1v8.67zm6.025 1.216a4.745 4.745 0 01-2.468-.686 5.129 5.129 0 01-1.831-1.846 4.942 4.942 0 010-5 5.147 5.147 0 011.832-1.84 4.745 4.745 0 012.468-.686 4.7 4.7 0 012.468.686 5.184 5.184 0 011.817 1.839 4.942 4.942 0 010 5 5.166 5.166 0 01-1.817 1.846 4.7 4.7 0 01-2.468.687zm0-1.018a3.553 3.553 0 001.916-.552 4.089 4.089 0 001.407-1.471 4.048 4.048 0 000-3.981 4.015 4.015 0 00-1.407-1.471 3.645 3.645 0 00-3.833 0 4.072 4.072 0 00-1.413 1.471 4 4 0 000 3.981 4.148 4.148 0 001.414 1.469 3.553 3.553 0 001.917.554zm11.329-4.271h3.889v3.8a4.891 4.891 0 01-1.718 1.082 5.662 5.662 0 01-2.058.4 4.745 4.745 0 01-2.468-.686 5.129 5.129 0 01-1.831-1.839 4.942 4.942 0 010-5 5.147 5.147 0 011.831-1.84 4.745 4.745 0 012.468-.686 5.717 5.717 0 012.065.4 4.734 4.734 0 011.712 1.086l-.75.764a3.8 3.8 0 00-1.372-.891 4.44 4.44 0 00-1.655-.339 3.587 3.587 0 00-1.916.545 4.072 4.072 0 00-1.414 1.471 4 4 0 000 3.981 4.148 4.148 0 001.414 1.471 3.553 3.553 0 001.916.552 4.365 4.365 0 001.407-.248 4.4 4.4 0 001.266-.658v-2.319h-2.786zm10.622 5.29a4.745 4.745 0 01-2.468-.686 5.129 5.129 0 01-1.832-1.846 4.942 4.942 0 010-5 5.147 5.147 0 011.832-1.841 4.745 4.745 0 012.468-.686 4.7 4.7 0 012.468.686 5.184 5.184 0 011.817 1.839 4.942 4.942 0 010 5 5.166 5.166 0 01-1.817 1.846 4.7 4.7 0 01-2.468.687zm0-1.018a3.553 3.553 0 001.916-.552 4.089 4.089 0 001.407-1.471 4.048 4.048 0 000-3.981 4.015 4.015 0 00-1.407-1.471 3.645 3.645 0 00-3.833 0 4.072 4.072 0 00-1.414 1.471 4 4 0 000 3.981 4.148 4.148 0 001.414 1.471 3.553 3.553 0 001.917.551z"/>
</svg>
