<svg xmlns="http://www.w3.org/2000/svg" viewBox="0 0 136.039 59.489">
    <path d="M67.749 36.782l9.181-9.181-9.181-9.18-1.013 1.013 8.169 8.167-8.169 8.171zM81.429 22.475h7.788v1.432h-7.788zM94.063 22.475h11.597v1.432H94.063zM111.918 22.475h2.042v1.432h-2.042zM119.733 22.475h2.526v1.432h-2.526zM114.47 26.888h7.788v1.432h-7.788zM98.027 26.888h11.595v1.432H98.027zM89.727 26.888h2.043v1.432h-2.043zM81.429 26.888h2.526v1.432h-2.526zM81.429 31.301h7.788v1.432h-7.788zM94.063 31.301h11.597v1.432H94.063zM111.918 31.301h2.042v1.432h-2.042zM119.733 31.301h2.526v1.432h-2.526zM67.242 40.291h10.494v1.432H67.242zM84.268 40.291h15.627v1.432H84.268zM108.324 40.291h2.752v1.432h-2.752zM118.855 40.291h3.403v1.432h-3.403zM111.765 46.237h10.494v1.432h-10.494zM89.606 46.237h15.626v1.432H89.606zM78.423 46.237h2.752v1.432h-2.752zM67.242 46.237h3.402v1.432h-3.402zM67.242 52.182h10.494v1.432H67.242zM84.268 52.182h7.991v1.432h-7.991zM108.324 52.182h2.752v1.432h-2.752zM118.855 52.182h3.403v1.432h-3.403z"/>
    <path d="M130.811 0H58.686a5.229 5.229 0 00-5.224 5.224v49.041a5.229 5.229 0 005.224 5.224h72.125a5.23 5.23 0 005.224-5.224V5.224A5.23 5.23 0 00130.811 0zm3.8 54.265a3.8 3.8 0 01-3.8 3.792H58.686a3.8 3.8 0 01-3.792-3.792V14.619h79.717v39.646zm0-41.08H54.893V5.224a3.8 3.8 0 013.792-3.792h72.126a3.8 3.8 0 013.8 3.792z"/>
    <path d="M59.403 9.04h16.534V5.579H59.403zm1.432-2.029h13.67v.6h-13.67zM127.289 4.502a2.807 2.807 0 102.807 2.807 2.809 2.809 0 00-2.807-2.807zm0 4.181a1.375 1.375 0 111.375-1.375 1.376 1.376 0 01-1.375 1.375z"/>
    <g>
        <path d="M1.623 33.7l2.578.573a.093.093 0 01.1.1 21.783 21.783 0 002 4.869v.1l-1.432 2.281a2.011 2.011 0 00.286 2.482l3.15 3.15a2.026 2.026 0 002.482.286l2.291-1.432h.1a21.783 21.783 0 004.869 2 .093.093 0 01.1.1l.573 2.578a2.043 2.043 0 002 1.623h4.48a2.125 2.125 0 002-1.623l.573-2.578.1-.1a21.783 21.783 0 004.869-2l-.477-.859.573.859 2.291 1.432a2.011 2.011 0 002.482-.286l3.15-3.15a2.026 2.026 0 00.286-2.482l-1.432-2.291v-.1a21.783 21.783 0 002-4.869.093.093 0 01.1-.1l2.578-.573a1.962 1.962 0 001.527-2v-4.386a2.061 2.061 0 00-1.527-2l-2.673-.573-.1-.1a21.783 21.783 0 00-2-4.869v-.1l1.432-2.291a2.026 2.026 0 00-.286-2.482l-3.15-3.15a2.026 2.026 0 00-2.482-.286l-2.289 1.435h-.1a21.783 21.783 0 00-4.869-2 .093.093 0 01-.1-.1l-.573-2.578a1.962 1.962 0 00-2-1.527h-4.482a2.149 2.149 0 00-2 1.527l-.477 2.578a.093.093 0 01-.1.1 21.783 21.783 0 00-4.869 2l.477.859-.573-.764-2.291-1.431a2.026 2.026 0 00-2.482.286l-3.15 3.15a2.026 2.026 0 00-.286 2.482l1.43 2.292v.1a21.783 21.783 0 00-2 4.869.093.093 0 01-.1.1l-2.578.573a2.043 2.043 0 00-1.623 2v4.391A2.02 2.02 0 001.623 33.7zm.286-6.4c0-.1 0-.1.1-.1l2.578-.573a2.072 2.072 0 001.523-1.519 14.2 14.2 0 011.814-4.3 2.068 2.068 0 000-2.1L6.492 16.42v-.191l3.15-3.15h.191l2.291 1.432a2.068 2.068 0 002.1 0 18.708 18.708 0 014.3-1.814 2.072 2.072 0 001.527-1.527l.573-2.578c0-.1 0-.1.1-.1H25.2c.1 0 .1 0 .1.1l.573 2.578a2.112 2.112 0 001.427 1.527 14.2 14.2 0 014.3 1.814 2.068 2.068 0 002.1 0l2.29-1.428h.1l3.15 3.15v.191l-1.44 2.288a2.068 2.068 0 000 2.1 17.092 17.092 0 011.814 4.3 1.826 1.826 0 001.527 1.432l2.578.573a.093.093 0 01.1.1v4.391c0 .1 0 .1-.1.1l-2.578.573a2.112 2.112 0 00-1.527 1.432 14.2 14.2 0 01-1.814 4.3 2.068 2.068 0 000 2.1l1.436 2.27v.191l-3.15 3.15h-.191L33.6 44.296a2.068 2.068 0 00-2.1 0 18.708 18.708 0 01-4.3 1.814 1.826 1.826 0 00-1.432 1.527l-.568 2.578a.093.093 0 01-.1.1h-4.479a.093.093 0 01-.1-.1l-.573-2.578a2.072 2.072 0 00-1.527-1.527 14.2 14.2 0 01-4.3-1.814 2.068 2.068 0 00-2.1 0L9.73 45.728h-.1l-3.15-3.15v-.195l1.432-2.291a2.068 2.068 0 000-2.1 17.092 17.092 0 01-1.814-4.3 1.826 1.826 0 00-1.527-1.432L2 31.695c-.1.1-.1.1-.1 0z"/>
        <path d="M22.911 42.292a12.792 12.792 0 10-12.792-12.793 12.793 12.793 0 0012.792 12.793zm0-23.675a10.883 10.883 0 11-10.883 10.882 10.878 10.878 0 0110.883-10.883z"/>
        <path d="M20.525 34.941a.947.947 0 001.241-.477l4.01-9.165a.94.94 0 00-1.718-.764L20.051 33.7a.947.947 0 00.474 1.241zM28.258 32.077l-2 1.623a.947.947 0 101.241 1.432l2.954-2.391a1.179 1.179 0 00.382-.764.868.868 0 00-.382-.764l-2.959-2.382a1.015 1.015 0 00-1.337.1 1.15 1.15 0 00.1 1.527zM18.425 30.074a.947.947 0 101.241-1.432l-2-1.623 2-1.623a.947.947 0 10-1.241-1.432l-2.959 2.387a1.179 1.179 0 00-.382.764.868.868 0 00.382.764z"/>
    </g>
</svg>
