<svg xmlns="http://www.w3.org/2000/svg" width="9.89" height="10.196" viewBox="0 0 9.89 10.196"><defs><style>.download-a{fill:#6e7477;}</style></defs><g transform="translate(-6 -4.64)"><path class="download-a" d="M7.349,53.642h7.193a1.349,1.349,0,0,0,1.349-1.349V48.81a.45.45,0,0,0-.9,0v3.484a.45.45,0,0,1-.45.45H7.349a.45.45,0,0,1-.45-.45V48.81a.45.45,0,0,0-.9,0v3.484A1.349,1.349,0,0,0,7.349,53.642Z" transform="translate(0 -38.807)"/><path class="download-a" d="M26.835,4.64a.45.45,0,0,0-.45.45v4.9L24.769,8.368A.45.45,0,0,0,24.138,9l2.379,2.385h.006a.45.45,0,0,0,.063.052.221.221,0,0,0,.036.019.261.261,0,0,0,.088.036.233.233,0,0,1,.037.011.441.441,0,0,0,.176,0,.142.142,0,0,0,.037-.011.261.261,0,0,0,.088-.036l.036-.019a.45.45,0,0,0,.063-.052h.006L29.532,9a.45.45,0,0,0-.636-.636L27.285,9.985V5.09A.45.45,0,0,0,26.835,4.64Z" transform="translate(-16.003)"/></g></svg>