<svg xmlns="http://www.w3.org/2000/svg" width="86.529" height="64.56" viewBox="0 0 86.529 64.56">
    <defs>
        <style>
            .envoy-logo-a{fill:#953984;}.envoy-logo-a,.envooy-logo-b,.envoy-logo-c{fill-rule:evenodd;}.envoy-logo-b{fill:#ac6199;}.envoy-logo-c{fill:#c04589;}
        </style>
    </defs>
    <g transform="translate(0 0)">
        <path d="M56.279,81.853l.123,5.208,5.485,3.4-.123-5.212-5.485-3.4" class="envoy-logo-a" transform="translate(-34.718 -50.68)"/>
        <g transform="translate(0 31.018)">
            <path d="M82.959,44.117l-.12-5.1-4.806-2.978c-.071-.044-.134-.1-.2-.143l.121,5.118,5.009,3.1" class="envoy-logo-a" transform="translate(-48.012 -22.315)"/>
            <path d="M17.822,29.119l-12.54-7.77-.3-13.04,6.148-2.651L11,.449,1.19,4.679A1.915,1.915,0,0,0,0,6.507L.368,22.151a2.6,2.6,0,0,0,1.284,2.081l15.039,9.319a2.777,2.777,0,0,0,2.258.327c.075-.024.144-.051.213-.078l9.228-3.978-5.005-3.1-5.563,2.4" class="envoy-logo-a" transform="translate(0 -0.449)"/>
        </g>
        <path d="M119.564,58.948a3.027,3.027,0,0,0-1.5-2.425L99.809,45.207l-.564.243.129,5.475,14.458,8.957.346,14.65,5.529,3.427.3-.13-.444-18.881" class="envoy-logo-b" transform="translate(-61.223 -28.073)"/>
        <g transform="translate(13.292 0)">
            <path d="M23.877,87.711,6.915,77.2,6.5,59.552l7.728-3.329-.143-6.078-12,5.173A2.237,2.237,0,0,0,.7,57.452l.488,20.686a3,3,0,0,0,1.5,2.421L22.562,92.884a3.238,3.238,0,0,0,2.635.382,2.268,2.268,0,0,0,.248-.094l11.745-5.063-5.84-3.619-7.472,3.221" class="envoy-logo-b" transform="translate(-0.695 -31.12)"/>
            <path d="M70.9,53.071,48.741,39.341,48.2,16.3,69.808,6.983,91.961,20.707l.545,23.044ZM96.8,16.87,71.312,1.069a3.692,3.692,0,0,0-3.02-.433q-.141.045-.277.1L43.149,11.461a2.546,2.546,0,0,0-1.588,2.434l.625,26.519A3.455,3.455,0,0,0,43.9,43.184l25.49,15.8a3.691,3.691,0,0,0,3.012.437c.094-.03.191-.066.286-.106L97.555,48.593a2.55,2.55,0,0,0,1.585-2.439l-.623-26.514A3.456,3.456,0,0,0,96.8,16.87Z" class="envoy-logo-c" transform="translate(-25.905 -0.484)"/>
        </g>
    </g>
</svg>
