<svg xmlns="http://www.w3.org/2000/svg" viewBox="0 0 32 32">
    <path fill="none" d="M0 0h32v32H0z"/>
    <path d="M27.08 4.033a.962.962 0 00-.108.01h-7.618a.973.973 0 000 1.946h5.406L12.863 17.953a.977.977 0 000 1.376.964.964 0 001.369 0l11.9-11.964v5.436a.968.968 0 101.936 0V5.143a.977.977 0 00-.238-.783.965.965 0 00-.75-.327z"/>
    <path d="M13.547 7.936a55.431 55.431 0 00-5.7.162 5.5 5.5 0 00-3.445 1.351 5.562 5.562 0 00-1.338 3.469 56.576 56.576 0 00-.162 5.723 55.5 55.5 0 00.164 5.725 5.572 5.572 0 001.352 3.47 5.511 5.511 0 003.45 1.35 55.189 55.189 0 005.68.162 54.617 54.617 0 005.68-.165 5.52 5.52 0 003.451-1.353 5.577 5.577 0 001.348-3.469 55.281 55.281 0 00.166-5.718.968.968 0 10-1.936 0c0 2.421-.008 4.226-.153 5.5a3.783 3.783 0 01-.794 2.313 3.739 3.739 0 01-2.3.8c-1.264.145-3.058.152-5.463.152s-4.2-.007-5.463-.15a3.74 3.74 0 01-2.3-.793 3.781 3.781 0 01-.794-2.313c-.145-1.272-.153-3.078-.153-5.5s.005-4.232.147-5.5a3.777 3.777 0 01.786-2.311 3.729 3.729 0 012.3-.793c1.266-.144 3.063-.15 5.478-.15a.973.973 0 000-1.946z"/>
</svg>
