<svg xmlns="http://www.w3.org/2000/svg" xmlns:xlink="http://www.w3.org/1999/xlink" width="33.098" height="33" viewBox="0 0 33.098 33"><defs><style>.gateway-a{fill:#fff;}.gateway-b{clip-path:url(#a);}.gateway-c{fill:#54b7e3;stroke:#54b7e3;stroke-width:0.5px;}</style><clipPath id="a"><rect class="gateway-a" width="33.098" height="33" rx="16.5" transform="translate(329.216 106)"/></clipPath></defs><g transform="translate(-167.217 -208)"><rect class="gateway-a" width="33.098" height="33" rx="16.5" transform="translate(167.217 208)"/><g class="gateway-b" transform="translate(-162 102)"><g transform="translate(-22.295 114.929)"><rect class="gateway-c" width="25.525" height="0.84" transform="translate(332.492 7.396)"/><rect class="gateway-c" width="1.947" height="0.84" transform="translate(357.196 7.396)"/><path class="gateway-c" d="M368.152,16.532V13.217h-9.784v-.853H369v2.525l10.049-7.071L369,.845V3.376h-19.95l-4.039-5.947L321-2.505l0-.853,24.47-.067,4.04,5.948h18.646V-.785l12.39,8.6Z"/><rect class="gateway-c" width="1.946" height="0.84" transform="translate(365.091 7.396)"/><rect class="gateway-c" width="1.947" height="0.84" transform="translate(361.197 7.396)"/><rect class="gateway-c" width="25.04" height="0.853" transform="translate(334.209 12.365)"/></g></g></g></svg>