<svg xmlns="http://www.w3.org/2000/svg" viewBox="0 0 133.03 90.17">
    <defs>
        <style>
            .glooeCls-1{fill:#5aacd8;}.glooeCls-1,.glooeCls-10,.glooeCls-11,.glooeCls-12,.glooeCls-2,.glooeCls-3,.glooeCls-4,.glooeCls-5,.glooeCls-6,.glooeCls-7,.glooeCls-9{fill-rule:evenodd;}.glooeCls-2{opacity:0.24;}.glooeCls-3{fill:#64bbe4;}.glooeCls-4{fill:#fff;}.glooeCls-5{fill:#f4fafb;}.glooeCls-6{fill:#003c6a;}.glooeCls-7{fill:#dbecef;}.glooeCls-8{fill:#3f2c2c;}.glooeCls-9{fill:#8e6a3e;}.glooeCls-10{fill:#715435;}.glooeCls-11{fill:#ff391a;}.glooeCls-12{fill:#d61e1e;}
        </style>
    </defs>
    <title>
        GlooEE
    </title>
    <g id="Layer_2" data-name="Layer 2">
        <g id="Layer_1-2" data-name="Layer 1">
            <path d="M46.23,11.84a22.86,22.86,0,0,1,8.34,6L50.8,20.69c-1-1.05-8.24-.66-7.17-1.5,2.15-1.67.8-3.14-1.14-3.94C38.83,13.11,37.7,22.82,28.41,20c-6.21-1.87-9-7.67-7.08-13.12S29.78-1.35,36,.64a8.11,8.11,0,0,1,5.78,7.41c.28,3.34.61,2.17,4.5,3.79" class="glooeCls-1"/>
            <path d="M102.18,52.3c-1.34-3.11,10-10.93,16.86-17.15s11.08-4.21,13.06-1.79,1.09,8.21-5.29,12.58-23.29,9.47-24.63,6.36" class="glooeCls-1"/>
            <path d="M62.41,87c34.47,0,62.41.71,62.41,1.59s-27.94,1.59-62.41,1.59S0,89.46,0,88.58,27.94,87,62.41,87" class="glooeCls-2"/>
            <path d="M54.77,88.88c8.71,0,10.37-5.68,16.13-5.73s8.25,5.73,16.65,5.73c13.58,0,22.42-29.16,22.42-45.12C110,23.31,92.63,9.55,71.25,9.55S32.52,23.31,32.52,43.76c0,24.2,10.33,45.12,22.25,45.12" class="glooeCls-1"/>
            <path d="M103.1,58.64c-11.67,16-43.8,17.15-57.81.65.78,0,1.57,0,2.37,0a22.9,22.9,0,0,0,8-1.68,10.62,10.62,0,0,0,5.45-4.45A27.69,27.69,0,0,0,65,46.32c2.35-6.67,9.94-6.67,12.3,0,1,2.69,2.7,4.77,4.14,6.82a10.66,10.66,0,0,0,5.45,4.45,23,23,0,0,0,8,1.68,32.68,32.68,0,0,0,8.26-.63M72.91,10.52A34.54,34.54,0,0,1,104,30a75.61,75.61,0,0,0-9.76-.18C87,30.22,82.13,32,78,33.15c-3.78,1-10.79.77-14.61-.33a60.69,60.69,0,0,0-15.1-3,74.22,74.22,0,0,0-8,.05C44.69,17.3,57.56,10.52,72.91,10.52Z" class="glooeCls-3"/>
            <path d="M115.78,41.8c-.42-1.35,2.82-2.37,6.13-5.35s5.61-3.2,6-1.86-1.22,3.53-4.39,5.3-7.35,3.25-7.77,1.91" class="glooeCls-4"/>
            <path d="M102.4,31.54a1.81,1.81,0,0,1,1.86,1.38,1.35,1.35,0,0,1-.87,1.85,1.82,1.82,0,0,1-1.86-1.39,1.33,1.33,0,0,1,.87-1.84M71.82,20.94c-6.75,1.38-8.85-5.13-.32-7.19,10.69-2.58,25.86,4.39,30.41,14,1.22,2.55-.68,3.51-2.75.95C93.43,21.59,83.13,18.62,71.82,20.94Z" class="glooeCls-5"/>
            <path d="M34.06,1.8A4.21,4.21,0,0,1,38.26,6c0,4.23-8.38,4.44-8.38-.61,0-2.33,1.85-3.6,4.18-3.6" class="glooeCls-4"/>
            <path d="M43.76,47.71c1,3.22-11,9.94-18.39,15.49s-11.44,3.15-13.18.55-.32-8.27,6.45-12,24.07-7.24,25.12-4" class="glooeCls-1"/>
            <path d="M16.65,59.86a1.85,1.85,0,0,1-.21,2.35,1.35,1.35,0,0,1-2.07.14A1.85,1.85,0,0,1,14.59,60a1.34,1.34,0,0,1,2.06-.14m13.89-8.77c1,1-3.2.24-9.51,5.48-2.26,1.88-3.07,3.07-4.17,2.32-.47-.32-1.4-1.48,1.8-4S29.43,50,30.54,51.09Z" class="glooeCls-4"/>
            <path d="M71.27,49.93c5.52,0,7.55-2.06,10,.21s-2.15,9.76-10,9.76-12.26-7.41-10-9.76,4.53-.21,10-.21" class="glooeCls-6"/>
            <path d="M76.51,57.36a9.7,9.7,0,0,1-5.3,1.56,9.47,9.47,0,0,1-5.42-1.65c.12-1.78,3.11-2.73,5.36-1.56,2.35-1.17,5.31-.17,5.36,1.65" class="glooeCls-1"/>
            <path d="M71.27,50.81c3.8,0,5.89-.83,7.61-.82v.08a2.33,2.33,0,0,1-2.22,2.43,2,2,0,0,1-1.09-.32,2.5,2.5,0,0,1-4.28.27A2.49,2.49,0,0,1,67,52.14a2.07,2.07,0,0,1-1.17.36,2.34,2.34,0,0,1-2.22-2.43.41.41,0,0,1,0-.11c1.71,0,3.85.85,7.65.85" class="glooeCls-4"/>
            <path d="M28.89,38.55c1.05,1.28-.23,9.33,3.81,14.39,3.09,3.88,9,4.64,14.95,4.45a22.91,22.91,0,0,0,8-1.68,10.62,10.62,0,0,0,5.45-4.45,28.55,28.55,0,0,0,3.19-7.12,7.34,7.34,0,0,1,13.91,0,28.55,28.55,0,0,0,3.19,7.12,10.66,10.66,0,0,0,5.45,4.45,23,23,0,0,0,8,1.68c5.94.19,11.86-.57,15-4.45,4-5.06,2.76-13.11,3.81-14.39,2.15-2.28,1.69-8.55-2.25-9.4A72.46,72.46,0,0,0,94.24,28C87,28.34,82.13,30.14,78,31.28c-3.78,1-10.79.76-14.61-.34a60.69,60.69,0,0,0-15.1-3,72.5,72.5,0,0,0-17.11,1.2c-3.94.85-4.4,7.12-2.25,9.4" class="glooeCls-6"/>
            <path d="M101.31,31.89c4.19.53,6.35,1,7.5,5.19,1,3.73.21,8.22-1,11.27s-3.83,4.56-7.35,5.28a21,21,0,0,1-11-.76,10.67,10.67,0,0,1-6.5-6.21c-1.11-2.4-2.88-7.32-2-10.59,1.08-3.84,15.79-4.76,20.34-4.18m-60.13,0c-4.18.53-6.34,1-7.49,5.19-1,3.73-.21,8.22,1,11.27s3.83,4.56,7.35,5.28a21,21,0,0,0,11-.76,10.68,10.68,0,0,0,6.49-6.21c1.11-2.4,2.89-7.32,2-10.59C60.45,32.23,45.73,31.31,41.18,31.89Z" class="glooeCls-7"/>
            <path d="M101.31,34.08c4.19.54,6.35,1,7.5,5.2a13.5,13.5,0,0,1,.43,2.63,21.47,21.47,0,0,1-1.45,6.44c-1.2,3-3.83,4.56-7.35,5.28a21,21,0,0,1-11-.76,10.67,10.67,0,0,1-6.5-6.21,25.1,25.1,0,0,1-2.16-7.38,6.45,6.45,0,0,1,.2-1c1.08-3.84,15.79-4.77,20.34-4.19M33.25,41.91a21.47,21.47,0,0,0,1.45,6.44c1.2,3,3.83,4.56,7.35,5.28a21,21,0,0,0,11-.76,10.68,10.68,0,0,0,6.49-6.21,24.8,24.8,0,0,0,2.16-7.38,6.45,6.45,0,0,0-.19-1c-1.08-3.84-15.8-4.77-20.35-4.19-4.18.54-6.34,1-7.49,5.2A12.79,12.79,0,0,0,33.25,41.91Z" class="glooeCls-4"/>
            <path d="M89,35.63a6.14,6.14,0,1,1-6.14,6.14A6.14,6.14,0,0,1,89,35.63" class="glooeCls-6"/>
            <path d="M91.78,37.6a1.72,1.72,0,1,1-1.72,1.71,1.72,1.72,0,0,1,1.72-1.71" class="glooeCls-5"/>
            <path d="M53.5,35.63a6.14,6.14,0,1,1-6.14,6.14,6.14,6.14,0,0,1,6.14-6.14" class="glooeCls-6"/>
            <path d="M56.29,37.6a1.72,1.72,0,1,1-1.72,1.71,1.72,1.72,0,0,1,1.72-1.71" class="glooeCls-5"/>
            <path d="M10.77,66.13c0-.37,0-.88,0-1.38s0-1,0-1.35c0-1.85.61-2.14,1.93-2.11l.65,0h0l.37,0h0l5,.33h0l.39,0h0c1.94.11,2.45.15,2.4,2.38,0,.39,0,.75,0,1.11s0,.76,0,1.2l-1.37,0c0-.39,0-.76,0-1.12s0-.75,0-1.18c0-.86-.22-.87-1.12-.92h0l-.39,0h0l-5-.33h0l-.37,0h0l-.58,0c-.37,0-.52.09-.54.72,0,.35,0,.84,0,1.34s0,1,0,1.39Z" class="glooeCls-8"/>
            <path d="M8.28,85.67l1-21.11,17,.41c2,0,1.87.38,1.9,2.23.07,5.26.11,8.8.18,14.07,0,1.66.32,2.34-1.32,2.51L8.28,85.67" class="glooeCls-9"/>
            <path d="M8.28,85.67c.19,0,.34-.22.35-.44.44-6.66.79-13.46,1.1-20.12,0-.26-.05-.54-.46-.55-2.57.48-2.17.88-4.74,1.35-1.32.25-1.92.17-1.84,1.55.31,5.17-.28,10.5,0,15.67.1,1.57,1,1.64,2.52,1.93l3,.61" class="glooeCls-10"/>
            <polygon points="6.29 66.28 5.67 83.62 5.08 83.61 5.7 66.28 6.29 66.28" class="glooeCls-8"/>
            <path d="M71.26,69.29l-3.12,2,1.73,1.83a30.52,30.52,0,0,1-2.55,7.62l3.42,3.88,3.91-3.48a44.91,44.91,0,0,0-2-8l1.71-1.81Z" class="glooeCls-11"/>
            <path d="M66.94,73.77l-6.31-8.32c8.78,3.3,12.08,3.11,21.33,0l-6.38,8.33-4.32-4.35-4.32,4.35" class="glooeCls-4"/>
            <path d="M69.78,73.58l.09-.43a11.39,11.39,0,0,0,2.8,0l.17.45a11.61,11.61,0,0,1-3.06,0" class="glooeCls-12"/>
        </g>
    </g>
</svg>
