<svg xmlns="http://www.w3.org/2000/svg" width="115.033" height="52.146" viewBox="0 0 115.033 52.146">
    <defs>
        <style>
            .health-icon{fill:#55b8e3;}
        </style>
    </defs>
    <g transform="translate(-216.727 -53.395)">
        <g transform="translate(248.059 53.395)">
            <path d="M238.951,71.392a6.407,6.407,0,0,0-1.269,12.751v7.93a10.15,10.15,0,1,1-20.3,0V80.78a14.591,14.591,0,0,0,13.386-14.527V55.913h-5.9v-3.3H222.33v9.135h2.538v-3.3h3.425v7.8a12.053,12.053,0,0,1-24.043,0v-7.8h3.426v3.3h2.537V52.614h-2.537v3.3h-6.027V66.253a14.591,14.591,0,0,0,13.2,14.527V92.072a12.688,12.688,0,1,0,25.375,0v-7.93a6.407,6.407,0,0,0-1.269-12.751Zm0,10.34a3.87,3.87,0,1,1,3.87-3.87h0A3.87,3.87,0,0,1,238.951,81.732Z" class="health-icon" transform="translate(-201.649 -52.614)"/>
        </g>
        <path d="M190.51,81.925H184.73L182.9,80.094a.936.936,0,0,0-1.575.457l-1.068,4.764-2.135-8.338a.937.937,0,0,0-.907-.7h0a.936.936,0,0,0-.9.711l-3.634,14.644-2.654-22.8a.936.936,0,0,0-1.848-.075l-3.712,18.684-3.34-10.8a.936.936,0,0,0-1.8.055l-1.877,7.719-.607-1.876a.937.937,0,0,0-.891-.648h-4.58a.936.936,0,0,0,0,1.872h3.9l1.415,4.376a.936.936,0,0,0,1.8-.067l1.858-7.637,3.43,11.091a.936.936,0,0,0,1.813-.094l3.272-16.471,2.562,22.012a.937.937,0,0,0,.87.826l.06,0a.936.936,0,0,0,.908-.711l3.982-16.046,2.181,8.518a.937.937,0,0,0,.906.7h.015a.935.935,0,0,0,.9-.731l1.549-6.909.9.9a.936.936,0,0,0,.662.274h6.168a.936.936,0,1,0,0-1.872Z" class="health-icon" transform="translate(66.305 -5.195)"/>
        <path d="M311.51,81.925H305.73L303.9,80.094a.936.936,0,0,0-1.575.457l-1.068,4.764-2.135-8.338a.937.937,0,0,0-.907-.7h0a.936.936,0,0,0-.9.711l-3.634,14.644-2.654-22.8a.936.936,0,0,0-1.848-.075l-3.712,18.684-3.34-10.8a.936.936,0,0,0-1.8.055l-1.877,7.719-.607-1.876a.937.937,0,0,0-.891-.648h-4.58a.936.936,0,0,0,0,1.872h3.9l1.415,4.376a.936.936,0,0,0,1.8-.067l1.858-7.637,3.43,11.091a.936.936,0,0,0,1.813-.094l3.272-16.471,2.562,22.012a.937.937,0,0,0,.87.826l.06,0a.936.936,0,0,0,.908-.711l3.982-16.046,2.181,8.518a.937.937,0,0,0,.906.7h.015a.935.935,0,0,0,.9-.731l1.549-6.909.9.9a.935.935,0,0,0,.662.274h6.168a.936.936,0,1,0,0-1.872Z" class="health-icon" transform="translate(19.313 -5.195)"/>
    </g>
</svg>
