<svg xmlns="http://www.w3.org/2000/svg" width="24" height="24" viewBox="0 0 24 24">
  <g id="Group_4861" data-name="Group 4861" transform="translate(-1330 -16)">
    <g id="Ellipse_60" data-name="Ellipse 60" transform="translate(1330 16)" fill="none" stroke="#fff" stroke-width="1">
      <circle cx="12" cy="12" r="12" stroke="none"/>
      <circle cx="12" cy="12" r="11.5" fill="none"/>
    </g>
    <path id="Path_4182" data-name="Path 4182" d="M3.654,10.67l1.1-.486a1.114,1.114,0,0,1-.468-.864c0-1.764,3.474-2,3.474-4.716,0-1.548-1.332-2.79-3.528-2.79A4.73,4.73,0,0,0,.324,3.65l.9.972A3.317,3.317,0,0,1,4.1,3.146c1.4,0,2.106.774,2.106,1.674,0,1.908-3.24,2.088-3.24,4.374A1.851,1.851,0,0,0,3.654,10.67Zm.378,3.51a.99.99,0,1,0-.99-.99A1,1,0,0,0,4.032,14.18Z" transform="translate(1338 20)" fill="#fff"/>
  </g>
</svg>
