<svg xmlns="http://www.w3.org/2000/svg" width="12.578" height="12.578" viewBox="0 0 12.578 12.578"><defs><style>.info-prompt-a{fill:#6e7477;}</style></defs><g transform="translate(-16.917 -16.917)"><g transform="translate(16.917 16.917)"><g transform="translate(0 0)"><path class="info-prompt-a" d="M27.6,32.857V31.783h.712V29.612H27.6v-1.08h1.8v3.24h.716v1.084H27.6Z" transform="translate(-22.569 -23.331)"/><path class="info-prompt-a" d="M30.295,16.739a.723.723,0,0,1,.718.722.741.741,0,0,1-.742.728.724.724,0,0,1-.7-.728A.738.738,0,0,1,30.295,16.739Z" transform="translate(-24.177 -13.688)"/><path class="info-prompt-a" d="M6.309,0A6.289,6.289,0,1,1,0,6.233,6.3,6.3,0,0,1,6.309,0Zm.029,1.19a5.1,5.1,0,1,0,5.03,5.073A5.084,5.084,0,0,0,6.337,1.19Z" transform="translate(0 0)"/></g></g></g></svg>