<svg xmlns="http://www.w3.org/2000/svg" width="16.928" height="20.628" viewBox="0 0 16.928 20.628"><defs><style>.a{fill:#6e7477;}</style></defs><g transform="translate(0 0)"><g transform="translate(0 0)"><path class="a" d="M21.493,31.035a1.618,1.618,0,0,1-1.156-.466l-4.75-4.749a1.831,1.831,0,0,1,.144-2.573l3.691-3.691A1.873,1.873,0,0,1,22,19.414l4.751,4.748a1.834,1.834,0,0,1-.143,2.574l-3.691,3.69A2.031,2.031,0,0,1,21.493,31.035ZM20.84,20.165a.819.819,0,0,0-.556.253l-3.691,3.691a.639.639,0,0,0-.143.851l4.75,4.749a.409.409,0,0,0,.294.108.81.81,0,0,0,.558-.253l3.691-3.69a.637.637,0,0,0,.141-.852l-4.75-4.748A.407.407,0,0,0,20.84,20.165Z" transform="translate(-14.263 -14.747)"/><path class="a" d="M17.654,17.617c-.12,0-.235,0-.331-.012a4.7,4.7,0,1,1,4.994-4.4,3.186,3.186,0,0,1-.466,1.639.609.609,0,1,1-1-.692,2.089,2.089,0,0,0,.252-.982,3.482,3.482,0,0,0-3.255-3.735,3.483,3.483,0,1,0-.436,6.952,4.742,4.742,0,0,0,.691-.01.609.609,0,0,1,.124,1.212C18.08,17.606,17.861,17.617,17.654,17.617Z" transform="translate(-12.928 -8.211)"/><path class="a" d="M41.648,47.259a1.735,1.735,0,0,1-1.244-.582l-.637-.642a.61.61,0,0,1-.175-.385l-.03-.415-1.54-.007a.607.607,0,0,1-.434-.184.614.614,0,0,1-.173-.439l.036-1.578-1.1-.265a.613.613,0,0,1-.265-.14l-1.158-1.047a.609.609,0,1,1,.817-.9l1.043.943,1.426.344a.61.61,0,0,1,.466.606l-.033,1.449,1.485.006a.609.609,0,0,1,.605.566l.055.752.478.481a.78.78,0,0,0,.392.222.424.424,0,0,0,.217-.1l0-1.383-4.949-4.993A.61.61,0,0,1,37.8,38.7l5.126,5.172a.608.608,0,0,1,.176.431L43.1,46.181a.617.617,0,0,1-.111.349,1.792,1.792,0,0,1-1.219.723C41.729,47.257,41.689,47.259,41.648,47.259Z" transform="translate(-26.175 -26.631)"/><path class="a" d="M25.687,30.494a1.078,1.078,0,0,1-.773-.323,1.1,1.1,0,0,1,0-1.533,1.117,1.117,0,0,1,1.545,0,1.087,1.087,0,0,1-.775,1.853Zm0-1.218a.124.124,0,0,0-.084.034.132.132,0,0,0-.005.189.131.131,0,0,0,.185,0,.126.126,0,0,0,0-.179A.134.134,0,0,0,25.687,29.276Z" transform="translate(-20.023 -20.437)"/><path class="a" d="M30.25,36.755a.609.609,0,0,1-.431-1.04l2.068-2.067a.609.609,0,1,1,.861.861l-2.068,2.067A.609.609,0,0,1,30.25,36.755Z" transform="translate(-23.084 -23.56)"/></g></g></svg>