<svg xmlns="http://www.w3.org/2000/svg" width="24" height="24">
    <path d="M10.483 18.515a1.815 1.815 0 01-1.293-.522l-5.317-5.3a2.035 2.035 0 01.162-2.869l4.132-4.115a2.1 2.1 0 012.88-.159l5.318 5.294a2.039 2.039 0 01-.16 2.87l-4.132 4.114a2.277 2.277 0 01-1.59.687zM9.752 6.393a.919.919 0 00-.622.282l-4.132 4.118a.71.71 0 00-.161.949l5.317 5.295a.459.459 0 00.329.121.909.909 0 00.625-.282l4.132-4.115a.708.708 0 00.158-.95L10.08 6.518a.456.456 0 00-.328-.125z" class="b"/>
    <path d="M7.681 10.844c-.134 0-.263 0-.371-.014a5.242 5.242 0 115.59-4.9 3.541 3.541 0 01-.521 1.827.681.681 0 01-1.122-.771 2.322 2.322 0 00.282-1.095 3.9 3.9 0 10-4.131 3.587 5.328 5.328 0 00.774-.011.679.679 0 11.138 1.351 8.603 8.603 0 01-.639.026zM19.71 23.355a1.946 1.946 0 01-1.392-.649l-.713-.715a.679.679 0 01-.2-.43l-.034-.462-1.719-.008a.682.682 0 01-.68-.694l.04-1.76-1.231-.3a.687.687 0 01-.3-.157l-1.3-1.167a.681.681 0 11.915-1.008l1.168 1.051 1.6.384a.681.681 0 01.522.675l-.037 1.616 1.662.007a.681.681 0 01.677.631l.061.839.535.536a.874.874 0 00.438.248.475.475 0 00.243-.115l.005-1.542-5.534-5.564a.679.679 0 010-.961.686.686 0 01.965 0l5.738 5.767a.677.677 0 01.2.481l-.003 2.096a.687.687 0 01-.124.389 2.007 2.007 0 01-1.364.807 2.147 2.147 0 01-.138.005z" class="b"/>
    <path d="M8.731 11.569A1.213 1.213 0 017.87 9.5a1.254 1.254 0 011.729 0 1.21 1.21 0 01-.006 1.714 1.225 1.225 0 01-.862.355zm0-1.358a.139.139 0 00-.095.038.145.145 0 10.2.208.14.14 0 000-.2.15.15 0 00-.105-.047zM10.412 15.067a.679.679 0 01-.482-1.16l2.314-2.3a.68.68 0 01.964.961l-2.314 2.3a.683.683 0 01-.482.199z" class="b"/>
</svg>
