<svg xmlns="http://www.w3.org/2000/svg" width="29.585" height="28.809" viewBox="0 0 29.585 28.809">
    <defs>
        <style>
            .kube-logo-a{fill:#326de6;}.kube-logo-b{fill:#fff;}
        </style>
    </defs>
    <g transform="translate(-0.531 -0.165)">
        <path d="M13.532,31.727a2.256,2.256,0,0,1-1.779-.861l-6.7-8.321a2.246,2.246,0,0,1-.44-1.951L7.009,10.207A2.263,2.263,0,0,1,8.252,8.658l9.679-4.629a2.27,2.27,0,0,1,1.989,0L29.6,8.638a2.263,2.263,0,0,1,1.243,1.549l2.391,10.387a2.308,2.308,0,0,1-.44,1.951l-6.7,8.321a2.316,2.316,0,0,1-1.779.861l-10.789.019Z" class="kube-logo-a" transform="translate(-3.555 -3.213)"/>
        <path d="M15.353,1.064a1.871,1.871,0,0,1,.784.172l9.679,4.61a1.858,1.858,0,0,1,.995,1.243L29.2,17.477a1.789,1.789,0,0,1-.363,1.569l-6.7,8.321a1.822,1.822,0,0,1-1.435.689H9.977a1.822,1.822,0,0,1-1.435-.689l-6.7-8.321a1.915,1.915,0,0,1-.363-1.569L3.875,7.09A1.827,1.827,0,0,1,4.87,5.847l9.679-4.629a2.3,2.3,0,0,1,.8-.153Zm0-.9h0a2.894,2.894,0,0,0-1.186.268L4.487,5.062A2.709,2.709,0,0,0,3,6.918L.6,17.305a2.712,2.712,0,0,0,.536,2.334l6.7,8.321a2.7,2.7,0,0,0,2.123,1.014H20.69a2.7,2.7,0,0,0,2.123-1.014l6.7-8.321a2.7,2.7,0,0,0,.536-2.334L27.653,6.918a2.709,2.709,0,0,0-1.492-1.856L16.519.433A2.742,2.742,0,0,0,15.353.165Z" class="kube-logo-b" transform="translate(0 0)"/>
        <path d="M60.871,50.388h-.019c-.019,0-.038,0-.038-.019-.038,0-.077-.019-.115-.019a2.614,2.614,0,0,0-.363-.038.718.718,0,0,1-.191-.019h-.019a5.049,5.049,0,0,1-1.033-.172.373.373,0,0,1-.21-.21c0-.019-.019-.019-.019-.038h0l-.249-.077a7.567,7.567,0,0,0-.134-2.7,7.882,7.882,0,0,0-1.071-2.506l.191-.172v-.038a.432.432,0,0,1,.1-.287,5.58,5.58,0,0,1,.861-.593h0c.057-.038.115-.057.172-.1a2.879,2.879,0,0,0,.325-.191c.019-.019.057-.038.1-.077.019-.019.038-.019.038-.038h0a.639.639,0,0,0,.134-.861.544.544,0,0,0-.44-.21.711.711,0,0,0-.421.153h0l-.038.038c-.038.019-.057.057-.1.077a3.177,3.177,0,0,0-.249.268.884.884,0,0,1-.134.134h0a4.864,4.864,0,0,1-.765.689.309.309,0,0,1-.172.057.243.243,0,0,1-.115-.019h-.038l-.23.153a9.288,9.288,0,0,0-.784-.727,7.639,7.639,0,0,0-4-1.588l-.019-.249-.038-.038a.4.4,0,0,1-.153-.249,6.712,6.712,0,0,1,.057-1.033v-.019a.68.68,0,0,1,.038-.191c.019-.115.038-.23.057-.363v-.172h0a.584.584,0,0,0-1.014-.44.606.606,0,0,0-.172.44h0V39.1a1.114,1.114,0,0,0,.057.363c.019.057.019.115.038.191v.019a4.941,4.941,0,0,1,.057,1.033.4.4,0,0,1-.153.249L50.561,41h0l-.019.249a9.612,9.612,0,0,0-1.033.153,7.374,7.374,0,0,0-3.788,2.142l-.191-.134h-.038c-.038,0-.077.019-.115.019a.309.309,0,0,1-.172-.057,5.072,5.072,0,0,1-.765-.708h0a.884.884,0,0,0-.134-.134,3.176,3.176,0,0,0-.249-.268c-.019-.019-.057-.038-.1-.077-.019-.019-.038-.019-.038-.038h0a.669.669,0,0,0-.421-.153.544.544,0,0,0-.44.21.639.639,0,0,0,.134.861h0c.019,0,.019.019.038.019.038.019.057.057.1.077a2.879,2.879,0,0,0,.325.191.775.775,0,0,1,.172.1h0a5.58,5.58,0,0,1,.861.593.351.351,0,0,1,.1.287v.038h0l.191.172a.671.671,0,0,0-.1.153,7.45,7.45,0,0,0-1.071,5.05l-.249.077c0,.019-.019.019-.019.038a.445.445,0,0,1-.21.21,4.831,4.831,0,0,1-1.033.172h-.019a.651.651,0,0,0-.191.019,2.614,2.614,0,0,0-.363.038c-.038,0-.077.019-.115.019a.07.07,0,0,0-.057.019h0a.627.627,0,0,0-.5.708.59.59,0,0,0,.612.44.421.421,0,0,0,.153-.019h0c.019,0,.038,0,.038-.019.038,0,.077-.019.115-.019a1.841,1.841,0,0,0,.344-.134c.057-.019.115-.057.172-.077h.019a4.7,4.7,0,0,1,.995-.287h.038a.426.426,0,0,1,.249.1c.019,0,.019.019.038.019h0L44.095,51A7.566,7.566,0,0,0,46.6,54.6a7.743,7.743,0,0,0,.823.555l-.115.249c0,.019.019.019.019.038a.393.393,0,0,1,.038.306,5.393,5.393,0,0,1-.5.9v.019c-.038.057-.077.1-.115.153-.077.1-.134.191-.21.306a.418.418,0,0,0-.057.1.067.067,0,0,1-.019.038h0a.605.605,0,0,0,.249.823.509.509,0,0,0,.23.057.688.688,0,0,0,.574-.363h0a.067.067,0,0,1,.019-.038.418.418,0,0,1,.057-.1,3.624,3.624,0,0,0,.115-.344l.057-.172h0a4.5,4.5,0,0,1,.4-.956.491.491,0,0,1,.249-.172c.019,0,.019,0,.038-.019h0l.134-.249a7.474,7.474,0,0,0,2.678.5,6.943,6.943,0,0,0,1.664-.191,8.5,8.5,0,0,0,.995-.287l.115.21c.019,0,.019,0,.038.019a.355.355,0,0,1,.249.172,6.549,6.549,0,0,1,.4.956v.019l.057.172a2.422,2.422,0,0,0,.115.344c.019.038.038.057.057.1a.067.067,0,0,0,.019.038h0a.65.65,0,0,0,.574.363.509.509,0,0,0,.23-.057.57.57,0,0,0,.287-.344.692.692,0,0,0-.038-.478h0c0-.019-.019-.019-.019-.038a.418.418,0,0,0-.057-.1,1.734,1.734,0,0,0-.21-.306c-.038-.057-.077-.1-.115-.153v-.019a4.293,4.293,0,0,1-.5-.9.533.533,0,0,1,.019-.306c0-.019.019-.019.019-.038h0l-.1-.23A7.589,7.589,0,0,0,58.4,50.981l.23.038c.019,0,.019-.019.038-.019a.486.486,0,0,1,.249-.1h.038a4.7,4.7,0,0,1,.995.287h.019c.057.019.115.057.172.077a1.841,1.841,0,0,0,.344.134c.038,0,.077.019.115.019a.07.07,0,0,1,.057.019h0a.421.421,0,0,0,.153.019.644.644,0,0,0,.612-.44.736.736,0,0,0-.555-.631Zm-8.857-.937-.842.4-.842-.4-.21-.9.574-.727h.937l.574.727-.191.9Zm4.993-1.989a6.032,6.032,0,0,1,.134,1.932l-2.927-.842a.519.519,0,0,1-.363-.612.456.456,0,0,1,.115-.21l2.315-2.085a6.129,6.129,0,0,1,.727,1.817ZM55.362,44.5l-2.506,1.779a.509.509,0,0,1-.67-.115.425.425,0,0,1-.1-.21l-.172-3.118A5.806,5.806,0,0,1,55.362,44.5Zm-5.547-1.569c.21-.038.4-.077.612-.115l-.172,3.061a.524.524,0,0,1-.516.5.454.454,0,0,1-.23-.057L46.964,44.5a5.836,5.836,0,0,1,2.85-1.569Zm-3.768,2.716,2.276,2.028a.509.509,0,0,1,.057.708.381.381,0,0,1-.23.153l-2.965.861a6.158,6.158,0,0,1,.861-3.749Zm-.516,5.184,3.042-.516a.516.516,0,0,1,.536.4.546.546,0,0,1-.019.306h0l-1.167,2.812a6.03,6.03,0,0,1-2.391-3Zm6.982,3.807a6.247,6.247,0,0,1-1.339.153,6.481,6.481,0,0,1-1.932-.306l1.511-2.735a.5.5,0,0,1,.612-.134.815.815,0,0,1,.23.21h0l1.473,2.659c-.172.057-.363.1-.555.153Zm3.73-2.659a6.071,6.071,0,0,1-1.836,1.856L53.2,50.943a.515.515,0,0,1,.268-.593.611.611,0,0,1,.268-.057l3.061.516a3.85,3.85,0,0,1-.555,1.167Z" class="kube-logo-b" transform="translate(-35.82 -33.733)"/>
    </g>
</svg>
