<svg xmlns="http://www.w3.org/2000/svg" width="70" height="70">
    <defs>
        <style>
            .no-api-key-b{fill:#2196c9}
        </style>
    </defs>
    <path d="M35 5.492a29.416 29.416 0 1011.485 2.319A29.326 29.326 0 0035 5.492M35 4A31 31 0 114 35 31 31 0 0135 4z" class="no-api-key-b"/>
    <path d="M33.414 44.46a2.5 2.5 0 01-1.779-.714l-7.311-7.281a2.8 2.8 0 01.222-3.945l5.681-5.658a2.891 2.891 0 013.96-.218l7.312 7.279a2.8 2.8 0 01-.22 3.946l-5.681 5.656a3.131 3.131 0 01-2.184.935zm-1.005-16.668a1.264 1.264 0 00-.856.388l-5.681 5.658a.977.977 0 00-.221 1.305l7.311 7.28a.631.631 0 00.452.166 1.249 1.249 0 00.859-.388l5.681-5.658a.974.974 0 00.217-1.306l-7.311-7.279a.627.627 0 00-.451-.166z" class="no-api-key-b"/>
    <path d="M29.558 33.91c-.184 0-.361-.007-.51-.019a7.208 7.208 0 117.686-6.742 4.869 4.869 0 01-.717 2.512.936.936 0 01-1.543-1.06 3.193 3.193 0 00.387-1.505 5.369 5.369 0 10-5.68 4.932 7.326 7.326 0 001.064-.016.934.934 0 11.19 1.858 9.27 9.27 0 01-.877.04zM46.101 51.114a2.676 2.676 0 01-1.914-.892l-.98-.984a.934.934 0 01-.27-.591l-.046-.636-2.369-.014a.937.937 0 01-.935-.955l.055-2.419-1.692-.406a.944.944 0 01-.408-.215l-1.782-1.6a.936.936 0 111.257-1.386l1.605 1.443 2.195.528a.936.936 0 01.718.928l-.051 2.222 2.285.01a.936.936 0 01.931.867l.084 1.153.735.738a1.2 1.2 0 00.6.34.653.653 0 00.335-.158l.007-2.121-7.618-7.655a.934.934 0 01.007-1.322.944.944 0 011.327.006l7.889 7.93a.931.931 0 01.27.662l-.009 2.875a.944.944 0 01-.171.535 2.759 2.759 0 01-1.876 1.109 1.71 1.71 0 01-.179.008z" class="no-api-key-b"/>
    <path d="M31.004 34.908a1.667 1.667 0 01-1.185-2.848 1.725 1.725 0 012.378 0 1.664 1.664 0 01-.008 2.357 1.684 1.684 0 01-1.185.491zm0-1.868a.191.191 0 00-.13.052.2.2 0 10.277.286.193.193 0 000-.275.206.206 0 00-.147-.063zM33.316 39.718a.934.934 0 01-.663-1.595l3.184-3.169a.936.936 0 011.326 1.321l-3.182 3.168a.939.939 0 01-.665.275z" class="no-api-key-b"/>
</svg>
