<svg xmlns="http://www.w3.org/2000/svg" width="53.821" height="53.821">
    <path fill="#d4d8de" d="M47.257 0H6.563A6.57 6.57 0 000 6.563v40.7a6.57 6.57 0 006.563 6.563h40.694a6.571 6.571 0 006.564-6.563v-40.7A6.571 6.571 0 0047.257 0zM1.504 47.258v-40.7a5.068 5.068 0 015.063-5.063h40.694a5.069 5.069 0 015.064 5.063v27.257L39.073 20.561a.752.752 0 00-1.061 0L6.285 52.288a5.056 5.056 0 01-4.781-5.03zm45.757 5.063H8.374l30.165-30.164 13.782 13.784v11.317a5.069 5.069 0 01-5.064 5.063z"/>
    <path fill="#d4d8de" d="M16.744 21.872a5.127 5.127 0 10-5.127-5.127 5.134 5.134 0 005.127 5.127zm0-8.75a3.622 3.622 0 11-3.622 3.623 3.626 3.626 0 013.622-3.623z"/>
</svg>
