<svg xmlns="http://www.w3.org/2000/svg" viewBox="0 0 53.528 53.528">
    <path d="M3.617 0A3.622 3.622 0 00-.001 3.617v45.826a3.623 3.623 0 003.618 3.618h45.825a3.623 3.623 0 003.618-3.618V3.617A3.622 3.622 0 0049.442 0zm0 1.206h45.825a2.392 2.392 0 012.412 2.411v45.826a2.393 2.393 0 01-2.412 2.412H3.617a2.393 2.393 0 01-2.412-2.412V3.617a2.392 2.392 0 012.412-2.411zM13.26 8.44a3.618 3.618 0 103.618 3.618A3.627 3.627 0 0013.26 8.44zm0 1.206a2.412 2.412 0 11-2.412 2.412 2.4 2.4 0 012.412-2.412zm6.633 1.809a.603.603 0 100 1.206h22.912a.603.603 0 000-1.206zm-6.633 6.633a3.618 3.618 0 103.618 3.618 3.627 3.627 0 00-3.618-3.618zm0 1.206a2.412 2.412 0 11-2.412 2.412 2.4 2.4 0 012.412-2.412zm6.633 1.809a.603.603 0 100 1.206h22.912a.603.603 0 000-1.206zm-6.633 6.632a3.618 3.618 0 103.618 3.618 3.627 3.627 0 00-3.618-3.618zm0 1.206a2.412 2.412 0 11-2.412 2.412 2.4 2.4 0 012.412-2.412zm6.633 1.809a.603.603 0 100 1.206h22.912a.603.603 0 100-1.206zm-6.633 6.633a3.618 3.618 0 103.618 3.618 3.627 3.627 0 00-3.618-3.618zm0 1.206a2.412 2.412 0 11-2.412 2.412 2.4 2.4 0 012.412-2.413zm6.633 1.809a.603.603 0 100 1.206h22.912a.603.603 0 100-1.206z" fill="#d4d8de"/>
</svg>
