<svg xmlns="http://www.w3.org/2000/svg" width="70" height="70">
    <defs>
        <style>
            .no-user-b{fill:#2196c9}
        </style>
    </defs>
    <path d="M35 5.492a29.416 29.416 0 1011.485 2.319A29.326 29.326 0 0035 5.492M35 4A31 31 0 114 35 31 31 0 0135 4z" class="no-user-b"/>
    <path d="M34.857 34.938c-8.379 0-14.963 3.292-14.963 7.481v4.988a.822.822 0 00.814.831.048.048 0 00.017 0h28.263a.823.823 0 00.831-.814v-5.005c.001-4.189-6.579-7.481-14.962-7.481zm13.3 11.638h-26.6v-4.157c0-2.826 5.353-5.819 13.3-5.819s13.3 2.993 13.3 5.819zM42.34 25.794a7.481 7.481 0 10-7.481 7.481 7.493 7.493 0 007.481-7.481zm-13.3 0a5.819 5.819 0 115.819 5.819 5.846 5.846 0 01-5.819-5.819z" class="no-user-b"/>
</svg>
