<svg xmlns="http://www.w3.org/2000/svg" viewBox="0 0 1090 254.712">
    <defs>
        <clipPath id="portal-tile-c">
            <path d="M9 0h216v208H9a9 9 0 01-9-9V9a9 9 0 019-9z" fill="#d4d8de"/>
        </clipPath>
        <filter id="portal-tile-a" width="1090" height="254.712" x="0" y="0" filterUnits="userSpaceOnUse">
            <feOffset/>
            <feGaussianBlur result="b" stdDeviation="7.5"/>
            <feFlood flood-opacity=".063"/>
            <feComposite in2="b" operator="in"/>
            <feComposite in="SourceGraphic"/>
        </filter>
        
    </defs>
    <g opacity=".502">
        <g filter="url(#portal-tile-a)">
            <g fill="#fff" stroke="#d4d8de" transform="translate(22.5 22.5)">
                <rect width="1045" height="209.712" stroke="none" rx="10"/>
                <rect width="1044" height="208.712" x=".5" y=".5" fill="none" rx="9.5"/>
            </g>
        </g>
        <path d="M274.944 107.811H1047v12.317H274.944zm0 26.569H1047v12.317H274.944zm646-86.569H1021v12.317H920.944z" fill="#d4d8de"/>
        <path fill="#2196c9" d="M274.5 77.5h272v15h-272z"/>
        <path d="M274.5 47.5h272v15h-272z" fill="#6e7477"/>
        <path d="M865.5 188.5h81v15h-81z" fill="#d4d8de"/>
        <circle cx="9" cy="9" r="9" fill="#d4d8de" transform="translate(1029 44.5)"/>
        <path d="M966.5 188.5h81v15h-81zM33.456 23.5H248.5v209H33.456a9.978 9.978 0 01-9.956-10v-189a9.978 9.978 0 019.956-10z" fill="#d4d8de"/>
        <g clip-path="url(#portal-tile-c)" transform="translate(23.5 23.5)">
            <g transform="translate(-719.137 2)">
                <path fill="#c0cbd3" d="M674.137-2h312v208h-312z"/>
                <circle cx="12.94" cy="12.94" r="12.94" fill="#f1f3f5" transform="translate(751.736 74.304)"/>
                <path d="M674.136 128.54s15.24-20.013 32.664-19.778c15.444.208 25.949 6.947 42.773 21.189s30.517 24.98 44.789 6.207S838 71.996 851.205 62.065c13.062-9.823 33.768-19.475 61.827-3.54 33.5 19.025 73.393 78.34 73.393 78.34v69.327H674.136z" fill="#f1f3f5"/>
            </g>
        </g>
        <g>
            <path d="M327.95 180.38H432v22.317H327.95z" fill="#d4d8de"/>
            <path d="M294.53 209.237a14.637 14.637 0 01-14.32-24.8 14.62 14.62 0 003.971 13.383c.183.183.369.36.56.533.054.251.115.5.183.756a14.617 14.617 0 009.606 10.128zm8.319.22a14.547 14.547 0 01-8.318-.22 14.619 14.619 0 009.6-10.128c.069-.251.129-.5.181-.754.193-.173.379-.35.564-.535a14.62 14.62 0 003.969-13.383 14.637 14.637 0 01-6 25.02z" fill="#adb3bc"/>
            <path d="M304.315 198.356c-.052.251-.113.5-.18.754a9.619 9.619 0 11-19.21 0 14.54 14.54 0 01-.183-.756 14.635 14.635 0 0019.573.002z" fill="#6e7477"/>
            <path d="M308.847 184.437a14.621 14.621 0 00-13.574-3.253c-.251.068-.5.14-.743.222-.245-.08-.494-.153-.745-.222a14.625 14.625 0 00-13.576 3.253 14.637 14.637 0 0128.637 0z" fill="#adb3bc"/>
            <path d="M284.74 198.354c-.19-.173-.377-.35-.56-.533a9.619 9.619 0 119.606-16.636c.25.068.5.142.744.222a14.636 14.636 0 00-9.79 16.947zm20.139-.533c-.185.185-.371.362-.564.535a14.635 14.635 0 00-9.784-16.949c.244-.082.492-.154.743-.222a9.618 9.618 0 119.605 16.636z" fill="#6e7477"/>
        </g>
    </g>
</svg>
