<svg xmlns="http://www.w3.org/2000/svg" viewBox="0 0 24 24">
  <path d="M20.189 2.104H3.83A2.847 2.847 0 001.009 4.97v14.267a2.847 2.847 0 002.821 2.866h16.359a2.847 2.847 0 002.82-2.866V4.97a2.847 2.847 0 00-2.82-2.866zm1.666 17.134a1.679 1.679 0 01-1.666 1.693H3.833a1.679 1.679 0 01-1.666-1.693V8.31h19.687zM3.831 3.278h16.356a1.679 1.679 0 011.666 1.692v2.163H2.17V4.97a1.679 1.679 0 011.66-1.692z"/>
  <path d="M4.128 4.619h1.158v1.177H4.128zM6.534 4.619h1.158v1.177H6.534zM8.942 4.619H10.1v1.177H8.942zM11.837 4.619h8.054v1.177h-8.054zM15.285 17.139l-.479-.487 2.325-2.355-2.325-2.358.479-.487 2.8 2.846zM8.988 17.139l-2.8-2.846 2.8-2.846.479.487-2.322 2.359 2.322 2.359zM10.07 18.376l3.029-8.394.637.234-3.028 8.394z"/>
  </svg>