<svg xmlns="http://www.w3.org/2000/svg" width="20.299" height="24.169" viewBox="0 0 20.299 24.169"><defs><style>.proxy-a{fill:#54b7e3;}</style></defs><g transform="translate(0 0)"><path class="proxy-a" d="M15.108,11.336a.11.11,0,0,1-.1.1H11.313a.712.712,0,0,0-.713.713V26.056a.712.712,0,0,0,.713.713H30.185a.712.712,0,0,0,.713-.713V12.151a.712.712,0,0,0-.713-.713H26.543a.11.11,0,0,1-.1-.1V8.279a5.667,5.667,0,1,0-11.333,0v3.056ZM29.37,12.864a.11.11,0,0,1,.1.1V25.241a.11.11,0,0,1-.1.1H12.128a.11.11,0,0,1-.1-.1V12.966a.11.11,0,0,1,.1-.1ZM16.56,8.279a4.228,4.228,0,0,1,8.455,0v3.056a.11.11,0,0,1-.1.1H16.661a.11.11,0,0,1-.1-.1Z" transform="translate(-10.6 -2.6)"/><path class="proxy-a" d="M47.113,64.306a1.706,1.706,0,1,0-2.343,1.579l.025.025v1.5h1.2v-1.5c0-.025,0-.025.025-.025A1.679,1.679,0,0,0,47.113,64.306Z" transform="translate(-35.27 -47.319)"/></g></svg>