<svg xmlns="http://www.w3.org/2000/svg" width="23.367" height="23.26" viewBox="0 0 23.367 23.26">
    <defs>
        <style>
            .related-circles-a{fill:#6e7477;}
        </style>
    </defs>
    <g transform="translate(-34.588 -34.563)">
        <g transform="translate(34.588 34.563)">
            <g transform="translate(0 0)">
                <path d="M40.191,28.666a2.421,2.421,0,0,0-2.446,1.624l-3.655-.648a4.1,4.1,0,0,0-2.031-3.193l1.321-2.566.009,0a2.447,2.447,0,0,0,.409.035A2.452,2.452,0,1,0,32.31,23.4L30.965,26.01a4.065,4.065,0,0,0-3.847,1.069l-2.027-2.045a2.4,2.4,0,0,0,.416-1.187,2.43,2.43,0,0,0-2.259-2.585,2.427,2.427,0,0,0-2.586,2.258,2.43,2.43,0,0,0,2.259,2.586c.056,0,.111.006.167.006a2.4,2.4,0,0,0,1.133-.29l2.182,2.2a4.071,4.071,0,0,0-.228,3.445l-2.953,2.043a2.422,2.422,0,1,0-1.87,4.133c.055,0,.11.006.165.006a2.431,2.431,0,0,0,2.421-2.265,2.4,2.4,0,0,0-.107-.87l2.923-2.022A4.1,4.1,0,0,0,30,34.1c.04,0,.079,0,.119-.006l.968,3.688a2.46,2.46,0,0,0-.4.284,2.428,2.428,0,0,0,1.434,4.251c.056,0,.111.006.167.006a2.428,2.428,0,0,0,.16-4.85c-.076-.006-.15,0-.225.006l-.941-3.586a4.118,4.118,0,0,0,2.743-3.072l3.608.64a2.429,2.429,0,0,0,2.231,2.049c.056,0,.11.006.165.006a2.428,2.428,0,0,0,.162-4.85Zm-7.635-7.383a1.258,1.258,0,0,1,1.237-1.046,1.274,1.274,0,0,1,.21.017,1.255,1.255,0,1,1-1.447,1.028ZM21.432,36.476a1.255,1.255,0,0,1,.084-2.507l.085,0a1.255,1.255,0,1,1-.169,2.5Zm11.8,2.594a1.255,1.255,0,1,1-.861-.427A1.246,1.246,0,0,1,33.229,39.069ZM30,32.927A2.932,2.932,0,1,1,32.935,30,2.935,2.935,0,0,1,30,32.927Zm9.94-.587a1.255,1.255,0,1,1,1.337-1.168A1.257,1.257,0,0,1,39.942,32.34Z" class="related-circles-a" transform="translate(-19.088 -19.063)"/>
            </g>
        </g>
    </g>
</svg>
