<svg xmlns="http://www.w3.org/2000/svg" width="29.098" height="29" viewBox="0 0 29.098 29">
    <defs>
        <style>
            .rest-logo-a{fill:#6d9a40;}.rest-logo-b{fill:#fff;}
        </style>
    </defs>
    <g transform="translate(-47.902 -295)">
        <path d="M14.5,0h.1a14.5,14.5,0,0,1,0,29h-.1a14.5,14.5,0,0,1,0-29Z" class="rest-logo-a" transform="translate(47.902 295)"/>
        <g transform="translate(4.527 4.271)">
            <g transform="translate(49 298.514)">
                <path d="M1066.965,222.954a3.962,3.962,0,0,1,.018-.861.549.549,0,0,1,.381-.346c.8-.041,1.148-.495,1.091-1.337-.044-.646-.111-1.292-.2-1.934-.13-.961-.1-1.848.954-2.38a1.947,1.947,0,0,1-.967-2.313c.081-.655.169-1.311.207-1.97.054-.93-.2-1.2-1.119-1.38a.58.58,0,0,1-.354-.374,3.584,3.584,0,0,1-.016-.79c1.335-.217,2.981.231,3.157,2.1a10.69,10.69,0,0,1-.135,1.857c-.042.5-.119.995-.121,1.493,0,.466.184.637.619.79a.46.46,0,0,1,.234.293,2.866,2.866,0,0,1,.013.512c.012.226-.04.356-.308.392a.623.623,0,0,0-.546.681c.022.656.121,1.309.165,1.965a8.456,8.456,0,0,1,.043,1.637,2.189,2.189,0,0,1-2.168,1.964C1067.614,222.971,1067.309,222.954,1066.965,222.954Z" class="rest-logo-b" transform="translate(-1052.762 -209.162)"/>
                <path d="M874.233,215.888v-1.037c.794-.325.962-.629.837-1.491-.1-.677-.22-1.353-.28-2.034-.2-2.239,1.444-3.059,3.168-2.819,0,.272.013.552,0,.83-.018.3-.241.369-.489.4-.693.073-1.023.4-.992,1.1.037.841.168,1.678.215,2.519a1.751,1.751,0,0,1-.946,2.021c1.081.523,1.027,1.466.919,2.437-.077.692-.163,1.386-.188,2.08a.946.946,0,0,0,1.016,1.083c.334.024.471.186.475.519.011.816-.018.855-.826.729a4.412,4.412,0,0,1-.96-.223,2.322,2.322,0,0,1-1.388-2.611c.055-.681.185-1.356.276-2.034a2.957,2.957,0,0,0,.031-.475C875.081,216.269,874.862,216.014,874.233,215.888Z" class="rest-logo-b" transform="translate(-874.233 -208.468)"/>
                <path d="M927.566,287.451a1.127,1.127,0,0,1-1.16,1.158,1.18,1.18,0,0,1-1.16-1.144,1.159,1.159,0,0,1,1.164-1.168A1.112,1.112,0,0,1,927.566,287.451Z" class="rest-logo-b" transform="translate(-921.491 -280.566)"/>
                <path d="M980.332,286.3a1.151,1.151,0,0,1,1.171,1.156,1.17,1.17,0,0,1-1.179,1.156,1.122,1.122,0,0,1-1.132-1.145A1.105,1.105,0,0,1,980.332,286.3Z" class="rest-logo-b" transform="translate(-971.465 -280.568)"/>
                <path d="M1034.751,287.452a1.122,1.122,0,0,1-1.157,1.156,1.165,1.165,0,0,1-1.155-1.144,1.151,1.151,0,0,1,1.16-1.168A1.111,1.111,0,0,1,1034.751,287.452Z" class="rest-logo-b" transform="translate(-1020.794 -280.567)"/>
            </g>
        </g>
    </g>
</svg>
