<svg xmlns="http://www.w3.org/2000/svg" xmlns:xlink="http://www.w3.org/1999/xlink" width="33.098" height="33" viewBox="0 0 33.098 33">
    <defs>
        <clipPath id="route-table-a">
            <rect class="route-table-a" width="33.098" height="33" rx="16.5" transform="translate(329.217 141)"/>
        </clipPath>
        <style>
            .route-table-a{fill:#fff}.route-table-c,.route-table-d{fill:#55b8e3}.route-table-c{stroke:#54b7e3;stroke-linecap:square;stroke-linejoin:bevel;stroke-width:.5px}
        </style>
    </defs>
    <g transform="translate(-329.217 -141)">
        <rect class="route-table-a" width="33.098" height="33" rx="16.5" transform="translate(329.216 141)"/>
        <g style="clip-path:url(#a)">
            <g transform="translate(164.891 108.219)">
                <g transform="translate(163.289 37.312)">
                    <g transform="translate(0.145 14.255)">
                        <g transform="translate(0)">
                            <path class="route-table-c" d="M184.695,113.474h-9.032a.218.218,0,0,1-.19-.112l-4.357-7.794H163.67a.218.218,0,1,1,0-.436h7.573a.218.218,0,0,1,.19.112l4.357,7.794h8.9a.218.218,0,1,1,0,.436Z" transform="translate(-163.453 -105.133)"/>
                        </g>
                        <g transform="translate(19.134 6.589)">
                            <path class="route-table-c" d="M253.229,140.556a.153.153,0,0,1,.047-.211l1.968-1.253-1.968-1.253a.153.153,0,0,1,.164-.257l2.17,1.382a.153.153,0,0,1,0,.257l-2.17,1.382a.153.153,0,0,1-.211-.047Z" transform="translate(-253.205 -137.558)"/>
                        </g>
                    </g>
                    <g transform="translate(0 12.076)">
                        <path class="route-table-c" d="M192.683,94.847H165.057c-.166,0-.3-.1-.3-.218s.135-.218.3-.218h27.626c.166,0,.3.1.3.218S192.849,94.847,192.683,94.847Z" transform="translate(-164.756 -94.411)"/>
                    </g>
                    <g transform="translate(25.901 10.759)">
                        <g transform="translate(0 0)">
                            <path class="route-table-c" d="M253.842,90.931a.153.153,0,0,1,.047-.211l1.968-1.253-1.968-1.253a.153.153,0,0,1,.164-.257l2.17,1.382a.153.153,0,0,1,0,.257l-2.17,1.382a.153.153,0,0,1-.21-.047Z" transform="translate(-253.818 -87.932)"/>
                        </g>
                    </g>
                    <g transform="translate(0.025)">
                        <g transform="translate(0 1.317)">
                            <path class="route-table-c" d="M184.68,105.133h-9.032a.218.218,0,0,0-.19.112l-4.357,7.794h-7.564a.218.218,0,0,0,0,.436h7.692a.218.218,0,0,0,.19-.112l4.357-7.794h8.9a.218.218,0,1,0,0-.436Z" transform="translate(-163.318 -105.133)"/>
                        </g>
                        <g transform="translate(19.253 0)">
                            <path class="route-table-c" d="M253.229,137.629a.153.153,0,0,0,.047.211l1.968,1.253-1.968,1.253a.153.153,0,1,0,.164.257l2.17-1.382a.153.153,0,0,0,0-.257l-2.17-1.382a.153.153,0,0,0-.211.047Z" transform="translate(-253.205 -137.558)"/>
                        </g>
                    </g>
                </g>
                <circle class="route-table-d" cx="1.379" cy="1.379" transform="translate(172.302 41.359)" r="1.379"/>
                <circle class="route-table-d" cx="1.379" cy="1.379" transform="translate(172.302 54.723)" r="1.379"/>
                <circle class="route-table-d" cx="1.379" cy="1.379" transform="translate(178.539 48.487)" r="1.379"/>
            </g>
        </g>
    </g>
</svg>
