<svg xmlns="http://www.w3.org/2000/svg" width="24" height="24">
    <path d="M14.047 17.758a4.564 4.564 0 113.23-1.336 4.552 4.552 0 01-3.23 1.336zm0-8.216a3.651 3.651 0 102.581 1.069 3.626 3.626 0 00-2.581-1.069z"/>
    <path d="M6.992 23H4.767v-2.225l5.573-5.573.648.648-5.3 5.3v.929h.929l.752-.752.234-1.047 1.566-.182v-1.1l2.55-2.55.648.648-2.282 2.282v1.538l-1.73.2-.15.672zM14.837 13.949a1.544 1.544 0 111.092-2.636 1.545 1.545 0 01-1.092 2.636zm0-2.172a.627.627 0 00-.444 1.071.642.642 0 00.887 0 .627.627 0 00-.444-1.071z"/>
    <path d="M7.807 16.568a4.009 4.009 0 01-2.871-1.2A3.82 3.82 0 011 11.558a3.977 3.977 0 012.314-3.574 3.647 3.647 0 01.181-1.935A4.031 4.031 0 016.877 3.46a4.127 4.127 0 012.935.859A5.362 5.362 0 0114.792 1h.042a5.346 5.346 0 015.282 4.863 4.982 4.982 0 01-.228 1.837A3.979 3.979 0 0123 11.558 4.762 4.762 0 0118.719 16l-.09-.912a3.865 3.865 0 003.454-3.531 3.089 3.089 0 00-2.867-3.041l-.64-.059.265-.586a4.086 4.086 0 00.359-1.952 4.415 4.415 0 00-4.374-4h-.035a4.4 4.4 0 00-4.316 3.347l-.2.9-.594-.7a3.162 3.162 0 00-2.719-1.093 3.109 3.109 0 00-2.609 2 2.77 2.77 0 00-.066 1.765l.118.414-.405.14a3.073 3.073 0 00-2.083 2.866 2.929 2.929 0 003.208 2.892h.37l.122.268c.276.6 1.591.933 2.189.933.169 0 .329-.005.485-.02l.085.913a6.213 6.213 0 01-.569.024z"/>
</svg>
