<svg xmlns="http://www.w3.org/2000/svg" width="24.707" height="24.703" viewBox="0 0 24.707 24.703">
    <defs>
        <style>
            .settings-gear-a{fill:#fff;stroke:#fff;stroke-width:0.5px;}
        </style>
    </defs>
    <g transform="translate(0.25 0.25)">
        <path d="M16.331,23.312a.651.651,0,0,1-.619.461H14.371a1.321,1.321,0,0,0-1.321,1.321V27.2a1.321,1.321,0,0,0,1.321,1.321h1.352a.654.654,0,0,1,.619.461,9.34,9.34,0,0,0,.578,1.392.656.656,0,0,1-.111.767l-.955.955a1.321,1.321,0,0,0,0,1.866l1.489,1.489a1.353,1.353,0,0,0,1.866,0l.965-.965a.655.655,0,0,1,.763-.111,9.326,9.326,0,0,0,1.382.568.651.651,0,0,1,.461.619v1.368A1.321,1.321,0,0,0,24.1,38.253h2.108a1.322,1.322,0,0,0,1.321-1.321V35.55a.657.657,0,0,1,.461-.619,9.027,9.027,0,0,0,1.368-.568.65.65,0,0,1,.763.111l.978.978a1.353,1.353,0,0,0,1.866,0l1.489-1.489a1.321,1.321,0,0,0,0-1.866l-.982-.982a.655.655,0,0,1-.111-.763,9.117,9.117,0,0,0,.565-1.365.651.651,0,0,1,.619-.461h1.389a1.322,1.322,0,0,0,1.321-1.321V25.094a1.322,1.322,0,0,0-1.321-1.321H34.554a.651.651,0,0,1-.619-.461,9.05,9.05,0,0,0-.565-1.372.655.655,0,0,1,.111-.763l.975-.975a1.321,1.321,0,0,0,0-1.866l-1.489-1.489a1.353,1.353,0,0,0-1.866,0l-.965.965a.655.655,0,0,1-.767.111,9.009,9.009,0,0,0-1.382-.575.648.648,0,0,1-.457-.619V15.371a1.321,1.321,0,0,0-1.321-1.321H24.1a1.321,1.321,0,0,0-1.321,1.321v1.348a.651.651,0,0,1-.461.619,9.2,9.2,0,0,0-1.4.575.655.655,0,0,1-.763-.111l-.951-.951a1.353,1.353,0,0,0-1.866,0L15.851,18.34a1.321,1.321,0,0,0,0,1.866l.948.948a.651.651,0,0,1,.111.763A9.234,9.234,0,0,0,16.331,23.312Zm1.18-1.093a1.325,1.325,0,0,0-.235-1.547l-.948-.948a.651.651,0,0,1,0-.918l1.489-1.489a.664.664,0,0,1,.918,0l.951.951a1.324,1.324,0,0,0,1.547.235,8.526,8.526,0,0,1,1.294-.535,1.326,1.326,0,0,0,.931-1.261V15.361a.649.649,0,0,1,.649-.649h2.108a.649.649,0,0,1,.649.649v1.358a1.319,1.319,0,0,0,.925,1.257,8.375,8.375,0,0,1,1.281.535,1.323,1.323,0,0,0,1.55-.232l.965-.965a.664.664,0,0,1,.918,0L33.992,18.8a.651.651,0,0,1,0,.918l-.975.975a1.32,1.32,0,0,0-.235,1.543,8.6,8.6,0,0,1,.524,1.274,1.323,1.323,0,0,0,1.261.928h1.382a.649.649,0,0,1,.649.649V27.2a.649.649,0,0,1-.649.649h-1.4a1.323,1.323,0,0,0-1.257.925,8.675,8.675,0,0,1-.524,1.267A1.325,1.325,0,0,0,33,31.587l.982.982a.651.651,0,0,1,0,.918L32.5,34.975a.664.664,0,0,1-.918,0L30.6,34a1.319,1.319,0,0,0-1.547-.232,8.691,8.691,0,0,1-1.267.528,1.326,1.326,0,0,0-.925,1.257v1.382a.649.649,0,0,1-.649.649H24.1a.649.649,0,0,1-.649-.649V35.564a1.325,1.325,0,0,0-.931-1.261,8.344,8.344,0,0,1-1.281-.528,1.338,1.338,0,0,0-.615-.148,1.313,1.313,0,0,0-.931.383l-.965.965a.664.664,0,0,1-.918,0l-1.489-1.489a.651.651,0,0,1,0-.918l.955-.955a1.323,1.323,0,0,0,.232-1.55,8.86,8.86,0,0,1-.538-1.291,1.319,1.319,0,0,0-1.257-.925H14.368a.649.649,0,0,1-.649-.649v-2.1a.649.649,0,0,1,.649-.649h1.341a1.318,1.318,0,0,0,1.257-.928A8.972,8.972,0,0,1,17.511,22.22Z" class="settings-gear-a" transform="translate(-13.05 -14.05)"/>
        <path d="M37.735,44.441a5.705,5.705,0,1,0-5.705-5.705A5.711,5.711,0,0,0,37.735,44.441Zm0-10.738A5.033,5.033,0,1,1,32.7,38.735,5.038,5.038,0,0,1,37.735,33.7Z" class="settings-gear-a" transform="translate(-25.649 -26.649)"/>
    </g>
</svg>
