<svg xmlns="http://www.w3.org/2000/svg" width="22" height="22" viewBox="0 0 22 22"><defs><style>.singlePortalA,.singlePortalB{fill:#2196c9;}.singlePortalA{opacity:0;}</style></defs><rect class="singlePortalA" width="22" height="22"/><g transform="translate(1.001 2)"><path class="singlePortalB" d="M322.675,392.15H307.8a2.574,2.574,0,0,0-2.565,2.58V407.57a2.574,2.574,0,0,0,2.565,2.58h14.871a2.575,2.575,0,0,0,2.564-2.58V394.73A2.575,2.575,0,0,0,322.675,392.15Zm1.514,15.42a1.519,1.519,0,0,1-1.514,1.523H307.806a1.519,1.519,0,0,1-1.514-1.523v-9.835h17.9ZM307.8,393.206h14.869a1.519,1.519,0,0,1,1.514,1.523v1.947H306.292l0-1.947A1.519,1.519,0,0,1,307.8,393.206Z" transform="translate(-305.239 -392.15)"/><rect class="singlePortalB" width="1.081" height="1.081" transform="translate(2.91 2.31)"/><rect class="singlePortalB" width="1.081" height="1.081" transform="translate(5.016 2.31)"/><rect class="singlePortalB" width="1.081" height="1.081" transform="translate(7.201 2.31)"/><rect class="singlePortalB" width="7.516" height="1.081" transform="translate(9.574 2.31)"/></g></svg>