<svg xmlns="http://www.w3.org/2000/svg" viewBox="0 0 283.35 105.58"><defs><style>.cls-1,.cls-6{fill:#35393b;}.cls-2{fill:#0eb1e4;}.cls-2,.cls-3,.cls-4,.cls-5,.cls-6,.cls-7,.cls-8{fill-rule:evenodd;}.cls-3{fill:#158bc2;}.cls-4{fill:#fff;}.cls-5{fill:#ddf4f9;}.cls-7{fill:#c18e2e;}.cls-8{fill:#a96c25;}</style></defs><title>solo-logo-dark-text</title><g id="Layer_2" data-name="Layer 2"><g id="Layer_1-2" data-name="Layer 1"><path class="cls-1" d="M265.89,69.32a10,10,0,0,0,7.41-3.12,11,11,0,0,0,0-15.23,10.35,10.35,0,0,0-14.81,0,11,11,0,0,0,0,15.23,9.94,9.94,0,0,0,7.4,3.12m-66.88,0a10,10,0,0,0,7.4-3.12,11,11,0,0,0,0-15.23,10.35,10.35,0,0,0-14.81,0,11,11,0,0,0,0,15.23A10,10,0,0,0,199,69.32Zm-51.6,0a9.94,9.94,0,0,0,7.4-3.12,11,11,0,0,0,0-15.23A10.34,10.34,0,0,0,140,51a11,11,0,0,0,0,15.23A9.94,9.94,0,0,0,147.41,69.32Zm78.19-1.6a4.37,4.37,0,0,1,2.08.55,4.15,4.15,0,0,1,1.62,1.6,4.36,4.36,0,0,1,.58,2.15,4.23,4.23,0,0,1-.57,2.11,4.08,4.08,0,0,1-1.59,1.6,4.25,4.25,0,0,1-4.25,0,4.17,4.17,0,0,1-1.6-1.6,4.32,4.32,0,0,1-.56-2.11,4.44,4.44,0,0,1,.56-2.14,3.89,3.89,0,0,1,1.63-1.61A4.3,4.3,0,0,1,225.6,67.72Zm40.29-26.88a16.7,16.7,0,0,1,12.34,5.23,17.87,17.87,0,0,1,0,25,17.25,17.25,0,0,1-24.67,0,17.87,17.87,0,0,1,0-25A16.68,16.68,0,0,1,265.89,40.84Zm-25.68,0a3.55,3.55,0,0,1,3.5,3.51V72.83a3.32,3.32,0,0,1-1,2.46,3.51,3.51,0,0,1-4.93,0,3.36,3.36,0,0,1-1-2.46V44.35a3.53,3.53,0,0,1,3.51-3.51Zm0-11.5a4.37,4.37,0,0,1,2.08.55,4.15,4.15,0,0,1,1.62,1.6,4.36,4.36,0,0,1,.58,2.15,4.23,4.23,0,0,1-.57,2.11,4.08,4.08,0,0,1-1.59,1.6,4.25,4.25,0,0,1-4.25,0,4.17,4.17,0,0,1-1.6-1.6,4.32,4.32,0,0,1-.56-2.11,4.44,4.44,0,0,1,.56-2.14,3.89,3.89,0,0,1,1.63-1.61A4.41,4.41,0,0,1,240.21,29.34ZM199,40.84a16.68,16.68,0,0,1,12.33,5.23,17.87,17.87,0,0,1,0,25,17.24,17.24,0,0,1-24.66,0,17.84,17.84,0,0,1,0-25A16.66,16.66,0,0,1,199,40.84ZM173.22,29.28a3.5,3.5,0,0,1,3.48,3.51v40a3.45,3.45,0,0,1-3.48,3.47,3.48,3.48,0,0,1-2.49-1,3.36,3.36,0,0,1-1-2.46v-40a3.37,3.37,0,0,1,1-2.47A3.42,3.42,0,0,1,173.22,29.28ZM147.41,40.84a16.7,16.7,0,0,1,12.34,5.23,17.89,17.89,0,0,1,0,25,17.25,17.25,0,0,1-24.67,0,17.87,17.87,0,0,1,0-25A16.68,16.68,0,0,1,147.41,40.84ZM116.57,76.3a12.22,12.22,0,0,1-6.88-2.17,14.43,14.43,0,0,1-4.33-4.47,3.28,3.28,0,0,1-.41-2.6,3.43,3.43,0,0,1,1.54-2.21,3.48,3.48,0,0,1,2.64-.41A3.36,3.36,0,0,1,111.29,66a7.59,7.59,0,0,0,2.23,2.25,5.43,5.43,0,0,0,3,1.06,4.32,4.32,0,0,0,3-1.11,3.19,3.19,0,0,0,1.23-2.53,2.54,2.54,0,0,0-.91-2.17,16.87,16.87,0,0,0-4.3-1.62A21.37,21.37,0,0,1,109,59.14a9,9,0,0,1-3.72-7.68,10,10,0,0,1,3.33-7.53,11.19,11.19,0,0,1,7.92-3.09,11.54,11.54,0,0,1,6.16,1.73,10.58,10.58,0,0,1,4.12,4.64,3.48,3.48,0,1,1-6.33,2.91A3.79,3.79,0,0,0,119,48.45a4.79,4.79,0,0,0-2.43-.63,4.48,4.48,0,0,0-3,1.1,3.26,3.26,0,0,0-1.19,2.54,2.51,2.51,0,0,0,.84,2.1,18.08,18.08,0,0,0,4.31,1.59,21.67,21.67,0,0,1,6.59,2.77,9.1,9.1,0,0,1,3.72,7.76,10,10,0,0,1-3.29,7.54A11.21,11.21,0,0,1,116.57,76.3Z"/><path class="cls-2" d="M26.65,2.88c1.92-2.75,3.77-3.7,5-2.1A20.28,20.28,0,0,0,46.86,9,20.26,20.26,0,0,0,62.08.78c1.21-1.6,3.06-.65,5,2.1,8.83,12.64,10,25.11,4.48,33.67,10.9,11.07,7.87,26.22,4,33.52-1.69,3.14-2.34,2.9-4.2,1.22l-2-1.82a49.57,49.57,0,0,1-3.59,9.93c-2.26,4.77-7.21,5.58-7.49-.05H35.49c-.27,5.63-5.23,4.82-7.49.05a50.19,50.19,0,0,1-3.59-9.93l-2,1.82c-1.86,1.68-2.51,1.92-4.19-1.22-3.92-7.3-6.95-22.45,4-33.52-5.55-8.56-4.35-21,4.48-33.67"/><path class="cls-3" d="M46.86,9A20.26,20.26,0,0,0,62.08.78c1.21-1.6,3.06-.65,5,2.1,8.83,12.64,10,25.11,4.48,33.67,10.9,11.07,7.87,26.22,4,33.52-1.69,3.14-2.34,2.9-4.2,1.22l-2-1.82a49.57,49.57,0,0,1-3.59,9.93c-2.26,4.77-7.21,5.58-7.49-.05H46.86V46.55c0-1,.59-1.72-2.94-2.15-8.31-1-16.09-6.13-18.71-13.43a13.62,13.62,0,0,1-.8-4.6,9.41,9.41,0,0,1,3.91-7.71c4.59-3.39,11.6-2.24,14.57,2.75,1.68,2.84,1.92,6.34,2.27,9.54.13,1.18.23,2.44.43,3.62.1.55.25,1.32.81,1.58.31.15.11.1.46.1Z"/><path class="cls-2" d="M42.15,96.15c-.26.57-1,4.33-1.85,4.9-3.17,2-12.38-20.61-13-23.13a245.14,245.14,0,0,1,39.08,0c-.59,2.48-9.78,25.21-13,23.15-.88-.57-1.6-4.33-1.85-4.9-.47,1.38-2.4,10-5,9.4s-3.87-7.62-4.46-9.4"/><path class="cls-3" d="M46.86,77.13c7,0,14,.25,19.54.77a58.72,58.72,0,0,1-2.2,5.86v0h0l0,0v0l0,0,0,0v0l0,0,0,.07,0,0v0l0,0,0,0v0l0,0v0l0,0,0,0v0l0,0,0,0,0,.08,0,0v0l0,0h0v.07l0,0,0,.07,0,0,0,.08,0,0,0,0,0,0v0l0,0h0l0,0,0,0v0l-.16.36v0h0l0,0v.05l-.07.16,0,0-.07.17,0,0c-3.14,7.19-7.65,16.06-9.7,14.74-.88-.57-1.6-4.33-1.85-4.9-.45,1.34-2.28,9.45-4.71,9.43V86c0-1.23-.15-2.91-3.16-2.83a135,135,0,0,0-13.89,1.26c-.39-.89-1.08-2.69-1.42-3.5a157.84,157.84,0,0,1,18.44-1h0Z"/><path class="cls-4" d="M46.86,42a25.24,25.24,0,0,0,3.58-.25C59.17,40.48,69.3,34.1,69.3,24.29a9.38,9.38,0,0,0-3.91-7.71,10.18,10.18,0,0,0-14.57,2.76c-1.68,2.83-1.92,6.33-2.27,9.53-.13,1.18-.22,2.44-.43,3.62-.1.55-.25,1.32-.81,1.58-.31.15-.11.1-.45.1s-.15,0-.46-.1c-.56-.26-.71-1-.81-1.58-.2-1.18-.3-2.44-.43-3.62-.35-3.2-.59-6.7-2.27-9.53a10.18,10.18,0,0,0-14.57-2.76,9.41,9.41,0,0,0-3.91,7.71,13.62,13.62,0,0,0,.8,4.6C28.22,37.26,38.4,42,46.86,42"/><path class="cls-5" d="M46.86,42a25.24,25.24,0,0,0,3.58-.25C59.17,40.48,69.3,34.1,69.3,24.29a9.38,9.38,0,0,0-3.91-7.71,10.18,10.18,0,0,0-14.57,2.76c-1.68,2.83-1.92,6.33-2.27,9.53-.13,1.18-.22,2.44-.43,3.62-.1.55-.25,1.32-.81,1.58-.31.15-.11.1-.45.1Z"/><path class="cls-6" d="M36.61,20.53a4.29,4.29,0,1,1-4.29,4.29,4.3,4.3,0,0,1,4.29-4.29m20.49,0a4.29,4.29,0,1,1-4.29,4.29A4.29,4.29,0,0,1,57.1,20.53Z"/><path class="cls-4" d="M38,22.37a1.25,1.25,0,1,1-1.24,1.25A1.25,1.25,0,0,1,38,22.37"/><path class="cls-4" d="M58.53,22.37a1.25,1.25,0,1,1-1.24,1.25,1.25,1.25,0,0,1,1.24-1.25"/><path class="cls-4" d="M46.86,46.4A11.62,11.62,0,0,0,35.24,57.7H34.7a8.3,8.3,0,1,0,0,16.6H59a8.3,8.3,0,1,0,0-16.6,8.13,8.13,0,0,0-5.71,2.12,9.6,9.6,0,0,1,4.81-4.71,11.62,11.62,0,0,0-11.25-8.7"/><path class="cls-7" d="M2.73,71.51a6.36,6.36,0,0,1,4.41-5.3c1.33,1,2.67,2,4.05,2.91A70.75,70.75,0,0,0,17.79,73c3.67,1.95,4.82,3.1,9.2,2.42A130.86,130.86,0,0,1,47,74a127.93,127.93,0,0,1,25,2.4,98.25,98.25,0,0,1,21.69,6.86,6,6,0,0,1-2.85,6.27,91,91,0,0,0-20.19-6.36A121.22,121.22,0,0,0,47,80.85,121.3,121.3,0,0,0,23.3,83.12,91.84,91.84,0,0,0,3.09,89.49C.29,88.27-.44,86.12.23,83.22a92,92,0,0,1,11.53-4.33l1.52-.46-1.36-.8a94,94,0,0,1-9.19-6.12"/><path class="cls-8" d="M2.73,71.91a7,7,0,0,1,1.23-3,91.71,91.71,0,0,0,13.51,8.92l-4.19,1L11.92,78a94,94,0,0,1-9.19-6.12"/><path class="cls-8" d="M93,87.36a5.09,5.09,0,0,1-2.14,2.12,91,91,0,0,0-20.19-6.36A121.22,121.22,0,0,0,47,80.85,121.3,121.3,0,0,0,23.3,83.12,91.84,91.84,0,0,0,3.09,89.49a5.08,5.08,0,0,1-2.49-2c10.64-5.58,27.4-9.18,46.26-9.18S82.3,81.84,93,87.36"/></g></g></svg>