<svg xmlns="http://www.w3.org/2000/svg" width="29.098" height="29" viewBox="0 0 29.098 29">
    <defs>
        <style>
            .static-logo-a{fill:#2196c9;}.static-logo-b{fill:#fff;stroke:#fff;stroke-width:0.5px;}
        </style>
    </defs>
    <g transform="translate(-22.902 -301)">
        <path d="M14.5,0h.1a14.5,14.5,0,0,1,0,29h-.1a14.5,14.5,0,0,1,0-29Z" class="static-logo-a" transform="translate(22.902 301)"/>
        <g transform="translate(6.417 284.343)">
            <g transform="translate(23.106 23.106)">
                <g transform="translate(0 0)">
                    <path d="M23.332,7.7a.3.3,0,0,0-.43,0L20.888,9.71a5.769,5.769,0,0,0-7.938.209l-.942.942,1.273,1.273-1.148,1.148L10.86,12.008l-.942.942a5.769,5.769,0,0,0-.209,7.938L7.7,22.9a.3.3,0,0,0,.43.43l2.014-2.014a5.769,5.769,0,0,0,7.938-.209l.942-.942-1.291-1.291,1.148-1.148h0l1.291,1.291.942-.942a5.769,5.769,0,0,0,.209-7.938l2.014-2.014A.3.3,0,0,0,23.332,7.7Zm-9.764,7.021,1.148-1.148h0l2.726,2.726h0l-1.148,1.148Zm.144-2.152.574.574h0l-1.148,1.148-.574-.574Zm3.936,8.115a5.161,5.161,0,0,1-7.3-7.3l.511-.511,7.3,7.3Zm.8-3.38L17.3,18.446l-.574-.574,1.148-1.148h0l.574.574Zm2.233.35-.511.511-7.3-7.3.511-.511a5.161,5.161,0,0,1,7.3,7.3Z" class="static-logo-b" transform="translate(-7.606 -7.606)"/>
                </g>
            </g>
        </g>
    </g>
</svg>
