<svg xmlns="http://www.w3.org/2000/svg" viewBox="0 0 484.222 15">
  <g transform="translate(-38.384 -10)">
    <g fill="#6e7477" transform="translate(38.384 11)">
      <circle cx="7" cy="7" r="7"/>
      <path d="M23.313 9.956a3.491 3.491 0 003.07-1.73l-1.148-.572a2.284 2.284 0 01-1.922 1.111 2.624 2.624 0 01-2.637-2.761 2.611 2.611 0 012.637-2.76 2.258 2.258 0 011.922 1.111l1.134-.6a3.426 3.426 0 00-3.056-1.703 3.848 3.848 0 00-4.012 3.952 3.855 3.855 0 004.012 3.952zm6.53 0a2.772 2.772 0 002.838-2.912 2.757 2.757 0 00-2.841-2.9 2.757 2.757 0 00-2.841 2.9 2.772 2.772 0 002.841 2.912zm0-1.065a1.663 1.663 0 01-1.595-1.847 1.608 1.608 0 113.185 0 1.656 1.656 0 01-1.593 1.847zm11.982.928v-4a1.463 1.463 0 00-1.595-1.675 2.333 2.333 0 00-1.879 1.008 1.445 1.445 0 00-1.512-1.008 2.451 2.451 0 00-1.81.882v-.74h-1.2v5.533h1.2V5.944a1.7 1.7 0 011.284-.73c.653 0 .9.4.9 1v3.605h1.2V5.944a1.647 1.647 0 011.29-.73c.653 0 .916.4.916 1v3.605zm4.456.137c1.432 0 2.451-1.088 2.451-2.91s-1.019-2.902-2.453-2.902a2.208 2.208 0 00-1.776.9v-.758h-1.2v7.641h1.2V9.051a2.22 2.22 0 001.776.905zm-.358-1.065a1.806 1.806 0 01-1.42-.756V5.944a1.8 1.8 0 011.42-.733 1.627 1.627 0 011.57 1.833 1.638 1.638 0 01-1.57 1.847zm8.523.928V6.144c0-1.478-1.077-1.993-2.314-1.993a3.241 3.241 0 00-2.325.894l.5.836a2.215 2.215 0 011.638-.71c.756 0 1.294.389 1.294 1.031v.822a2.313 2.313 0 00-1.8-.71 1.775 1.775 0 00-1.913 1.81 1.842 1.842 0 001.913 1.833 2.329 2.329 0 001.8-.745v.607zm-2.52-.687a1.06 1.06 0 01-1.191-1 1.067 1.067 0 011.191-1 1.651 1.651 0 011.317.573v.848a1.651 1.651 0 01-1.317.578zm8.947.687V5.924a1.6 1.6 0 00-1.787-1.78 2.638 2.638 0 00-1.959.882v-.74h-1.2v5.533h1.2V5.944a1.885 1.885 0 011.42-.733c.676 0 1.123.275 1.123 1.146v3.46zm1.249 2.165a3.3 3.3 0 00.676.08 1.839 1.839 0 001.89-1.249l2.669-6.53h-1.284l-1.615 4.148-1.615-4.147h-1.294l2.28 5.6-.275.63a.755.755 0 01-.8.481 1.257 1.257 0 01-.458-.092zm13.437-2.165v-1.18h-3.368V2.178h-1.34v7.641zm3.4.137a2.772 2.772 0 002.843-2.912 2.842 2.842 0 10-5.682 0 2.772 2.772 0 002.841 2.912zm0-1.065a1.663 1.663 0 01-1.59-1.847 1.608 1.608 0 113.185 0 1.656 1.656 0 01-1.593 1.847zm6.243 3.173c1.352 0 2.841-.538 2.841-2.532V4.286h-1.2v.768a2.172 2.172 0 00-1.776-.9c-1.432-.01-2.454 1.037-2.454 2.835 0 1.821 1.042 2.841 2.451 2.841a2.225 2.225 0 001.776-.928v.63a1.466 1.466 0 01-1.638 1.546 2.183 2.183 0 01-1.764-.71l-.561.871a3.166 3.166 0 002.327.825zm.218-3.311a1.568 1.568 0 01-1.569-1.764 1.577 1.577 0 011.571-1.775 1.836 1.836 0 011.42.733V8.02a1.836 1.836 0 01-1.42.733zm6.61 1.2a2.772 2.772 0 002.842-2.909 2.842 2.842 0 10-5.682 0 2.772 2.772 0 002.841 2.912zm0-1.065a1.663 1.663 0 01-1.591-1.844 1.608 1.608 0 113.185 0 1.656 1.656 0 01-1.593 1.847z"/>
    </g>
    <path fill="#253e58" d="M437.018 14h27.929v7h-27.929zm-38 0h27.929v7h-27.929zm-38 0h27.929v7h-27.929z"/>
    <rect width="43.222" height="14" fill="#2196c9" rx="4" transform="translate(479.385 10)"/>
  </g>
</svg>