<svg xmlns="http://www.w3.org/2000/svg" viewBox="0 0 483.344 86.498">
    <path d="M0 37.655h483.344v8.931H0zM0 56.919h483.344v8.931H0zM0 77.567h127.264v8.931H0zM4.7 16.8v-6.25h4.425a5.06 5.06 0 005.425-5.2A5.052 5.052 0 009.125.125h-7.35V16.8zm4.025-8.825H4.7V2.7h4.025a2.644 2.644 0 110 5.275zM21.85 17.1a6.05 6.05 0 006.2-6.35 6.017 6.017 0 00-6.2-6.325 6.017 6.017 0 00-6.2 6.325 6.05 6.05 0 006.2 6.35zm0-2.325c-2.225 0-3.475-1.875-3.475-4.025 0-2.125 1.25-4 3.475-4 2.25 0 3.475 1.875 3.475 4 0 2.15-1.225 4.025-3.475 4.025zM33.175 16.8V8.575A4.122 4.122 0 0136.3 6.95a3.623 3.623 0 01.8.075v-2.6a5.24 5.24 0 00-3.925 2.05v-1.75H30.55V16.8zm9.525.3a3.556 3.556 0 002.45-.775l-.625-2a1.633 1.633 0 01-1.15.45c-.75 0-1.15-.625-1.15-1.45V7h2.45V4.725h-2.45v-3.3H39.6v3.3h-2V7h2v6.975a2.782 2.782 0 003.1 3.125zm14.175-.3V8.775c0-3.225-2.35-4.35-5.05-4.35a7.074 7.074 0 00-5.075 1.95l1.1 1.825a4.835 4.835 0 013.575-1.55c1.65 0 2.825.85 2.825 2.25v1.8a5.047 5.047 0 00-3.925-1.55 3.874 3.874 0 00-4.175 3.95 4.02 4.02 0 004.175 4 5.083 5.083 0 003.925-1.625V16.8zm-5.5-1.5a2.314 2.314 0 01-2.6-2.175 2.329 2.329 0 012.6-2.175 3.6 3.6 0 012.875 1.25v1.85a3.6 3.6 0 01-2.875 1.25zm11.35 1.5V.125H60.1V16.8zm16.475 0V2.7h5.05V.125H71.225V2.7h5.05v14.1zm8.6-13.55a1.625 1.625 0 10-1.625-1.625A1.622 1.622 0 0087.8 3.25zm1.3 13.55V4.725h-2.625V16.8zm6.875.3a3.556 3.556 0 002.45-.775l-.625-2a1.633 1.633 0 01-1.15.45c-.75 0-1.15-.625-1.15-1.45V7h2.45V4.725H95.5v-3.3h-2.625v3.3h-2V7h2v6.975a2.782 2.782 0 003.1 3.125zm6.775-.3V.125h-2.625V16.8zm8.825.3a7.143 7.143 0 004.9-1.775l-1.2-1.725a5.077 5.077 0 01-3.45 1.35A3.651 3.651 0 01108 11.625h9.3v-.65c0-3.8-2.3-6.55-5.925-6.55a6.1 6.1 0 00-6.125 6.325 6.057 6.057 0 006.325 6.35zm3.2-7.35h-6.8a3.3 3.3 0 013.375-3.175 3.25 3.25 0 013.425 3.175z" fill="#fff"/>
</svg>
