<svg xmlns="http://www.w3.org/2000/svg" viewBox="0 0 484.426 132.492">
  <g transform="translate(-38.384 -203)">
    <g fill="#fff" stroke="#d4d8de" transform="translate(38.384 203)">
      <rect width="230.977" height="132.492" stroke="none" rx="7"/>
      <rect width="229.977" height="131.492" x=".5" y=".5" fill="none" rx="6.5"/>
    </g>
    <path fill="#35393b" d="M56.814 228.285a5.045 5.045 0 003.836-1.708v-3.486h-4.424v1.442h2.8v1.442a3.351 3.351 0 01-2.212.84 3.207 3.207 0 01-3.22-3.374 3.191 3.191 0 013.22-3.374 3.014 3.014 0 012.422 1.246l1.33-.77a4.369 4.369 0 00-3.752-1.932 4.694 4.694 0 00-4.9 4.83 4.714 4.714 0 004.9 4.844zm8.54-.014a4 4 0 002.744-.994l-.672-.966a2.843 2.843 0 01-1.932.756 2.044 2.044 0 01-2.142-1.864h5.208v-.364c0-2.128-1.288-3.668-3.318-3.668a3.418 3.418 0 00-3.43 3.542 3.392 3.392 0 003.542 3.558zm1.792-4.116h-3.808a1.85 1.85 0 011.888-1.778 1.82 1.82 0 011.92 1.778zm4.816 4.116a1.991 1.991 0 001.372-.434l-.35-1.12a.914.914 0 01-.644.252c-.42 0-.644-.35-.644-.812v-3.542h1.372v-1.274h-1.372v-1.848h-1.47v1.848h-1.12v1.274h1.12v3.906a1.558 1.558 0 001.736 1.75zm4.364 0a1.991 1.991 0 001.372-.434l-.35-1.12a.914.914 0 01-.644.252c-.42 0-.644-.35-.644-.812v-3.542h1.376v-1.274h-1.372v-1.848h-1.47v1.848h-1.12v1.274h1.12v3.906a1.558 1.558 0 001.732 1.75zm3.07-7.756a.908.908 0 00.91-.91.908.908 0 00-.91-.91.908.908 0 00-.91.91.908.908 0 00.91.91zm.73 7.588v-6.762h-1.47v6.762zm7.854 0v-4.76a1.949 1.949 0 00-2.184-2.17 3.224 3.224 0 00-2.394 1.078v-.91h-1.476v6.762h1.47v-4.732a2.3 2.3 0 011.736-.9c.826 0 1.372.336 1.372 1.4v4.232zm4.564 2.744c1.652 0 3.472-.658 3.472-3.094v-6.412h-1.47v.938a2.655 2.655 0 00-2.17-1.106c-1.75 0-3 1.274-3 3.472 0 2.226 1.274 3.472 3 3.472a2.719 2.719 0 002.17-1.134v.77a1.791 1.791 0 01-2 1.89 2.668 2.668 0 01-2.16-.868l-.686 1.064a3.869 3.869 0 002.842 1.008zm.264-4.044a1.916 1.916 0 01-1.918-2.156 1.928 1.928 0 011.918-2.17 2.244 2.244 0 011.736.9v2.526a2.244 2.244 0 01-1.736.9zm11.774 1.468c2.506 0 3.612-1.344 3.612-2.9 0-3.472-5.432-2.394-5.432-4.144 0-.686.616-1.162 1.568-1.162a3.806 3.806 0 012.716 1.08l.924-1.218a4.833 4.833 0 00-3.486-1.316c-2.058 0-3.4 1.19-3.4 2.744 0 3.43 5.432 2.212 5.432 4.172 0 .63-.518 1.288-1.862 1.288a4.012 4.012 0 01-2.954-1.3l-.924 1.274a5.1 5.1 0 003.806 1.482zm6.8 0a1.991 1.991 0 001.372-.434l-.35-1.12a.914.914 0 01-.644.252c-.42 0-.644-.35-.644-.812v-3.542h1.372v-1.274h-1.368v-1.848h-1.47v1.848h-1.124v1.274h1.12v3.906a1.558 1.558 0 001.74 1.75zm7.944-.168v-4.494c0-1.806-1.318-2.436-2.83-2.436a3.961 3.961 0 00-2.842 1.092l.616 1.022a2.707 2.707 0 012-.868c.924 0 1.582.476 1.582 1.26v1.008a2.826 2.826 0 00-2.2-.868 2.169 2.169 0 00-2.338 2.212 2.251 2.251 0 002.342 2.24 2.847 2.847 0 002.2-.91v.742zm-3.08-.84a1.3 1.3 0 01-1.456-1.218 1.3 1.3 0 011.456-1.218 2.018 2.018 0 011.61.7v1.036a2.018 2.018 0 01-1.612.7zm6.354.84v-4.606a2.308 2.308 0 011.75-.91 2.029 2.029 0 01.448.042v-1.456a2.934 2.934 0 00-2.2 1.148v-.98h-1.472v6.762zm5.334.168a1.991 1.991 0 001.372-.434l-.35-1.12a.914.914 0 01-.644.252c-.42 0-.644-.35-.644-.812v-3.542h1.372v-1.274h-1.372v-1.848h-1.47v1.848h-1.12v1.274h1.12v3.906a1.558 1.558 0 001.736 1.75zm5.46 0a4 4 0 002.744-.994l-.672-.966a2.843 2.843 0 01-1.932.756 2.044 2.044 0 01-2.142-1.864h5.208v-.364c0-2.128-1.288-3.668-3.318-3.668a3.418 3.418 0 00-3.43 3.542 3.392 3.392 0 003.542 3.558zm1.792-4.116h-3.808a1.85 1.85 0 011.89-1.778 1.82 1.82 0 011.918 1.778zm9 3.948v-9.338h-1.47v3.514a2.636 2.636 0 00-2.17-1.106c-1.736 0-3 1.358-3 3.542 0 2.24 1.274 3.556 3 3.556a2.718 2.718 0 002.17-1.092v.924zm-3.204-1.134a1.994 1.994 0 01-1.918-2.254 1.989 1.989 0 011.918-2.24 2.194 2.194 0 011.736.91v2.674a2.194 2.194 0 01-1.736.91z"/>
    <path fill="#d4d8de" d="M51.017 243.049h205.479v8H51.017zm0 17.256h205.479v8H51.017zm0 18.496h114v8h-114z"/>
    <g fill="#fff" stroke="#d4d8de" transform="translate(291.384 203)">
      <rect width="231.426" height="132.492" stroke="none" rx="7"/>
      <rect width="230.426" height="131.492" x=".5" y=".5" fill="none" rx="6.5"/>
    </g>
    <path fill="#35393b" d="M313.734 228.103l-3.668-9.338h-2.04l-3.672 9.338h1.862l.686-1.806h4.284l.686 1.806zm-3.008-3.248h-3.362l1.68-4.452zm5.556 3.248v-3.5h2.478a2.834 2.834 0 003.038-2.912 2.829 2.829 0 00-3.038-2.926h-4.116v9.338zm2.254-4.942h-2.254v-2.958h2.254a1.461 1.461 0 011.582 1.484 1.458 1.458 0 01-1.582 1.474zm6.174 4.942v-9.338h-1.638v9.338zm4.172.168c1.82 0 2.814-.91 2.814-2.114 0-2.688-4.088-1.792-4.088-2.982 0-.476.476-.84 1.246-.84a2.758 2.758 0 012 .812l.616-1.036a3.863 3.863 0 00-2.618-.938c-1.708 0-2.66.938-2.66 2.044 0 2.6 4.088 1.652 4.088 2.982 0 .532-.462.9-1.344.9a3.473 3.473 0 01-2.282-.938l-.672 1.05a4.1 4.1 0 002.9 1.06z"/>
    <path fill="#d4d8de" d="M304.017 243.049h205.929v8H304.017zm0 17.256h205.929v8H304.017zm0 18.496h114v8h-114z"/>
    <rect width="52.222" height="20" fill="#2196c9" rx="4" transform="translate(49.375 297)"/>
    <rect width="52.222" height="20" fill="#2196c9" rx="4" transform="translate(303.824 297)"/>
  </g>
</svg>