<svg xmlns="http://www.w3.org/2000/svg" width="32" height="32" viewBox="0 0 32 32"><defs><style>.a{opacity:0;}</style></defs><rect class="a" width="32" height="32"/><g transform="translate(3 3)"><path d="M18,55c-7.28,0-13,2.86-13,6.5v4.333a.715.715,0,0,0,.722.722H30.278A.715.715,0,0,0,31,65.833V61.5C31,57.86,25.28,55,18,55ZM29.556,65.111H6.444V61.5c0-2.456,4.651-5.056,11.556-5.056s11.556,2.6,11.556,5.056Z" transform="translate(-5 -40.556)"/><path d="M40.5,11.5A6.5,6.5,0,1,0,34,18,6.51,6.51,0,0,0,40.5,11.5Zm-11.556,0A5.056,5.056,0,1,1,34,16.556,5.08,5.08,0,0,1,28.944,11.5Z" transform="translate(-21 -5)"/></g></svg>