<svg xmlns="http://www.w3.org/2000/svg" width="19.754" height="19.754">
  <defs>
    <style>
      .view-icon-a{fill:#2196c9}
    </style>
  </defs>
  <path d="M9.877 6.997a3.642 3.642 0 103.741 3.64 3.7 3.7 0 00-3.741-3.641zm0 6.482a2.883 2.883 0 01-2.918-2.839 2.772 2.772 0 01.841-2 2.92 2.92 0 011.721-.817v-.019h.356a2.841 2.841 0 110 5.68z" class="view-icon-a"/>
  <path d="M9.882 5.003H9.65a11.6 11.6 0 00-9.587 5.405.435.435 0 000 .455 11.6 11.6 0 0019.623 0 .423.423 0 000-.453 11.549 11.549 0 00-9.804-5.407zm8.9 5.854a10.8 10.8 0 01-8.91 4.611h-.183a10.84 10.84 0 01-8.718-4.612l-.164-.221.164-.221a10.868 10.868 0 018.9-4.61 10.828 10.828 0 018.91 4.609l.163.221z" class="view-icon-a"/>
</svg>