<svg xmlns="http://www.w3.org/2000/svg" width="92.123" height="20.793" viewBox="0 0 92.123 20.793">
    <defs>
        <style>
            .vs-icon-a{fill:none;stroke-linecap:round;stroke-miterlimit:10;stroke-width:1.5px;}.vs-icon-a,.vs-icon-b{stroke:#54b7e3;}.vs-icon-b{fill:#54b7e3;}
        </style>
    </defs>
    <g transform="translate(-286.25 -473.34)">
        <g transform="translate(322.862 493.383) rotate(180)">
            <line x2="35.862" class="vs-icon-a" transform="translate(0 9.493)"/>
            <path d="M0,9.493,8.68,0H19.6" class="vs-icon-a" transform="translate(4.53 0)"/>
            <path d="M0,0,8.68,9.493H19.6" class="vs-icon-a" transform="translate(4.53 9.8)"/>
        </g>
        <g transform="translate(323.305 474.726)">
            <path d="M15.54,21.08a.494.494,0,0,1-.469.35H14.053a1,1,0,0,0-1,1v1.6a1,1,0,0,0,1,1h1.026a.5.5,0,0,1,.469.35,7.088,7.088,0,0,0,.439,1.056.5.5,0,0,1-.084.582l-.725.725a1,1,0,0,0,0,1.416l1.13,1.13a1.027,1.027,0,0,0,1.416,0l.732-.732a.5.5,0,0,1,.579-.084,7.078,7.078,0,0,0,1.049.431.494.494,0,0,1,.35.469v1.038a1,1,0,0,0,1,1h1.6a1,1,0,0,0,1-1V30.367a.5.5,0,0,1,.35-.469,6.851,6.851,0,0,0,1.038-.431.493.493,0,0,1,.579.084l.743.743a1.027,1.027,0,0,0,1.416,0l1.13-1.13a1,1,0,0,0,0-1.416L28.551,27a.5.5,0,0,1-.084-.579,6.92,6.92,0,0,0,.429-1.036.494.494,0,0,1,.469-.35h1.054a1,1,0,0,0,1-1v-1.6a1,1,0,0,0-1-1H29.37a.494.494,0,0,1-.469-.35,6.868,6.868,0,0,0-.429-1.041.5.5,0,0,1,.084-.579l.74-.74a1,1,0,0,0,0-1.416l-1.13-1.13a1.027,1.027,0,0,0-1.416,0l-.732.732a.5.5,0,0,1-.582.084,6.837,6.837,0,0,0-1.049-.436.491.491,0,0,1-.347-.469V15.053a1,1,0,0,0-1-1h-1.6a1,1,0,0,0-1,1v1.023a.494.494,0,0,1-.35.469,6.979,6.979,0,0,0-1.061.436.5.5,0,0,1-.579-.084l-.722-.722a1.027,1.027,0,0,0-1.416,0l-1.13,1.13a1,1,0,0,0,0,1.416l.72.72a.494.494,0,0,1,.084.579A7.008,7.008,0,0,0,15.54,21.08Zm.9-.829a1,1,0,0,0-.179-1.174l-.72-.72a.494.494,0,0,1,0-.7l1.13-1.13a.5.5,0,0,1,.7,0l.722.722a1,1,0,0,0,1.174.179,6.47,6.47,0,0,1,.982-.406,1.006,1.006,0,0,0,.707-.957V15.045a.493.493,0,0,1,.492-.492h1.6a.493.493,0,0,1,.492.492v1.031a1,1,0,0,0,.7.954,6.356,6.356,0,0,1,.972.406,1,1,0,0,0,1.176-.176l.732-.732a.5.5,0,0,1,.7,0l1.13,1.13a.494.494,0,0,1,0,.7l-.74.74a1,1,0,0,0-.179,1.171,6.528,6.528,0,0,1,.4.967,1,1,0,0,0,.957.7h1.049a.493.493,0,0,1,.492.492v1.6a.493.493,0,0,1-.492.492H29.367a1,1,0,0,0-.954.7,6.584,6.584,0,0,1-.4.962,1,1,0,0,0,.179,1.174l.745.745a.494.494,0,0,1,0,.7l-1.13,1.13a.5.5,0,0,1-.7,0l-.743-.743a1,1,0,0,0-1.174-.176,6.6,6.6,0,0,1-.962.4,1.006,1.006,0,0,0-.7.954v1.049a.493.493,0,0,1-.492.492h-1.6a.493.493,0,0,1-.492-.492V30.377a1,1,0,0,0-.707-.957,6.333,6.333,0,0,1-.972-.4,1.015,1.015,0,0,0-.467-.112,1,1,0,0,0-.707.291l-.732.732a.5.5,0,0,1-.7,0l-1.13-1.13a.494.494,0,0,1,0-.7l.725-.725a1,1,0,0,0,.176-1.176,6.725,6.725,0,0,1-.408-.98,1,1,0,0,0-.954-.7H14.05a.493.493,0,0,1-.492-.492v-1.6a.493.493,0,0,1,.492-.492h1.018a1,1,0,0,0,.954-.7A6.809,6.809,0,0,1,16.436,20.25Z" class="vs-icon-b" transform="translate(-13.05 -14.05)"/>
            <path d="M36.36,41.69a4.33,4.33,0,1,0-4.33-4.33A4.334,4.334,0,0,0,36.36,41.69Zm0-8.15a3.82,3.82,0,1,1-3.82,3.82A3.824,3.824,0,0,1,36.36,33.54Z" class="vs-icon-b" transform="translate(-27.187 -28.187)"/>
        </g>
        <g transform="translate(341.457 474.09)">
            <line x2="36.166" class="vs-icon-a" transform="translate(0 9.493)"/>
            <path d="M0,9.493,8.68,0H19.6" class="vs-icon-a" transform="translate(4.834 0)"/>
            <path d="M0,0,8.68,9.493H19.6" class="vs-icon-a" transform="translate(4.834 9.8)"/>
        </g>
    </g>
</svg>
