<svg xmlns="http://www.w3.org/2000/svg" width="24" height="24">
    <path fill="#2196c9" d="M21.674 9.911a2.487 2.487 0 00-2.512 1.675l-3.75-.668a4.237 4.237 0 00-2.086-3.294l1.357-2.647h.009a2.5 2.5 0 00.42.036 2.5 2.5 0 002.453-2.089 2.494 2.494 0 10-3.982 1.551l-1.384 2.696a4.16 4.16 0 00-3.951 1.1l-2.081-2.11a2.493 2.493 0 00-1.893-3.892 2.452 2.452 0 00-1.808.612 2.508 2.508 0 001.472 4.385c.057 0 .114.006.171.006a2.456 2.456 0 001.164-.3l2.239 2.277a4.217 4.217 0 00-.234 3.554l-3.033 2.108a2.467 2.467 0 00-1.585-.734 2.506 2.506 0 00-.336 5c.057 0 .113.006.169.006a2.488 2.488 0 002.377-3.234l3-2.086a4.2 4.2 0 003.342 1.654c.041 0 .081-.005.122-.006l.994 3.8a2.526 2.526 0 00-.413.293 2.508 2.508 0 001.472 4.386c.057 0 .114.006.171.006a2.5 2.5 0 002.484-2.336 2.5 2.5 0 00-2.32-2.667c-.078-.006-.154 0-.232.006l-.966-3.7a4.242 4.242 0 002.817-3.169l3.706.66a2.5 2.5 0 002.292 2.114c.057 0 .113.006.169.006a2.505 2.505 0 00.167-5zm-7.842-7.617a1.289 1.289 0 111.057 1.493 1.293 1.293 0 01-1.057-1.493zM2.412 17.969a1.293 1.293 0 01-1.2-1.379 1.294 1.294 0 011.286-1.208h.088a1.295 1.295 0 01-.174 2.584zm12.112 2.672a1.3 1.3 0 01-.123 1.827 1.276 1.276 0 01-.935.317 1.3 1.3 0 01-.761-2.267 1.285 1.285 0 011.819.123zm-3.312-6.333a3.025 3.025 0 113.011-3.025 3.022 3.022 0 01-3.011 3.025zm10.209-.605a1.295 1.295 0 111.373-1.2 1.295 1.295 0 01-1.375 1.199z"/>
</svg>
