<svg xmlns="http://www.w3.org/2000/svg" width="72" height="72" viewBox="0 0 72 72"><defs><style>.failoverA{fill:#fff;opacity:0;}.failoverB{fill:#2196c9;}</style></defs><rect class="failoverA" width="72" height="72"/><path class="failoverB" d="M286.621,388.01a8.49,8.49,0,1,0,8.489,8.49A8.5,8.5,0,0,0,286.621,388.01Zm0,14.98a6.49,6.49,0,1,1,6.489-6.49A6.5,6.5,0,0,1,286.621,402.99Z" transform="translate(-270.645 -360.588)"/><path class="failoverB" d="M286.621,393.494a3.006,3.006,0,1,0,3.005,3.006A3.01,3.01,0,0,0,286.621,393.494Zm0,4.012a1.006,1.006,0,1,1,1.005-1.006A1.008,1.008,0,0,1,286.621,397.506Z" transform="translate(-270.645 -360.588)"/><path class="failoverB" d="M326.382,383.054a8.49,8.49,0,1,0-8.49-8.49A8.5,8.5,0,0,0,326.382,383.054Zm0-14.98a6.49,6.49,0,1,1-6.49,6.49A6.5,6.5,0,0,1,326.382,368.074Z" transform="translate(-270.645 -360.588)"/><path class="failoverB" d="M326.381,377.569a3.006,3.006,0,1,0-3.007-3.006A3.01,3.01,0,0,0,326.381,377.569Zm0-4.012a1.006,1.006,0,1,1-1.007,1.006A1.007,1.007,0,0,1,326.381,373.557Z" transform="translate(-270.645 -360.588)"/><path class="failoverB" d="M326.382,409.948a8.49,8.49,0,1,0,8.489,8.49A8.5,8.5,0,0,0,326.382,409.948Zm0,14.98a6.49,6.49,0,1,1,6.489-6.49A6.5,6.5,0,0,1,326.382,424.928Z" transform="translate(-270.645 -360.588)"/><path class="failoverB" d="M326.381,404.462a13.982,13.982,0,0,0-13.925,12.975H305.1l-8.38-11.305a13.9,13.9,0,0,0,.291-18.944l8.6-11.6h6.846a13.984,13.984,0,1,0,0-2H304.6l-9.037,12.191a13.981,13.981,0,1,0-.335,21.706l8.861,11.954h8.363a13.968,13.968,0,1,0,13.925-14.975Zm0-41.874A11.975,11.975,0,1,1,314.4,374.563,11.988,11.988,0,0,1,326.381,362.588ZM274.645,396.5a11.975,11.975,0,1,1,11.975,11.975A11.989,11.989,0,0,1,274.645,396.5Zm51.736,33.912a11.975,11.975,0,1,1,11.974-11.975A11.989,11.989,0,0,1,326.381,430.412Z" transform="translate(-270.645 -360.588)"/><path class="failoverB" d="M326.381,415.431a3.006,3.006,0,1,0,3.006,3.006A3.01,3.01,0,0,0,326.381,415.431Zm0,4.012a1.006,1.006,0,1,1,1.006-1.006A1.008,1.008,0,0,1,326.381,419.443Z" transform="translate(-270.645 -360.588)"/></svg>