<svg xmlns="http://www.w3.org/2000/svg" xmlns:xlink="http://www.w3.org/1999/xlink"   viewBox="0 0 24 24"><defs><style>.federatedResA,.federatedResB{fill:#6e7477;}.federatedResB{opacity:0;}.federatedResC{clip-path:url(#a);}</style><clipPath id="a"><rect class="federatedResA" width="23.628" height="17.721"/></clipPath></defs><g transform="translate(0 3.123)"><rect class="federatedResB" width="24" height="24" transform="translate(0 -3.123)"/><g class="federatedResC" transform="translate(0 0.114)"><path class="federatedResA" d="M1.477,18.271A1.477,1.477,0,1,1,0,19.748a1.477,1.477,0,0,1,1.477-1.477" transform="translate(0 -16.241)"/><path class="federatedResA" d="M84.531,132.885a1.477,1.477,0,1,1-1.477,1.477,1.477,1.477,0,0,1,1.477-1.477" transform="translate(-73.824 -118.117)"/><path class="federatedResA" d="M74.564,63.121A1.477,1.477,0,1,1,73.087,64.6a1.477,1.477,0,0,1,1.477-1.477" transform="translate(-64.965 -56.106)"/><path class="federatedResA" d="M127.718,96.341a1.477,1.477,0,1,1-1.477,1.477,1.477,1.477,0,0,1,1.477-1.477" transform="translate(-112.212 -85.635)"/><path class="federatedResA" d="M172.567,122.919a1.477,1.477,0,1,1-1.477,1.477,1.477,1.477,0,0,1,1.477-1.477" transform="translate(-152.077 -109.259)"/><path class="federatedResA" d="M14.766,111.292a1.477,1.477,0,1,1-1.477,1.477,1.477,1.477,0,0,1,1.477-1.477" transform="translate(-11.812 -98.924)"/><path class="federatedResA" d="M187.516,43.187a1.477,1.477,0,1,1-1.477,1.477,1.477,1.477,0,0,1,1.477-1.477" transform="translate(-165.364 -38.388)"/><path class="federatedResA" d="M147.651,0a1.477,1.477,0,1,1-1.477,1.477A1.477,1.477,0,0,1,147.651,0" transform="translate(-129.93)"/><path class="federatedResA" d="M154.823,117.284l1.218.743a2.214,2.214,0,0,1,.376-.636l-1.223-.745a2.215,2.215,0,0,1-.371.639" transform="translate(-137.617 -103.682)"/><path class="federatedResA" d="M154.874,35.78l-.839.729-.916-4.612a2.2,2.2,0,0,1-.724.144l1,5.026-1.952,1.7a2.229,2.229,0,0,1,.512.533l1.606-1.4.7,3.539a2.2,2.2,0,0,1,.721-.16l-.782-3.936,1.156-1a2.231,2.231,0,0,1-.483-.559" transform="translate(-134.611 -28.352)"/><path class="federatedResA" d="M109.351,121.045l1.44-1.251a2.227,2.227,0,0,1-.461-.578l-1.467,1.275a2.228,2.228,0,0,1,.488.554" transform="translate(-96.765 -105.967)"/><path class="federatedResA" d="M103.5,23.484l-4.86,4.139a2.23,2.23,0,0,1,.5.546l4.839-4.121a2.227,2.227,0,0,1-.478-.563" transform="translate(-87.675 -20.874)"/><path class="federatedResA" d="M103.809,85.452,101.586,84.1a2.216,2.216,0,0,1-.4.622l2.22,1.353a2.216,2.216,0,0,1,.4-.621" transform="translate(-89.944 -74.751)"/><path class="federatedResA" d="M27.926,40.1l4.427,2.7a2.216,2.216,0,0,1,.374-.637l-4.4-2.68a2.221,2.221,0,0,1-.4.618" transform="translate(-24.823 -35.094)"/><path class="federatedResA" d="M25.6,51.453l-1.749,1.489a2.227,2.227,0,0,1,.438.6l1.747-1.487L28.47,55.4a2.229,2.229,0,0,1,.593-.44L26.6,51.572l.879-.749a2.227,2.227,0,0,1-.461-.577l-.853.727-3.78-5.2a2.224,2.224,0,0,1-.607.422Z" transform="translate(-19.36 -40.686)"/></g></g></svg>