<svg id="Layer_1" data-name="Layer 1" xmlns="http://www.w3.org/2000/svg" viewBox="0 0 233.4472 218.934"><title>gloo enterprise A2-Edited</title><path d="M253.4155,254.417c5.4458-.6113,9.5723.0356,15.2085,1.7778l-2.8491,6.4629c-2.061-.6372-11.2393,5.1016-10.4434,3.231,1.5884-3.732-1.2246-4.668-4.3374-4.3179-6.3169-.1445-.7793,13.35-14.9238,16.4155-9.4595,2.05-17.2632-3.518-18.7222-12.0005s5.0557-16.8808,14.5513-18.7587a12.1158,12.1158,0,0,1,12.8989,5.4912c2.7823,4.1679,2.3706,2.3994,8.6172,1.6987" transform="translate(-180.9142 -147.3424)" style="fill:#5eaeda;fill-rule:evenodd"/><path d="M258.7349,300.1045c-2.1382-4.5728-22.084.32-35.8257,1.8369s-15.6719,8.209-14.93,12.8057,8.0762,9.3447,19.2759,6.5429c11.2-2.8037,33.6186-16.6142,31.4795-21.1855" transform="translate(-180.9142 -147.3424)" style="fill:#5eaeda;fill-rule:evenodd"/><path d="M342.5181,300.9463c-.9073-4.9648,18.1816-12.54,30.2578-19.27s17.5283-2.396,19.5888,1.78-1.163,12.2959-11.914,16.5048-37.0244,5.9512-37.9326.9854" transform="translate(-180.9142 -147.3424)" style="fill:#5eaeda;fill-rule:evenodd"/><path d="M302.68,361.5322c26.79,0,48.5068,1.0616,48.5068,2.3721s-21.7168,2.3721-48.5068,2.3721-48.5059-1.0615-48.5059-2.3721,21.7173-2.3721,48.5059-2.3721" transform="translate(-180.9142 -147.3424)" style="fill-rule:evenodd;opacity:0.24"/><path d="M275.6782,364.3477c12.9912,0,15.4619-8.4717,24.0508-8.54s12.3193,8.54,24.8506,8.54c20.2588,0,33.4463-43.5,33.4463-67.3091,0-30.5049-25.8662-51.0347-57.7725-51.0347s-57.7724,20.53-57.7724,51.0347c0,36.0991,15.4155,67.3091,33.1972,67.3091" transform="translate(-180.9142 -147.3424)" style="fill:#5eaeda;fill-rule:evenodd"/><path d="M302.74,247.4561a51.5185,51.5185,0,0,1,51.5186,51.5195c0,51.8281-102.7153,54.4551-102.7153-7.4795,0-28.4536,22.7431-44.04,51.1967-44.04" transform="translate(-180.9142 -147.3424)" style="fill:#68bde5;fill-rule:evenodd"/><path d="M364.7954,289.0444c-.2988-2.0756,4.7158-2.8183,10.2969-6.4189s9.0185-3.398,9.3183-1.3218-2.6318,4.918-7.71,6.7739-11.6055,3.0425-11.9053.9668" transform="translate(-180.9142 -147.3424)" style="fill:#fff;fill-rule:evenodd"/><path d="M216.8091,314.4522a2.7749,2.7749,0,0,0-2.6353-2.3448,2.0032,2.0032,0,0,0-2.3916,1.9473,2.776,2.776,0,0,0,2.6363,2.3447,2.0017,2.0017,0,0,0,2.3906-1.9472m24.0639-4.5762c.0508-2.1377-3.7338,2.9931-15.955,3.706-4.3628.2539-6.4624-.2158-6.899,1.7159-.187.8291-.019,3.03,6.0752,2.5732S240.8174,312.2422,240.873,309.876Z" transform="translate(-180.9142 -147.3424)" style="fill:#fff;fill-rule:evenodd"/><path d="M346.17,279.8652a2.7128,2.7128,0,0,1,2.6084,2.2691,1.9959,1.9959,0,0,1-1.5107,2.6474,2.7127,2.7127,0,0,1-2.6084-2.2685,1.9965,1.9965,0,0,1,1.5107-2.648m-44.2851-19.2568c-10.1939,1.2871-12.5708-8.6333.3544-10.7236,16.1924-2.6182,37.9668,9.4756,43.6426,24.2636,1.5108,3.938-1.417,5.146-4.2031,1.1026C333.9663,264.0542,318.9868,258.45,301.8853,260.6084Z" transform="translate(-180.9142 -147.3424)" style="fill:#f5fafc;fill-rule:evenodd"/><path d="M230.2666,250.1191a6.2755,6.2755,0,0,1,8.53,2.4488c3.0586,5.522-7.7305,11.8642-11.3853,5.2651-1.68-3.0312-.1762-6.0342,2.8555-7.7139" transform="translate(-180.9142 -147.3424)" style="fill:#fff;fill-rule:evenodd"/><path d="M371.5083,225.4356a10.6222,10.6222,0,0,1,4.4561,1.6909l-1.3506,1.7343c-.5733-.3486-3.7793.6871-3.3975.1832.7627-1.0064-.0156-1.502-.9814-1.6329-1.8965-.5229-1.2481,3.9707-5.751,3.8228a4.6577,4.6577,0,0,1-4.7412-5.043c.2031-2.6714,2.8076-4.7119,5.8164-4.5586a3.77,3.77,0,0,1,3.4765,2.6368c.5245,1.4692.5342.9038,2.4727,1.1665" transform="translate(-180.9142 -147.3424)" style="fill:#5eaeda;fill-rule:evenodd"/><path d="M375.5142,240.0581c-.9961-1.2148-6.6368,1.793-10.6651,3.3057s-4.0967,3.68-3.5205,5.0093,3.1533,2.1987,6.3174.4931,8.8643-7.5932,7.8682-8.8081" transform="translate(-180.9142 -147.3424)" style="fill:#5eaeda;fill-rule:evenodd"/><path d="M398.1509,232.7715c-.0625-1.57,6.1513-3.0708,10.167-4.6177s5.5058.0264,5.959,1.4033-.8956,3.7388-4.3926,4.5664-11.67.2178-11.7334-1.352" transform="translate(-180.9142 -147.3424)" style="fill:#5eaeda;fill-rule:evenodd"/><path d="M384.5229,258.9922c3.9083-1.0381,3.9747-3.7837,6.5538-4.4907s4.3877,1.5849,8.1582.584c6.0937-1.6187,6.5859-15.7583,4.6836-22.9209-2.4375-9.1773-11.8584-13.2867-21.4571-10.7378s-15.7392,10.792-13.3027,19.9687c2.8848,10.86,10.0156,19.0171,15.3642,17.5967" transform="translate(-180.9142 -147.3424)" style="fill:#5eaeda;fill-rule:evenodd"/><path d="M383.3257,221.6655A16.0353,16.0353,0,0,1,402.94,233.0479c4.1407,15.5918-26.55,24.5883-31.498,5.9565-2.2734-8.56,3.3242-15.0659,11.8838-17.3389" transform="translate(-180.9142 -147.3424)" style="fill:#68bde5;fill-rule:evenodd"/><path d="M405.5366,230.0762c-.0019-.6529,1.5762-.6626,3.4531-1.5288s2.9278-.6533,2.93-.0005-1.0263,1.4009-2.6718,1.751-3.71.4311-3.711-.2217" transform="translate(-180.9142 -147.3424)" style="fill:#fff;fill-rule:evenodd"/><path d="M363.9692,247.606a.8631.8631,0,0,0-.9746-.5049.6235.6235,0,0,0-.5722.771.8645.8645,0,0,0,.9755.5049.6231.6231,0,0,0,.5713-.771m6.9073-3.2285c-.1485-.649-.8965,1.1894-4.5284,2.3432-1.2959.4116-1.9658.4312-1.9482,1.0474.0068.2646.2266.9155,2.0293.3095S371.0415,245.0957,370.8765,244.3775Z" transform="translate(-180.9142 -147.3424)" style="fill:#fff;fill-rule:evenodd"/><path d="M387.2144,239.2783c2.6279-.6982,3.35-1.8784,4.7617-1.1621s.1406,4.6538-3.5957,5.646-6.7188-1.7788-5.9229-3.1181,2.1279-.6675,4.7569-1.3658" transform="translate(-180.9142 -147.3424)" style="fill:#003c6a;fill-rule:evenodd"/><path d="M390.5942,241.95a5.0421,5.0421,0,0,1-5.1162,1.3179c-.1543-.812,1.1582-1.62,2.3662-1.376.9815-.8257,2.51-.75,2.75.0581" transform="translate(-180.9142 -147.3424)" style="fill:#5eaeda;fill-rule:evenodd"/><path d="M387.2935,239.582c1.7207-.457,2.57-1.0805,3.3486-1.2861l.0117.04a1.086,1.086,0,0,1-.7178,1.3545.9747.9747,0,0,1-.5322-.0092,3.75,3.75,0,0,0-2.708,1.3647,1.165,1.165,0,0,1-1.18-.353.9781.9781,0,0,1-.4834.3,1.086,1.086,0,0,1-1.2949-.82l-.0127-.0523a33.6772,33.6772,0,0,0,3.5684-.5381" transform="translate(-180.9142 -147.3424)" style="fill:#fff;fill-rule:evenodd"/><path d="M399.064,227.5806a.8443.8443,0,0,1,.999.3989.6216.6216,0,0,1-.1719.9331.8439.8439,0,0,1-.999-.3989.6215.6215,0,0,1,.1719-.9331m-14.99-1.1118c-2.8633,1.4248-4.58-1.2461-.997-3.1875,4.4892-2.4317,12.1289-1.1138,15.3154,2.6489.8486,1.0019.1123,1.6577-1.1211.7554C393.855,224.1875,388.8774,224.0786,384.0737,226.4688Z" transform="translate(-180.9142 -147.3424)" style="fill:#f5fafc;fill-rule:evenodd"/><path d="M395.1929,232.4429a2.8521,2.8521,0,1,1-2.0244,3.4887,2.8516,2.8516,0,0,1,2.0244-3.4887" transform="translate(-180.9142 -147.3424)" style="fill:#003c6a;fill-rule:evenodd"/><path d="M396.6763,232.9941a.7958.7958,0,1,1-.5645.9732.7964.7964,0,0,1,.5645-.9732" transform="translate(-180.9142 -147.3424)" style="fill:#f5fafc;fill-rule:evenodd"/><path d="M376.8735,237.3081a2.8521,2.8521,0,1,1-2.0244,3.4888,2.8517,2.8517,0,0,1,2.0244-3.4888" transform="translate(-180.9142 -147.3424)" style="fill:#003c6a;fill-rule:evenodd"/><path d="M378.3569,237.86a.7954.7954,0,1,1-.5644.9731.796.796,0,0,1,.5644-.9731" transform="translate(-180.9142 -147.3424)" style="fill:#f5fafc;fill-rule:evenodd"/><path d="M364.8472,222.3818a1.9532,1.9532,0,0,1,2.3886,1.3863c.5039,1.8989-3.2334,2.9951-3.8369.7256a1.721,1.721,0,0,1,1.4483-2.1119" transform="translate(-180.9142 -147.3424)" style="fill:#fff;fill-rule:evenodd"/><path d="M299.3979,155.5762a10.6285,10.6285,0,0,1,2.4063,4.1138l-2.1406.5024c-.2266-.6318-3.3726-1.8389-2.7588-1.9917,1.2256-.3037.9316-1.1787.2612-1.8867-1.147-1.5977-3.4648,2.3061-6.876-.6363a4.6576,4.6576,0,0,1-.5224-6.9018c1.8354-1.9512,5.143-1.9048,7.3887.1045a3.7709,3.7709,0,0,1,1.05,4.2353c-.5146,1.4722-.1528,1.0386,1.1914,2.46" transform="translate(-180.9142 -147.3424)" style="fill:#5eaeda;fill-rule:evenodd"/><path d="M293.3335,166.9619c-.0127,1.5713-6.2915,2.7725-10.3765,4.1245s-5.499-.291-5.8847-1.688,1.0737-3.6914,4.6064-4.35,11.667.3428,11.6548,1.9136" transform="translate(-180.9142 -147.3424)" style="fill:#5eaeda;fill-rule:evenodd"/><path d="M316.1841,177.2315c-1.1475,1.0732,2.2217,6.5063,3.9931,10.4272s3.9385,3.8486,5.2276,3.1865,1.9892-3.29.081-6.3354-8.1543-8.3516-9.3017-7.2783" transform="translate(-180.9142 -147.3424)" style="fill:#5eaeda;fill-rule:evenodd"/><path d="M288.4551,189.8643c3.6933,1.6465,5.47-.4488,7.92.62s2.4194,3.9892,5.9829,5.5776c5.7588,2.5669,15.0205-8.1284,18.0381-14.897,3.8662-8.6723-.8857-17.7871-9.957-21.83s-19.0254-1.4849-22.8916,7.1875c-4.5747,10.2627-4.1475,21.0888.9077,23.3423" transform="translate(-180.9142 -147.3424)" style="fill:#5eaeda;fill-rule:evenodd"/><path d="M310.9624,160.0625a16.0352,16.0352,0,0,1,8.1172,21.1753c-6.5684,14.7349-36.1025,2.4644-28.2534-15.1431,3.6054-8.0893,12.0473-9.6381,20.1362-6.0322" transform="translate(-180.9142 -147.3424)" style="fill:#68bde5;fill-rule:evenodd"/><path d="M321.9233,183.15c-.46.4634.6563,1.5791,1.3838,3.5137s1.626,2.5215,2.085,2.0576.2539-1.7173-.6719-3.123-2.3379-2.9122-2.7969-2.4483" transform="translate(-180.9142 -147.3424)" style="fill:#fff;fill-rule:evenodd"/><path d="M279.6094,168.3374a.8639.8639,0,0,1-.4424,1.0049.623.623,0,0,1-.9292-.2412.8636.8636,0,0,1,.4424-1.0049.6236.6236,0,0,1,.9292.2412m7.4023-1.8247c.2915.5981-1.4443-.3628-4.9951,1.0195-1.2676.4937-1.8008.899-2.1748.4087-.1606-.21-.3984-.855,1.3853-1.5156S286.69,165.85,287.0117,166.5127Z" transform="translate(-180.9142 -147.3424)" style="fill:#fff;fill-rule:evenodd"/><path d="M303.6382,178.3086c-1.3731,3.17-5.208,2.0132-3.6279-1.6357,1.5517-3.58,5.0888-1.7359,3.6279,1.6357" transform="translate(-180.9142 -147.3424)" style="fill:#003c6a;fill-rule:evenodd"/><path d="M319.4956,174.5488a.8452.8452,0,0,1,.5283.938c-.0537.43-.376.7066-.72.6177a.8446.8446,0,0,1-.5283-.938c.0537-.43.376-.706.72-.6177m-10.9668-10.2783c-3.123-.6889-2.7822-3.8457,1.2256-3.1064,5.0205.9262,10.1387,6.75,10.2559,11.6787.03,1.3125-.9541,1.36-1.3477-.1167C317.5728,168.6367,313.7681,165.4268,308.5288,164.2705Z" transform="translate(-180.9142 -147.3424)" style="fill:#f5fafc;fill-rule:evenodd"/><path d="M293.3369,169.5908a2.8523,2.8523,0,1,1,4.9312,2.8682" transform="translate(-180.9142 -147.3424)" style="fill:none;stroke:#003c6a;stroke-linecap:round;stroke-linejoin:round;stroke-width:1.4173px"/><path d="M296.1313,149.0161a1.9532,1.9532,0,0,1,.9888,2.5791c-.8,1.7945-4.3974.3-3.4414-1.8447a1.7209,1.7209,0,0,1,2.4526-.7344" transform="translate(-180.9142 -147.3424)" style="fill:#fff;fill-rule:evenodd"/><path d="M308.1694,177.0728a2.8524,2.8524,0,0,1,4.9317,2.8676" transform="translate(-180.9142 -147.3424)" style="fill:none;stroke:#003c6a;stroke-linecap:round;stroke-linejoin:round;stroke-width:1.4173px"/><path d="M190.6416,220.37a10.64,10.64,0,0,1,4.5967-1.26l-.0694,2.1977c-.6689.0562-2.6489,2.7822-2.6372,2.15.0235-1.2627-.8974-1.2046-1.7548-.7407-1.84.6943,1.3305,3.9438-2.3941,6.477a4.6585,4.6585,0,0,1-6.8027-1.2812c-1.41-2.2783-.5078-5.4614,2.0137-7.11a3.7709,3.7709,0,0,1,4.3627.0816c1.2891.8784.9639.4165,2.6851-.5142" transform="translate(-180.9142 -147.3424)" style="fill:#5eaeda;fill-rule:evenodd"/><path d="M198.4224,231.0049c1.5317-.3491,4.144,5.4853,6.3994,9.15s.9809,5.4185-.29,6.1152-3.84-.1958-5.2929-3.4824-2.3487-11.4336-.8169-11.7827" transform="translate(-180.9142 -147.3424)" style="fill:#5eaeda;fill-rule:evenodd"/><path d="M216.9336,208.8394c.104,1.5678,6.4419,2.4008,10.5991,3.5127s5.4727-.6114,5.7764-2.0284-1.2871-3.6225-4.8521-4.0742-11.6274,1.0225-11.5234,2.59" transform="translate(-180.9142 -147.3424)" style="fill:#5eaeda;fill-rule:evenodd"/><path d="M220.9292,239.815c2.5464-3.1417.9819-5.3995,2.6489-7.49s4.48-1.3047,6.9356-4.335c3.9707-4.8989-3.9634-16.6132-9.7207-21.2793-7.376-5.979-17.41-3.748-23.6636,3.9668s-6.3584,17.9937,1.0176,23.9722c8.729,7.0752,19.2973,9.4644,22.7822,5.1651" transform="translate(-180.9142 -147.3424)" style="fill:#5eaeda;fill-rule:evenodd"/><path d="M197.9678,210.3613a16.0362,16.0362,0,0,1,22.5551-2.36c12.5328,10.1582-6.9638,35.51-21.94,23.3716-6.88-5.5767-6.1914-14.1309-.6152-21.0113" transform="translate(-180.9142 -147.3424)" style="fill:#68bde5;fill-rule:evenodd"/><path d="M224.9375,208.5933c.0679.6489,1.6382.4912,3.5967,1.1533s2.98.3389,2.9126-.3106-1.1685-1.2836-2.8423-1.4575-3.7344-.0346-3.667.6148" transform="translate(-180.9142 -147.3424)" style="fill:#fff;fill-rule:evenodd"/><path d="M202.916,244.0454a.8641.8641,0,0,1,1.08.1987.6239.6239,0,0,1-.021.96.8641.8641,0,0,1-1.08-.1992.623.623,0,0,1,.021-.9595m-3.478-6.7846c.5156-.4214-.02,1.4892,2.1411,4.6269.772,1.12,1.2886,1.5459.898,2.0225-.168.2041-.74.5839-1.794-1S198.8677,237.7266,199.438,237.2608Z" transform="translate(-180.9142 -147.3424)" style="fill:#fff;fill-rule:evenodd"/><path d="M211.4878,222.3008c1.7124-2.1123,1.6-3.4917,3.1621-3.7446s2.8569,3.6772.4224,6.6806-6.4771,2.5215-6.6231.97,1.3262-1.7929,3.0386-3.9062" transform="translate(-180.9142 -147.3424)" style="fill:#003c6a;fill-rule:evenodd"/><path d="M215.7925,222.4683a5.039,5.039,0,0,1-3.3565,4.0786c-.6035-.5654-.019-1.9917,1.1011-2.5059.3057-1.2451,1.585-2.0844,2.2554-1.5727" transform="translate(-180.9142 -147.3424)" style="fill:#5eaeda;fill-rule:evenodd"/><path d="M211.7305,222.5c1.1216-1.3833,1.44-2.3867,1.9487-3.0122l.0322.0254a1.085,1.085,0,0,1,.2183,1.5171.97.97,0,0,1-.4351.3066,3.7512,3.7512,0,0,0-1.3842,2.6983,1.1646,1.1646,0,0,1-1.1607.41.9807.9807,0,0,1-.2143.5269,1.0853,1.0853,0,0,1-1.5293.1006c-.0142-.0117-.0279-.023-.0415-.0352a33.5426,33.5426,0,0,0,2.5659-2.5371" transform="translate(-180.9142 -147.3424)" style="fill:#fff;fill-rule:evenodd"/><path d="M214.17,205.8677a.8441.8441,0,0,1,1.0425-.2671.6214.6214,0,0,1,.41.8555.8442.8442,0,0,1-1.0425.2666.6207.6207,0,0,1-.41-.855m-12.7671,7.9336c-1.4736,2.8384-4.435,1.6919-2.6831-1.9878,2.1944-4.61,9.1436-8.0464,13.9351-6.8838,1.2754.31,1.0669,1.2734-.4614,1.2715C207.9614,206.1953,203.8755,209.04,201.4028,213.8013Z" transform="translate(-180.9142 -147.3424)" style="fill:#f5fafc;fill-rule:evenodd"/><path d="M183.46,221.8276a1.9531,1.9531,0,0,1,2.747-.2871c1.5269,1.2373-.8481,4.3247-2.6718,2.8467a1.7211,1.7211,0,0,1-.0752-2.56" transform="translate(-180.9142 -147.3424)" style="fill:#fff;fill-rule:evenodd"/><path d="M213.916,210.1655a26.7276,26.7276,0,0,0-.0674,4.4566c.0552.6909.1792,1.0376.7652.4223q1.6318-1.713,3.2646-3.4282" transform="translate(-180.9142 -147.3424)" style="fill:none;stroke:#003c6a;stroke-linecap:round;stroke-linejoin:round;stroke-width:1.4173px"/><path d="M200.2271,226.0972a26.6839,26.6839,0,0,1,4.3881-.7793c.691-.0567,1.0533.0107.54.6875q-1.43,1.8852-2.8618,3.771" transform="translate(-180.9142 -147.3424)" style="fill:none;stroke:#003c6a;stroke-linecap:round;stroke-linejoin:round;stroke-width:1.4173px"/><path d="M238.1294,196.021c-1.8462,2.8911-.33,3.1729,2.8066-.0156,6.5606-6.5664,11.8887-10.5332,20-12.3765,17.5708-3.9931-11.832-4.7939-22.8066,12.3921" transform="translate(-180.9142 -147.3424)" style="fill:#0067ad"/><path d="M241.1313,200.1157c-1.0126,1.5855-.1811,1.74,1.5391-.0083a32.4446,32.4446,0,0,1,11.3755-7.3506c4.1406-1.7041,2.1333-2.8554-.93-1.5839-3.2666,1.3559-8.8447,4.0263-11.9844,8.9428" transform="translate(-180.9142 -147.3424)" style="fill:#0067ad"/><path d="M368.6138,204.062c1.4052,3.1289-.1358,3.187-2.7744-.4243-5.5342-7.4521-10.2266-12.1528-17.9834-15.1587-16.8008-6.51,12.4043-3.019,20.7578,15.583" transform="translate(-180.9142 -147.3424)" style="fill:#0067ad"/><path d="M359.7671,204.126c.77,1.7163-.0742,1.748-1.5215-.2329a32.467,32.467,0,0,0-10.1826-8.93c-3.8486-2.2886-1.6943-3.1353,1.15-1.4312,3.0342,1.8179,8.164,5.2725,10.5537,10.5938" transform="translate(-180.9142 -147.3424)" style="fill:#0067ad"/><path d="M191.82,206.29c-.0615,1,.3818,1.5547.5405-.0463a4.599,4.599,0,0,1,3.0132-4.1538c1.2442-.3306,1.7412-1.1973.3184-1.0835-1.9785.1591-3.71,2.6411-3.8721,5.2836" transform="translate(-180.9142 -147.3424)" style="fill:#0067ad"/><path d="M193.2344,208.2759c-.1509,1.2432.4482,2.0215.7768.04a5.3581,5.3581,0,0,1,4.5738-4.6577c1.8007-.1841,2.5664-1.1807.5239-1.3008-2.8408-.167-5.4756,2.6294-5.8745,5.918" transform="translate(-180.9142 -147.3424)" style="fill:#0067ad"/><path d="M329.1792,170.4741c-.39.9229-1.0332,1.2227-.4639-.2822a4.5969,4.5969,0,0,0-.8515-5.06c-.9678-.8487-1.0264-1.8462.1963-1.1119,1.7011,1.022,2.1494,4.0157,1.1191,6.4546" transform="translate(-180.9142 -147.3424)" style="fill:#0067ad"/><path d="M327.03,171.6235c-.418,1.1812-1.3008,1.6119-.7139-.3085a5.3575,5.3575,0,0,0-2.0254-6.2056c-1.5312-.9658-1.7744-2.1992.1084-1.3985,2.6192,1.1138,3.7354,4.79,2.6309,7.9126" transform="translate(-180.9142 -147.3424)" style="fill:#0067ad"/><path d="M408.2612,259.6377c-.86.3511-1.5664.0938-.2177-.5264a3.621,3.621,0,0,0,2.249-4.0747c-.3037-1.2763.2285-2.0014.81-.62.8086,1.9214-.5674,4.2915-2.8418,5.2207" transform="translate(-180.9142 -147.3424)" style="fill:#0067ad"/><path d="M404.022,258.8731c-1.2188.5459-2.2012.1811-.2862-.7784a5.7155,5.7155,0,0,0,3.3028-6.1289c-.38-1.893.3935-2.9873,1.16-.9443,1.0664,2.8418-.9521,6.4082-4.1767,7.8516" transform="translate(-180.9142 -147.3424)" style="fill:#0067ad"/><path d="M218.623,246.1011c-1.2475-.11-1.8852-.857.1207-.7686a5.3575,5.3575,0,0,0,5.5048-3.5092c.5533-1.7237,1.6866-2.2662,1.3809-.2432-.4248,2.814-3.7065,4.812-7.0064,4.521" transform="translate(-180.9142 -147.3424)" style="fill:#0067ad"/><path d="M371.5854,183.186a5.25,5.25,0,1,1-5.25,5.25,5.25,5.25,0,0,1,5.25-5.25" transform="translate(-180.9142 -147.3424)" style="fill:#5eaeda;fill-rule:evenodd"/><path d="M374.7944,185.4077a1.7588,1.7588,0,0,1,.7539,2.2559,1.6189,1.6189,0,0,1-2.2978.1069,1.76,1.76,0,0,1-.7539-2.2563,1.6185,1.6185,0,0,1,2.2978-.1065" transform="translate(-180.9142 -147.3424)" style="fill:#fff;fill-rule:evenodd"/><path d="M248.5845,216.2813a5.25,5.25,0,1,1-5.25,5.25,5.25,5.25,0,0,1,5.25-5.25" transform="translate(-180.9142 -147.3424)" style="fill:#5eaeda;fill-rule:evenodd"/><path d="M251.7935,218.5025a1.7591,1.7591,0,0,1,.7539,2.2563,1.619,1.619,0,0,1-2.2979.1064,1.7586,1.7586,0,0,1-.7534-2.2563,1.6184,1.6184,0,0,1,2.2974-.1064" transform="translate(-180.9142 -147.3424)" style="fill:#fff;fill-rule:evenodd"/><path d="M300.4331,331.41l-4.0684,2.6533,2.2559,2.3877a37.1362,37.1362,0,0,1-3.3359,9.5859l4.4707,5.0645,5.0967-4.5381a56.2123,56.2123,0,0,0-2.5782-10.1426l2.2266-2.3574Z" transform="translate(-180.9142 -147.3424)" style="fill:#ff3931;fill-rule:evenodd"/><path d="M294.7944,337.2578l-8.24-10.8584c11.4624,4.31,15.7676,4.0655,27.8408-.0078l-8.3242,10.8662q-2.8184-2.8344-5.6377-5.6679-2.82,2.8344-5.6387,5.6679" transform="translate(-180.9142 -147.3424)" style="fill:#fff;fill-rule:evenodd"/><path d="M298.5,337.0186c.04-.19.0811-.378.1211-.5674a14.6366,14.6366,0,0,0,3.6533-.03c.0713.1992.1416.3984.2139.5977a15.6673,15.6673,0,0,1-3.9883,0" transform="translate(-180.9142 -147.3424)" style="fill:#d71e1e;fill-rule:evenodd"/><path d="M380.29,308.7217c-1.01-.4346-1.378-1.2442.2636-.62a4.2825,4.2825,0,0,0,5.3037-1.4785c.8252-1.3145,1.8789-1.4659,1.1944.1709-.9512,2.2753-4.0928,3.0781-6.7617,1.9277" transform="translate(-180.9142 -147.3424)" style="fill:#0067ad"/><path d="M377.3306,305.6553c-1.4717-.5772-1.9776-1.708.42-.8867a6.76,6.76,0,0,0,7.9111-2.292c1.2832-1.89,2.8477-2.1436,1.7588.1972-1.5156,3.2549-6.1982,4.5069-10.09,2.9815" transform="translate(-180.9142 -147.3424)" style="fill:#0067ad"/><path d="M300.2886,300.0117c8.3115,0,11.3691-3.0981,14.9765.3194s-3.2334,14.6972-15.0488,14.6972-18.4512-11.1621-15.0493-14.6972,6.81-.3194,15.1216-.3194" transform="translate(-180.9142 -147.3424)" style="fill:#003c6a;fill-rule:evenodd"/><path d="M308.1763,311.1914a14.6607,14.6607,0,0,1-16.1441-.1269c.1812-2.6739,4.6919-4.1123,8.0689-2.3418,3.5449-1.77,7.999-.2637,8.0752,2.4687" transform="translate(-180.9142 -147.3424)" style="fill:#5eaeda;fill-rule:evenodd"/><path d="M300.2866,301.3408c5.7178,0,8.8653-1.2461,11.4531-1.2422.002.044.002.0889.002.1348a3.5034,3.5034,0,0,1-3.3428,3.6455,3.1122,3.1122,0,0,1-1.6435-.4707,3.7688,3.7688,0,0,1-6.4336.4024,3.7681,3.7681,0,0,1-6.4668-.4688,3.1233,3.1233,0,0,1-1.7471.5371,3.5038,3.5038,0,0,1-3.3433-3.6455c0-.06.001-.1182.0035-.1758,2.5854.0547,5.8007,1.2832,11.5185,1.2832" transform="translate(-180.9142 -147.3424)" style="fill:#fff;fill-rule:evenodd"/><path d="M236.5024,282.8838c1.5787,1.9292-.3437,14.0478,5.7334,21.666,4.6578,5.84,13.5674,6.9834,22.5083,6.6934a34.8178,34.8178,0,0,0,12.0376-2.5254,16.0345,16.0345,0,0,0,8.2022-6.7031c2.1684-3.0782,3.3735-6.6529,4.8052-10.7081a11.0378,11.0378,0,0,1,20.9282,0c1.4326,4.0552,2.6377,7.63,4.8056,10.7081a16.0353,16.0353,0,0,0,8.2022,6.7031,34.82,34.82,0,0,0,12.0371,2.5254c8.9414.29,17.8506-.8535,22.5088-6.6934,6.0771-7.6182,4.1543-19.7368,5.7334-21.666,3.2314-3.4346,2.543-12.8721-3.39-14.1538a109.3738,109.3738,0,0,0-25.747-1.7988c-10.9531.5835-18.24,3.291-24.5156,5.0048-5.6885,1.5533-16.2305,1.1563-21.9825-.5034-5.8823-1.6977-12.8-3.9721-22.7309-4.5014a109.4064,109.4064,0,0,0-25.7471,1.7988c-5.9321,1.2817-6.62,10.7192-3.3892,14.1538" transform="translate(-180.9142 -147.3424)" style="fill:#003c6a;fill-rule:evenodd"/><path d="M345.51,272.8589c6.2949.8027,9.5439,1.542,11.2773,7.8169,1.5518,5.6133.3174,12.3735-1.5322,16.9678-1.8,4.4726-5.7637,6.8554-11.0616,7.9375-5.1494,1.0527-11.9609.7373-16.5771-1.1416-4.9463-2.0137-7.458-4.337-9.7744-9.3423-1.6709-3.6089-4.3408-11.022-2.958-15.9375,1.626-5.78,23.7754-7.1734,30.626-6.3008m-90.5137,0c-6.2949.8027-9.544,1.542-11.2774,7.8169-1.5512,5.6138-.3169,12.3735,1.5323,16.9678,1.7993,4.4726,5.7636,6.8554,11.061,7.9375,5.1494,1.0527,11.9614.7373,16.5776-1.1416,4.9458-2.0137,7.458-4.337,9.7745-9.3423,1.67-3.6089,4.3408-11.022,2.958-15.9375C283.9961,273.38,261.8472,271.9863,254.9966,272.8589Z" transform="translate(-180.9142 -147.3424)" style="fill:#dcedf0;fill-rule:evenodd"/><path d="M345.51,276.1641c6.2949.8027,9.5439,1.5425,11.2773,7.8169a19.884,19.884,0,0,1,.6514,3.97,32.095,32.095,0,0,1-2.1836,9.6924c-1.8,4.4726-5.7637,6.8554-11.0616,7.9384-5.1494,1.0518-11.9609.7364-16.5771-1.1425-4.9463-2.0137-7.458-4.337-9.7744-9.3428a37.5049,37.5049,0,0,1-3.2539-11.104,9.9883,9.9883,0,0,1,.2959-1.5278c1.626-5.7793,23.7754-7.1729,30.626-6.3008M243.0679,287.9522a32.0708,32.0708,0,0,0,2.1836,9.6914c1.7993,4.4726,5.7636,6.8554,11.061,7.9384,5.1494,1.0518,11.9614.7364,16.5776-1.1425,4.9463-2.0137,7.458-4.337,9.7745-9.3428a37.5049,37.5049,0,0,0,3.2539-11.104,9.9883,9.9883,0,0,0-.2959-1.5278c-1.626-5.7793-23.7749-7.1729-30.626-6.3008-6.2949.8027-9.544,1.5425-11.2774,7.8169A19.9225,19.9225,0,0,0,243.0679,287.9522Z" transform="translate(-180.9142 -147.3424)" style="fill:#fff;fill-rule:evenodd"/><path d="M329.2017,274.4439a9.1636,9.1636,0,1,1-9.1641,9.1635,9.1632,9.1632,0,0,1,9.1641-9.1635" transform="translate(-180.9142 -147.3424)" style="fill:#003c6a;fill-rule:evenodd"/><path d="M333.355,277.3809a2.5559,2.5559,0,1,1-2.5567,2.5556,2.5557,2.5557,0,0,1,2.5567-2.5556" transform="translate(-180.9142 -147.3424)" style="fill:#f5fafc;fill-rule:evenodd"/><path d="M268.3057,274.4439a9.1636,9.1636,0,1,1-9.1631,9.1635,9.1633,9.1633,0,0,1,9.1631-9.1635" transform="translate(-180.9142 -147.3424)" style="fill:#003c6a;fill-rule:evenodd"/><path d="M272.459,277.3809a2.5559,2.5559,0,1,1-2.5557,2.5556,2.5558,2.5558,0,0,1,2.5557-2.5556" transform="translate(-180.9142 -147.3424)" style="fill:#f5fafc;fill-rule:evenodd"/></svg>