<svg xmlns="http://www.w3.org/2000/svg" width="107" height="107" viewBox="0 0 107 107">
<defs><style>.glooHubOverviewA,.glooHubOverviewG{fill:#fff;}.glooHubOverviewA{opacity:0;}.glooHubOverviewB{fill:none;}.glooHubOverviewC{fill:#35393b;}.glooHubOverviewD,.glooHubOverviewE,.glooHubOverviewF,.glooHubOverviewG,.glooHubOverviewH,.glooHubOverviewI{fill-rule:evenodd;}.glooHubOverviewD{opacity:0.24;isolation:isolate;}.glooHubOverviewE{fill:#59abd7;}.glooHubOverviewF{fill:#64bbe4;}.glooHubOverviewH{fill:#173d69;}.glooHubOverviewI{fill:#f3f9fa;}</style></defs>

<rect class="glooHubOverviewA" width="107" height="107"/>
<g transform="translate(6 0.001)">
<path class="glooHubOverviewB" d="M292.4,277.86c0,.027,0,.055,0,.082a4.985,4.985,0,0,0,5.027,4.945,5.081,5.081,0,0,0,5.027-5.027v-.083a4.986,4.986,0,0,0-5.027-4.944h-.083A4.986,4.986,0,0,0,292.4,277.86Z" transform="translate(-249.985 -179.253)"/>
<path class="glooHubOverviewB" d="M258.092,203.781h-.083a4.986,4.986,0,0,0-4.944,5.027c0,.028,0,.055,0,.083a4.986,4.986,0,0,0,5.028,4.944,5.08,5.08,0,0,0,5.026-5.027v-.083A4.986,4.986,0,0,0,258.092,203.781Z" transform="translate(-249.665 -178.371)"/>
<path class="glooHubOverviewB" d="M297.507,190.621a4.988,4.988,0,0,0,4.945-5.027v-.084a4.987,4.987,0,0,0-5.028-4.943,5.18,5.18,0,0,0-5.027,5.027c0,.028,0,.055,0,.083a4.986,4.986,0,0,0,5.028,4.944Z" transform="translate(-249.985 -178.053)"/>
<path class="glooHubOverviewB" d="M336.755,213.835a5.027,5.027,0,1,0,0-10.054h-.083a5.027,5.027,0,0,0,.083,10.054Z" transform="translate(-250.298 -178.371)"/>
<path class="glooHubOverviewB" d="M257.058,249.619h-.083a4.986,4.986,0,0,0-4.944,5.027c0,.027,0,.055,0,.082a4.985,4.985,0,0,0,5.027,4.945h.082a4.988,4.988,0,0,0,4.945-5.027v-.083A4.986,4.986,0,0,0,257.058,249.619Z" transform="translate(-249.665 -178.937)"/>
<path class="glooHubOverviewB" d="M336.755,249.618a5.027,5.027,0,1,0,0,10.054h0a5.081,5.081,0,0,0,5.027-5.028A5.027,5.027,0,0,0,336.755,249.618Z" transform="translate(-250.298 -178.937)"/>
<path class="glooHubOverviewC" d="M331.285,213.983a6.786,6.786,0,0,0,4.58,2.218v21.144h2.514V216.2a7.554,7.554,0,1,0-9.164-7.393,7.932,7.932,0,0,0,.739,3.1l-10.64,5.777a20.437,20.437,0,0,1,.978,2.218Zm5.387-10.2h.083a4.986,4.986,0,1,1-.083,0Z" transform="translate(-250.298 -178.445)"/>
<path class="glooHubOverviewC" d="M263.121,250.066a7.938,7.938,0,0,0-4.436-2.813V226.108h-2.514v21.145a7.488,7.488,0,0,0-6.506,7.392,7.541,7.541,0,0,0,15.082,0,6.714,6.714,0,0,0-.444-2.366l12.166-6.558c-.345-.727-.668-1.491-.972-2.286Zm-1.036,4.58a4.988,4.988,0,0,1-4.945,5.027h-.082a4.985,4.985,0,0,1-5.027-4.945c0-.027,0-.055,0-.082a4.986,4.986,0,0,1,4.944-5.027h.083a4.986,4.986,0,0,1,5.027,4.944Z" transform="translate(-249.665 -178.864)"/>
<path class="glooHubOverviewC" d="M298.753,205.373V192.987a8.1,8.1,0,0,0,5.323-3.7l18.337,10.058,1.183-2.218-18.631-10.2a4.1,4.1,0,0,0,.148-1.331,7.541,7.541,0,1,0-15.082,0,7.474,7.474,0,0,0,6.21,7.393V205.33c.3-.008.611-.02.917-.018C297.7,205.312,298.224,205.345,298.753,205.373Zm-6.356-19.7c0-.028,0-.055,0-.083a5.18,5.18,0,0,1,5.027-5.027,4.987,4.987,0,0,1,5.028,4.943v.084a4.988,4.988,0,0,1-4.945,5.027h-.082A4.986,4.986,0,0,1,292.4,185.677Z" transform="translate(-250.083 -178.053)"/>
<path class="glooHubOverviewC" d="M296.241,252.153v18.166a7.313,7.313,0,0,0-5.766,4.734l-18.039-9.91-1.183,2.218,18.631,10.35a7.54,7.54,0,1,0,15.081,0,7.476,7.476,0,0,0-6.21-7.393V252.634a3.352,3.352,0,0,0-1.8-.621A2.13,2.13,0,0,0,296.241,252.153Zm1.183,20.68a4.986,4.986,0,0,1,5.027,4.944v.083a5.081,5.081,0,0,1-5.027,5.027,4.985,4.985,0,0,1-5.027-4.945c0-.027,0-.055,0-.082a4.986,4.986,0,0,1,4.944-5.027Z" transform="translate(-249.889 -179.253)"/>
<path class="glooHubOverviewC" d="M336.765,247.106h-.007l0,0a7.792,7.792,0,0,0-6.8,4.14l-11.8-7.541c-.311.77-.645,1.529-1,2.27l12.212,7.785v.739a7.386,7.386,0,0,0,2.07,5.175l-17.891,9.611,1.183,2.218,18.926-10.2a7.942,7.942,0,0,0,3.1.739,7.467,7.467,0,0,0,.007-14.934Zm-.01,12.567h0a5.027,5.027,0,1,1,5.027-5.027A5.081,5.081,0,0,1,336.755,259.673Z" transform="translate(-250.298 -179.253)"/>
<path class="glooHubOverviewC" d="M267.621,213.1l-2.578-1.626a8.667,8.667,0,0,0,.591-2.662,7.611,7.611,0,0,0-2.218-5.323l18.039-9.611-1.183-2.221L261.05,202a5.837,5.837,0,0,0-2.957-.739,7.544,7.544,0,0,0,0,15.089,7.314,7.314,0,0,0,5.619-2.662l10.16,6.438a20.589,20.589,0,0,1,1.055-2.425l-2.3-1.45Zm-4.5-4.288a5.08,5.08,0,0,1-5.026,5.027,4.986,4.986,0,0,1-5.028-4.944c0-.028,0-.055,0-.083a4.986,4.986,0,0,1,4.944-5.027h.083a4.986,4.986,0,0,1,5.027,4.944Z" transform="translate(-249.665 -178.053)"/>
<rect class="glooHubOverviewC" width="2.514" height="2.957" transform="translate(6.358 39.024)"/>
<rect class="glooHubOverviewC" width="2.514" height="2.957" transform="translate(6.358 43.263)"/>
<rect class="glooHubOverviewC" width="2.957" height="2.514" transform="translate(35.14 10.906) rotate(-28.215)"/>
<rect class="glooHubOverviewC" width="2.957" height="2.514" transform="translate(31.271 12.862) rotate(-28.215)"/><rect class="glooHubOverviewC" width="2.514" height="2.957" transform="translate(76.937 23.778) rotate(-61.156)"/><rect class="glooHubOverviewC" width="2.514" height="2.957" transform="translate(73.256 21.782) rotate(-61.156)"/><rect class="glooHubOverviewC" width="2.957" height="2.514" transform="translate(55.786 94.145) rotate(-28.231)"/><rect class="glooHubOverviewC" width="2.957" height="2.514" transform="translate(59.652 92.196) rotate(-28.215)"/><rect class="glooHubOverviewC" width="2.514" height="2.957" transform="translate(14.058 84.281) rotate(-61.156)"/><rect class="glooHubOverviewC" width="2.514" height="2.957" transform="translate(17.662 86.405) rotate(-61.156)"/><rect class="glooHubOverviewC" width="2.514" height="2.957" transform="translate(85.57 64.31)"/><rect class="glooHubOverviewC" width="2.514" height="2.957" transform="translate(85.57 59.925)"/></g><g transform="translate(21.691 23.803)"><path class="glooHubOverviewD" d="M298.054,251.689c10.178,0,18.426.4,18.426.9s-8.248.9-18.426.9-18.429-.4-18.429-.9,8.251-.9,18.429-.9" transform="translate(-265.855 -202.385)"/><path class="glooHubOverviewE" d="M287.8,252.757c4.935,0,5.875-3.229,9.15-3.245s4.68,3.245,9.44,3.245c6.163,0,10.6-10.6,12.129-19.465.684.958,1.346,1.9,1.921,2.788,2.863,4.4,5.466,3.913,6.9,2.877s1.79-4.338-1.076-7.659a30.748,30.748,0,0,0-7.228-5.5c-.762-10.812-10.275-17.987-21.9-17.987a25.11,25.11,0,0,0-11.629,2.715,11.792,11.792,0,0,0-2.557-1.429c-2.2-.918-2.392-.269-2.551-2.153a4.6,4.6,0,0,0-3.274-4.2c-3.5-1.125-7.212.468-8.289,3.555a5.692,5.692,0,0,0,3.459,7.268,5.788,5.788,0,0,0,.564.167c5.266,1.585,5.92-3.921,7.982-2.71,1.036.431,1.771,1.192.837,2.072l-.167.143-.024.019-.032.032a18,18,0,0,0-6.217,12.506,30.66,30.66,0,0,0-7.223,5.5c-2.858,3.321-2.5,6.609-1.076,7.659s4.037,1.526,6.9-2.877c.538-.807,1.136-1.682,1.765-2.565,1.453,10.84,6.5,19.241,12.191,19.241" transform="translate(-265.855 -202.385)"/><path class="glooHubOverviewF" d="M298.077,208.351a19.571,19.571,0,0,1,19.571,19.569v0c0,19.688-39.021,20.686-39.021-2.842,0-10.81,8.638-16.731,19.449-16.731" transform="translate(-265.855 -202.385)"/><path class="glooHubOverviewG" d="M320.193,228.8c-.369.708,1.346,1.615,2.89,3.59s2.812,2.347,3.178,1.639-.328-2.094-1.919-3.393-3.784-2.543-4.15-1.835" transform="translate(-265.855 -202.385)"/><path class="glooHubOverviewG" d="M268.548,236.023a1.06,1.06,0,0,1,.347,1.3.765.765,0,0,1-.945.527.74.74,0,0,1-.131-.051,1.055,1.055,0,0,1-.347-1.308.766.766,0,0,1,.947-.528.877.877,0,0,1,.129.049m5.67-7.382c.735.35-1.655.756-3.986,4.779-.832,1.437-1.031,2.231-1.76,2.048-.315-.078-1.033-.511.164-2.5s4.77-4.714,5.582-4.329Z" transform="translate(-265.855 -202.385)"/><path class="glooHubOverviewH" d="M297.144,230.345c3.321,0,4.543-1.168,5.982.121S301.834,236,297.117,236s-7.371-4.2-6.012-5.533,2.721-.121,6.039-.121" transform="translate(-265.855 -202.385)"/><path class="glooHubOverviewE" d="M300.3,234.555a6.161,6.161,0,0,1-6.459-.046c.073-1.009,1.884-1.55,3.229-.883,1.413-.667,3.194-.1,3.229.928" transform="translate(-265.855 -202.385)"/><path class="glooHubOverviewG" d="M297.144,230.728c2.172,0,3.369-.468,4.352-.468a.431.431,0,0,1,0,.051,1.323,1.323,0,0,1-1.27,1.372,1.185,1.185,0,0,1-.627-.178,21.2,21.2,0,0,0-4.454.495,1.434,1.434,0,0,1-.449-.52,1.176,1.176,0,0,1-.662.2,1.323,1.323,0,0,1-1.273-1.372v-.065a41.471,41.471,0,0,0,4.378.482" transform="translate(-265.855 -202.385)"/><path class="glooHubOverviewI" d="M314.787,220.26a1.024,1.024,0,0,1,1.055.783.758.758,0,0,1-.373,1,.83.83,0,0,1-.127.044,1.023,1.023,0,0,1-1.055-.783.753.753,0,0,1,.368-1,.739.739,0,0,1,.132-.047m-17.333-6.009c-3.824.783-5.013-2.9-.178-4.061,6.058-1.461,14.658,2.487,17.236,7.923.686,1.448-.387,1.991-1.561.538-3.245-4.029-9.082-5.714-15.5-4.4Z" transform="translate(-265.855 -202.385)"/><path class="glooHubOverviewH" d="M308.7,224.78a3.482,3.482,0,1,1-3.48,3.484v0a3.482,3.482,0,0,1,3.48-3.482" transform="translate(-265.855 -202.385)"/><path class="glooHubOverviewI" d="M310.277,225.9a.974.974,0,1,0-.972.977.975.975,0,0,0,.972-.977" transform="translate(-265.855 -202.385)"/><path class="glooHubOverviewH" d="M285.564,224.781A3.481,3.481,0,1,1,283.1,225.8a3.481,3.481,0,0,1,2.463-1.019" transform="translate(-265.855 -202.385)"/><path class="glooHubOverviewI" d="M287.141,225.9a.974.974,0,1,0-.972.977.975.975,0,0,0,.972-.977" transform="translate(-265.855 -202.385)"/><path class="glooHubOverviewG" d="M276.054,203.4a2.385,2.385,0,0,1,2.384,2.384c0,2.4-4.755,2.522-4.755-.344a2.1,2.1,0,0,1,2.142-2.057c.076,0,.153.008.229.017" transform="translate(-265.855 -202.385)"/><path class="glooHubOverviewG" d="M322.214,261.807a.955.955,0,0,0-.955.955v0c0,.961,1.9,1.009,1.9-.14,0-.538-.423-.807-.95-.807" transform="translate(-265.855 -202.385)"/></g></svg>