<svg xmlns="http://www.w3.org/2000/svg" width="160.648" height="35.851" viewBox="0 0 160.648 35.851"><defs><style>.glooEdgeLogoA{fill:#54acd5;}.glooEdgeLogoA,.glooEdgeLogoB,.glooEdgeLogoC,.glooEdgeLogoD,.glooEdgeLogoE,.glooEdgeLogoF,.glooEdgeLogoG,.glooEdgeLogoH,.glooEdgeLogoI,.glooEdgeLogoJ,.glooEdgeLogoK,.glooEdgeLogoL{fill-rule:evenodd;}.glooEdgeLogoB,.glooEdgeLogoK,.glooEdgeLogoN{fill:#fff;}.glooEdgeLogoC{fill:#003c6a;}.glooEdgeLogoD{fill:#005785;}.glooEdgeLogoE{opacity:0.24;}.glooEdgeLogoF{fill:#5bbae0;}.glooEdgeLogoG{fill:#eef7f8;}.glooEdgeLogoH{fill:#c1e2f1;}.glooEdgeLogoI{fill:#467291;}.glooEdgeLogoJ{fill:#f1f8f8;}.glooEdgeLogoK{opacity:0.7;}.glooEdgeLogoL{fill:#ff3700;}.glooEdgeLogoM{fill:#ff6d46;}</style></defs><path class="glooEdgeLogoA" d="M95.08,259.579a8.9,8.9,0,0,1,3.241,2.325l-1.465,1.113c-.389-.406-3.2-.256-2.787-.582.833-.65.31-1.218-.443-1.531-1.421-.83-1.863,2.944-5.472,1.857a3.9,3.9,0,0,1-2.751-5.1,4.467,4.467,0,0,1,5.684-2.438,3.155,3.155,0,0,1,2.246,2.879c.108,1.3.237.846,1.749,1.475" transform="translate(-81.073 -254.168)"/><path class="glooEdgeLogoB" d="M95.648,256.723a1.634,1.634,0,0,1,1.635,1.634c0,1.645-3.259,1.728-3.259-.237a1.44,1.44,0,0,1,1.624-1.4" transform="translate(-86.374 -255.213)"/><path class="glooEdgeLogoA" d="M85.057,291.562c.813-1.033-2.663-5.1-4.627-8.118s-3.746-2.684-4.729-1.972-1.227,2.974.737,5.251,7.805,5.873,8.618,4.84" transform="translate(-74.958 -269.742)"/><path class="glooEdgeLogoB" d="M78.379,285.321a.724.724,0,0,0,.237-.888.522.522,0,0,0-.733-.328.724.724,0,0,0-.237.889.522.522,0,0,0,.733.327m3.885,5.062c.5-.239-1.134-.518-2.733-3.277-.571-.985-.707-1.529-1.208-1.4-.214.053-.707.35.114,1.715S81.707,290.648,82.264,290.383Z" transform="translate(-76.53 -271.573)"/><path class="glooEdgeLogoC" d="M95.46,268.3h1.8l.04-.229a13,13,0,0,1,3.858-7.183,14.317,14.317,0,0,1,19.613,0,13,13,0,0,1,3.858,7.183l.039.229h1.8l-.05-.319A14.763,14.763,0,0,0,122,259.611a16.081,16.081,0,0,0-22.07,0,14.763,14.763,0,0,0-4.416,8.372Z" transform="translate(-87.235 -254.317)"/><path class="glooEdgeLogoA" d="M167.284,293.22c-.531-1.2,3.845-4.28,6.5-6.717s4.3-1.671,5.07-.737.451,3.185-2.017,4.9-9.018,3.755-9.549,2.552" transform="translate(-130.214 -272.067)"/><path class="glooEdgeLogoB" d="M179.582,289.692c-.2-.508,1.024-1,2.219-2.251s2.079-1.408,2.28-.9-.368,1.405-1.542,2.184-2.755,1.475-2.957.967" transform="translate(-137.591 -272.905)"/><path class="glooEdgeLogoC" d="M119.685,281.517a5.123,5.123,0,0,0-1.636.267v9.24a5.123,5.123,0,0,0,1.636.266,4.888,4.888,0,1,0,0-9.773m-28.149,0a5.122,5.122,0,0,1,1.636.267v9.24a5.121,5.121,0,0,1-1.636.266,4.888,4.888,0,1,1,0-9.773Z" transform="translate(-81.884 -270.059)"/><path class="glooEdgeLogoD" d="M169.209,286.29a2.432,2.432,0,0,0,2.26,2.611c2.478-.074,2.424-2.221,1.083-3.736-1.374-1.55-3.342-2.357-3.342,1.125" transform="translate(-131.395 -271.449)"/><path class="glooEdgeLogoD" d="M93.859,285.718c0,1.618-1.014,2.972-2.263,2.93-2.48-.082-2.427-2.493-1.084-4.193,1.375-1.741,3.347-2.646,3.347,1.263" transform="translate(-83.721 -270.927)"/><path class="glooEdgeLogoE" d="M112.568,339.237c7.966,0,14.423.277,14.423.618s-6.458.617-14.423.617-14.423-.277-14.423-.617,6.458-.618,14.423-.618" transform="translate(-88.841 -304.622)"/><path class="glooEdgeLogoA" d="M105.234,295.056c3.384,0,4.027-2.207,6.264-2.225s3.209,2.225,6.474,2.225c5.277,0,8.712-11.331,8.712-17.533,0-7.946-6.738-13.294-15.049-13.294s-15.049,5.348-15.049,13.294c0,9.4,4.016,17.533,8.648,17.533" transform="translate(-87.909 -259.707)"/><path class="glooEdgeLogoF" d="M130.508,276.167a13.49,13.49,0,0,1,.219,2.425c0,11.93-20.889,13.85-25.75,3a5.025,5.025,0,0,0,3.283.506,12.533,12.533,0,0,0,3.125-.864,16.467,16.467,0,0,1,2.132-.724,15.089,15.089,0,0,1,6.286,0,16.453,16.453,0,0,1,2.132.724,12.53,12.53,0,0,0,3.124.864c4.048.522,5.449-2.169,5.449-5.792Zm-13.2-10.995a13.407,13.407,0,0,1,11.258,6.115c-.28-.054-.593-.1-.942-.145-1.4-.185-2.779-.329-4.183-.419-2.254-.145-4.523-.18-6.78-.18s-4.526.035-6.78.18c-1.4.09-2.788.235-4.183.419l-.417.058C107.422,267.269,111.981,265.172,117.307,265.172Z" transform="translate(-92.932 -260.272)"/><path class="glooEdgeLogoG" d="M131.212,270.775c-2.622.537-3.437-1.992-.121-2.792,3.921-.946,9.395,1.414,11.483,4.817l-2.008-.272h0a11.329,11.329,0,0,0-9.353-1.753" transform="translate(-107.264 -261.829)"/><path class="glooEdgeLogoC" d="M128.591,304.155c2.2,0,3.015-.775,3.972.079s-.857,3.675-3.991,3.675-4.893-2.791-3.99-3.675,1.806-.079,4.01-.079" transform="translate(-104.53 -283.415)"/><path class="glooEdgeLogoA" d="M133.752,310.409a4.085,4.085,0,0,1-4.281-.032c.048-.668,1.244-1.028,2.14-.585.94-.443,2.121-.066,2.141.617" transform="translate(-107.598 -286.874)"/><path class="glooEdgeLogoB" d="M130.586,304.809c1.443,0,2.237-.312,2.89-.31,0,.01,0,.022,0,.034a.88.88,0,0,1-.844.912.792.792,0,0,1-.415-.118.955.955,0,0,1-1.623.1.955.955,0,0,1-1.632-.117.8.8,0,0,1-.441.134.88.88,0,0,1-.843-.912c0-.015,0-.03,0-.045a27.2,27.2,0,0,0,2.907.321" transform="translate(-106.524 -283.814)"/><path class="glooEdgeLogoB" d="M103.429,280.635a74.287,74.287,0,0,1,10.885-.594,74.3,74.3,0,0,1,10.886.594c2.006.266,2.368.42,2.368,2.177v2.4c0,3.438-1.237,5.659-4.778,5.2-3.212-.415-3.91-1.923-8.476-1.923s-5.263,1.509-8.476,1.923c-3.541.457-4.778-1.764-4.778-5.2v-2.4c0-1.756.362-1.911,2.368-2.177" transform="translate(-90.589 -269.176)"/><path class="glooEdgeLogoH" d="M103.849,283.612a3.707,3.707,0,0,0-.068.829v2.4c0,1.123.14,2.8,1.038,3.608a3.127,3.127,0,0,0,2.508.512,10.936,10.936,0,0,0,2.724-.761,17.9,17.9,0,0,1,2.351-.793,16.7,16.7,0,0,1,7.081,0,17.9,17.9,0,0,1,2.351.793,10.931,10.931,0,0,0,2.724.761,3.127,3.127,0,0,0,2.508-.512c.9-.808,1.038-2.485,1.038-3.608v-2.4a3.658,3.658,0,0,0-.068-.829,6.813,6.813,0,0,0-1.352-.266,80.666,80.666,0,0,0-10.742-.585,80.662,80.662,0,0,0-10.742.585,6.828,6.828,0,0,0-1.352.266" transform="translate(-92.216 -270.804)"/><path class="glooEdgeLogoI" d="M150.5,288.856a2.311,2.311,0,1,1-2.225,2.395,2.312,2.312,0,0,1,2.225-2.395" transform="translate(-118.858 -274.453)"/><path class="glooEdgeLogoJ" d="M155.574,290.607a.645.645,0,1,1-.621.668.645.645,0,0,1,.621-.668" transform="translate(-122.856 -275.503)"/><path class="glooEdgeLogoI" d="M112.24,288.857a2.311,2.311,0,1,1-2.226,2.395,2.312,2.312,0,0,1,2.226-2.395" transform="translate(-95.948 -274.453)"/><path class="glooEdgeLogoG" d="M117.313,290.607a.645.645,0,1,1-.621.668.645.645,0,0,1,.621-.668" transform="translate(-99.946 -275.503)"/><path class="glooEdgeLogoK" d="M117.511,289.576c.2-.061.4-.116.611-.167q.381-.093.766-.159l2.006-6.485q-.642,0-1.28.012Zm-4.178,1.346a11.5,11.5,0,0,0,2.439-.72c.16-.063.319-.126.478-.186l2.234-7.219q-1.338.032-2.668.1Z" transform="translate(-97.936 -270.806)"/><path class="glooEdgeLogoL" d="M76.834,252.959h0a.9.9,0,0,1,.944.847l.858,15.942a.9.9,0,0,1-.847.944h0a.9.9,0,0,1-.944-.848L75.987,253.9a.9.9,0,0,1,.847-.944" transform="translate(-75.573 -252.958)"/><rect class="glooEdgeLogoM" width="1.794" height="1.137" transform="matrix(0.999, -0.054, 0.054, 0.999, 0.691, 6.099)"/><rect class="glooEdgeLogoM" width="1.794" height="1.137" transform="translate(0.505 2.648) rotate(-3.091)"/><path class="glooEdgeLogoC" d="M79.014,279.17l.345,6.4a.955.955,0,0,1-.993.885h0a.955.955,0,0,1-1.082-.774c-.122-2.271-.222-4.128-.344-6.4a4.54,4.54,0,0,1,2.074-.111" transform="translate(-76.145 -268.611)"/><path class="glooEdgeLogoL" d="M188.953,253.263h0a.9.9,0,0,0-.944.847l-.859,15.942A.9.9,0,0,0,188,271h0a.9.9,0,0,0,.944-.847l.858-15.941a.9.9,0,0,0-.847-.944" transform="translate(-142.137 -253.14)"/><rect class="glooEdgeLogoM" width="1.137" height="1.794" transform="matrix(0.054, -0.999, 0.999, 0.054, 45.534, 7.26)"/><rect class="glooEdgeLogoM" width="1.137" height="1.794" transform="translate(45.72 3.809) rotate(-86.919)"/><path class="glooEdgeLogoC" d="M187.12,279.474l-.344,6.4a.955.955,0,0,0,.992.886h0a.954.954,0,0,0,1.081-.774l.345-6.4a4.547,4.547,0,0,0-2.074-.112" transform="translate(-141.913 -268.794)"/><path class="glooEdgeLogoN" d="M223.621,280.263a3.061,3.061,0,0,0-1.407-.318,4.255,4.255,0,0,0-1.581.329,5.174,5.174,0,0,0-1.5.924,4.868,4.868,0,0,0-1.119,1.459,4.218,4.218,0,0,0-.442,1.951,3.169,3.169,0,0,0,.318,1.612,2.086,2.086,0,0,0,.863.873,2.265,2.265,0,0,0,1.161.236c2.306-.111,4.834-2.43,2.014-1.894-1.372.261-2.272.35-2.11-.909.167-1.3.178-2,2.189-2.251l4.607-.581c2.33-.293,2.92.258,2.676,2.206a7.16,7.16,0,0,1-.822,2.31,15.374,15.374,0,0,1-1.1,1.879,14.332,14.332,0,0,1-.955,1.263q-.38.432-.421.472a7.344,7.344,0,0,1-1.8,1.294,9.687,9.687,0,0,1-2.269.842,9.8,9.8,0,0,1-2.505.257,7.776,7.776,0,0,1-2.465-.452,6.826,6.826,0,0,1-2.167-1.284,6.318,6.318,0,0,1-1.612-2.238,8.838,8.838,0,0,1-.8-3.071,9.542,9.542,0,0,1,1.366-5.658,10.845,10.845,0,0,1,1.848-2.29A11.306,11.306,0,0,1,218,275.488a10.351,10.351,0,0,1,2.814-1.027q.041,0,.441-.052a6.947,6.947,0,0,1,1.16-.01,8.3,8.3,0,0,1,1.7.3,9.617,9.617,0,0,1,2.053.863c2.786,1.522,1.892,2.216,1.048,3.364a10.6,10.6,0,0,1-1.041,1.238,2.066,2.066,0,0,1-2.564.1" transform="translate(-155.721 -265.232)"/><path class="glooEdgeLogoN" d="M265.888,276.025l1.017-.081c1.843-.147,2.111-.008,2.09,1.874-.048,4.33-.084,7.517-.132,11.847-.016,1.408,0,2.642-1.241,2.749l-1.418.121c-1.949.168-1.687-.292-1.7-2.2-.039-4.436-.066-7.569-.1-12.005-.017-1.921-.369-2.158,1.492-2.306" transform="translate(-190.161 -266.238)"/><path class="glooEdgeLogoB" d="M308.309,279.476a2.739,2.739,0,0,0-3.486-1.5,1.935,1.935,0,0,0-1.377,1.766c-.067.8-.146.519-1.073.9a4.941,4.941,0,0,0-1.388.854c-.074-.018-.144-.042-.219-.058a7.6,7.6,0,0,0-2.619-.082,7.217,7.217,0,0,0-2.5.791,5.926,5.926,0,0,0-2.957,3.717l-.015.054a6.328,6.328,0,0,0-.715-1.748,5.776,5.776,0,0,0-1.643-1.777,6.091,6.091,0,0,0-2.229-.955,7.6,7.6,0,0,0-2.618-.082,7.213,7.213,0,0,0-2.5.791,5.928,5.928,0,0,0-2.958,3.717,6.381,6.381,0,0,0-.133,2.64,6.3,6.3,0,0,0,.842,2.5,5.811,5.811,0,0,0,1.643,1.766,6.085,6.085,0,0,0,2.239.955,7.63,7.63,0,0,0,2.629.082,7.208,7.208,0,0,0,2.495-.791,6.063,6.063,0,0,0,1.869-1.541,5.936,5.936,0,0,0,1.089-2.157l.009-.034a5.972,5.972,0,0,0,.7,1.719,5.815,5.815,0,0,0,1.643,1.766,6.089,6.089,0,0,0,2.239.955,7.628,7.628,0,0,0,2.628.082,7.213,7.213,0,0,0,2.5-.791,6.056,6.056,0,0,0,1.868-1.541,5.936,5.936,0,0,0,1.089-2.157,6.367,6.367,0,0,0,.133-2.639,6.626,6.626,0,0,0-.863-2.506,5.773,5.773,0,0,0-1.643-1.777c-.511-.4-.19-.747.272-.939.871-.509,1.142,1.805,3.356,1.139A2.39,2.39,0,0,0,308.309,279.476Zm-19.969,8.719a2.5,2.5,0,0,1-1.3,1.119,2.43,2.43,0,0,1-1.725.164,1.781,1.781,0,0,1-1.109-1.047,1.716,1.716,0,0,1,.031-1.5,2.477,2.477,0,0,1,1.325-1.129,2.326,2.326,0,0,1,1.7-.154,1.819,1.819,0,0,1,1.109,1.037A1.738,1.738,0,0,1,288.339,288.195Zm12.672,0a2.5,2.5,0,0,1-1.3,1.119,2.432,2.432,0,0,1-1.726.164,1.78,1.78,0,0,1-1.108-1.047,1.717,1.717,0,0,1,.03-1.5,2.478,2.478,0,0,1,1.325-1.129,2.327,2.327,0,0,1,1.7-.154,1.818,1.818,0,0,1,1.108,1.037A1.738,1.738,0,0,1,301.011,288.195Z" transform="translate(-200.395 -267.516)"/><path class="glooEdgeLogoA" d="M357.748,280.571a.924.924,0,0,0-.924.924c0,.929,1.842.976,1.842-.134a.813.813,0,0,0-.918-.789" transform="translate(-251.397 -269.332)"/><path class="glooEdgeLogoN" d="M497.342,299.426a6.666,6.666,0,0,1-1.846.96,10.272,10.272,0,0,1-2.985.4,6.52,6.52,0,0,1-2.528-.477,6.361,6.361,0,0,1-1.98-1.289c-2.686-2.579-1.809-7.106.041-8.956a5.641,5.641,0,0,1,1.939-1.269,6.389,6.389,0,0,1,2.366-.437,6.027,6.027,0,0,1,3.524,1.036,4.9,4.9,0,0,1,1.752,1.847c.434.79-.027,1.413-.743,1.952-1.785,1.343-3.073,2.189-4.858,3.533a1.6,1.6,0,0,0,.588.162,5.988,5.988,0,0,0,.67.042,3.466,3.466,0,0,0,1.574-.336,5.06,5.06,0,0,0,.723-.458c.609-.449.731.128,1.179.866.41.676.4.665.736,1.211s.373.876-.153,1.218m-3.653-6.991a1.464,1.464,0,0,0-.619-.467,2.216,2.216,0,0,0-.762-.122,1.6,1.6,0,0,0-.741.173,1.851,1.851,0,0,0-.579.467,2.226,2.226,0,0,0-.508,1.411,1.85,1.85,0,0,0,.051.518,2.5,2.5,0,0,0,.132.314Z" transform="translate(-337.145 -274.486)"/><path class="glooEdgeLogoN" d="M368.452,276.006c3.307-.245,6.186-.461,9.494-.705.993-.074.919.2.809,1.1-.154,1.262-.217,1.773-.372,3.034-.135,1.1-.008,1.138-1.15,1.188l-4.3.188q-.01.508-.021,1.016l3.33-.237c.587-.042.5.163.43.722-.107.892-.166,1.382-.277,2.308-.061.516.022.63-.488.694-1,.126-2.079.146-3.122.216q-.022.582-.043,1.164l4.868-.46c.934-.088,1.177.2,1.161,1.112-.026,1.475-.037,2.012-.064,3.487-.015.86-.158,1.137-1.062,1.186l-8.894.482c-.949.051-1.385-.082-1.394-1.048-.044-4.958-.084-9.365-.129-14.3-.008-.942.276-1.085,1.224-1.155" transform="translate(-258.286 -265.834)"/><path class="glooEdgeLogoN" d="M412.364,280.364c.032,1.078.053,1.766.086,2.844a3.037,3.037,0,0,0-1.334-.736,5.721,5.721,0,0,0-1.4-.189,5.088,5.088,0,0,0-2.364.546,6.01,6.01,0,0,0-1.828,1.44,6.526,6.526,0,0,0-1.188,2.059,7.119,7.119,0,0,0-.42,2.428,7.013,7.013,0,0,0,.4,2.322,6.838,6.838,0,0,0,1.124,2.049,5.669,5.669,0,0,0,1.764,1.46,4.791,4.791,0,0,0,2.3.557,3.987,3.987,0,0,0,1.734-.347,4.63,4.63,0,0,0,1.4-1.082c0,1.419.193,1.412,1.464,1.3l1.573-.136c1.1-.1,1.33-.312,1.316-1.335-.068-4.767-.127-8.9-.2-13.669-.017-1.168-.182-1.215-1.3-1.121l-2.129.181c-1.032.087-1.039.352-1.007,1.427m.359,9.379a1.66,1.66,0,0,1-.472.6,1.914,1.914,0,0,1-.694.346,2.418,2.418,0,0,1-.85.063,2.587,2.587,0,0,1-.925-.273,2.378,2.378,0,0,1-1.271-1.229,1.785,1.785,0,0,1,.011-1.5,1.76,1.76,0,0,1,1.145-.935,2.426,2.426,0,0,1,1.755.2,2.5,2.5,0,0,1,1.3,1.25A1.713,1.713,0,0,1,412.723,289.743Z" transform="translate(-282.585 -268.109)"/><path class="glooEdgeLogoN" d="M447.159,302.053c.067-.326.359-.656.961-.362,1.991.97,5.932.527,5.6-2.085a3.034,3.034,0,0,1-1.334.736,5.711,5.711,0,0,1-1.4.189,5.079,5.079,0,0,1-2.364-.546,6.009,6.009,0,0,1-1.829-1.439,6.535,6.535,0,0,1-1.187-2.059,7.1,7.1,0,0,1-.421-2.427,7.021,7.021,0,0,1,.4-2.323,6.848,6.848,0,0,1,1.125-2.049,5.663,5.663,0,0,1,1.765-1.461,4.8,4.8,0,0,1,2.3-.557,3.987,3.987,0,0,1,1.734.347,4.633,4.633,0,0,1,1.4,1.082c0-1.418.194-1.411,1.464-1.3l1.573.136c1.1.095,1.33.312,1.316,1.335-.063,4.375.768,9.676-.738,13.01-1.328,2.939-4.949,4.838-10.146,3.308-.976-.179-.882-.372-.858-.916a13.091,13.091,0,0,1,.64-2.616m6.833-8.983a1.652,1.652,0,0,0-.473-.6,1.908,1.908,0,0,0-.693-.347,2.411,2.411,0,0,0-.851-.062,2.574,2.574,0,0,0-.925.273,2.378,2.378,0,0,0-1.271,1.229,1.785,1.785,0,0,0,.011,1.5,1.763,1.763,0,0,0,1.145.935,2.425,2.425,0,0,0,1.754-.2,2.5,2.5,0,0,0,1.3-1.25A1.714,1.714,0,0,0,453.991,293.07Z" transform="translate(-309.915 -274.032)"/></svg>