<svg width="632" height="33" viewBox="0 0 632 100" fill="none" xmlns="http://www.w3.org/2000/svg">
<g clip-path="url(#clip0_10727_40703)">
<path d="M155.26 47.59V47.56H155.28C159.84 43 164.22 38.47 168.34 33.97C172.46 29.47 176.59 24.78 180.68 19.91H164.62C161.56 23.35 158.24 27.07 154.68 31.07C151.09 35.07 147.56 38.88 144.09 42.54V19.91H130.56V80.1H144.09V54.63C146.18 56.25 148.28 58.13 150.34 60.25C152.43 62.37 154.43 64.56 156.34 66.87C158.25 69.18 160.03 71.49 161.68 73.75C163.34 76.03 164.77 78.13 165.99 80.09H182.08C177.96 73.47 173.64 67.37 169.17 61.87C164.7 56.37 160.08 51.59 155.26 47.59Z" fill="white"/>
<path d="M226.78 55.09C225.37 52.75 223 50.5 219.72 48.37C221.91 46.96 223.75 45.09 225.22 42.68C226.69 40.27 227.44 37.71 227.44 34.93C227.44 33.02 227.07 31.09 226.35 29.15C225.63 27.21 224.44 25.46 222.82 23.9C221.2 22.34 219.13 21.06 216.6 20.06C214.1 19.06 211.07 18.53 207.54 18.53C204.54 18.53 201.82 19 199.35 19.97C196.88 20.94 194.79 22.19 193.07 23.78C191.35 25.37 190.01 27.25 189.04 29.37C188.07 31.49 187.6 33.75 187.6 36.06C187.6 39.12 188.19 41.62 189.38 43.59C190.57 45.56 192.41 47.56 194.88 49.56C193.72 50.44 192.63 51.37 191.63 52.34C190.63 53.34 189.72 54.43 188.91 55.62C188.1 56.81 187.47 58.12 187 59.56C186.53 61 186.31 62.65 186.31 64.34C186.31 66.03 186.65 67.87 187.34 69.87C188.03 71.87 189.22 73.71 190.87 75.4C192.52 77.09 194.68 78.49 197.37 79.62C200.06 80.74 203.43 81.31 207.49 81.31C211.02 81.31 214.11 80.87 216.8 79.97C219.49 79.09 221.74 77.81 223.52 76.19C225.3 74.57 226.64 72.66 227.55 70.5C228.46 68.31 228.89 65.94 228.89 63.31C228.89 60.15 228.2 57.43 226.77 55.09H226.78ZM200.63 33.34L200.66 33.31C200.94 32.56 201.41 31.84 202 31.19C202.59 30.53 203.38 30 204.28 29.6C205.19 29.19 206.25 29.01 207.56 29.01C208.87 29.01 210.03 29.23 210.94 29.67C211.88 30.11 212.63 30.64 213.22 31.26C213.81 31.88 214.28 32.57 214.53 33.29C214.78 34.01 214.91 34.7 214.91 35.32C214.91 37.54 214.41 39.35 213.44 40.88C212.44 42.38 211.03 43.69 209.19 44.85C205.91 43.69 203.57 42.32 202.22 40.69C200.88 39.07 200.19 37.35 200.19 35.5C200.19 34.81 200.31 34.09 200.63 33.34ZM214.17 68.76V68.73C212.79 70.16 210.58 70.91 207.58 70.91C206.02 70.91 204.71 70.69 203.58 70.22C202.49 69.75 201.58 69.19 200.89 68.5C200.2 67.81 199.7 67.03 199.36 66.19C199.05 65.35 198.89 64.57 198.89 63.88C198.89 61.63 199.45 59.66 200.55 58.04C201.64 56.42 203.02 55.01 204.64 53.79C206.26 54.32 207.76 54.88 209.2 55.48C210.64 56.07 211.86 56.79 212.89 57.57C213.92 58.35 214.77 59.26 215.36 60.32C215.95 61.38 216.27 62.57 216.27 63.88C216.27 65.69 215.58 67.32 214.18 68.76H214.17Z" fill="white"/>
<path d="M267.76 58.67L267.82 58.64V58.62C266.75 57.43 265.28 56.34 263.44 55.31C261.6 54.28 259.25 53.25 256.41 52.22C255.03 51.69 253.88 51.22 252.97 50.78C252.06 50.34 251.38 49.94 250.85 49.56C250.32 49.18 249.97 48.78 249.79 48.4C249.6 47.99 249.54 47.53 249.54 47.03C249.54 44.78 251.57 43.65 255.6 43.65C257.79 43.65 259.79 43.84 261.54 44.24C263.29 44.65 264.95 45.12 266.45 45.62L268.7 35.56C267.2 35 265.17 34.47 262.64 33.97C260.11 33.47 257.45 33.22 254.67 33.22C249.14 33.22 244.76 34.47 241.58 36.97C238.39 39.47 236.8 42.85 236.8 47.13C236.8 49.35 237.11 51.22 237.77 52.79C238.39 54.35 239.3 55.7 240.46 56.82C241.62 57.94 243.02 58.91 244.65 59.73C246.28 60.55 248.12 61.32 250.15 62.07C252.74 63.04 254.68 63.95 255.96 64.73C257.24 65.51 257.87 66.42 257.87 67.48C257.87 68.82 257.37 69.7 256.4 70.17C255.4 70.64 253.74 70.86 251.37 70.86H251.34C249.09 70.86 246.81 70.61 244.5 70.11C242.19 69.61 239.94 68.95 237.72 68.08L235.56 78.58C236.62 79.05 238.47 79.61 241.15 80.3C243.84 80.99 247.21 81.33 251.27 81.33C257.46 81.33 262.24 80.17 265.61 77.86C268.98 75.55 270.67 72.14 270.67 67.64C270.67 65.73 270.45 64.05 270.01 62.61C269.57 61.17 268.82 59.86 267.76 58.67Z" fill="white"/>
<path d="M316.02 69.23H316.05L316.03 69.25C315.22 69.44 314.28 69.53 313.22 69.59C312.16 69.65 310.88 69.68 309.38 69.68C306.6 69.68 304.16 69.21 302.1 68.24C300.01 67.27 298.29 65.93 296.88 64.21C295.47 62.49 294.44 60.4 293.76 57.99C293.07 55.58 292.7 52.9 292.7 49.96C292.7 43.9 294.11 39.09 296.89 35.59C299.67 32.09 304.23 30.34 310.55 30.34C313.39 30.34 315.99 30.72 318.39 31.43C320.8 32.15 322.92 33.02 324.77 33.99L328.68 23.15C328.21 22.87 327.46 22.46 326.4 21.93C325.34 21.4 323.96 20.9 322.31 20.4C320.69 19.9 318.69 19.46 316.4 19.09C314.11 18.72 311.56 18.53 308.71 18.53C304.55 18.53 300.62 19.22 296.96 20.62C293.27 22 290.08 24.06 287.37 26.74C284.65 29.43 282.49 32.71 280.96 36.58C279.4 40.46 278.62 44.99 278.62 49.95C278.62 54.91 279.31 59.36 280.74 63.23C282.15 67.11 284.18 70.39 286.77 73.04C289.36 75.7 292.49 77.73 296.18 79.1C299.84 80.48 303.93 81.19 308.46 81.19C313.71 81.19 318.15 80.81 321.74 80.1C325.33 79.38 327.93 78.69 329.55 78.07V48.29H316.02V69.23Z" fill="white"/>
<path d="M373.35 38.32L373.32 38.26H373.31C371.78 36.63 369.75 35.37 367.19 34.5C364.66 33.62 361.47 33.19 357.66 33.19C356.16 33.19 354.66 33.25 353.19 33.41C351.72 33.57 350.32 33.72 349 33.94C347.66 34.13 346.44 34.38 345.31 34.63C344.18 34.88 343.25 35.13 342.5 35.38L344.16 45.79C345.72 45.23 347.57 44.76 349.72 44.45C351.84 44.14 354.03 43.98 356.22 43.98C359.53 43.98 361.84 44.67 363.16 45.98C364.5 47.32 365.16 49.07 365.16 51.26V52.48C364.35 52.26 363.28 52.07 362 51.92C360.69 51.76 359.22 51.7 357.53 51.7C355.06 51.7 352.65 51.95 350.34 52.45C348.03 52.95 345.96 53.73 344.18 54.86C342.37 55.95 340.96 57.42 339.87 59.3C338.81 61.14 338.25 63.3 338.25 66.08C338.25 68.86 338.72 71.2 339.63 73.11C340.57 75.02 341.88 76.58 343.63 77.77C345.35 78.96 347.44 79.8 349.82 80.33C352.23 80.86 354.88 81.11 357.85 81.11C362.51 81.11 366.51 80.83 369.82 80.3C373.13 79.74 375.7 79.27 377.54 78.86V51.95C377.54 49.11 377.23 46.54 376.6 44.23C375.97 41.92 374.88 39.95 373.35 38.32ZM365.13 70.74H365.12C364.43 70.84 363.5 70.94 362.34 71C361.18 71.06 359.96 71.09 358.72 71.09C356.34 71.09 354.47 70.71 353.13 69.93C351.79 69.15 351.1 67.74 351.1 65.71C351.1 64.65 351.32 63.8 351.79 63.12C352.26 62.43 352.88 61.87 353.7 61.46C354.51 61.05 355.45 60.8 356.51 60.65C357.57 60.49 358.73 60.43 359.95 60.43C360.83 60.43 361.76 60.49 362.79 60.62C363.82 60.75 364.6 60.84 365.13 60.96V70.74Z" fill="white"/>
<path d="M413.19 69.84L413.22 69.81C411.75 70.06 410.31 70.19 408.91 70.19C406 70.19 404.1 69.38 403.13 67.75C402.16 66.12 401.69 63.94 401.69 61.22V45.16H417.22V34.38H401.69V20.97L388.75 23.06H388.78V61.44C388.78 64.41 389.06 67.1 389.59 69.5C390.12 71.94 391.12 74 392.5 75.72C393.88 77.44 395.75 78.75 398.03 79.72C400.34 80.69 403.25 81.16 406.78 81.16C409.56 81.16 411.9 80.91 413.81 80.47C415.72 80 417.47 79.44 419.03 78.81L417.22 68.75C416 69.22 414.66 69.59 413.19 69.84Z" fill="white"/>
<path d="M445.77 33.22H445.69C442.91 33.22 440.22 33.72 437.57 34.78C434.95 35.81 432.6 37.34 430.6 39.37C428.57 41.4 426.94 43.93 425.69 46.96C424.44 49.99 423.81 53.55 423.81 57.59C423.81 60.97 424.28 64.12 425.25 67C426.19 69.91 427.66 72.41 429.66 74.5C431.66 76.62 434.16 78.25 437.19 79.5C440.22 80.75 443.78 81.34 447.91 81.34C449.53 81.34 451.16 81.25 452.79 81.09C454.38 80.93 455.91 80.71 457.35 80.43C458.79 80.15 460.07 79.87 461.23 79.52C462.39 79.18 463.32 78.83 464.01 78.46L462.29 67.96C460.85 68.62 458.98 69.15 456.7 69.59C454.42 70.03 452.08 70.25 449.73 70.25C446.01 70.25 443.07 69.47 440.89 67.91C438.7 66.35 437.45 64.22 437.14 61.57H466.45C466.51 60.88 466.58 60.07 466.64 59.16C466.7 58.25 466.73 57.44 466.73 56.69C466.73 49 464.85 43.16 461.11 39.19C457.36 35.22 452.23 33.22 445.77 33.22ZM437.1 52.66C437.29 51.57 437.54 50.47 437.91 49.41C438.28 48.35 438.82 47.38 439.53 46.6C440.22 45.79 441.09 45.16 442.12 44.66C443.15 44.16 444.34 43.91 445.84 43.91C447.34 43.91 448.62 44.16 449.62 44.69C450.62 45.22 451.46 45.88 452.12 46.69C452.78 47.5 453.28 48.41 453.59 49.47C453.9 50.5 454.09 51.56 454.15 52.66H437.1Z" fill="white"/>
<path d="M522.86 41.22H522.87C522.31 43.69 521.71 46.22 521.12 48.81C520.53 51.4 519.87 54.03 519.15 56.69C518.46 59.31 517.74 61.85 517.06 64.28C516.31 61.75 515.59 59.12 514.87 56.47C514.18 53.81 513.49 51.19 512.87 48.59C512.21 46 511.62 43.53 511.06 41.12C510.5 38.71 509.97 36.46 509.5 34.4H500.12C499.65 36.49 499.12 38.71 498.53 41.12C497.94 43.53 497.28 46.03 496.62 48.59C495.96 51.18 495.28 53.78 494.53 56.47C493.81 59.13 493.06 61.75 492.31 64.28C491.62 61.84 490.94 59.31 490.25 56.69C489.59 54.07 488.94 51.44 488.34 48.81C487.72 46.22 487.15 43.69 486.59 41.22C486.03 38.75 485.53 36.5 485.06 34.41H471.43C472.71 38.94 474.02 43.41 475.4 47.82C476.78 52.26 478.09 56.44 479.4 60.41C480.71 64.38 481.96 68.03 483.18 71.38C484.4 74.76 485.52 77.63 486.59 80.07H496.65C498.09 75.66 499.46 71.32 500.77 66.98C502.05 62.64 503.3 58.26 504.46 53.89C505.62 58.3 506.87 62.64 508.27 66.98C509.68 71.32 511.08 75.7 512.52 80.07H522.58C523.64 77.63 524.77 74.76 526.02 71.38C527.27 68 528.55 64.35 529.86 60.41C531.17 56.47 532.48 52.22 533.86 47.82C535.24 43.38 536.55 38.91 537.83 34.41H524.39C523.92 36.5 523.42 38.75 522.86 41.22Z" fill="white"/>
<path d="M575.88 38.32V38.26H575.87C574.34 36.63 572.31 35.37 569.75 34.5C567.22 33.62 564.03 33.19 560.22 33.19C558.72 33.19 557.22 33.25 555.75 33.41C554.28 33.57 552.87 33.72 551.56 33.94C550.22 34.13 549 34.38 547.87 34.63C546.74 34.88 545.81 35.13 545.06 35.38L546.72 45.79C548.28 45.23 550.13 44.76 552.28 44.45C554.4 44.14 556.59 43.98 558.78 43.98C562.09 43.98 564.4 44.67 565.72 45.98C567.06 47.32 567.72 49.07 567.72 51.26V52.48C566.91 52.26 565.84 52.07 564.53 51.92C563.22 51.76 561.75 51.7 560.06 51.7C557.59 51.7 555.18 51.95 552.87 52.45C550.56 52.95 548.49 53.73 546.71 54.86C544.9 55.95 543.49 57.42 542.4 59.3C541.34 61.14 540.78 63.3 540.78 66.08C540.78 68.86 541.25 71.2 542.16 73.11C543.1 75.02 544.41 76.58 546.16 77.77C547.88 78.96 549.97 79.8 552.35 80.33C554.76 80.86 557.41 81.11 560.38 81.11C565.04 81.11 569.04 80.83 572.35 80.3C575.66 79.74 578.23 79.27 580.07 78.86V51.95C580.07 49.11 579.76 46.54 579.13 44.23C578.5 41.92 577.41 39.95 575.88 38.32ZM567.73 70.77L567.7 70.74H567.68C566.99 70.84 566.06 70.94 564.9 71C563.74 71.06 562.52 71.09 561.28 71.09C558.9 71.09 557.03 70.71 555.69 69.93C554.35 69.15 553.66 67.74 553.66 65.71C553.66 64.65 553.91 63.8 554.35 63.12C554.82 62.43 555.44 61.87 556.26 61.46C557.07 61.05 558.01 60.8 559.07 60.65C560.13 60.49 561.29 60.43 562.51 60.43C563.39 60.43 564.32 60.49 565.39 60.62C566.42 60.74 567.2 60.84 567.73 60.96V70.77Z" fill="white"/>
<path d="M617.84 34.41C617.28 36.66 616.59 39.13 615.87 41.75C615.12 44.37 614.37 47.03 613.59 49.72C612.81 52.41 612.03 55.03 611.18 57.6C610.37 60.16 609.59 62.47 608.84 64.54C608.03 62.45 607.18 60.13 606.28 57.6C605.37 55.04 604.5 52.41 603.62 49.72C602.74 47.03 601.9 44.38 601.15 41.75C600.37 39.13 599.68 36.66 599.09 34.41H585.37C587.96 43.38 590.75 51.47 593.71 58.69C596.68 65.91 599.62 72.38 602.55 78.19C601.67 80.38 600.64 82.1 599.39 83.35C598.14 84.6 596.36 85.23 594.05 85.23C592.89 85.23 591.8 85.14 590.74 84.98C589.71 84.79 588.52 84.48 587.18 84.01L584.93 94.35C586.02 94.82 587.43 95.22 589.15 95.6C590.87 95.98 592.71 96.16 594.74 96.16C597.18 96.16 599.3 95.88 601.12 95.35C602.93 94.79 604.59 93.91 606.03 92.76C607.47 91.57 608.81 90.07 610.03 88.23C611.25 86.42 612.47 84.2 613.69 81.61C617.03 74.36 620.16 66.89 623 59.2C625.84 51.51 628.56 43.26 631.19 34.45L631.22 34.42L617.84 34.41Z" fill="white"/>
<path d="M102.28 59.5H102.34L94.0597 23.44C93.3997 20.6 91.5297 18.25 88.8997 17L55.4397 0.94C54.1897 0.35 52.7797 0 51.4097 0C50.0397 0 48.6297 0.34 47.3197 0.94L13.7197 17C11.0597 18.25 9.21973 20.59 8.55973 23.44L0.249732 59.5C-0.410268 62.34 0.249732 65.28 2.08973 67.59L25.3097 96.47C27.0897 98.72 29.8097 100 32.6497 100H69.8697C72.7097 100 75.4297 98.75 77.2097 96.47L100.43 67.59C102.27 65.34 102.96 62.34 102.27 59.5H102.28ZM43.8797 27.76H46.5997C47.3997 27.76 48.0597 27.11 48.0597 26.3V13.43C48.0597 12.63 48.7097 11.97 49.5197 11.97H53.0097C53.8097 11.97 54.4697 12.62 54.4697 13.43V26.31C54.4697 27.11 55.1197 27.77 55.9297 27.77H58.6597C59.7797 27.77 60.4797 28.98 59.9197 29.95L52.5397 42.74C51.9797 43.71 50.5797 43.71 50.0197 42.74L42.6397 29.95C42.0797 28.98 42.7797 27.77 43.8997 27.77L43.8797 27.76ZM29.2497 54.58C28.4497 54.58 27.7897 55.23 27.7897 56.04V58.77C27.7897 59.89 26.5797 60.59 25.6097 60.03L12.8197 52.65C11.8497 52.09 11.8497 50.69 12.8197 50.13L25.6097 42.75C26.5797 42.19 27.7897 42.89 27.7897 44.01V46.73C27.7897 47.53 28.4397 48.19 29.2497 48.19H42.1297C42.9297 48.19 43.5897 48.84 43.5897 49.65V53.14C43.5897 53.94 42.9397 54.6 42.1297 54.6H29.2497V54.58ZM58.6497 75.01H55.9297C55.1297 75.01 54.4697 75.66 54.4697 76.47V89.35C54.4697 90.15 53.8197 90.81 53.0097 90.81H49.5197C48.7197 90.81 48.0597 90.16 48.0597 89.35V76.47C48.0597 75.67 47.4097 75.01 46.5997 75.01H43.8697C42.7497 75.01 42.0497 73.8 42.6097 72.83L49.9897 60.04C50.5497 59.07 51.9497 59.07 52.5097 60.04L59.8897 72.83C60.4497 73.8 59.7497 75.01 58.6297 75.01H58.6497ZM89.7097 52.65L76.9197 60.03C75.9497 60.59 74.7397 59.89 74.7397 58.77V56.05C74.7397 55.25 74.0897 54.59 73.2797 54.59H60.3997C59.5997 54.59 58.9397 53.94 58.9397 53.13V49.64C58.9397 48.84 59.5897 48.18 60.3997 48.18H73.2797C74.0797 48.18 74.7397 47.53 74.7397 46.72V43.99C74.7397 42.87 75.9497 42.17 76.9197 42.73L89.7097 50.11C90.6797 50.67 90.6797 52.07 89.7097 52.63V52.65Z" fill="white"/>
</g>
<defs>
<clipPath id="clip0_10727_40703">
<rect width="631.22" height="100" fill="white"/>
</clipPath>
</defs>
</svg>
